<?xml version="1.0" encoding="utf-8"?>
<!-- Generator: Adobe Illustrator 25.2.3, SVG Export Plug-In . SVG Version: 6.00 Build 0)  -->
<svg version="1.1" id="Layer_1" xmlns="http://www.w3.org/2000/svg" xmlns:xlink="http://www.w3.org/1999/xlink" x="0px" y="0px"
	 viewBox="0 0 570 390" style="enable-background:new 0 0 570 390;" xml:space="preserve">
<style type="text/css">
	.st0{opacity:0.3;}
	.st1{clip-path:url(#SVGID_2_);fill:#F0EFFB;}
	.st2{clip-path:url(#SVGID_2_);fill:#F1F0FB;}
	.st3{clip-path:url(#SVGID_2_);fill:#F2F1FB;}
	.st4{clip-path:url(#SVGID_2_);fill:#F3F2FB;}
	.st5{clip-path:url(#SVGID_2_);fill:#F4F3FC;}
	.st6{clip-path:url(#SVGID_2_);fill:#F5F4FC;}
	.st7{clip-path:url(#SVGID_2_);fill:#F6F5FC;}
	.st8{clip-path:url(#SVGID_2_);fill:#F7F6FD;}
	.st9{clip-path:url(#SVGID_2_);fill:#F8F7FD;}
	.st10{clip-path:url(#SVGID_2_);fill:#F9F8FD;}
	.st11{clip-path:url(#SVGID_2_);fill:#FAF9FD;}
	.st12{clip-path:url(#SVGID_2_);fill:#FAFAFE;}
	.st13{clip-path:url(#SVGID_2_);fill:#FBFBFE;}
	.st14{clip-path:url(#SVGID_2_);fill:#FCFCFE;}
	.st15{clip-path:url(#SVGID_2_);fill:#FDFDFE;}
	.st16{clip-path:url(#SVGID_2_);fill:#FEFEFF;}
	.st17{clip-path:url(#SVGID_2_);fill:#FFFFFF;}
	.st18{fill:#DCE4EF;}
	.st19{fill:#7989AA;}
	.st20{fill:#FD877E;}
	.st21{fill:#FC7669;}
	.st22{fill:#5866D2;}
	.st23{fill:#111431;}
	.st24{fill:#3444C1;}
	.st25{fill:#FC857C;}
	.st26{fill:#FD958F;}
	.st27{fill:#FD8076;}
	.st28{fill:url(#SVGID_3_);}
	.st29{fill:url(#SVGID_4_);}
	.st30{fill:#FB8479;}
	.st31{fill:#5179F7;}
	.st32{fill:url(#SVGID_5_);}
	.st33{fill:url(#SVGID_6_);}
	.st34{fill:url(#SVGID_7_);}
	.st35{fill:#242A67;}
	.st36{fill:url(#SVGID_8_);}
	.st37{fill:url(#SVGID_9_);}
	.st38{fill:url(#SVGID_10_);}
	.st39{fill:url(#SVGID_11_);}
	.st40{fill:url(#SVGID_12_);}
	.st41{fill:#F26F68;}
	.st42{fill:url(#SVGID_13_);}
	.st43{fill:url(#SVGID_14_);}
	.st44{fill:url(#SVGID_15_);}
	.st45{fill:url(#SVGID_16_);}
	.st46{fill:url(#SVGID_17_);}
	.st47{fill:#BFD0F6;}
	.st48{fill:url(#SVGID_18_);}
	.st49{fill:url(#SVGID_19_);}
	.st50{fill:url(#SVGID_20_);}
	.st51{fill:url(#SVGID_21_);}
	.st52{fill:url(#SVGID_22_);}
	.st53{fill:url(#SVGID_23_);}
	.st54{fill:url(#SVGID_24_);}
	.st55{fill:url(#SVGID_25_);}
	.st56{fill:url(#SVGID_26_);}
	.st57{fill:url(#SVGID_27_);}
	.st58{fill:url(#SVGID_28_);}
	.st59{fill:url(#SVGID_29_);}
	.st60{fill:url(#SVGID_30_);}
	.st61{fill:#9A4545;}
	.st62{fill:#823A3A;}
	.st63{fill:url(#SVGID_31_);}
	.st64{fill:url(#SVGID_32_);}
	.st65{fill:url(#SVGID_33_);}
	.st66{fill:url(#SVGID_34_);}
	.st67{fill:url(#SVGID_35_);}
	.st68{fill:url(#SVGID_36_);}
	.st69{fill:url(#SVGID_37_);}
	.st70{fill:url(#SVGID_38_);}
	.st71{fill:#301C33;}
</style>
<g>
	<g class="st0">
		<defs>
			<path id="SVGID_1_" class="st0" d="M123.4,291.7c-1.2-1.8-2.4-3.7-3.5-5.6c-14.7-23.5-27.6-49.5-28.6-76.8
				c-0.3-7.9-0.2-17.3,2.8-24.8c2.2-5.6,6.7-10.7,9.5-16.2c6-11.9,9.6-24.6,13.2-37.3c6.8-23.6,13.7-49.9,36.5-65.2
				c25-16.9,59.4-14,90.2-18.8c32.9-5.1,63.1-19.3,95.3-27.2s70-8.3,95.3,11.4c25.4,19.7,31.2,54,54.7,75.5
				c8.7,7.9,19.2,13.7,29.2,20.1c9.3,6,15.8,12.5,22.1,21c12.6,16.9,16.1,38.2,15.9,58.2c-0.5,43.3-18.3,87.7-54.5,116.1
				c-26.3,20.6-60.4,31.8-94.8,36.7c-34.4,5-69.4,4.3-104.3,3.9c-25.5-0.3-51.1-0.4-76.1-4.6s-49.8-12.5-69.1-27.4
				C143.4,319.9,132.8,306,123.4,291.7z"/>
		</defs>
		<clipPath id="SVGID_2_">
			<use xlink:href="#SVGID_1_"  style="overflow:visible;"/>
		</clipPath>
		<polygon class="st1" points="636.1,25.1 53.4,11.5 636.1,11.5 		"/>
		<polygon class="st2" points="636.1,39.1 33.7,25.1 34.1,11.5 53.4,11.5 636.1,25.1 		"/>
		<polygon class="st3" points="636.1,53.1 33.3,39.1 33.7,25.1 636.1,39.1 		"/>
		<polygon class="st4" points="636.1,67.1 32.9,53.1 33.3,39.1 636.1,53.1 		"/>
		<polygon class="st5" points="636.1,81.1 32.5,67.1 32.9,53.1 636.1,67.1 		"/>
		<polygon class="st6" points="636.1,95.1 32.1,81.1 32.5,67.1 636.1,81.1 		"/>
		<polygon class="st7" points="636.1,109.1 31.7,95.1 32.1,81.1 636.1,95.1 		"/>
		<polygon class="st8" points="636.1,123.1 31.3,109.1 31.7,95.1 636.1,109.1 		"/>
		<polygon class="st9" points="636.1,137.1 30.9,123.1 31.3,109.1 636.1,123.1 		"/>
		<polygon class="st10" points="636.1,151.1 30.5,137 30.9,123.1 636.1,137.1 		"/>
		<polygon class="st11" points="636.1,165.1 30.1,151 30.5,137 636.1,151.1 		"/>
		<polygon class="st12" points="636.1,179.1 29.7,165 30.1,151 636.1,165.1 		"/>
		<polygon class="st13" points="636.1,193.1 29.3,179 29.7,165 636.1,179.1 		"/>
		<polygon class="st14" points="636.1,207.1 28.9,193 29.3,179 636.1,193.1 		"/>
		<polygon class="st15" points="636.1,221.1 28.5,207 28.9,193 636.1,207.1 		"/>
		<polygon class="st16" points="636.1,235.2 28.1,221 28.5,207 636.1,221.1 		"/>
		<polygon class="st17" points="636.1,249.2 27.7,235 28.1,221 636.1,235.2 		"/>
		<polygon class="st17" points="636.1,348.2 635.7,363.6 25.3,363.6 25.3,320 27.7,235 636.1,249.2 		"/>
	</g>
</g>
<g>
	<g>
		<g>
			<path class="st18" d="M74,106.1c1.1-5.1,2.5-10.3,6.1-14.1c3.5-3.8,9.9-5.4,13.9-2.1c4,3.3,3.8,9.3,3,14.3
				c-3.4,21.4-11.5,41.7-18.2,62.2c-3.2,9.9-4.9,20.7-6.7,30.9c-1.9,10.5-2.6,19.7-3.1,30.2c-1.9-2.1-5.3-40.7,0.1-94.3
				C70,124.1,72,115.1,74,106.1z"/>
			<path class="st18" d="M89.6,177.9c4.2-12.4,9.5-25.3,19.9-33.2c4-3.1,9.5-5.3,14.1-3.2c4.1,1.9,6.1,6.9,5.8,11.4
				c-0.2,4.5-2.2,8.7-4.1,12.8c-5,10.5-10,21-15,31.5c-13.1,27.7-26.4,55.6-33.8,85.4c-2.1,8.3-2.9,16.7-4.8,25
				c-3.5-0.8-1.5-19.8-1.4-23.3c0.3-8.7,0.9-17.4,1.8-26.1c1.8-17.5,4.8-34.8,9.1-51.9C83.7,196.8,86.5,187.2,89.6,177.9z"/>
			<path class="st18" d="M55.9,200.6c-4.4-24-14.6-81.9-30.7-82.1c-5.9-0.1-9.4,6.6-10,11.9c-1.3,10.3,2.6,20.5,6.5,30.2
				c6.6,16.5,12,26.7,20.4,45.7c4,9,20.1,45.8,23.9,55.4C67.3,259.2,58,212.1,55.9,200.6z"/>
			<path class="st18" d="M58.6,117.7c-0.2-16.9-0.6-34.4-7.9-49.6c-2.2-4.6-6.1-9.5-11.2-8.9c-3.6,0.4-6.4,3.8-7.2,7.3
				c-0.8,3.6-0.1,7.3,0.7,10.8c3.9,16.3,10.7,30.8,15.7,46.8c6.9,22.2,10.3,43.5,10.3,43.5c0.9-7.5,0-15.7-0.1-23.3
				C58.8,135.6,58.7,126.7,58.6,117.7z"/>
		</g>
		<polygon class="st18" points="88.8,270 67.5,270 50.3,270 47.8,270 47.8,273.8 50.3,273.8 50.3,337.2 54.9,337.2 54.9,337.2 
			86.9,337.2 86.9,273.8 88.8,273.8 		"/>
		<g>
			<polygon class="st19" points="87.4,337.7 50.3,337.7 50.3,336.7 86.4,336.7 86.4,274.3 67.5,274.3 67.5,273.3 87.4,273.3 			"/>
		</g>
		<g>
			<path class="st19" d="M61.3,191.4c-5.3-65-18-113.1-18.2-113.6l0.9-0.3c0.1,0.5,12.8,48.7,18.2,113.8L61.3,191.4z"/>
		</g>
		<g>
			<path class="st19" d="M65.6,261.8c-4.3-25.1-36.8-117.7-37.2-118.6l0.9-0.3c0.3,0.9,32.9,93.6,37.2,118.8L65.6,261.8z"/>
		</g>
		<g>
			<path class="st19" d="M68.1,248.1c-2.5-88.5,14.9-136,15.1-136.5l0.9,0.3c-0.2,0.5-17.5,47.9-15,136.1L68.1,248.1z"/>
		</g>
		<g>
			<path class="st19" d="M76.5,270.1l-1-0.1c0.1-0.6,9.6-64.5,30.6-97l0.8,0.5C86.1,205.7,76.6,269.4,76.5,270.1z"/>
		</g>
	</g>
	<g>
		<g>
			<g>
				<path class="st20" d="M209.6,112.3l8.5,2.8c0,0,3.9-6.1,3.7-9.1c-0.3-2.7-2.4-4.7-6.3-2.9C212.3,104.6,209.6,112.3,209.6,112.3z
					"/>
				<path class="st21" d="M158,128.1c-2.2-7.8,6.2-18.1,15.8-11.9c8.8,5.7,18,15.9,18,15.9s17.2-23.6,19-23.2
					c1.1,0.2,8.7,6.7,8.7,6.7s-4.5,22.9-14.8,32.6C185.3,166.7,160.8,138.4,158,128.1z"/>
				<path class="st20" d="M172.7,324c-0.1-0.3,10.7-4.8,10.7-4.8s0.5,18.4,4,23l-9.2,2.4C178.2,344.6,174.9,328.7,172.7,324z"/>
				<path class="st22" d="M142.2,184.5c1.7,0,33.1-4.2,33.1-4.2l12.3,149.5c0,0-1,1.6-7,2.6c-3,0.5-7.5,0-7.5,0L142.2,184.5z"/>
				<path class="st23" d="M177.4,351.2h28.8c0,0,1.3-0.8,0.6-2.2c-1.2-2.2-5.1-2.4-11-4.7c-7.6-3-9.3-8.7-10.5-8
					c-2.1,1.2,0,6.2-4.2,6.2c-3.4,0-3-3.4-4.1-2.8C176.5,340.1,176.2,347.7,177.4,351.2z"/>
				<path class="st20" d="M128.2,324c0.1-0.3-10.7-4.8-10.7-4.8s-0.5,18.4-4,23l9.2,2.4C122.6,344.6,125.9,328.7,128.2,324z"/>
				<path class="st23" d="M123.5,351.2H94.7c0,0-1.3-0.8-0.6-2.2c1.2-2.2,5.1-2.4,11-4.7c7.6-3,9.3-8.7,10.5-8
					c2.1,1.2,0,6.2,4.2,6.2c3.4,0,3-3.4,4.1-2.8C124.4,340.1,124.6,347.7,123.5,351.2z"/>
				<path class="st24" d="M119.6,179.7c2.7-2.2,29.3,3.9,29.3,3.9s0.4,5.7,0.6,15.9c0.1,5.2-0.1,19-0.1,19
					c-7.9,43.6-20.5,112.5-21.5,113.2c-1.2,0.9-3.7,1-7.8,0.7c-3.1-0.3-5.2-2.2-5.2-2.2S114.9,183.6,119.6,179.7z"/>
				<path class="st25" d="M117.1,186.3c0,0,16.6,5.3,32.2,4.4c20.3-1.2,27.7-5.8,27.7-5.8s0.5-37.5,0-52.4
					c-0.5-14.9-4.3-17.1-4.3-17.1s-15.8-12.7-27.7-10c-11.9,2.6-31.3,9.3-33.5,17c-2.2,7.5,0.9,32.9,1.4,33.4
					C113.5,156.4,117.1,186.3,117.1,186.3z"/>
				<path class="st26" d="M131.6,89.7c0,0-1.7-10.4,3.9-13.7c7.6-4.4,16.7,1,18.2,14.3c1.1,9.8-6.2,9.3-6.2,9.3s1.8,5.6,7.3,6.3
					c0,0-2,4.7-7.5,6.2c-8.6,2.4-13.3-3.2-13.6-3.6c-0.2-0.3,3.6-0.3,3.2-6C136.5,96.8,131.6,89.7,131.6,89.7z"/>
				<path class="st27" d="M117.1,186.3c0,0,19.9,3.9,31,3.5c16.9-0.6,28.9-4.9,28.9-4.9l-0.7,3.5c0,0-13.2,4.2-29.5,4.3
					c-16.3,0.1-28.9-3.5-28.9-3.5L117.1,186.3z"/>
				
					<linearGradient id="SVGID_3_" gradientUnits="userSpaceOnUse" x1="-1841.4779" y1="-145.2902" x2="-1866.2017" y2="-211.3625" gradientTransform="matrix(-0.8735 0.4868 0.4868 0.8735 -1423.2628 1281.5376)">
					<stop  offset="0" style="stop-color:#FF928E"/>
					<stop  offset="1" style="stop-color:#FEB3B1"/>
				</linearGradient>
				<path class="st28" d="M111.6,205.9c0,0,2.1,3.7,2,6.6c-0.2,2.8,0.6,7.3-0.9,5.6c-1.4-1.6-0.2-0.3-0.2-0.3s0.7,9.8-2.3,8.6
					c-3-1.1-7.8-4-8.4-11.8c-0.6-7.9,1-10.4,1-10.4L111.6,205.9z"/>
				<path class="st21" d="M118,115.6c-9.6,2.2-19.6,21.3-21,37.5c-1.4,16.2-1.3,19.2-1.3,19.2s4.2,31.4,5.9,33.5
					c1.7,2.1,11.4,0,11.4,0s2.1-30.6,1.1-36.8c-1-6.1,7.6-22.8,8.8-25.5c1.2-3,1.7-4.8,2.7-11.6C126.6,125.1,121.8,114.7,118,115.6z
					"/>
				<linearGradient id="SVGID_4_" gradientUnits="userSpaceOnUse" x1="124.896" y1="83.9078" x2="157.8401" y2="83.9078">
					<stop  offset="0" style="stop-color:#09005D"/>
					<stop  offset="1" style="stop-color:#1A0F91"/>
				</linearGradient>
				<path class="st29" d="M157.7,93.8c-1.5-3.3-4.3-5.3-4.3-5.3s-4.1,2.8-5.8,2.5c-1.7-0.3-3.8-3.3-3.8-3.3
					c-0.5-0.9-1.9-3.8-1.3-4.6c0.6-0.8,5.4-4.3,6.8-5.9c2.5-2.8-0.3-9.4-3.7-10.1c-5.7-1.2-16.8,5.8-18.9,8.7
					c-1.7,2.3-3.1,5.7,0,12.8c3.6,8.4,6.3,12.3,9.9,12.1c1.8-0.1,3-7,3-7s-3-1.5-3.3-4.4c-0.3-3,1-3.5,2.5-3.6
					c1.6,0,2.1,1.9,2.6,2.8l0,0c0,0,3.5,10.3,6.1,10.9C150.6,100.3,159,96.6,157.7,93.8z"/>
			</g>
		</g>
		<g>
			<path class="st20" d="M255.6,140.5c0,0.6,6.6,8.7,6.9,24.8c0.3,16.1-7.7,13.3-11.6,10.2c-3.9-3-9.3-28.1-9.3-28.1L255.6,140.5z"
				/>
			<path class="st30" d="M204,306.4c0,0-3.8,20.9,0.1,28.1c3.9,7.2,10.2,8.4,10.2,8.4s-3.3,2.2-8.3,2.5c-5,0.3-12.5-0.3-13-2.2
				c-0.6-1.9,0.6-6.1,0-13.3c-0.6-7.2-4.7-21.9-4.2-25.2C189.4,301.4,204,306.4,204,306.4z"/>
			<path class="st30" d="M227.6,305.7l-11.8,0c-1.5,10.1,5.4,27.1,3.7,34.8c-1.7,7.7,16.3,2.2,16.3,2.2l0.7-3.3
				c0,0-6.6-3.1-7.5-11.6c-0.5-4.8,0.9-20,1.7-21.7C231.5,304.4,227.6,305.7,227.6,305.7z"/>
			<path class="st21" d="M244.4,201.2c0,0-31.5,6.9-32.1,8.6c-0.6,1.7-0.2,52.9-0.2,52.9s3.5,67.3,5.2,69c2.6,2.7,14.1,2.1,15.3,0.4
				c1.1-1.7,6.4-56.7,7.2-60.8c0.8-4.2,1.4-13.3,3.2-30.5C244.2,228.3,244.4,201.2,244.4,201.2z"/>
			<path class="st25" d="M222,204l-36-4.2c0,0-2.4,25.8-1.1,43.5c1.3,17.5,1.9,24.8,1.1,33.1c-0.8,8.3,2.4,55.4,3.6,56
				c2.8,1.5,4.1,1.5,9.1,1.5c5.4,0,7.9-1.3,7.9-1.3s-0.2-33.8,2.1-47.9c2.2-13.2,7.9-32.6,9.3-40.2C223.3,214,222,204,222,204z"/>
			<path class="st26" d="M192.4,154.2l-16.6-5c0,0-4.5,26.2-4.8,31.5c-0.2,5.3-0.9,36.6-0.3,40.3c0.5,2.8,3.3,5.8,5.3-1.4
				c1.9-7.3,4.2-19.3,5.4-27.9c0.7-4.7,3.6-16.9,6-23.3C189.8,161.9,192.4,154.2,192.4,154.2z"/>
			<path class="st31" d="M260.4,147.9l-17.8,6.5c0,0,3,31.1,3.2,54.9c0,0-7.9,1.5-24.6,1.6c-23.5,0-37.6-5.7-37.6-5.7
				c4.2-19.5,7.2-47.2,6.7-48c-0.7-1-16.6-3.4-16.3-4.8c2.4-14.8,7.1-21.1,12.1-27.2c4.2-5.2,22-10.1,25.3-10.5
				c10.8-1.3,19.6,1.2,19.6,1.2s4.4,0.8,10.5,4.5C251.1,126,258.2,141,260.4,147.9z"/>
			<path class="st26" d="M275.5,138.6c3.1-2.4,6.4-3,3.7,6.4c-4.1,14.2-13.5,29.5-18.8,32.1c-3.5,1.7-9.9,2.5-10.7-4.1
				C248.4,163.1,267.9,144.7,275.5,138.6z"/>
			<linearGradient id="SVGID_5_" gradientUnits="userSpaceOnUse" x1="231.6369" y1="147.5002" x2="231.6369" y2="85.4533">
				<stop  offset="0" style="stop-color:#09005D"/>
				<stop  offset="1" style="stop-color:#1A0F91"/>
			</linearGradient>
			<path class="st32" d="M242.1,131.2c0.4-1,0.9-2,1-3.1c0.1-2.4-2-4.1-3.2-6.1c-2.1-3.6-0.2-6.8,0.4-10.5c0.4-2.3,0.3-4.5-0.7-6.7
				c-1.3-2.8-2.5-5-2.7-8.1c-0.1-2-3.1-8.8-4-10.7c-0.9-1.9,0.2,1.2-2.1,0.6c-2.3-0.6-3,0.3-3.8,2c-2.7,5.2-6,9.3-6.1,14.9
				c0,0.1-0.5,2.8-0.4,2.9c-1.3,3.9,4.1,7.6,4.8,11.6c0.3,1.8,0.5,3.7-0.1,5.4c-0.4,1.3-1.3,2.5-1.9,3.8c-0.9,2-0.6,4,0,6.1
				c0.8,2.9,1.8,5.3,0.8,8.3c-0.5,1.5-0.8,3.4-1.2,5.2c-0.1,0.6,4.8,0.7,6.7,0.7c1.8,0,4.6,0,6.4-0.1c1.4-0.1,3.6,0,4.9-0.2
				c1.5-0.2,1.5-0.4,1.6-1.5c0.1-3-1-7.1-1.1-10.1C241.3,134.1,241.6,132.7,242.1,131.2z"/>
			<path class="st0" d="M228.9,99.2C228.9,99.2,228.8,99.2,228.9,99.2c-3.3,2.2-6.8,2.8-8.7,5.9c0,0-1.2,2,0.6,5.6
				c1.9,4.5,3.7,3.5,4.5,7.5c0.3,1.7,0.5,3.6-0.1,5.4c1.2-1.1,2.4-2.3,3.4-3.6c1.4-2,1-4.1,1.6-6.3c0.7-2.5,2.4-4.6,3-7.2
				c0.6-2.3-3-4.7-3.4-7C229.7,98.8,229.1,98.9,228.9,99.2z"/>
			<path class="st23" d="M236.5,339.4c0,0,16.5,5.8,17,7.3c0.6,1.5-1,3.1-4.6,3.4c-3.6,0.3-28.6-1.7-30.9-3
				c-1.3-0.8,0.9-8.9,1.7-8.6c1.2,0.5-0.8,3.1,5.7,3.3c6.5,0.3,8.3,0.6,10.1-1.5C237.1,338.7,236.5,339.4,236.5,339.4z"/>
			<linearGradient id="SVGID_6_" gradientUnits="userSpaceOnUse" x1="208.2401" y1="103.2819" x2="229.7359" y2="103.2819">
				<stop  offset="0" style="stop-color:#FF928E"/>
				<stop  offset="1" style="stop-color:#FEB3B1"/>
			</linearGradient>
			<path class="st33" d="M227.6,87.5c0.7,0.2,2.7,5.9,2,10.8c-0.5,4.4-3.4,7-6.9,7.1c-2.3,0.1-1.9,8.9,4.6,9.6c0,0-1.1,3.6-6.5,5.1
				c-7.1,2-14.4-3.5-12.1-5c2.8-1.8,2.5-6.4,2.5-6.4c0.1,0,2.7,0.1,2.7,0.1c0.6-0.5-0.4-7.9-2.9-10.8c-3.5-4,5-12,5-12
				C216.7,86,226.9,87.3,227.6,87.5z"/>
			<path class="st23" d="M209.6,340.5c0,0,16.5,5.8,17,7.3c0.6,1.5-1,3.1-4.6,3.4c-3.6,0.3-28.6-1.7-30.9-3
				c-1.3-0.8,0.9-8.9,1.7-8.6c1.2,0.5-0.8,3.1,5.7,3.3c6.5,0.3,8.3,0.6,10.1-1.5C210.2,339.8,209.6,340.5,209.6,340.5z"/>
			<linearGradient id="SVGID_7_" gradientUnits="userSpaceOnUse" x1="193.8062" y1="112.4869" x2="233.3677" y2="112.4869">
				<stop  offset="0" style="stop-color:#09005D"/>
				<stop  offset="1" style="stop-color:#1A0F91"/>
			</linearGradient>
			<path class="st34" d="M231,83c-2.4-2.9-5.6-5.1-10.9-5.1c-4.9,0-8.1,1.5-10.7,4.1c-1.2,1.3-2,2.7-2.6,4.3c0,0,0,0-0.1,0.1
				c-2.5,5-2,11.7-4.6,16.6c-2.4,4.5-4.5,7.8-4.5,12.8c0,5.4,1.6,10.8,0.2,16.2c-1.2,4.7-3.8,8.9-4.1,13.8c0,0.5,0.5,1,1.1,1
				c5.1,0.1,10.2,0.1,15.3,0.2c0.6,0,1.1-0.4,1.1-1c0.3-3.6,0.4-6.6,2.2-9.9c1-1.9,1.4-3.6,1.6-5.7c0.6-5.4-1.6-10-0.1-15.5
				c1.8-6.5,0.8-14.2-2.4-20.7c1.5-0.8,3-1.7,4.3-2.8c2-1.5,2.8-2.5,3.4-4.8c4.3,0.5,5.9,1,7.6,2.7c2.5,2.5,1.2,6,4.2,7.7
				c0.4,0.2,0.6-2.1,0.6-2.6C233.7,90.6,233.7,86.2,231,83z"/>
			<path class="st26" d="M176.7,216.7c0,0,1.5,2.7,1.5,4.8c-0.2,2,0.4,5.3-0.6,4c-1-1.1-0.1-0.2-0.1-0.2s0.5,7.1-1.7,6.2
				c-2.2-0.8-5.7-2.9-6.1-8.5c-0.4-5.7,0.7-7.5,0.7-7.5L176.7,216.7z"/>
			<path class="st26" d="M272.6,142.5c0,0,0.1-3.1,1.3-4.8c1.2-1.6,2.5-4.7,2.7-3.1c0.2,1.5,0,0.3,0,0.3s3.4-6.2,4.8-4.3
				c1.4,1.9,3.2,5.5,0.5,10.5s-4.6,5.9-4.6,5.9L272.6,142.5z"/>
		</g>
		<g>
			<path class="st26" d="M266.2,146.6l-3.5,8.3c0,0-7.2-1-9.3-3.2c-1.8-1.9-2-4.9,1.9-6.7C258.7,143.7,266.2,146.6,266.2,146.6z"/>
			<path class="st24" d="M312.9,119.9c-10.2,12.7-18.2,25.5-18.2,25.5l-31.8-0.8l-2.4,13.5c0,0,35.9,15.3,45.7,11.7
				c3.9-1.4,14.3-8.1,23.9-22.7c9.5-14.5,8.3-21.9,2.7-29.1C327.4,111.1,318,113.4,312.9,119.9z"/>
			<path class="st23" d="M342.2,337.7c1.2,1.3,2.8,11.7,1,12.2c-5,1.4-36.6,2.6-36.6,2.6s-2.2-4.9,3.1-4.9c5.3,0,15.7-7.9,19.2-10.4
				C331.7,335.1,341,336.4,342.2,337.7z"/>
			<path class="st23" d="M376.5,337.6c0,0-7.1-1.3-11.2-0.3c-2.3,0.6-8.9,8.2-19.4,9.6c-8.9,1.1-3.4,5.3-3.4,5.3l34.6-1.7
				C377.2,350.5,379.4,346.1,376.5,337.6z"/>
			<path class="st30" d="M341.9,323.1c0,0-1.7,11,0,14.6c1.7,3.7-13.8,0-13.8,0s8-5.9,4.8-14.6C329.7,314.4,341.9,323.1,341.9,323.1
				z"/>
			<path class="st23" d="M348.9,187.7l-35.6-5.2c0,0,3.2,39,5.2,51.3c2.1,12.4,6.9,35,8.4,43.9c1.5,8.8,3.7,47.8,2.4,50
				c-1.3,2.2,5.4,2.9,8.6,2.4c3.2-0.5,6.9-2.6,6.9-2.6s4.5-35.6,2.4-50.8c-2.1-15.2,1.5-33.9,1.5-33.9V187.7z"/>
			<path class="st30" d="M375.1,323.1h-9.8c0,0,1.6,10-2,15.5c-1.1,1.6,9.4,3.1,11.1,2.8c2.5-0.5,2.1-2.8,2.1-2.8
				S374,329.8,375.1,323.1z"/>
			<path class="st35" d="M374.6,182.4c-0.7,0.7-39.7,2.8-39.8,2.8c-0.1,0,6.3,45.4,12.5,60c6.2,14.6,6.7,25.7,9.6,38.6
				s5.4,39.5,5.4,42.2c0,2.6-0.2,3.9-0.2,3.9s13.9,0.6,15.4-0.7c1.5-1.3,5.2-30.9,2.1-53c-3.2-22.1-0.3-21.9-0.7-44
				c-0.4-22.1,0-45.5,0-45.5L374.6,182.4z"/>
			<path class="st31" d="M336.4,206.4c-15.4-0.5-20.4-4.3-23.9-5.4c-2-14.6-6.1-73.8,1.5-83.4c5.1-6.4,15.7-10.4,19.8-11.5l12.1-4.5
				l10,4c7,0,18.7,6.7,23.9,13.5c4.9,6.4,1.2,71.7,1,81.9C369.8,204.4,351.9,206.9,336.4,206.4z"/>
			<path class="st26" d="M355.7,79.4c0,0-1.1-6.7-5.9-8.3c-4.8-1.6-9-1.3-11.6,1.6c-2.6,2.9-5.2,10-5.4,13.3
				c-0.2,3.3,0,8.7,2.6,10.7c2.6,2,3.9,1.9,4.4,1.9c0.5,0-0.6,5.6-5,7.3c-1.5,0.6,2.5,5.2,6.9,5.6c4.4,0.5,13.6-2.6,14-5.4
				c0.1-1.1-5.6-4.3-2.2-16.2C356,80.9,355.7,79.4,355.7,79.4z"/>
			<linearGradient id="SVGID_8_" gradientUnits="userSpaceOnUse" x1="331.9431" y1="78.9864" x2="360.6157" y2="78.9864">
				<stop  offset="0" style="stop-color:#09005D"/>
				<stop  offset="1" style="stop-color:#1A0F91"/>
			</linearGradient>
			<path class="st36" d="M344.9,79.7c-1.3,2.4-1.7,4.7-1.1,5.2c0.6,0.5,2,1.3,2.5,0.2c0.5-1.1,0.5-3,2.4-3.3
				c1.3-0.2,3.1,0.5,3.5,1.7c0.3,1-0.9,4.4-1.5,5.3c-0.6,0.8-0.9,1.4-0.9,1.4s1.8,5.2,3.7,5.2c2-0.1,5.9-11.9,6.7-16.8
				c0.7-4.9,0.7-6.6-1.9-9.5c-1.6-1.8-8.2-6.6-15.7-6.6c-7.6,0-10,3.7-10.4,5.8c-0.5,2.9,0,5.3,2.2,6.7c2.2,1.4,5.1,2.2,6.9,1.4
				C344.3,75.3,346.4,76.8,344.9,79.7z"/>
			<path class="st26" d="M366.2,206c1.8-3.4,4.2-6.4,4.2-6.4l9.1,5.7c0,0-3,5.3-6,8.7C370.1,212.4,367.4,209.7,366.2,206z"/>
			<path class="st22" d="M376.1,116.4c9.6,1.2,19.7,22.3,22,48.1c2.3,25.8-21.3,46.2-21.3,46.2l-10.7-6.7c0,0,4.1-21.1,10.8-36.3
				c0,0-4.8-8.4-9.7-24.5C362.2,127.2,367.9,115.4,376.1,116.4z"/>
		</g>
		<g>
			
				<linearGradient id="SVGID_9_" gradientUnits="userSpaceOnUse" x1="340.2274" y1="78.2336" x2="260.7414" y2="199.9112" gradientTransform="matrix(-0.9838 -0.1791 -0.1791 0.9838 614.6742 55.4932)">
				<stop  offset="0" style="stop-color:#2B3582"/>
				<stop  offset="1" style="stop-color:#150E42"/>
			</linearGradient>
			<path class="st37" d="M281.7,76.9c1.4-0.1,2.7-0.1,4.1-0.1c5.4,0.2,10.6,4.8,14,8.8c5.1,5.9,7.9,13.4,9.3,21
				c2.4,12.9,12.2,15.7,18.2,26.9c12,22.5-10.1,41.5-42.6,35.8c-3.3-0.6-24.7-7.3-17.4-22c2.3-4.6,3.1-10.1,3.7-15.2
				c0.9-6.8,1.2-13.7,1.4-20.5c0.2-6.4,0.1-12.9,0-19.3c-0.1-2.1-0.1-4.3-0.2-6.4c-0.1-2.1-0.6-4.2,1.1-5.8c1.6-1.5,3.7-2.5,5.9-3
				C280,77.1,280.8,77,281.7,76.9z"/>
			<path class="st23" d="M268.2,346.2c-0.3-0.3-0.8-0.1-0.9,0.2c-0.5,1.6-0.1,3.4-0.8,4.9c-0.4,1-1.1,1.7-1.4,2.8
				c-0.1,0.4,0.2,0.6,0.5,0.7c0,0.1-0.1,0.2-0.1,0.3c-0.3,0-0.7,0.1-0.7,0.5c0,0.5-0.1,1-0.3,1.4c0,0-0.1,0.1-0.1,0.1
				c-1,1.4-3.3,1.4-4.9,1.5c-0.3,0-0.5,0.2-0.6,0.6c0,0,0,0.1,0,0.1c-0.6-0.5-1.2-1.2-1.1-2c0-0.7-1.1-0.7-1.1,0
				c-0.1,5.2,6,4.8,8.8,1.8c1.7-1.8,1.7-4.6,2.7-6.8C269.1,350.6,269.8,347.8,268.2,346.2z"/>
			<g>
				<linearGradient id="SVGID_10_" gradientUnits="userSpaceOnUse" x1="257.3661" y1="322.5121" x2="272.7898" y2="322.5121">
					<stop  offset="0" style="stop-color:#FF928E"/>
					<stop  offset="1" style="stop-color:#FEB3B1"/>
				</linearGradient>
				<path class="st38" d="M271.7,285.3c-3.6-0.8-8.2,0.8-11.5,1.8c-0.5,0.1-0.8,0.6-0.8,1c-0.1,0.2-0.2,0.4-0.2,0.7
					c0.3,11.7,1,23.5,2.2,35.2c0.3,2.8,0.6,5.7,0.9,8.5c0,0.3,0.1,0.8,0.1,1.2c0,0,0,0,0,0c0,0,0,0,0,0c0,0.8,0,1.8,0.1,2.6
					c0,6.7-2.7,12.9-4.5,19.3c-0.3,1.2-1.1,3.2,0.2,4.1c1.2,0.8,4.2-0.1,5.3-0.7c2.6-1.3,1.4-3.3,2.6-5.6c0.6-1.1,1.4-1.9,1.8-3.1
					c0.4-1.1,0.4-2.3,0.5-3.4c0.1-1.7-0.1-3.8-0.1-5.5c0-0.6,0.1-1.7,0.2-3c0.2-1.1,0.3-2.1,0.4-3.2c0-0.1,0-0.2,0.1-0.3
					c0-0.1,0-0.2,0-0.2c0.9-7.6,1.4-15.2,2-22.8c0.4-4.9,0.8-9.8,1.2-14.8c0.3-3.5,1.2-7.6,0.4-11
					C272.4,285.7,272.1,285.4,271.7,285.3z"/>
				<linearGradient id="SVGID_11_" gradientUnits="userSpaceOnUse" x1="292.8625" y1="324.8667" x2="319.0517" y2="324.8667">
					<stop  offset="0" style="stop-color:#FF928E"/>
					<stop  offset="1" style="stop-color:#FEB3B1"/>
				</linearGradient>
				<path class="st39" d="M318.1,356.5c-2.8-6-6.4-11.8-7.5-18.3c0-0.9-0.2-1.8-0.3-2.6c0,0,0,0,0,0c0,0,0,0,0,0
					c-0.1-0.5-0.1-0.9-0.1-1.2c-0.1-2.8-0.3-5.7-0.4-8.5c-0.7-11.7-1.8-23.4-3.3-35.1c0-0.3-0.2-0.5-0.3-0.6
					c-0.1-0.4-0.4-0.8-0.9-0.8c-3.5-0.4-8.3-1.3-11.7,0c-0.3,0.1-0.6,0.5-0.6,0.9c-0.2,3.5,1.3,7.4,2.1,10.8
					c1.1,4.8,2.3,9.6,3.4,14.4c1.8,7.4,3.4,14.9,5.5,22.3c0,0.1,0,0.1,0,0.2c0,0.1,0.1,0.2,0.1,0.3c0.3,1,0.6,2.1,0.9,3.1
					c0.3,1.2,0.5,2.3,0.7,2.9c0.3,1.7,0.4,3.8,0.8,5.5c0.2,1.1,0.5,2.3,1,3.3c0.6,1.1,1.5,1.8,2.2,2.8c1.6,2,0.7,4.2,3.4,5.1
					c1.2,0.4,4.3,0.8,5.4-0.1C319.7,359.5,318.6,357.6,318.1,356.5z"/>
			</g>
			<path class="st21" d="M320.3,273.9c-3.1-14.3-5.7-23.3-7.9-37.8c-3.7-24.2-3.5-31.4-12.1-54.6c4.9-1.1,9.3-3.2,11.8-8
				c1.9-3.6,1.8-8.2,2.2-12.2c0.5-5.6,1.2-11.4,0.9-17c-0.6-9.2-6.1-14.7-12.4-20.9c-3.1-3.1-9.2-6.1-13.6-6.6
				c-17.4-2-26.9,3.2-33.9,8.8c-6,4.7-8.4,10.5-9.9,17.9c-1.8,8.9-3.4,18.2-4,27.2c-0.4,6.1,1.8,12.6,8,13.6
				c3.9,0.6,7.1,0.1,9.3-0.7c-9.4,35.7-13.5,48.7-14.8,85.5c-0.2,5.2-0.4,10.4-0.5,15.6c-0.1,2.7-0.3,5.2,1.5,7.5
				c4.1,5.2,13.1,6.5,19.2,6.8c8.9,0.4,17.5-2.8,26.3-3.2c20.5-1,28.5-7.3,30.4-9.8C323.3,282.4,321.1,277.7,320.3,273.9z"/>
			<path class="st23" d="M267.6,351.3c0.6-1,1.3-0.7,1.5-1.8c0.1-0.7,0-2.7-0.2-3.6c-0.1-0.5-0.4-1.6-0.5-1
				c-0.2,1.4-1.2,5.6-3.1,5.4c-1.7-0.6-3.9-0.6-5.5-0.3c-0.2-0.1-0.5-0.1-0.7,0.2c-0.9,2.2-2.2,4.9-2.3,7.3c0,1.7,1.4,2.8,3,3
				c4.4,0.5,6.8-3.9,7.4-7.6C267.3,352.3,267.5,351.8,267.6,351.3z"/>
			<path class="st23" d="M305.8,346.8c0.1-0.4,0-0.8,0.2-0.4c0.7,1.5,1.8,5.3,2.7,6.7c0.5,0.9,1.3,1.6,1.7,2.6
				c0.2,0.4-0.1,0.6-0.4,0.7c0,0.1,0.1,0.2,0.1,0.3c0.3-0.1,0.7,0,0.7,0.4c0.1,0.5,0.3,0.9,0.5,1.4c0,0,0.1,0.1,0.1,0.1
				c1.1,1.3,3.5,1,5,0.9c0.3,0,0.6,0.2,0.6,0.5c0,0,0,0.1,0,0.1c0.6-0.6,1-1.4,0.9-2.1c-0.1-0.7,1-0.8,1.1-0.1
				c0.7,5.1-5.4,5.5-8.6,2.9c-1.9-1.6-2.3-4.4-3.5-6.4C306.1,352.6,305.2,349.6,305.8,346.8z"/>
			<path class="st23" d="M307.7,353.2c-0.7-0.9-1.4-0.6-1.7-1.6c-0.2-0.7-0.3-2.7-0.2-3.6c0.1-0.5,0.2-1.6,0.4-1.1
				c0.4,1.3,1.8,5.4,3.8,5c1.6-0.8,3.8-1,5.4-1c0.2-0.1,0.5-0.2,0.7,0.1c1.2,2,2.8,4.6,3.1,6.9c0.2,1.7-1.1,2.9-2.6,3.3
				c-4.3,1-7.2-3.1-8.2-6.7C308.1,354.2,307.9,353.7,307.7,353.2z"/>
			<linearGradient id="SVGID_12_" gradientUnits="userSpaceOnUse" x1="271.6239" y1="169.2053" x2="305.4047" y2="169.2053">
				<stop  offset="0" style="stop-color:#FF928E"/>
				<stop  offset="1" style="stop-color:#FEB3B1"/>
			</linearGradient>
			<path class="st40" d="M304.9,170.8c-0.5-1.9-1.3-3.5-2.5-5c0,0,0,0,0,0c0,0-0.1-0.1-0.1-0.1c0,0,0,0,0,0c0,0,0,0,0,0
				c-2.2-1.1-4.5-2.5-6.8-3.2c-2.1-0.7-3.9,0.3-5.9,1c-5.7,2.1-11.5,3.9-17.4,5.6c-0.4,0.1-0.5,0.6-0.2,0.9c0,1.4-0.1,4.3,1.1,5.3
				c0.9,0.8,1.7,0.2,2.8-0.2c5-1.9,9.9-4,14.8-6.3c0.3,0.3,0.7,1,0.9,1.2c0.3,0.2,0.7,0.3,1.1,0.4c1.4,0.2,3,0,4.5-0.2
				c0,0,0.1,0,0.1,0c1.4-0.1,2.4,0.4,3.2,1.5c0.4,0.6,0.8,1.4,1.1,2.1c0.4,0.8,0.9,2.6,1.9,2.5c0.4,0,0.6-0.3,0.5-0.7
				c-0.1-0.3-0.1-0.7-0.2-1.1c0.2,0,0.3-0.1,0.4-0.2c0.2,0.3,0.5,0.4,0.9,0.2C305.9,173.8,305.1,171.6,304.9,170.8z"/>
			<path class="st41" d="M273.5,177.4c-1.3,1.3-3.4,0.9-4.6,2.2c-0.9,1-1.3,2.2-2.8,2.6c-1.4,0.4-3.3,0.2-4.7,0.2
				c-0.7,0-0.7,1.1,0,1.1c2.1-0.1,5.7,0.5,7.3-1.3c1.1-1.2,1-2.1,2.8-2.7c1.1-0.3,1.9-0.5,2.7-1.4
				C274.8,177.7,274,176.9,273.5,177.4z"/>
			<path class="st41" d="M297.4,180.5c-3.9-0.1-7.8-0.1-11.7-0.5c-2.1-0.2-3.2-1.4-4.9-2.3c-1.3-0.7-2.8-1-4.3-1.4
				c-0.7-0.2-1,0.9-0.3,1.1c2,0.5,3.7,1,5.4,2.2c1.1,0.7,1.9,1.2,3.2,1.4c4,0.7,8.4,0.4,12.5,0.5
				C298.1,181.7,298.1,180.6,297.4,180.5z"/>
			<linearGradient id="SVGID_13_" gradientUnits="userSpaceOnUse" x1="250.4228" y1="162.643" x2="264.0866" y2="162.643">
				<stop  offset="0" style="stop-color:#FF928E"/>
				<stop  offset="1" style="stop-color:#FEB3B1"/>
			</linearGradient>
			<path class="st42" d="M262.9,163.4c-0.4-0.5-0.8-1-1.2-1.5c-0.6-0.9-1.8-2.1-2.3-2.3c-1.5-0.8-3-1.8-4.9-1.6
				c-1.1,0.1-3.7,0.4-4.1,1.8c-0.1,0.2,0,0.4,0.1,0.5c0.5,0.5,0.9,0.3,1.6,0.2c0.8-0.1,1.6-0.3,2.3-0.3c-1.5,0.8-2.8,1.9-3.5,3.4
				c-0.2,0.5,0.1,0.9,0.6,0.8c0.9-0.1,1.5-0.7,2.2-1.2c-0.7,0.8-1.6,1.8-1.2,2.9c0.1,0.2,0.2,0.3,0.4,0.4c0.9,0.2,1.8-0.4,2.7-1.2
				c-0.2,0.6-0.3,1.2,0,1.6c0.8,1.1,2.4-0.4,3-0.8c0.3-0.2,2.9,0.4,3.9,0.8c0.7,0.2,1.4,0.1,1.5-0.7
				C264.2,165.3,263.4,164.1,262.9,163.4z"/>
			<path class="st41" d="M276.2,176.4c-1.9-0.1-7.6,5.3-9.3,5.8c-0.7,0.9-3.8,0-5.3,0.3c-1.8,0.3-1.1,0.6-2.9,1.1
				c-1.8,7-3.8,15.4-5.2,22.2l0-0.1c2.2-0.1,4.3-0.7,6.2-2.5c3.5-3.4,4.2-9.1,8.3-12c2.1-1.5,14.5-3.2,17.7-10.9
				C281.9,180.2,279.9,176.7,276.2,176.4z"/>
			<linearGradient id="SVGID_14_" gradientUnits="userSpaceOnUse" x1="270.3959" y1="104.5686" x2="295.2054" y2="104.5686">
				<stop  offset="0" style="stop-color:#FF928E"/>
				<stop  offset="1" style="stop-color:#FEB3B1"/>
			</linearGradient>
			<path class="st43" d="M281.6,85.6c7.5-0.3,12.5,5.5,9.4,12.4c-2.9,6.5-1.2,18,3.9,20.4c1.6,0.7-5.4,6.7-16.2,4.7
				c-6.4-1.2-7.4-5.6-7.4-5.6s5.8-0.2,6.5-4.9c0.2-1-4.1,2.2-6.7-7.3C269,97.6,271.5,86,281.6,85.6z"/>
			
				<linearGradient id="SVGID_15_" gradientUnits="userSpaceOnUse" x1="-4385.313" y1="1849.2285" x2="-4353.3916" y2="1870.9108" gradientTransform="matrix(0.8346 -0.5508 0.5508 0.8346 2910.1328 -3860.311)">
				<stop  offset="0" style="stop-color:#FF928E"/>
				<stop  offset="1" style="stop-color:#FEB3B1"/>
			</linearGradient>
			<path class="st44" d="M273,86.3c0,0-4,5.9-2.5,16.3c1.5,10.4,6.7,12.2,10.5,10.4c3.8-1.8,9-5.3,11.2-14.1
				C294.4,90.2,278.3,78.9,273,86.3z"/>
			
				<linearGradient id="SVGID_16_" gradientUnits="userSpaceOnUse" x1="1120.4437" y1="-711.5322" x2="1031.0413" y2="-574.6744" gradientTransform="matrix(-0.9554 0.2955 0.2955 0.9554 1545.0518 422.1735)">
				<stop  offset="0" style="stop-color:#2B3582"/>
				<stop  offset="1" style="stop-color:#150E42"/>
			</linearGradient>
			<path class="st45" d="M285.8,97.2c0,0-3.5-14.3-13.9-7.7c-0.2,0.6-0.4,1.1-0.7,1.7c-0.3,0.7-0.7,2.1-1.3,0.8
				c-1-2.1-1.2-4.9-0.1-7c0.3-0.6,0.6-1.1,1.1-1.5c2-2.3,4.9-3.7,7.9-4.3c2.6-0.5,5.3-0.5,8-0.3c1.3,0.1,1.7,0.3,2.7,1.1
				c0.9,0.8,1.9,1.6,2.8,2.5c2.8,2.6,5.5,5.7,6.4,9.5c0.5,1.9,0.4,3.8-0.1,5.7c-1.8,6.9-6.2,1.3-6.2,1.3s-0.4-3-2.7-4.4
				c-2.3-1.4-2.9,2.5-2.9,2.5L285.8,97.2z"/>
		</g>
		<g>
			<path class="st30" d="M471.7,329.8l-8.7-1.3c-0.3,11.9-1.7,11.8-1.7,11.8l0.1,2.8l8.5,2C469.4,342.4,470.1,337.3,471.7,329.8z"/>
			<path class="st23" d="M442.4,351.2h27.7c0.9,0,1.6-0.7,1.6-1.5c0.2-2.7-0.5-8.7-2-9.1c-0.6-0.2-2.4,3.2-5.1,2.8
				c-3.9-0.6-1.7-4.6-3.4-4.5c-2.4,0-3.2,5.3-13.9,7.6c-6,1.3-6.6,2.4-6.6,3.2C440.8,350.5,441.5,351.2,442.4,351.2z"/>
			<path class="st30" d="M501.8,331.1l-8.5-0.5c0.6,10.1-0.7,10.1-0.7,10.1l0.4,2.7l8.7,1.2C501,342.3,501,337.8,501.8,331.1z"/>
			<path class="st23" d="M474,351.2h27.7c0.9,0,1.6-0.7,1.6-1.5c0.2-2.7-0.5-8.7-2-9.1c-0.6-0.2-2.4,3.2-5.1,2.8
				c-3.9-0.6-1.7-4.6-3.4-4.5c-2.4,0-3.2,5.3-13.9,7.6c-6,1.3-6.6,2.4-6.6,3.2C472.4,350.5,473.1,351.2,474,351.2z"/>
			<linearGradient id="SVGID_17_" gradientUnits="userSpaceOnUse" x1="460.3005" y1="100.6764" x2="497.8079" y2="100.6764">
				<stop  offset="0" style="stop-color:#09005D"/>
				<stop  offset="1" style="stop-color:#1A0F91"/>
			</linearGradient>
			<path class="st46" d="M482.3,124.9c8.7-2.7,15.5-8,15.5-8c-1.1-0.5-6.7-3.6-3.9-13.7c2.5-8.9,2.5-15.8-2.1-21.7
				c-3.2-4.3-11.2-6.2-16.3-5.1c-5.1,1.2-9.8,5.8-10.9,12.5c-0.4,2.4-1.2,8.2,1.6,15.1c2.8,6.9-6,14.4-6,14.4
				S473.6,127.6,482.3,124.9z"/>
			<path class="st25" d="M447.4,194.7l39.6,3.2c0,0-8.4,60.7-7.6,72.9c2,28.6-6.1,63.3-6.5,64.3c-0.3,0.7-12.1-0.1-12.1-0.1
				s0.5-52.8-1.9-61.5C456.5,265,452.1,204.7,447.4,194.7z"/>
			<path class="st21" d="M471.1,198.4c0,0,13.4,67.9,13.5,70.6c0.1,3,5.3,38.2,5.2,66.7c0,0.4,12,0,12,0s6.4-43.6,3.1-66.9
				c-0.3-2.3,3.8-64.6,3.8-64.6L471.1,198.4z"/>
			<path class="st47" d="M455.4,201.8c0,0,6.3,7.8,39.8,0.7l-2.4-87.8c0,0-8.3-2.8-13.7-2.2c-5.4,0.6-11.7,2.1-14.3,3.8
				C448,127.3,455.4,201.8,455.4,201.8z"/>
			<path class="st47" d="M492.8,114.7l15.5,5.6c1.2,9.1,2.4,89.7,2.4,89.7s-2.5,3.7-12.4,5.5c-6.3,1.1-17.6,1.1-17.6,1.1
				s0.4-40.1,0.4-43.8S477,133.3,492.8,114.7z"/>
			<path class="st26" d="M469.5,86.8c0,0-1.8,11.2,0.6,16.5c2.4,5.2,6.3,2.2,6.3,2.2s-1.2,7-4.8,8.4c-0.7,0.3-7,6.3-1.9,6.9
				c6,0.7,19.8-7,19.8-7c-4.6-0.8-3.3-3.5-3.5-6.7c-0.1-3.1-3.8-4.2-4.5-7.1c-1-4.3,0.3-7.9,0.3-7.9S473.9,93.3,469.5,86.8z"/>
			<path class="st26" d="M494.1,160.9c0,0-6.5-4.2-9.9-5.2c-3.5-1.1-6.4,2-3.7,6.2c2.6,4,10,7.4,10,7.4L494.1,160.9z"/>
			<path class="st22" d="M532.8,175.1c-0.5-3.5-1.7-7.9-3.6-12.8c-4.2-10.9-11.4-33-16.2-38.2c-4.7-5.2-8.9-5.4-10.8-4.8
				c-4.5,1.5,2.9,28.1,8.2,44.2c-9.3-2.9-18.6-5.4-18.6-5.4s-1.7,1.5-3.3,4.3c-1.4,2.3-2.2,6.4-2.2,6.4s31.7,18.3,40.4,17.5
				C533.1,185.8,535.2,180.2,532.8,175.1z"/>
			<path class="st26" d="M437.7,219c0,0-2.3,9.3-2.3,12.4c-0.1,2.8,2.6,6.3,4.9,2.2c3-5.2,3.8-9,4-12.4
				C444.6,217.6,437.7,219,437.7,219z"/>
			<path class="st22" d="M456.2,121.2c0,0-3.3,1.9-5.6,7.8c-2.2,5.5-5.7,21.4-8.6,43.4c-2.4,6.7-6.8,47.5-6.5,51.7l9,2.4
				c0,0,5.8-18.2,6.9-24.4c0.8-4.5,1.8-24.9,0.6-29.4C454.4,161,460.4,125.2,456.2,121.2z"/>
			<path class="st47" d="M468.4,114.7c0,0-9.6,3.3-13.2,7.6c-8.1,9.8-5.2,92.7-5.2,92.7s1.9,2.8,8,1.5
				C460,216,451,123.1,468.4,114.7z"/>
		</g>
	</g>
	<g>
		<linearGradient id="SVGID_18_" gradientUnits="userSpaceOnUse" x1="427.8406" y1="105.2688" x2="436.9469" y2="105.2688">
			<stop  offset="0" style="stop-color:#09005D"/>
			<stop  offset="1" style="stop-color:#1A0F91"/>
		</linearGradient>
		<path class="st48" d="M436.4,107c-1.1-5.2-3.3-9.9-2.7-15.4c0.2-2-2.9-2-3.2,0c-0.3,2.5-0.1,4.8,0.4,7.1c0,0-0.1,0-0.1,0
			c-0.8-1.2-2.8-0.7-2.9,0.9c-0.2,6.5-0.1,12.9,0.4,19.4c0.1,1.7,2.5,2,3,0.7c0.5,0.9,1.8,1,2.5,0.4c0.8,0.4,2.1,0.1,2.3-1
			C437,115,437.3,111.1,436.4,107z"/>
		<path class="st0" d="M433.6,93.6c-0.4,0.5-0.8,1-1.2,1.4c-0.2-0.1-0.5-0.1-0.7,0.1c0,0-0.1,0.1-0.1,0.1c0,0,0,0,0,0c0,0,0,0,0,0
			c-0.4,0.5-0.7,0.9-1,1.4c0.1,0.7,0.2,1.4,0.3,2c0,0-0.1,0-0.1,0c-0.3-0.4-0.6-0.6-1.1-0.6c-0.2,0.3-0.4,0.7-0.6,1
			c-0.2,0.1-0.3,0.2-0.4,0.4c-0.1,0.4-0.3,0.7-0.4,1.1c-0.2,0.3-0.3,0.6-0.5,1c-0.1,3-0.1,6,0,9c0.1-0.2,0.1-0.3,0.2-0.5
			c0.1,0,0.1,0,0.2,0c0.2,0.4,0.7,0.6,1,0.2c2.4-2.6,4.3-5.5,5.6-8.6C434.3,99,433.6,96.4,433.6,93.6z"/>
		<linearGradient id="SVGID_19_" gradientUnits="userSpaceOnUse" x1="356.5246" y1="233.3191" x2="390.9911" y2="233.3191">
			<stop  offset="0" style="stop-color:#FF928E"/>
			<stop  offset="1" style="stop-color:#FEB3B1"/>
		</linearGradient>
		<path class="st49" d="M385.4,198.1c0.1-1.1-0.7-1.1-1.2,0.1c-5.9,13.3-11.3,26.5-16.3,40.2c-1.4,3.8-2.8,7.5-4.1,11.3
			c-0.2,0.6-0.5,1.4-0.8,2.1c-3,5.1-5.6,10.3-6.6,16.2c-0.1,0.5,0.7,1,1,0.4c1-2.4,2.1-4.8,3.1-7.2c-0.3,2.6-0.2,5.2,0.3,7.8
			c0.1,0.6,1,0.4,1-0.1c0-0.4,0-0.7,0-1.1c0.1,0.4,0.3,0.8,0.5,1.1c0.2,0.3,0.9,0.4,1-0.1c0.6-3.2,0.7-6.4,1.1-9.6
			c0.1,0.2,0.2,0.3,0.2,0.5c0,0,0,0,0,0c0,0.2,0,0.3,0,0.4c0,0.8-0.3,1.7-0.5,2.5c-0.1,0.7-0.1,1.2,0,1.9c0.1,0.6,0.8,0.4,1,0
			c0.7-1.7,1.7-3.6,2-5.4c0.2-1.1-0.1-4.8,0.7-6.1c1.8-2.9,5-7.7,6.7-10.8c3.3-6.2,6.3-12.5,8.9-19c2.1-5.4,6.9-12.6,7.2-18.5
			C391.2,199.8,389.4,199.2,385.4,198.1z"/>
		<linearGradient id="SVGID_20_" gradientUnits="userSpaceOnUse" x1="365.7034" y1="345.3665" x2="382.6015" y2="345.3665">
			<stop  offset="0" style="stop-color:#FF928E"/>
			<stop  offset="1" style="stop-color:#FEB3B1"/>
		</linearGradient>
		<path class="st50" d="M382,338.6c-1.3-1.3-3.6-1.1-5.1-0.7c-0.2-0.1-0.6,0-0.6,0.4c-0.2,2.1-0.4,4.2-1.5,6
			c-0.9,1.5-2.2,2.4-3.5,3.3c-1.1,0.7-2.2,1.4-3.3,2c-0.6,0.4-1.7,0.8-2,1.7c-1.3,3.4,7.2,0.7,8.1,0.5c1.7-0.3,4.5,0,5.9-1.3
			c1.5-1.3,1.7-4.2,2-6C382.2,343,383.3,340,382,338.6z"/>
		<path class="st23" d="M382.5,342.2c-2.6-0.3-5-0.3-7.6,0c-0.2,0-0.5,0.1-0.6,0.3c-0.7,2.4-3.6,4.4-5.6,5.7
			c-1.2,0.8-2.4,1.1-3.7,1.8c-0.6,0.3-0.9,0.2-1.3,0.7c-0.4,0.5-0.6,2.2-0.2,2.8c0.5,0.9,1.6,0.7,2.5,0.7c2.4,0,4.7-0.2,7.1-0.5
			c1.9-0.2,4.8-0.2,6.5-1c1.4-0.7,2-2.1,2.2-3.5c0.5-3,0.8-3.2,1.1-6.2C382.9,342.4,382.7,342.2,382.5,342.2z"/>
		<linearGradient id="SVGID_21_" gradientUnits="userSpaceOnUse" x1="397.8817" y1="339.1841" x2="408.9104" y2="339.1841">
			<stop  offset="0" style="stop-color:#FF928E"/>
			<stop  offset="1" style="stop-color:#FEB3B1"/>
		</linearGradient>
		<path class="st51" d="M408.9,328.1c0.3-1.9-3.4,0.8-5.2,0.7c0-0.6-0.1-1.2-0.1-1.8c-0.1-0.7-1.1-0.7-1.1,0
			c0.8,7.3-2.2,14-4.2,20.8c-0.3,1.1-1.1,3.1,0.2,3.9c1.2,0.8,4-0.1,5.1-0.7c2.5-1.2,1.3-3.1,2.5-5.3c0.6-1,1.3-1.8,1.7-2.9
			c0.3-1,0.4-2.2,0.5-3.3c0.1-1.7-0.1-3.6-0.1-5.3C408.3,333.2,408.4,330.8,408.9,328.1z"/>
		<path class="st23" d="M408.3,336.8c-0.1-0.1-0.3-0.2-0.5-0.1c-0.3,0.1-0.6,0.2-0.8,0.4c-1-1.1-2-1.9-3.6-1.7
			c-1.5,0.2-2.8,0.9-3.1,2.5c0,0.1,0,0.1,0,0.2c-0.8,2.3-1.7,4.6-2.5,6.9c-0.6,1.7-1.8,3.8-1.6,5.6c0.3,2.9,4.6,2.3,6.5,1.7
			c1.2-0.4,2.3-1.2,2.8-2.3c0.2-0.5,0.3-1.1,0.4-1.6c0.2-1.5,0.6-2.6,1.4-4c0.8-1.3,1-2.1,1.1-3.7
			C408.6,339.6,409.1,337.7,408.3,336.8z"/>
		<linearGradient id="SVGID_22_" gradientUnits="userSpaceOnUse" x1="424.5141" y1="339.1841" x2="435.5428" y2="339.1841">
			<stop  offset="0" style="stop-color:#FF928E"/>
			<stop  offset="1" style="stop-color:#FEB3B1"/>
		</linearGradient>
		<path class="st52" d="M425.2,334.3c0.1,1.7-0.2,3.6-0.1,5.3c0.1,1.1,0.1,2.2,0.5,3.3c0.4,1.1,1.1,1.9,1.7,2.9c1.2,2.2,0,4,2.5,5.3
			c1.1,0.5,3.9,1.4,5.1,0.7c1.3-0.8,0.5-2.8,0.2-3.9c-1.9-6.9-5-13.5-4.2-20.8c0.1-0.7-1-0.7-1.1,0c-0.1,0.6-0.1,1.2-0.1,1.8
			c-1.7,0.2-5.5-2.6-5.2-0.7C425,330.8,425.2,333.2,425.2,334.3z"/>
		<path class="st23" d="M424.9,340.6c0.1,1.6,0.4,2.4,1.1,3.7c0.8,1.4,1.2,2.4,1.4,4c0.1,0.6,0.1,1.1,0.4,1.6
			c0.5,1.2,1.6,1.9,2.8,2.3c1.9,0.6,6.2,1.2,6.5-1.7c0.2-1.8-1-4-1.6-5.6c-0.8-2.3-1.6-4.6-2.5-6.9c0-0.1,0-0.1,0-0.2
			c-0.3-1.6-1.5-2.3-3.1-2.5c-1.6-0.2-2.6,0.6-3.6,1.7c-0.3-0.2-0.5-0.3-0.8-0.4c-0.2,0-0.4,0-0.5,0.1
			C424.3,337.7,424.8,339.6,424.9,340.6z"/>
		<linearGradient id="SVGID_23_" gradientUnits="userSpaceOnUse" x1="413.3509" y1="346.1447" x2="424.3795" y2="346.1447">
			<stop  offset="0" style="stop-color:#FF928E"/>
			<stop  offset="1" style="stop-color:#FEB3B1"/>
		</linearGradient>
		<path class="st53" d="M414,341.2c0.1,1.7-0.2,3.6-0.1,5.3c0.1,1.1,0.1,2.2,0.5,3.3c0.4,1.1,1.1,1.9,1.7,2.9c1.2,2.2,0,4,2.5,5.3
			c1.1,0.5,3.9,1.4,5.1,0.7c1.3-0.8,0.5-2.8,0.2-3.9c-1.9-6.9-5-13.5-4.2-20.8c0.1-0.7-1-0.7-1.1,0c-0.1,0.6-0.1,1.2-0.1,1.8
			c-1.7,0.2-5.5-2.6-5.2-0.7C413.8,337.8,414,340.1,414,341.2z"/>
		<path class="st23" d="M423.7,352.3c-0.5-1.6-1.1-3.2-1.7-4.8c-0.1-0.8-0.2-1.5-0.3-2.3c-0.1-1,0-2.6-0.7-3.4
			c-0.5-0.6-1.1-0.3-1.8-0.3c-1.6,0-3.7-0.1-5.2,0.2c-0.2,0-0.4,0.3-0.4,0.5c0,1.1-0.1,2.3-0.1,3.4c0,0.2,0.2,2.2,0.2,2.5
			c0.1,1.5,0.3,2.3,1.1,3.5c0.8,1.3,1.1,2.3,1.3,3.8c0.1,0.5,0.1,1.1,0.4,1.6c0.5,1.1,1.5,1.8,2.7,2.2c1.8,0.6,5.8,1.1,6.1-1.6
			C425.4,355.9,424.2,353.9,423.7,352.3z"/>
		<path class="st23" d="M439.5,174.2c-0.1-1.1-2.5-2.3-3.1-2.5c-11.5-3.1-23.2-2.4-35-1.5c-0.8-0.8-2.4-0.8-2.6,0.6
			c-3.6,26.4-7.1,53.2-7.9,79.9c-0.8,26.1,4.6,52.1,8.6,77.7c0.1,0.7,0.9,1.1,1.5,1.1c2.7,0.1,8.7,1.4,11-0.5
			c2.6-2.1,1.9-8.8,2.3-11.9c1.5-11.8,4.6-49.8,5.3-56.9c1.4,22.4,3,45.2,1.6,67.7c0,0.7,0.5,1.3,1.2,1.5c3.5,1.1,8.2,2,11-1.1
			c1.5-1.6,1.7-3.8,2.2-5.9c0.9-4,1.7-8,2.5-12c2.8-14.1,4.6-28.2,4.8-42.7C443.3,236.7,442.1,205.4,439.5,174.2z"/>
		<path class="st21" d="M459.6,154.1c-0.4-7.2-7.5-23.8-8.1-25.3c-1.9-4.6-5.1-8.6-8.7-11.9c-4.5-4.2-10.2-6.9-14.8-11
			c-1.5-1.4-3.7,0.9-2.2,2.2c-0.6,0-1.3,0-2,0c-1.4,0-2.8,0-4.2,0c-0.2-1-1.2-1.8-2.3-1.2c-9,5.3-20.3,11.5-26.1,20.8
			c-0.6,0-4.5,11.1-6.1,16.1c-1.2,3.7-2.8,7.5-2.5,11.4c0.2,2.5,1.2,4.6,1.7,7c0.5,2.9-0.3,5.5-0.5,8.4c-0.1,1.3,0,2.5,0.3,3.6
			c0,0.2,0.1,0.3,0.1,0.5c0.4,0.9,0.6,1.8,1,2.7c0.4,0.9,1,1.8,1.3,2.7c0.4,0.9,1,1.8,1.4,2.7c0.5,0.9,1,1.9,1.5,2.9
			c0.1,0.2,0.2,0.4,0.4,0.5c0.2,0.1,0.4,0.1,0.6,0.1c1.2,0,2.4-0.4,3.5-0.7c0.8-0.2,1.7-0.5,2.2-1.2c0.3-0.5,0.3-1.1,0.3-1.7
			c0-0.8,0-1.7,0.1-2.5c0-0.3,0.1-0.5,0.2-0.8c0.1-0.4,0.2-0.8,0.3-1.1c1.5-3.7,0.5-4.4,3.1-6.7c0.5-0.4,0.9-0.8,1.3-1.3
			c0,1.1,0.1,2.1,0.9,3c1.9,2.3,6.1,1.6,8.6,1.7c5.2,0.2,10.4,0.4,15.6,0.5c3.1,0.1,6.6,0.7,9.5-0.5c0.3,0.6,0.6,1.2,0.7,1.8
			c0.3,1.3,0.1,2.7,0.6,3.9c0.9,2,3.8,3.9,6,3.5c2.9-0.5,4.9-5.2,6.1-7.5c2.3-4.7,4.5-8.6,7.6-12.8
			C459.2,160.9,459.8,157.8,459.6,154.1z"/>
		<linearGradient id="SVGID_24_" gradientUnits="userSpaceOnUse" x1="426.8332" y1="237.3809" x2="443.7768" y2="237.3809">
			<stop  offset="0" style="stop-color:#FF928E"/>
			<stop  offset="1" style="stop-color:#FEB3B1"/>
		</linearGradient>
		<path class="st54" d="M443.7,263.3c-0.5-3.1-1.1-5.5-1.8-8.5c0.8-5.8,0.3-13.8,0.3-17.8c0-4-1.7-11.9-1.9-13
			c-1.2-8-0.3-9.6-5.2-22.5c-0.5-1.2-2.2-0.6-1.9,0.6c0.1,0.2,0.1,0.4,0.2,0.6c-0.4-0.2-0.9-0.3-1.2,0.2c-1.4,1.7-2.8,3.5-4.1,5.3
			c0,0.1-0.1,0.1-0.1,0.2c-0.6-0.1-1.3,0.5-1.2,1.3c1.5,6.4,3.9,13,5.6,19.3c1,9.3,1.8,16.3,4.3,24.2c0,0,0,0.1,0,0.1
			c-0.1,2.6-1.5,4.3-2,6.9c-0.3,1.4-0.3,5.3,0.2,6.4c0.4,1,1.4-0.1,1.4-0.4c0.2-2.7,0.2-2.1,1.6-4.4c0,2.3,0.5,1.3,0.3,3.5
			c-0.1,2.9-1.6,5.4-2.2,8.2c-0.1,0.5,0.6,0.9,1,0.4c0.3-0.5,0.6-1,0.9-1.5c0.3,1,1.5,0.6,2.2-0.1
			C442.6,269.6,444.2,266.6,443.7,263.3z"/>
		<linearGradient id="SVGID_25_" gradientUnits="userSpaceOnUse" x1="409.61" y1="117.5891" x2="437.0137" y2="117.5891">
			<stop  offset="0" style="stop-color:#FF928E"/>
			<stop  offset="1" style="stop-color:#FEB3B1"/>
		</linearGradient>
		<path class="st55" d="M437,112.4c-2.4-1.6-6-4.1-8.2-5.9c-1.5-0.3-1.9,0.5-3.4,0.6c0,0.4,0.1,0.7,0.5,1c-0.6,0-1.3,0-2,0
			c-1.4,0-2.8,0-4.2,0c-0.2-1-1.2-1.8-2.3-1.2c-2.4,1.5-5.1,3-7.7,4.6c2.1,5.8,4.6,12.2,9,16.5c1.8,1.8,3.1-0.1,4.7-1.5
			c2.8-2.5,5.5-5.2,8-7.9c1.3-1.4,2.5-2.8,3.8-4.2C435.5,114,436.5,113.1,437,112.4z"/>
		<path class="st25" d="M427.5,265.7c-0.3-5.3,0.3-11.7-1-16.8c-1-4.1-5.4-5.4-8.8-6.9c-10.4-4.4-19.6-2.5-29.7,1.3c0,0,0-0.1,0-0.1
			c0.1-2-3-2-3,0c-0.4,8.5-2.1,16.7-3.6,25.1c-1.3,7.3-2,14.6-2.7,22c-0.4,4.2-0.8,8.4-1.7,12.6c-0.8,3.7-2.3,7.2-3.2,10.9
			c-0.8,3.4-0.5,6.7-0.6,10.1c-0.1,5,0,9.7-1,14.6c-0.2,1,0.4,2,1.5,2c5.1,0,5.8,0.3,10.9,0.3c0.7,0,1.3-0.5,1.5-1.2
			c1.2-4.8,4.2-9.2,7-13.5c1.7-2.7,2.9-4.9,3.2-8.2c0.4-4.2-0.8-8.5,0.5-12.7c1.3-4.4,3.9-8,4.9-12.5c1-4.5,0.7-9,2.5-13.4
			c0.1-0.2,0.2-0.4,0.3-0.7c1.4,4.5,2.3,8.8,2.2,13.7c-0.2,4.3-0.8,8.5-0.2,12.7c0.7,5.2,2.8,9.7,3,15c0.1,4.7-0.6,13.2-0.3,17.8
			c0.2,2.6,0.4,1.8,2,1.9c2.7,0.2,7.6-0.1,11-0.4c0.8-0.1,1.5-0.7,1.5-1.6c0-3.3-0.1-6.8,0.6-10.1c0.5-2.6,1.9-4.9,2.6-7.4
			c1.6-5.4-1-10.8-0.9-16.3c0.2-6.3,1.8-12.5,2.1-18.8C428.2,278.9,427.8,272.3,427.5,265.7z"/>
		<linearGradient id="SVGID_26_" gradientUnits="userSpaceOnUse" x1="371.6421" y1="220.307" x2="442.5883" y2="220.307">
			<stop  offset="0" style="stop-color:#4042E2"/>
			<stop  offset="1" style="stop-color:#4F52FF"/>
		</linearGradient>
		<path class="st56" d="M432.4,193c-8.4-8.9-17.9-8.4-26.4-8.4c-3.8,0-7.6,0.2-10.9,1.6c-8.6,2.8-13.6,11.8-17.9,19.7
			c-1.7,3.3-3.1,5.7-4.7,9c-0.6,1.3-1.2,2.1-0.7,3.5c1.3,3.7,8.8,5.9,12.1,6.8c0.3,0.1,1.4-1.2,1.7-1.3c-0.2,3.5,0.2,9.8-1.5,23.6
			c-0.2,1.8-2,6.7-0.4,7.7c2.2,1.4,9.7-0.2,12.2-0.2c4.7,0,9.3-0.2,14-0.4c4.2-0.2,13.5,1.9,17.7,1.2c2.1-0.4-0.4-2.9,0.6-4.7
			c3.3-6.3-0.9-14.3-0.8-20.9c0.1-3.8,0.6-9.5,0.7-9.8c1.2,2.5,1.2,3.3,3.6,2.4c5.6-2.3,10.5-4.5,10.9-6.6
			C443.3,211.6,435.3,196.1,432.4,193z"/>
		<linearGradient id="SVGID_27_" gradientUnits="userSpaceOnUse" x1="407.9922" y1="190.856" x2="407.9922" y2="174.4807">
			<stop  offset="0" style="stop-color:#FEB3B1"/>
			<stop  offset="1.758432e-02" style="stop-color:#FEB2B0"/>
			<stop  offset="0.33" style="stop-color:#FFA09D"/>
			<stop  offset="0.6529" style="stop-color:#FF9592"/>
			<stop  offset="1" style="stop-color:#FF928E"/>
		</linearGradient>
		<path class="st57" d="M414.5,174.5C414.5,174.5,414.5,174.5,414.5,174.5l0,2.9l-6.7,4l-6.3-3.1v6.1c0,3.6,2.9,6.5,6.5,6.5
			c3.6,0,6.5-2.9,6.5-6.5v-2.1c0,0,0,0,0,0V174.5z"/>
		<linearGradient id="SVGID_28_" gradientUnits="userSpaceOnUse" x1="396.7983" y1="166.6093" x2="418.7412" y2="166.6093">
			<stop  offset="0" style="stop-color:#FF928E"/>
			<stop  offset="1" style="stop-color:#FEB3B1"/>
		</linearGradient>
		<path class="st58" d="M407.9,151.8c-12.1,0.2-11.1,10.6-11.1,11c0.4,5,0.4,9,2.4,12.4c1.3,2.1,3.9,6,8.7,6.1c3,0,4.6-1.8,6.3-3.7
			c3.3-3.6,4.5-10,4.4-14.7C418.5,157.1,421,151.6,407.9,151.8z"/>
		<linearGradient id="SVGID_29_" gradientUnits="userSpaceOnUse" x1="416.0668" y1="168.3384" x2="420.4909" y2="168.3384">
			<stop  offset="0" style="stop-color:#FEB3B1"/>
			<stop  offset="1" style="stop-color:#FF928E"/>
		</linearGradient>
		<path class="st59" d="M419.5,165.3c-1.4-1.2-2.8,1.7-3.3,2.6c-0.3,0.6,0.5,1.1,0.9,0.6c-0.1,0.2-0.2,0.3-0.3,0.5
			c-0.3,0.6-1,1.4-0.6,2.1c0.8,1.4,2.9-0.4,3.4-1.2C420.9,168,420.7,166.3,419.5,165.3z"/>
		<linearGradient id="SVGID_30_" gradientUnits="userSpaceOnUse" x1="395.06" y1="168.4312" x2="399.4841" y2="168.4312">
			<stop  offset="0" style="stop-color:#FEB3B1"/>
			<stop  offset="1" style="stop-color:#FF928E"/>
		</linearGradient>
		<path class="st60" d="M395.9,170c0.6,0.8,2.7,2.6,3.4,1.2c0.4-0.7-0.3-1.5-0.6-2.1c-0.1-0.2-0.2-0.3-0.3-0.5
			c0.3,0.5,1.1,0,0.9-0.6c-0.5-0.9-1.8-3.8-3.3-2.6C394.9,166.4,394.6,168.1,395.9,170z"/>
		<path class="st61" d="M420.7,157.4c-0.1-0.8-0.4-1.5-0.6-2.3c-0.2-1-0.1-2-0.1-3.1c-0.1-1.5-0.6-3-1.8-4c-2-1.6-4.2-0.5-6.5-0.5
			c-2.7-1.5-5.8-2.6-8.6-0.8c-1.5,0.9-1.7,2.3-2.7,3.6c-1.2,1.4-3.6,1.7-4.9,3c-0.9,0.9-1.5,2-1.7,3.2c-0.2,1.2,0.2,2.4-0.1,3.6
			c-0.2,0.6-0.7,1.4-0.8,2c-0.2,2.2,1.4,3.4,3.2,2.9c1.7,0.7,3.7,1,5.4,0.2c2.2-1.1,2.3-3.8,5-4.5c1.5-0.4,3.4,0.3,4.8-0.6
			c0.7-0.5,1.1-1.2,1.3-1.9c0.3,0.8,0.8,1.4,1.7,1.8c1.3,0.6,2.4,0.7,3,2.2c0.4,0.9,0.7,1.9,0.7,2.9c0,0.4,0.3,0.7,0.8,0.5
			c1.6-0.7,1.8-2.7,2-4.3C420.8,160,420.9,158.7,420.7,157.4z"/>
		<path class="st62" d="M401.3,159.8c-1.2,0.6-1.9,1.8-2,3.1c0,0.7,1,0.7,1.1,0c0.1-1,0.6-1.8,1.4-2.2
			C402.4,160.4,401.8,159.5,401.3,159.8z"/>
		<path class="st62" d="M397.7,160.9c-0.4,0.6-0.6,1.3-0.6,2c-0.1,0.7,1,0.7,1.1,0c0-0.5,0.2-1,0.5-1.5
			C398.9,160.8,398,160.3,397.7,160.9z"/>
		<path class="st62" d="M415.6,154.7c-0.6-0.2-0.9,0.8-0.3,1c0.9,0.3,1.6,1.2,1.7,2.2c0.1,0.7,1.1,0.7,1.1,0
			C418,156.4,417.1,155.2,415.6,154.7z"/>
		<path class="st21" d="M446,167.3c-3,0.1-6,0.7-8.9,1.6c-0.5-0.3-1.2-0.4-1.6,0.2c-1.7,2.2-1.9,3.9-2,6.5
			c-0.2,3.9-1.6,6.9-3.1,10.6c-0.2,0.4,0.1,1,0.5,1.2c2.3,1.4,6.8,4.9,9.3,2.7c1.7-1.5,1.5-3.3,3.8-4.5c0.8-0.4,1.9-0.4,2.8-0.8
			c2.1-0.9,3.1-2.2,3.9-4.3c1.1-2.7,4.3-11,4.4-13.9"/>
		<linearGradient id="SVGID_31_" gradientUnits="userSpaceOnUse" x1="418.9878" y1="190.5869" x2="435.3622" y2="190.5869">
			<stop  offset="0" style="stop-color:#FF928E"/>
			<stop  offset="1" style="stop-color:#FEB3B1"/>
		</linearGradient>
		<path class="st63" d="M430.6,185.9c-1.6,0.2-3.5-0.2-5.1,0.5c-2.4,1-4.5,2.6-6.3,4.4c-0.2,0.2-0.2,0.8,0.1,0.9
			c1.1,0.5,1.7,0,2.7-0.6c0.2-0.1,0.4-0.3,0.6-0.4c-0.5,0.7-1,1.6-0.7,2.3c0.1,0.3,0.3,0.5,0.6,0.4c0.7-0.2,1.9-1.5,2.6-2.4
			c0.7-0.8,1.8-1.5,2.6-2c-1.3,1.4-2.7,2.8-3.1,4.9c-0.1,0.5,0.3,1,0.7,0.7c0.7-0.5,2.1-2.5,2.9-3.5c0.4-0.5,1.2-0.8,1.6-1.3
			c0,0.2-0.3,1.2-0.5,1.5c-0.2,0.5-0.5,0.9-0.7,1.4c-0.3,0.7-0.4,1.2-0.4,1.9c0,0.5,0.7,0.8,1,0.4c0.8-0.8,1.2-1.8,2-2.6
			c1-1.1,2.2-0.5,3.3-1.2c0.4-0.3,0.7-0.8,0.8-1.4C433.5,189,431.8,187.6,430.6,185.9z"/>
		<linearGradient id="SVGID_32_" gradientUnits="userSpaceOnUse" x1="386.9126" y1="189.9434" x2="397.5424" y2="189.9434">
			<stop  offset="0" style="stop-color:#FF928E"/>
			<stop  offset="1" style="stop-color:#FEB3B1"/>
		</linearGradient>
		<path class="st64" d="M397.4,186.4c-0.2-0.7-0.9-1.5-1.5-1.9c-0.2-0.1-0.4-0.1-0.6-0.2c-2.4-0.4-4.8,1.2-4.9,1.2
			c-2.3,2.2-4.3,6.4-3,9.6c0.2,0.6,1,0.5,1-0.1c0.3-2,0.5-3.8,1.2-5.5c-0.2,1.8-0.1,3.7,0.4,5.5c0.1,0.5,0.9,0.5,1,0
			c0.6-1.8,0.6-3.9,0.8-5.8c0.1-0.7,0.3-1.6,0.3-2.3c0.2-0.1,0.5,2.7,0.6,4.3c0,0.8-0.2,2.7,0.5,3.3c1.3,1.2,1.4-1.3,1.4-1.8
			c0-0.8,0.1-1.5,0.1-2.2c0,0.6,0,1.3,0.1,1.9c0.1,0.4,0.8,0.5,1,0.1C396.4,190.8,398,188.3,397.4,186.4z"/>
		<linearGradient id="SVGID_33_" gradientUnits="userSpaceOnUse" x1="416.5691" y1="104.7814" x2="429.5469" y2="104.7814">
			<stop  offset="0" style="stop-color:#FF928E"/>
			<stop  offset="1" style="stop-color:#FEB3B1"/>
		</linearGradient>
		<path class="st65" d="M423.1,115.5L423.1,115.5c-3.6,0-6.5-2.9-6.5-6.5V94.1h13V109C429.5,112.6,426.6,115.5,423.1,115.5z"/>
		<linearGradient id="SVGID_34_" gradientUnits="userSpaceOnUse" x1="416.5865" y1="103.848" x2="429.5645" y2="103.848">
			<stop  offset="0" style="stop-color:#FF928E"/>
			<stop  offset="1" style="stop-color:#FEB3B1"/>
		</linearGradient>
		<path class="st66" d="M429.6,99.1c-2.2-0.5-5-0.4-6.3-0.3c-2.2,0.1-4.5,0.5-6.5,1.5c0,0-0.1,0-0.1,0.1v5.5
			c2.5,2.3,5.3,3.8,8.8,2.9c1-0.3,2.7-0.9,4.2-1.9V99.1z"/>
		<linearGradient id="SVGID_35_" gradientUnits="userSpaceOnUse" x1="410.0197" y1="88.1502" x2="435.9245" y2="88.1502">
			<stop  offset="0" style="stop-color:#FF928E"/>
			<stop  offset="1" style="stop-color:#FEB3B1"/>
		</linearGradient>
		<path class="st67" d="M423.1,70.7c-14.3,0.2-13.1,12.5-13.1,13c0.4,5.9,0.4,10.6,2.9,14.6c1.5,2.5,4.6,7.1,10.2,7.2
			c3.5,0.1,5.5-2.2,7.5-4.4c3.9-4.3,5.3-11.8,5.2-17.3C435.6,76.9,438.5,70.5,423.1,70.7z"/>
		<linearGradient id="SVGID_36_" gradientUnits="userSpaceOnUse" x1="432.7674" y1="90.1917" x2="437.9903" y2="90.1917">
			<stop  offset="0" style="stop-color:#FEB3B1"/>
			<stop  offset="1" style="stop-color:#FF928E"/>
		</linearGradient>
		<path class="st68" d="M436.8,86.7c-1.7-1.4-3.3,2-3.9,3.1c-0.4,0.7,0.6,1.3,1,0.7c-0.1,0.2-0.2,0.4-0.4,0.6
			c-0.4,0.7-1.2,1.6-0.7,2.4c0.9,1.6,3.4-0.5,4.1-1.4C438.5,89.8,438.2,87.8,436.8,86.7z"/>
		<linearGradient id="SVGID_37_" gradientUnits="userSpaceOnUse" x1="407.9674" y1="90.3011" x2="413.1903" y2="90.3011">
			<stop  offset="0" style="stop-color:#FEB3B1"/>
			<stop  offset="1" style="stop-color:#FF928E"/>
		</linearGradient>
		<path class="st69" d="M409,92.1c0.7,1,3.2,3.1,4.1,1.4c0.5-0.8-0.3-1.8-0.7-2.4c-0.1-0.2-0.2-0.4-0.4-0.6c0.4,0.6,1.4,0,1-0.7
			c-0.6-1.1-2.2-4.5-3.9-3.1C407.8,87.9,407.5,89.9,409,92.1z"/>
		<linearGradient id="SVGID_38_" gradientUnits="userSpaceOnUse" x1="409.6528" y1="77.3045" x2="436.3375" y2="77.3045">
			<stop  offset="0" style="stop-color:#09005D"/>
			<stop  offset="1" style="stop-color:#1A0F91"/>
		</linearGradient>
		<path class="st70" d="M435.7,75.3c-2.6-6.4-8.4-7.8-14.5-6.6c-6.5,1.2-11.3,5.2-11.6,13.8c0,0.3,0.1,3.6,0.3,3.7
			c0.1,0.1,0.2,0.2,0.4,0.1c5.4-0.4,12-6.4,16.3-9.9c2,3.1,5.6,9.2,9.2,9.9c0.3,0.1,0.5-3.3,0.5-3.7
			C436.4,80.8,436.2,76.4,435.7,75.3z"/>
		<path class="st71" d="M379.6,352.7c1-0.5,1.6-1.4,1.9-2.4c-0.1,0-0.2,0-0.3,0c-2.6,0.3-5.2,0.8-7.9,1.2c-3.1,0.5-6.8,1.3-10,0.8
			c0,0.5,0,0.9,0.2,1.1c0.5,0.9,1.6,0.7,2.5,0.7c2.4,0,4.7-0.2,7.1-0.5C375,353.5,377.8,353.6,379.6,352.7z"/>
		<path class="st71" d="M419.1,359.3c1.8,0.6,5.8,1.1,6.1-1.6c0-0.1,0-0.2,0-0.3c-0.6,0.1-1.1,0.2-1.6,0.3c-2.8,0.4-4.6-0.5-5.9-2.8
			c-1.2-2.1-2.1-3.9-3.8-5.4c0.2,0.8,0.4,1.4,0.9,2.3c0.8,1.3,1.1,2.3,1.3,3.8c0.1,0.5,0.1,1.1,0.4,1.6
			C416.9,358.2,418,358.9,419.1,359.3z"/>
	</g>
</g>
</svg>
