<?xml version="1.0" encoding="utf-8"?>
<!-- Generator: Adobe Illustrator 25.2.3, SVG Export Plug-In . SVG Version: 6.00 Build 0)  -->
<svg version="1.1" id="Layer_1" xmlns="http://www.w3.org/2000/svg" xmlns:xlink="http://www.w3.org/1999/xlink" x="0px" y="0px"
	 viewBox="0 0 570 390" style="enable-background:new 0 0 570 390;" xml:space="preserve">
<style type="text/css">
	.st0{opacity:0.5;fill:#78BCFF;enable-background:new    ;}
	.st1{opacity:0.5;fill:#FFFFFF;enable-background:new    ;}
	.st2{fill:#FFFFFF;}
	.st3{fill:#5240D8;}
	.st4{fill:#CADDFF;}
	.st5{fill:#5479F7;}
	.st6{fill:url(#SVGID_1_);}
	.st7{fill:url(#SVGID_2_);}
	.st8{fill:url(#SVGID_3_);}
	.st9{fill:url(#SVGID_4_);}
	.st10{fill:url(#SVGID_5_);}
	.st11{fill:url(#SVGID_6_);}
	.st12{fill:url(#SVGID_7_);}
	.st13{fill:url(#SVGID_8_);}
	.st14{fill:url(#SVGID_9_);}
	.st15{fill:url(#SVGID_10_);}
	.st16{fill:url(#SVGID_11_);}
	.st17{fill:url(#SVGID_12_);}
	.st18{fill:url(#SVGID_13_);}
	.st19{fill:url(#SVGID_14_);}
	.st20{fill:url(#SVGID_15_);}
	.st21{fill:url(#SVGID_16_);}
	.st22{fill:url(#SVGID_17_);}
	.st23{fill:url(#SVGID_18_);}
	.st24{fill:url(#SVGID_19_);}
	.st25{fill:url(#SVGID_20_);}
	.st26{fill:url(#SVGID_21_);}
	.st27{fill:url(#SVGID_22_);}
	.st28{fill:url(#SVGID_23_);}
	.st29{fill:url(#SVGID_24_);}
	.st30{fill:url(#SVGID_25_);}
	.st31{fill:url(#SVGID_26_);}
</style>
<g id="prayer_request">
	<path class="st0" d="M458.4,77.5c-12.4-25-37.2-38.5-52.5-46.9C339.5-5.6,249,4,188.9,37.8C129.5,71.2,77.8,150.1,99.5,235.9
		C121.3,322,206,366.3,270,375.7c101.7,14.9,187.2-52.9,191.9-76.4c1.4-7.3,1.1-13.7,1.1-13.7c-1.8-17-15.8-27.1-19-65.8
		C437.9,148.5,480.1,121.4,458.4,77.5z"/>
	<path class="st1" d="M139.8,61.9C211.3-6.4,334.1,6,413.8,89.6s118.7,153.8,47.1,222.1S178.8,380.2,67.8,252
		C-7.7,164.8,68.2,130.1,139.8,61.9z"/>
	<path class="st2" d="M348,356.9L348,356.9c-1.7,0-3.5,0-5.4-0.1c-0.4,0-0.7-0.3-0.7-0.7c0-0.4,0.3-0.7,0.7-0.7l0,0
		c1.8,0,3.6,0.1,5.3,0.1c0.4,0,0.7,0.3,0.7,0.7C348.7,356.6,348.4,356.9,348,356.9z M353.4,356.9c-0.4,0-0.7-0.3-0.7-0.7
		c0-0.4,0.3-0.7,0.7-0.7c1.8,0,3.6-0.1,5.3-0.2c0.4,0,0.7,0.3,0.7,0.6c0,0.4-0.3,0.7-0.6,0.7C357,356.8,355.2,356.8,353.4,356.9
		L353.4,356.9z M337.3,356.6L337.3,356.6c-1.8-0.1-3.6-0.2-5.4-0.3c-0.4,0-0.6-0.3-0.6-0.7c0-0.4,0.3-0.7,0.7-0.6
		c1.8,0.1,3.6,0.2,5.3,0.3c0.4,0,0.7,0.3,0.6,0.7C338,356.4,337.7,356.6,337.3,356.6z M152,356.4c-0.3,0-0.5-0.2-0.6-0.5
		s0.1-0.7,0.4-0.9c1.7-0.6,3.4-1.2,5.1-1.7c0.4-0.1,0.7,0.1,0.8,0.4c0.1,0.4-0.1,0.7-0.4,0.8c-1.7,0.6-3.4,1.2-5.1,1.7
		C152.1,356.4,152,356.4,152,356.4z M364.1,356.3c-0.3,0-0.6-0.3-0.7-0.6c0-0.4,0.2-0.7,0.6-0.7c1.8-0.1,3.6-0.3,5.3-0.5
		c0.4,0,0.7,0.2,0.7,0.6s-0.2,0.7-0.6,0.7C367.7,356,365.9,356.2,364.1,356.3L364.1,356.3z M326.7,356
		C326.6,356,326.6,356,326.7,356c-1.8-0.1-3.6-0.3-5.4-0.4c-0.4,0-0.6-0.4-0.6-0.7s0.4-0.6,0.7-0.6c1.8,0.2,3.6,0.3,5.3,0.4
		c0.4,0,0.6,0.3,0.6,0.7C327.3,355.7,327,356,326.7,356z M374.7,355.1c-0.3,0-0.6-0.2-0.7-0.6s0.2-0.7,0.6-0.8
		c1.8-0.3,3.5-0.6,5.2-0.9c0.4-0.1,0.7,0.2,0.8,0.5c0.1,0.4-0.2,0.7-0.5,0.8c-1.7,0.3-3.5,0.6-5.3,0.9
		C374.8,355.1,374.7,355.1,374.7,355.1z M316,355C316,355,315.9,355,316,355c-1.8-0.2-3.6-0.4-5.4-0.6c-0.4,0-0.6-0.4-0.6-0.7
		c0-0.4,0.4-0.6,0.7-0.6c1.8,0.2,3.5,0.4,5.3,0.6c0.4,0,0.6,0.4,0.6,0.7C316.6,354.8,316.3,355,316,355z M305.4,353.9
		C305.3,353.9,305.3,353.9,305.4,353.9c-1.9-0.2-3.6-0.4-5.4-0.7c-0.4,0-0.6-0.4-0.6-0.7c0-0.4,0.4-0.6,0.7-0.6
		c1.8,0.2,3.5,0.4,5.3,0.6c0.4,0,0.6,0.4,0.6,0.7C306,353.6,305.7,353.9,305.4,353.9z M385.2,353.1c-0.3,0-0.6-0.2-0.7-0.5
		c-0.1-0.4,0.1-0.7,0.5-0.8c1.4-0.3,2.8-0.7,4.2-1.1c0.3-0.1,0.6-0.2,0.9-0.3c0.4-0.1,0.7,0.1,0.8,0.5c0.1,0.4-0.1,0.7-0.5,0.8
		c-0.3,0.1-0.6,0.2-0.9,0.3C388.1,352.4,386.7,352.8,385.2,353.1C385.3,353.1,385.3,353.1,385.2,353.1z M162.1,353
		c-0.3,0-0.5-0.2-0.6-0.5c-0.1-0.4,0.1-0.7,0.4-0.8c1.8-0.6,3.5-1.1,5.1-1.6c0.4-0.1,0.7,0.1,0.8,0.5s-0.1,0.7-0.5,0.8
		c-1.6,0.5-3.3,1-5.1,1.5C162.2,353,162.2,353,162.1,353z M294.7,352.5L294.7,352.5c-1.9-0.2-3.6-0.5-5.4-0.7
		c-0.4,0-0.6-0.4-0.6-0.8s0.4-0.6,0.8-0.6c1.8,0.2,3.5,0.5,5.3,0.7c0.4,0,0.6,0.4,0.6,0.7C295.3,352.3,295.1,352.5,294.7,352.5z
		 M284.1,351.1L284.1,351.1c-1.9-0.2-3.6-0.5-5.4-0.7c-0.4,0-0.6-0.4-0.6-0.8s0.4-0.6,0.8-0.6c1.8,0.2,3.5,0.5,5.3,0.7
		c0.4,0,0.6,0.4,0.6,0.8C284.7,350.9,284.4,351.1,284.1,351.1z M395.5,350.1c-0.3,0-0.5-0.2-0.6-0.4c-0.1-0.3,0.1-0.7,0.4-0.9
		c1.7-0.6,3.3-1.2,5-1.9c0.3-0.1,0.7,0,0.9,0.4c0.1,0.3,0,0.7-0.4,0.9c-1.6,0.7-3.3,1.3-5,1.9C395.6,350.1,395.6,350.1,395.5,350.1z
		 M172.4,350.1c-0.3,0-0.6-0.2-0.6-0.5c-0.1-0.4,0.1-0.7,0.5-0.8c1.7-0.4,3.5-0.8,5.2-1.2c0.4-0.1,0.7,0.2,0.8,0.5
		c0.1,0.4-0.2,0.7-0.5,0.8c-1.7,0.4-3.5,0.8-5.2,1.2C172.5,350.1,172.5,350.1,172.4,350.1z M273.5,349.7
		C273.5,349.7,273.4,349.7,273.5,349.7c-1.9-0.2-3.6-0.5-5.4-0.7c-0.4,0-0.6-0.4-0.6-0.7c0-0.4,0.4-0.6,0.7-0.6
		c1.8,0.2,3.5,0.5,5.3,0.7c0.4,0,0.6,0.4,0.6,0.8C274.1,349.5,273.8,349.7,273.5,349.7z M262.9,348.4
		C262.9,348.4,262.8,348.4,262.9,348.4c-1.9-0.2-3.6-0.4-5.4-0.6c-0.4,0-0.6-0.4-0.6-0.7c0-0.4,0.4-0.6,0.7-0.6
		c1.8,0.2,3.5,0.4,5.3,0.6c0.4,0,0.6,0.4,0.6,0.7S263.2,348.4,262.9,348.4z M182.9,347.9c-0.3,0-0.6-0.2-0.7-0.6
		c-0.1-0.4,0.2-0.7,0.5-0.8c1.7-0.3,3.5-0.6,5.3-0.8c0.4-0.1,0.7,0.2,0.8,0.6s-0.2,0.7-0.6,0.8C186.4,347.3,184.7,347.6,182.9,347.9
		C183,347.9,182.9,347.9,182.9,347.9z M252.2,347.2L252.2,347.2c-1.9-0.2-3.7-0.4-5.4-0.5c-0.4,0-0.6-0.4-0.6-0.7
		c0-0.4,0.4-0.6,0.7-0.6c1.7,0.2,3.5,0.3,5.3,0.5c0.4,0,0.6,0.4,0.6,0.7C252.9,346.9,252.6,347.2,252.2,347.2z M193.5,346.4
		c-0.3,0-0.6-0.3-0.7-0.6c0-0.4,0.2-0.7,0.6-0.7c1.8-0.2,3.6-0.4,5.3-0.5c0.4,0,0.7,0.2,0.7,0.6s-0.2,0.7-0.6,0.7
		C197.1,346,195.3,346.2,193.5,346.4L193.5,346.4z M241.6,346.2C241.6,346.2,241.5,346.2,241.6,346.2c-1.8-0.1-3.6-0.3-5.4-0.4
		c-0.4,0-0.6-0.3-0.6-0.7c0-0.4,0.3-0.6,0.7-0.6c1.8,0.1,3.6,0.2,5.3,0.4c0.4,0,0.6,0.4,0.6,0.7
		C242.2,345.9,241.9,346.2,241.6,346.2z M405.4,346c-0.3,0-0.5-0.1-0.6-0.4c-0.2-0.3,0-0.7,0.3-0.9c1.6-0.8,3.2-1.6,4.7-2.4
		c0.3-0.2,0.7-0.1,0.9,0.3c0.2,0.3,0.1,0.7-0.3,0.9c-1.6,0.9-3.2,1.7-4.8,2.5C405.6,346,405.5,346,405.4,346z M230.9,345.5
		L230.9,345.5c-1.8-0.1-3.6-0.2-5.4-0.2c-0.4,0-0.7-0.3-0.6-0.7c0-0.4,0.3-0.7,0.7-0.6c1.8,0.1,3.6,0.1,5.4,0.2
		c0.4,0,0.7,0.3,0.6,0.7C231.6,345.2,231.3,345.5,230.9,345.5z M204.2,345.5c-0.4,0-0.6-0.3-0.7-0.6c0-0.4,0.3-0.7,0.6-0.7
		c1.8-0.1,3.6-0.2,5.4-0.2c0.4,0,0.7,0.3,0.7,0.6c0,0.4-0.3,0.7-0.6,0.7C207.7,345.3,205.9,345.4,204.2,345.5L204.2,345.5z
		 M220.2,345.2L220.2,345.2c-1.8,0-3.6,0-5.3,0l0,0c-0.4,0-0.7-0.3-0.7-0.7c0-0.4,0.3-0.7,0.7-0.7c1.8,0,3.6,0,5.4,0
		c0.4,0,0.7,0.3,0.7,0.7C220.9,344.9,220.6,345.2,220.2,345.2z M414.8,340.9c-0.2,0-0.4-0.1-0.6-0.3c-0.2-0.3-0.1-0.7,0.2-0.9
		c1.5-0.9,3-2,4.4-3c0.3-0.2,0.7-0.1,0.9,0.1c0.2,0.3,0.2,0.7-0.1,0.9c-1.4,1-2.9,2.1-4.5,3C415,340.9,414.9,340.9,414.8,340.9z
		 M423.4,334.6c-0.2,0-0.4-0.1-0.5-0.2c-0.2-0.3-0.2-0.7,0.1-0.9c1.4-1.1,2.7-2.3,3.9-3.5c0.3-0.3,0.7-0.3,0.9,0
		c0.3,0.3,0.3,0.7,0,0.9c-1.3,1.2-2.6,2.5-4,3.6C423.7,334.5,423.6,334.6,423.4,334.6z M431.1,327.2c-0.2,0-0.3-0.1-0.4-0.2
		c-0.3-0.2-0.3-0.7-0.1-0.9c0.4-0.5,0.9-1,1.3-1.5c0.7-0.8,1.4-1.7,2-2.6c0.2-0.3,0.6-0.4,0.9-0.2c0.3,0.2,0.4,0.6,0.2,0.9
		c-0.6,0.9-1.3,1.8-2.1,2.6c-0.4,0.5-0.9,1.1-1.3,1.6C431.5,327.1,431.3,327.2,431.1,327.2z M437.3,318.5c-0.1,0-0.2,0-0.3-0.1
		c-0.3-0.2-0.4-0.6-0.3-0.9c0.9-1.6,1.6-3.2,2.2-4.8c0.1-0.3,0.5-0.5,0.9-0.4c0.3,0.1,0.5,0.5,0.4,0.9c-0.6,1.6-1.4,3.3-2.3,4.9
		C437.8,318.3,437.6,318.5,437.3,318.5z M441,308.5h-0.1c-0.4-0.1-0.6-0.4-0.5-0.8c0.2-1.2,0.3-2.4,0.3-3.6c0-0.5,0-1-0.1-1.6
		c0-0.4,0.2-0.7,0.6-0.7s0.7,0.2,0.7,0.6c0,0.5,0.1,1.1,0.1,1.7c0,1.2-0.1,2.5-0.3,3.8C441.6,308.2,441.3,308.5,441,308.5z
		 M440,297.9c-0.3,0-0.5-0.2-0.6-0.4c-0.1-0.2-0.2-0.4-0.2-0.6c-0.6-1.4-1.4-2.7-2.3-3.9c-0.2-0.3-0.2-0.7,0.1-0.9
		c0.3-0.2,0.7-0.2,0.9,0.1c1,1.3,1.9,2.7,2.5,4.2c0.1,0.2,0.2,0.4,0.3,0.6c0.1,0.3,0,0.7-0.4,0.9C440.2,297.9,440.1,297.9,440,297.9
		z M433.6,289.5c-0.1,0-0.3,0-0.4-0.1c-1.3-1-2.8-2-4.4-2.8c-0.3-0.2-0.5-0.6-0.3-0.9s0.6-0.5,0.9-0.3c1.7,0.9,3.2,1.9,4.6,3
		c0.3,0.2,0.3,0.6,0.1,0.9C434,289.5,433.8,289.5,433.6,289.5z M424.2,284.5c-0.1,0-0.2,0-0.2,0c-1.5-0.6-3.2-1.1-5-1.6
		c-0.4-0.1-0.6-0.5-0.5-0.8c0.1-0.4,0.5-0.6,0.8-0.5c1.8,0.5,3.6,1.1,5.1,1.7c0.3,0.1,0.5,0.5,0.4,0.9
		C424.7,284.3,424.5,284.5,424.2,284.5z M413.9,281.5h-0.1c-1.7-0.4-3.5-0.8-5.2-1.1c-0.4-0.1-0.6-0.4-0.5-0.8s0.4-0.6,0.8-0.5
		c1.8,0.3,3.5,0.7,5.3,1.1c0.4,0.1,0.6,0.4,0.5,0.8C414.5,281.3,414.3,281.5,413.9,281.5z M403.4,279.5h-0.1
		c-1.7-0.3-3.5-0.5-5.3-0.7c-0.4,0-0.6-0.4-0.6-0.7c0-0.4,0.4-0.6,0.7-0.6c1.8,0.2,3.6,0.5,5.3,0.7c0.4,0.1,0.6,0.4,0.6,0.8
		C404,279.2,403.8,279.5,403.4,279.5z M392.8,278.2L392.8,278.2c-1.8-0.2-3.6-0.3-5.4-0.4c-0.4,0-0.7-0.3-0.6-0.7
		c0-0.4,0.3-0.6,0.7-0.6c1.8,0.1,3.6,0.2,5.4,0.4c0.4,0,0.6,0.4,0.6,0.7C393.4,277.9,393.2,278.2,392.8,278.2z M382.1,277.5
		L382.1,277.5c-2.2-0.2-3.9-0.4-5.4-0.8c-0.4-0.1-0.6-0.4-0.5-0.8s0.4-0.6,0.8-0.5c1.5,0.4,3.1,0.6,5.2,0.8c0.4,0,0.6,0.4,0.6,0.7
		C382.8,277.2,382.5,277.5,382.1,277.5z"/>
	<g>
		<path class="st3" d="M390.8,263.1c0,0,10.6-40.7,41.8-61.8c1-0.7,3.7,3.5,4.8,2.8c1.4-0.8,1.3-6.5,2.7-7.2c5.5-2.8,11.5-5,18-6.3
			c0,0-1.7,13.3-10.2,28.8c-0.6,1.2-6.7,0.7-7.4,1.8c-0.7,1.1,3.9,4,3.2,5.1C433.9,241,417.6,256.2,390.8,263.1z"/>
		<g>
			<path class="st2" d="M407.8,219c0.1-1.3-5.9-1.4-5.8-2.7s6.6-5.4,6.6-6.6c0.8-24.7-6-42.4-6-42.4c-7.7,6.4-13.8,13.5-18.7,21.1
				c-0.8,1.2,2.5,7.3,1.7,8.5c-0.8,1.4-6-0.7-6.7,0.7c-10.7,20.3-13.2,41.3-13.3,59.5c9.2,3.8,18.3,6.3,27.2,7.8
				C402.4,248.4,406.4,233.5,407.8,219z"/>
			<path class="st4" d="M382.5,255.1C382.5,255.1,382.4,255.1,382.5,255.1c-0.5-0.1-0.7-0.4-0.7-0.8c1-7.5,2.3-15.1,3.7-22.6
				c0.1-0.4,0.4-0.6,0.8-0.5s0.6,0.4,0.5,0.8c-1.4,7.4-2.6,15-3.7,22.5C383.1,254.9,382.8,255.1,382.5,255.1z"/>
			<path class="st4" d="M388.3,221.9h-0.1c-0.4-0.1-0.6-0.4-0.5-0.8c2.7-12.5,6-25.1,9.8-37.4l1.7-5.6c0.1-0.4,0.5-0.5,0.8-0.4
				c0.4,0.1,0.6,0.5,0.4,0.8l-1.7,5.6c-3.8,12.2-7.1,24.8-9.7,37.3C388.9,221.7,388.6,221.9,388.3,221.9z"/>
		</g>
		<g>
			<path class="st3" d="M388.6,263.9c0,0,21-35,59.5-19.2C448.1,244.7,427.3,273,388.6,263.9z"/>
			<path class="st4" d="M401.2,261.1c-0.2,0-0.5-0.1-0.6-0.3c-0.2-0.3-0.1-0.7,0.3-0.9c11.9-6.6,35.6-12.2,35.9-12.2
				c0.4-0.1,0.7,0.1,0.8,0.5c0.1,0.4-0.1,0.7-0.5,0.8c-0.2,0.1-23.8,5.6-35.5,12.1C401.4,261,401.3,261.1,401.2,261.1z"/>
		</g>
	</g>
	<g>
		<rect x="361.2" y="35.3" class="st5" width="25" height="227.8"/>
		<rect x="306.2" y="92.6" class="st5" width="135.2" height="25"/>
	</g>
	<g>
		<g>
			<g>
				<g>
					
						<linearGradient id="SVGID_1_" gradientUnits="userSpaceOnUse" x1="192.5145" y1="747.65" x2="204.5847" y2="747.65" gradientTransform="matrix(1 0 0 1 0 -402)">
						<stop  offset="0" style="stop-color:#FF928E"/>
						<stop  offset="1" style="stop-color:#FEB3B1"/>
					</linearGradient>
					<path class="st6" d="M194.2,335.9l-1.7,17.9c-0.1,0.5,0.3,1,0.7,1l8.9,0.6c0.4,0,0.7-0.3,0.8-0.7l1.7-16.3L194.2,335.9z"/>
				</g>
				<g>
					
						<linearGradient id="SVGID_2_" gradientUnits="userSpaceOnUse" x1="188.708" y1="760.1706" x2="228.56" y2="760.1706" gradientTransform="matrix(1 0 0 1 0 -402)">
						<stop  offset="0" style="stop-color:#09005D"/>
						<stop  offset="1" style="stop-color:#1A0F91"/>
					</linearGradient>
					<path class="st7" d="M191.1,349.2c-0.6,2.1-1.8,8.1-2.4,11.7c-0.3,2.3,1.1,4.4,3.3,5c6.2,1.7,20.9,1.6,33.2,2.1
						c0.8,0,2.4-0.4,3.1-2.4c2.3-6.9-10.6-9-23.3-16.1c-0.3-0.1-0.6-0.1-0.8,0c-0.1,0.1-0.3,0.2-0.6,0.4c-2.2,1.4-5.9,1.4-8.2,0.1
						l-2.5-1.5C192.2,348.1,191.3,348.5,191.1,349.2z"/>
				</g>
				<g>
					
						<linearGradient id="SVGID_3_" gradientUnits="userSpaceOnUse" x1="188.977" y1="766.7726" x2="227.7414" y2="766.7726" gradientTransform="matrix(1 0 0 1 0 -402)">
						<stop  offset="0" style="stop-color:#09005D"/>
						<stop  offset="1" style="stop-color:#1A0F91"/>
					</linearGradient>
					<path class="st8" d="M189,362.7v0.1c-0.2,1.5,0.9,2.7,3.5,3.9c5.9,2.8,30.2,1.2,31.2,1.1h0.1c0.1,0,3,0,3.7-1.5
						c0-0.1,0.1-0.3,0.2-0.7c0.1-0.4,0-0.9-0.1-1.3v-0.1c0,0,0,0-0.1,0c-4.3,1.1-14.9,1.6-26,0.4c-7-0.8-10.2-2.3-12-3.4
						c0,0,0,0-0.1,0c0,0,0,0-0.1,0.1L189,362.7z"/>
				</g>
			</g>
			<g>
				<path class="st5" d="M167.7,170c0,0-7.1,14.2-9.4,29.1c-2.2,13.9-10.4,71-30.2,116.9c-2.2,5.2,0.3,10.6,5.9,11.8
					c2.2,0.5,3.1-0.3,5.1-1.2c1-0.5,2.6-1.9,2.6-1.9s35.1-29.4,49.5-106.4c9.2-49.5,7.7-45.6,7.7-45.6L167.7,170z"/>
				<path class="st5" d="M177.6,176.5c0,0-4.1,26.9,3.7,46.8c7.5,19.1,12.3,94.1,9.5,115.8c-0.2,1.4,0.8,2.6,2.1,2.8
					c3.4,0.5,9.6,1.1,13.8,0.3c0.8-0.1,1.4-0.7,1.6-1.5c2.8-11,25.8-110.4,9.6-161.3L177.6,176.5z"/>
			</g>
			<g>
				
					<linearGradient id="SVGID_4_" gradientUnits="userSpaceOnUse" x1="121.4317" y1="729.4045" x2="138.5238" y2="729.4045" gradientTransform="matrix(1 0 0 1 0 -402)">
					<stop  offset="0" style="stop-color:#FF928E"/>
					<stop  offset="1" style="stop-color:#FEB3B1"/>
				</linearGradient>
				<path class="st9" d="M133.9,336.4c1.1-5.4,1.6-6.5,4.2-10.7c1.9-3.1-2.8-7.8-5.2-8.1c-4-0.8-3.4,0.4-7.9,6.3l-3.6,4.4
					C121.4,328.2,133,341.1,133.9,336.4z"/>
				<g>
					
						<linearGradient id="SVGID_5_" gradientUnits="userSpaceOnUse" x1="114.3682" y1="748.1129" x2="135.8429" y2="748.1129" gradientTransform="matrix(1 0 0 1 0 -402)">
						<stop  offset="0" style="stop-color:#09005D"/>
						<stop  offset="1" style="stop-color:#1A0F91"/>
					</linearGradient>
					<path class="st10" d="M134.5,334.4l-4.6-7c-2.2-3.3-6.7-3.7-9.5-1l-5.3,4.4c0,0-1,3-0.7,5c0.4,2.6,1.2,6.2,2.8,9.8
						c2.5,5.6,9.2,16.8,11.7,20.7c0.5,0.8,1.8,1.6,2.7,1.2c1-0.5,2.1-1.3,3.2-2.3c1.6-1.5,1.1-8.6,0.5-13.6
						c-0.4-3.2-0.1-11.3,0-14.6C135.3,336.1,135.1,335.2,134.5,334.4z"/>
				</g>
				<g>
					
						<linearGradient id="SVGID_6_" gradientUnits="userSpaceOnUse" x1="113.148" y1="750.2065" x2="135.8982" y2="750.2065" gradientTransform="matrix(1 0 0 1 0 -402)">
						<stop  offset="0" style="stop-color:#09005D"/>
						<stop  offset="1" style="stop-color:#1A0F91"/>
					</linearGradient>
					<path class="st11" d="M129.7,368c0.5,0,1-0.1,1.4-0.2c1.5-0.5,5.2-1.6,4.8-6.9c-0.4-5.5-4.6-8.3-7.7-11.9
						c-2.3-2.8-2.1-14.3-2.8-16.6c-1-3.1-4.5-4.8-7.5-3.6c-0.9,0.3-2,1.5-2.7,2.2c-1.9,2-2.1,6.4-1.9,9.7c0.3,6.1,3.9,18.1,8.4,24
						C123.8,367.3,127.2,368,129.7,368z"/>
				</g>
			</g>
		</g>
		<g>
			
				<linearGradient id="SVGID_7_" gradientUnits="userSpaceOnUse" x1="183.9321" y1="488.4" x2="201.3321" y2="488.4" gradientTransform="matrix(1 0 0 1 0 -402)">
				<stop  offset="0" style="stop-color:#FF928E"/>
				<stop  offset="1" style="stop-color:#FEB3B1"/>
			</linearGradient>
			<path class="st12" d="M200.8,81.1l-13.1-3.4c-0.2,0-0.4,0-0.5,0.1c-0.2,0.1-0.3,0.3-0.3,0.4L184,94.3c0,0.2,0,0.4,0.2,0.6
				c0.1,0.1,0.3,0.2,0.5,0.2c0,0,0,0,0.1,0l14.2-1.5c0.3,0,0.5-0.3,0.6-0.6l1.8-11.2C201.4,81.5,201.1,81.2,200.8,81.1z"/>
			<g>
				
					<linearGradient id="SVGID_8_" gradientUnits="userSpaceOnUse" x1="177.3447" y1="474.7218" x2="209.984" y2="474.7218" gradientTransform="matrix(1 0 0 1 0 -402)">
					<stop  offset="0" style="stop-color:#09005D"/>
					<stop  offset="1" style="stop-color:#1A0F91"/>
				</linearGradient>
				<path class="st13" d="M198.3,56.7c-4.7,0.6-5.3,5.9-10.9,6.5c-2.6,0.3-3.9-0.7-6.1,0.4c-1.5,0.7-3.7,2.5-3.9,4.8
					c-0.3,2.9,2.9,3.6,6.2,9.2c2.3,4,2.4,6.6,4.3,6.9c1.9,0.3,2.7-2.3,4.7-2.1c2.7,0.2,3,4.6,5.8,6c1.8,0.8,5.5,0.7,10.7-3.3
					c0.8-0.6,1.1-1.8,0.6-2.7c-0.6-1.2-1.4-2.7-2.2-4.1c-4.1-6.7-7-7.8-6.4-9.8c0.9-3.1,6.6-2.6,7.1-5.1
					C208.6,60.8,203.2,56.1,198.3,56.7z"/>
				
					<linearGradient id="SVGID_9_" gradientUnits="userSpaceOnUse" x1="190.061" y1="474.9487" x2="208.3955" y2="474.9487" gradientTransform="matrix(1 0 0 1 0 -402)">
					<stop  offset="0" style="stop-color:#FF928E"/>
					<stop  offset="1" style="stop-color:#FEB3B1"/>
				</linearGradient>
				<path class="st14" d="M207.9,73.9c-1.5-1.5-5.2-5.4-6.9-9.1c-0.1-0.2-0.3-0.4-0.6-0.4s-6.4-0.3-10.2,5.5
					c-0.2,0.3-0.1,0.6,0.1,0.8c0.2,0.2,0.5,0.3,0.8,0.1l0.6-0.3c1,2,4,8.2,5.4,10.1c0.5,0.6,1.2,0.9,2,0.9c2.6,0,6.6-2.3,7.5-2.9
					c0.2-0.1,0.3-0.3,0.3-0.5l0.1-1.2l0.6-0.4c0.4-0.3,0.7-0.7,0.8-1.3C208.5,74.7,208.3,74.2,207.9,73.9z"/>
				
					<linearGradient id="SVGID_10_" gradientUnits="userSpaceOnUse" x1="188.2948" y1="478.0288" x2="193.3901" y2="478.0288" gradientTransform="matrix(1 0 0 1 0 -402)">
					<stop  offset="0" style="stop-color:#FF928E"/>
					<stop  offset="1" style="stop-color:#FEB3B1"/>
				</linearGradient>
				<path class="st15" d="M193.4,76.5c0,0-3.3-4-4.7-2.1C187.1,76.3,190.8,80.5,193.4,76.5z"/>
			</g>
		</g>
		<g>
			
				<linearGradient id="SVGID_11_" gradientUnits="userSpaceOnUse" x1="-511.3989" y1="493.069" x2="-555.1749" y2="552.1401" gradientTransform="matrix(-1 0 0 1 -302.8535 -402)">
				<stop  offset="0" style="stop-color:#FE7062"/>
				<stop  offset="1" style="stop-color:#FF928E"/>
			</linearGradient>
			<path class="st16" d="M205.4,93.4c0,0,14.3,8.1,20.7,28.1c6.4,20.1,6.2,27.7,9.7,24c3.6-3.7,13.1-38.1,13.1-38.1l9,2.8
				c0,0-10.7,55-25,51.8c-14.4-3.1-28.4-31.9-28.4-31.9L205.4,93.4z"/>
			
				<linearGradient id="SVGID_12_" gradientUnits="userSpaceOnUse" x1="150.5" y1="551.5406" x2="230.6469" y2="551.5406" gradientTransform="matrix(1 0 0 1 0 -402)">
				<stop  offset="0" style="stop-color:#FE7062"/>
				<stop  offset="1" style="stop-color:#FF928E"/>
			</linearGradient>
			<path class="st17" d="M150.5,201.4c0,0,10.4-66.3,18.8-86.9c5.7-14,13.9-20.3,13.9-20.3c4.3-1.4,8.9-2,13.2-2.2
				c10.9-0.5,24.8,9.1,28.5,19.3l5,13.8c3.2,14.4-4.9,70.8-5.2,82L150.5,201.4z"/>
			
				<linearGradient id="SVGID_13_" gradientUnits="userSpaceOnUse" x1="-1871.9047" y1="292.5741" x2="-1879.2689" y2="335.1587" gradientTransform="matrix(0.983 -0.1834 0.1834 0.983 2039.66 -715.6702)">
				<stop  offset="0" style="stop-color:#FF928E"/>
				<stop  offset="1" style="stop-color:#FEB3B1"/>
			</linearGradient>
			<path class="st18" d="M248.7,108.6c0,0-0.5-4.4-0.1-8c0.3-3.6,4-9.1,4.3-7.3c0.3,1.8,0.3,1.6,0.3,1.6s4.4-11.5,6.7-9.8
				c2.4,1.7,5.3,9.2,0,23.1c-0.3,0.7-2.5,4.8-2.5,4.8L248.7,108.6z"/>
			
				<linearGradient id="SVGID_14_" gradientUnits="userSpaceOnUse" x1="-1898.0605" y1="444.381" x2="-2022.6121" y2="612.4503" gradientTransform="matrix(0.983 -0.1834 0.1834 0.983 2039.66 -715.6702)">
				<stop  offset="0" style="stop-color:#FF928E"/>
				<stop  offset="1" style="stop-color:#FE7062"/>
			</linearGradient>
			<path class="st19" d="M205.4,93.4c0,0,19.2,13.3,28.9,38.1c0,0,6,14.5,7.7,12.8s10.3-32.6,9.7-38.8l8.3,5.4
				c0,0-1.6,54.4-18.9,52.2c-17.4-2.2-32.5-30.7-32.5-30.7L205.4,93.4z"/>
			
				<linearGradient id="SVGID_15_" gradientUnits="userSpaceOnUse" x1="-1883.9282" y1="429.882" x2="-1910.4264" y2="500.6961" gradientTransform="matrix(0.983 -0.1834 0.1834 0.983 2039.66 -715.6702)">
				<stop  offset="0" style="stop-color:#FF928E"/>
				<stop  offset="1" style="stop-color:#FEB3B1"/>
			</linearGradient>
			<path class="st20" d="M251.7,106.6c0,0-0.9-4.5,0.2-7.4c1.2-2.8,1.9-7.6,2.8-5.4c0.9,2.1,0.1,0.4,0.1,0.4s2.6-10.2,5.3-7.9
				c2.7,2.2,6.6,6.7,4.5,14.9s-4.5,10.2-4.5,10.2L251.7,106.6z"/>
		</g>
	</g>
	<g>
		<g>
			<g>
				
					<linearGradient id="SVGID_16_" gradientUnits="userSpaceOnUse" x1="330.7017" y1="578.4808" x2="341.5562" y2="578.4808" gradientTransform="matrix(0.9931 0.117 -0.117 0.9931 47.0723 -418.4992)">
					<stop  offset="0" style="stop-color:#FF928E"/>
					<stop  offset="1" style="stop-color:#FEB3B1"/>
				</linearGradient>
				<path class="st21" d="M308.7,207.1c0,0-1.8-13.8,0.1-17.5s2.5,5,2.5,5s4.5-14.9,5.7-14.4s2.2,2.8,2.2,2.8s0.5,8.3-0.5,12
					c-1,3.6-5.4,15.9-5.4,15.9L308.7,207.1z"/>
				
					<linearGradient id="SVGID_17_" gradientUnits="userSpaceOnUse" x1="195.9454" y1="622.4291" x2="230.4485" y2="697.5237" gradientTransform="matrix(0.943 -0.3328 0.3328 0.943 -121.0139 -318.0847)">
					<stop  offset="0" style="stop-color:#FE7062"/>
					<stop  offset="1" style="stop-color:#FF928E"/>
				</linearGradient>
				<path class="st22" d="M281.7,179.7c0,0-14.2,15.5-9.8,36s0.9,36.7,0.9,36.7l27.1-9.6c0,0,15-35.8,10.2-44s-14.2-15.2-16.5-15.6
					C291.5,182.7,281.7,179.7,281.7,179.7z"/>
				
					<linearGradient id="SVGID_18_" gradientUnits="userSpaceOnUse" x1="334.2209" y1="577.4642" x2="346.6294" y2="577.4642" gradientTransform="matrix(0.9931 0.117 -0.117 0.9931 47.0723 -418.4992)">
					<stop  offset="0" style="stop-color:#FF928E"/>
					<stop  offset="1" style="stop-color:#FEB3B1"/>
				</linearGradient>
				<path class="st23" d="M316.3,208.7c0,0-5.5-12.8-4.6-16.8c0.9-4.1,3.7,4.2,3.7,4.2s0.4-15.5,1.6-15.4c1.3,0.2,2.8,2.1,2.8,2.1
					s2.7,7.9,2.7,11.7s-0.4,14.4-0.4,14.4L316.3,208.7z"/>
				
					<linearGradient id="SVGID_19_" gradientUnits="userSpaceOnUse" x1="283.4" y1="612.8792" x2="327.2941" y2="612.8792" gradientTransform="matrix(1 0 0 1 0 -402)">
					<stop  offset="0" style="stop-color:#FF928E"/>
					<stop  offset="1" style="stop-color:#FE7062"/>
				</linearGradient>
				<path class="st24" d="M283.4,187.5c0,0,15.1,1,17.7,3s13.7,21.1,13.7,21.1l-0.8-4.8c0,0,9.5-0.4,9.6-0.3s7.4,20.6,1.2,26.3
					c-6.2,5.6-23.4-6.3-28.8-12.5C290.6,214.1,283.4,187.5,283.4,187.5z"/>
			</g>
			<g>
				
					<linearGradient id="SVGID_20_" gradientUnits="userSpaceOnUse" x1="-3765.7778" y1="446.8852" x2="-3739.7788" y2="446.8852" gradientTransform="matrix(-0.4669 -0.8843 -0.8843 0.4669 -1075.6526 -3230.8599)">
					<stop  offset="0.4042" style="stop-color:#FF928E"/>
					<stop  offset="0.6059" style="stop-color:#FF9490"/>
					<stop  offset="1" style="stop-color:#FEB3B1"/>
				</linearGradient>
				<path class="st25" d="M313.1,277.8c0,0,2,5.9,1.2,14.2c-0.1,1.3-1,2.4-2.2,2.9c-6.2,2.3-26.6,9.3-50.2,9c-1.2,0-2.5,0.4-3.4,1.2
					l-7.1,6l-1.3,4.8l-4.4-8.3l12-13.4l2,2c1.5,1.5,3.9,1.9,5.8,0.9l16.1-8.2c7-4,14.3-2,14.3-2l2.1-7.2L313.1,277.8z"/>
				
					<linearGradient id="SVGID_21_" gradientUnits="userSpaceOnUse" x1="-3369.4407" y1="318.2662" x2="-3373.7793" y2="384.7926" gradientTransform="matrix(0.5616 -0.8274 -0.8274 -0.5616 2424.1543 -2294.218)">
					<stop  offset="0" style="stop-color:#4042E2"/>
					<stop  offset="1" style="stop-color:#4F52FF"/>
				</linearGradient>
				<path class="st26" d="M260.4,296.5c0,0-0.6-3.6-4-3.8c0,0-14.9,15.3-16.7,20.9c0,0,2.9,0.5,9-3l-0.6,0.2
					c-0.7,0.2-1.3-0.6-0.9-1.2C249.9,306.2,255.5,299.4,260.4,296.5z"/>
				
					<linearGradient id="SVGID_22_" gradientUnits="userSpaceOnUse" x1="-3695.0005" y1="288.7693" x2="-3632.7041" y2="288.7693" gradientTransform="matrix(0.2168 -0.9762 -0.9762 -0.2168 1351.2145 -3208.2249)">
					<stop  offset="0" style="stop-color:#FF928E"/>
					<stop  offset="1" style="stop-color:#FEB3B1"/>
				</linearGradient>
				<path class="st27" d="M300.3,279.6c0.1,0.1-1.6,16.1-1.6,16.1s-4.6-1.6-11.5-1.4c-6.9,0.1-40.3,16.8-40.3,16.8l-7.1-4.1
					c-4.2,6.8-6.3,14.1-6.2,21.6l12.2-12.9c0,0,50.6-3.4,60.9-10l8.9-14.4L300.3,279.6z"/>
				
					<linearGradient id="SVGID_23_" gradientUnits="userSpaceOnUse" x1="-3479.5833" y1="371.679" x2="-3483.9221" y2="438.2054" gradientTransform="matrix(0.2191 -0.9757 -0.9757 -0.2191 1380.6882 -2991.2732)">
					<stop  offset="0" style="stop-color:#4042E2"/>
					<stop  offset="1" style="stop-color:#4F52FF"/>
				</linearGradient>
				<path class="st28" d="M241.3,308.1c0,0-1.9-3.1-5.1-2c0,0-8.2,19.7-7.8,25.6c0,0,2.9-0.6,7.3-6.1l-0.5,0.4
					c-0.6,0.5-1.4-0.1-1.2-0.8C235.2,321,237.8,312.7,241.3,308.1z"/>
			</g>
			
				<linearGradient id="SVGID_24_" gradientUnits="userSpaceOnUse" x1="266.5855" y1="674.8975" x2="320.7295" y2="674.8975" gradientTransform="matrix(1 0 0 1 0 -402)">
				<stop  offset="0" style="stop-color:#4042E2"/>
				<stop  offset="1" style="stop-color:#4F52FF"/>
			</linearGradient>
			<path class="st29" d="M274,239.7c-1.5,19.1-4.6,35.5-5.6,37.8c-1.2,2.8-1.7,5-1.8,6.6c-0.2,2.5,1.7,4.6,4.2,4.6
				c4.3,0,12.6,0.1,23.2,1.3c15.5,1.6,18.6,15.3,18.6,15.3s7.3,4.3,8.1-7.1c0.9-11.4-19.1-51.6-20.4-57.1L274,239.7z"/>
		</g>
		<g>
			<g>
				
					<linearGradient id="SVGID_25_" gradientUnits="userSpaceOnUse" x1="278.0336" y1="576.0303" x2="309.4105" y2="576.0303" gradientTransform="matrix(1 0 0 1 0 -402)">
					<stop  offset="0" style="stop-color:#FF928E"/>
					<stop  offset="1" style="stop-color:#FEB3B1"/>
				</linearGradient>
				<path class="st30" d="M308.4,160.6c1,0.6,1,2.8,1,4c-0.2,3.7-3.8,11.8-6.5,11.9c-2.7,0-2.2-1.1-4.4-0.4
					c-1.7,0.6-6.4,15.2-14.8,12.3c-8-2.7-5.1-9.8-5-10.2c0-0.2,6.4,0.6,6.5,0.4c2-2.7,4.1-7.6,4.1-7.6S298.1,154.6,308.4,160.6z"/>
			</g>
			<path d="M299.4,167.5c0.2,0.1,0.5,0.1,0.6-0.1c0.1-0.2,0.1-0.5-0.1-0.6c-0.9-0.6-0.9-2.1-0.5-3.2c0.4-1,0.9-1.5,1.3-1.5
				c1.1,0.1,1,2.3,1,2.3c0,0.2,0.2,0.4,0.4,0.4c0.2,0,0.4-0.2,0.4-0.4c0-1.1-0.3-3-1.8-3.2c-0.8-0.1-1.7,0.7-2.2,2.1
				C298.1,164.7,298.1,166.6,299.4,167.5L299.4,167.5z"/>
			
				<linearGradient id="SVGID_26_" gradientUnits="userSpaceOnUse" x1="246.5586" y1="574.8531" x2="312.5785" y2="574.8531" gradientTransform="matrix(1 0 0 1 0 -402)">
				<stop  offset="0" style="stop-color:#09005D"/>
				<stop  offset="1" style="stop-color:#1A0F91"/>
			</linearGradient>
			<path class="st31" d="M312.1,160.5c-0.7,2.3-3.1,1.8-5.5,2.3c-2.5,0.5-3.7,2.4-4.6,1.8c-0.1-0.1-0.3-0.8-0.1-1.5
				c0.2-1.2-2.3-2.9-3,1.6c-1.1,7-3.2,24.1-12.2,32.5c-7.2,6.7-13.2,8.4-30.3-2c-14.3-8.7-10.3-29.3-4.9-35
				c12.1-12.9,17.5,12.4,31.3-7.2c9.7-13.8,27-13.5,29.7,2.9C312.7,157.3,312.5,159,312.1,160.5z"/>
		</g>
	</g>
	<g>
		<path class="st2" d="M393.5,81.4c-0.1,0-0.2,0-0.4-0.1c-0.3-0.2-0.4-0.6-0.2-0.9l44.4-70c0.2-0.3,0.6-0.4,0.9-0.2s0.4,0.6,0.2,0.9
			l-44.4,70C393.9,81.3,393.7,81.4,393.5,81.4z"/>
		<path class="st2" d="M443.5,46.4c-0.2,0-0.4-0.1-0.5-0.2c-0.2-0.3-0.2-0.7,0.1-0.9l5.8-4.8c0.3-0.2,0.7-0.2,0.9,0.1
			c0.2,0.3,0.2,0.7-0.1,0.9l-5.8,4.8C443.8,46.4,443.6,46.4,443.5,46.4z"/>
		<path class="st2" d="M399,83.7c-0.2,0-0.4-0.1-0.5-0.2c-0.2-0.3-0.2-0.7,0.1-0.9L437.5,50c0.3-0.2,0.7-0.2,0.9,0.1
			c0.2,0.3,0.2,0.7-0.1,0.9l-38.9,32.6C399.3,83.6,399.2,83.7,399,83.7z"/>
		<g>
			<path class="st2" d="M346,126.3c-0.3,0-0.5-0.1-0.6-0.4c-0.2-0.3,0-0.7,0.3-0.9l6.7-3c0.3-0.2,0.7,0,0.9,0.3
				c0.2,0.3,0,0.7-0.3,0.9l-6.7,3C346.2,126.2,346.1,126.3,346,126.3z"/>
			<path class="st2" d="M322.8,136.6c-0.3,0-0.5-0.1-0.6-0.4c-0.2-0.3,0-0.7,0.3-0.9l16.5-7.4c0.3-0.2,0.7,0,0.9,0.3
				c0.2,0.3,0,0.7-0.3,0.9l-16.5,7.4C323,136.6,322.9,136.6,322.8,136.6z"/>
		</g>
		<g>
			<path class="st2" d="M330.7,168c-0.1,0-0.3,0-0.4-0.1c-0.3-0.2-0.4-0.6-0.2-0.9l4.4-6.5c0.2-0.3,0.6-0.4,0.9-0.2s0.4,0.6,0.2,0.9
				l-4.4,6.5C331.1,167.9,330.9,168,330.7,168z"/>
			<path class="st2" d="M339.6,154.8c-0.1,0-0.3,0-0.4-0.1c-0.3-0.2-0.4-0.6-0.2-0.9l17.3-25.6c0.2-0.3,0.6-0.4,0.9-0.2
				c0.3,0.2,0.4,0.6,0.2,0.9l-17.3,25.6C340.1,154.7,339.9,154.8,339.6,154.8z"/>
		</g>
		<path class="st2" d="M347.8,345.3c-22.6,0-41.6-3.6-41.8-3.7c-0.4-0.1-0.6-0.4-0.5-0.8s0.4-0.6,0.8-0.5c0.3,0.1,26.7,5.1,54.4,3.2
			c25.3-1.7,56.9-9.9,63.2-38.7c0.1-0.4,0.4-0.6,0.8-0.5s0.6,0.4,0.5,0.8c-2.9,13.1-11,23.2-24.1,30c-10.4,5.4-24,8.7-40.3,9.8
			C356.4,345.2,352,345.3,347.8,345.3z"/>
	</g>
</g>
</svg>
