<?xml version="1.0" encoding="utf-8"?>
<!-- Generator: Adobe Illustrator 25.3.1, SVG Export Plug-In . SVG Version: 6.00 Build 0)  -->
<svg version="1.1" id="church_event" xmlns="http://www.w3.org/2000/svg" xmlns:xlink="http://www.w3.org/1999/xlink" x="0px"
	 y="0px" viewBox="0 0 626 443" style="enable-background:new 0 0 626 443;" xml:space="preserve">
<style type="text/css">
	.st0{opacity:0.3;fill:#DCE4EF;}
	.st1{fill:#DFE1E5;}
	.st2{fill:#FFFFFF;}
	.st3{fill:#78BCFF;}
	.st4{fill:#EFF1F4;}
	.st5{fill:url(#SVGID_1_);}
	.st6{fill:url(#SVGID_2_);}
	.st7{fill:url(#SVGID_3_);}
	.st8{fill:url(#SVGID_4_);}
	.st9{fill:url(#SVGID_5_);}
	.st10{fill:url(#SVGID_6_);}
	.st11{fill:url(#SVGID_7_);}
	.st12{fill:url(#SVGID_8_);}
	.st13{fill:url(#SVGID_9_);}
	.st14{fill:none;}
	.st15{fill:#F8AE23;}
	.st16{fill:#FFC19A;}
	.st17{fill:#111431;}
	.st18{fill:#F5B695;}
	.st19{fill:#242A67;}
	.st20{fill:#5179F7;}
	.st21{fill:url(#SVGID_10_);}
	.st22{fill:#FC7669;}
	.st23{fill:#FC857C;}
	.st24{fill:url(#SVGID_11_);}
	.st25{fill:url(#SVGID_12_);}
	.st26{fill:#BFD0F6;}
	.st27{fill:#B0634B;}
	.st28{fill:#1B1D29;}
	.st29{fill:#A15A45;}
	.st30{fill:#91B394;}
	.st31{fill:#BAD1BC;}
	.st32{fill:#333333;}
	.st33{fill:#C8E8E8;}
	.st34{fill:url(#SVGID_13_);}
	.st35{fill:#FFD147;}
	.st36{fill:url(#SVGID_14_);}
	.st37{fill:url(#SVGID_15_);}
</style>
<g>
	<g>
		<ellipse class="st0" cx="322.6" cy="363.2" rx="278.3" ry="22"/>
		<g>
			<rect x="96.2" y="123.3" class="st1" width="452.8" height="230.6"/>
			<g>
				<rect x="135.4" y="158.2" class="st2" width="64.4" height="64.4"/>
				<g>
					<rect x="238.8" y="158.2" class="st2" width="64.4" height="64.4"/>
				</g>
				<g>
					<rect x="342.1" y="158.2" class="st2" width="64.4" height="64.4"/>
				</g>
				<g>
					<rect x="445.4" y="158.2" class="st2" width="64.4" height="64.4"/>
				</g>
				<rect x="135.4" y="254.6" class="st2" width="64.4" height="64.4"/>
				<g>
					<rect x="238.8" y="254.6" class="st2" width="64.4" height="64.4"/>
				</g>
				<g>
					<rect x="342.1" y="254.6" class="st2" width="64.4" height="64.4"/>
				</g>
				<g>
					<rect x="445.4" y="254.6" class="st2" width="64.4" height="64.4"/>
				</g>
			</g>
			<rect x="95" y="87.3" class="st3" width="454.1" height="35.9"/>
			<g>
				<g>
					<path class="st4" d="M407,114L407,114c-5.3,0-9.6-4.3-9.6-9.6V70.2c0-5.3,4.3-9.6,9.6-9.6h0c5.3,0,9.6,4.3,9.6,9.6v34.2
						C416.6,109.7,412.3,114,407,114z"/>
					<path class="st4" d="M439.2,114L439.2,114c-5.3,0-9.6-4.3-9.6-9.6V70.2c0-5.3,4.3-9.6,9.6-9.6h0c5.3,0,9.6,4.3,9.6,9.6v34.2
						C448.8,109.7,444.5,114,439.2,114z"/>
				</g>
				<g>
					<path class="st4" d="M206.1,114L206.1,114c-5.3,0-9.6-4.3-9.6-9.6V70.2c0-5.3,4.3-9.6,9.6-9.6h0c5.3,0,9.6,4.3,9.6,9.6v34.2
						C215.6,109.7,211.3,114,206.1,114z"/>
					<path class="st4" d="M238.3,114L238.3,114c-5.3,0-9.6-4.3-9.6-9.6V70.2c0-5.3,4.3-9.6,9.6-9.6h0c5.3,0,9.6,4.3,9.6,9.6v34.2
						C247.8,109.7,243.5,114,238.3,114z"/>
				</g>
			</g>
		</g>
		<g>
			<circle class="st3" cx="102.9" cy="105.4" r="66.1"/>
			<circle class="st2" cx="102.9" cy="105.4" r="56.4"/>
			<linearGradient id="SVGID_1_" gradientUnits="userSpaceOnUse" x1="65.2575" y1="140.7107" x2="69.8649" y2="140.7107">
				<stop  offset="0" style="stop-color:#FE7062"/>
				<stop  offset="1" style="stop-color:#FF928E"/>
			</linearGradient>
			<path class="st5" d="M65.9,139.1c0.9-0.9,2.4-0.9,3.3,0s0.9,2.4,0,3.3c-0.9,0.9-2.4,0.9-3.3,0S65,140,65.9,139.1z"/>
			<linearGradient id="SVGID_2_" gradientUnits="userSpaceOnUse" x1="100.6044" y1="155.3518" x2="105.2118" y2="155.3518">
				<stop  offset="0" style="stop-color:#FE7062"/>
				<stop  offset="1" style="stop-color:#FF928E"/>
			</linearGradient>
			<circle class="st6" cx="102.9" cy="155.4" r="2.3"/>
			<linearGradient id="SVGID_3_" gradientUnits="userSpaceOnUse" x1="135.9513" y1="140.7107" x2="140.5587" y2="140.7107">
				<stop  offset="0" style="stop-color:#FE7062"/>
				<stop  offset="1" style="stop-color:#FF928E"/>
			</linearGradient>
			<circle class="st7" cx="138.3" cy="140.7" r="2.3"/>
			<linearGradient id="SVGID_4_" gradientUnits="userSpaceOnUse" x1="150.5925" y1="105.3638" x2="155.1999" y2="105.3638">
				<stop  offset="0" style="stop-color:#FE7062"/>
				<stop  offset="1" style="stop-color:#FF928E"/>
			</linearGradient>
			<circle class="st8" cx="152.9" cy="105.4" r="2.3"/>
			<linearGradient id="SVGID_5_" gradientUnits="userSpaceOnUse" x1="135.9513" y1="70.0169" x2="140.5587" y2="70.0169">
				<stop  offset="0" style="stop-color:#FE7062"/>
				<stop  offset="1" style="stop-color:#FF928E"/>
			</linearGradient>
			<path class="st9" d="M139.9,71.6c-0.9,0.9-2.4,0.9-3.3,0c-0.9-0.9-0.9-2.4,0-3.3c0.9-0.9,2.4-0.9,3.3,0S140.8,70.7,139.9,71.6z"
				/>
			<linearGradient id="SVGID_6_" gradientUnits="userSpaceOnUse" x1="100.6044" y1="55.3757" x2="105.2118" y2="55.3757">
				<stop  offset="0" style="stop-color:#FE7062"/>
				<stop  offset="1" style="stop-color:#FF928E"/>
			</linearGradient>
			<circle class="st10" cx="102.9" cy="55.4" r="2.3"/>
			<linearGradient id="SVGID_7_" gradientUnits="userSpaceOnUse" x1="65.2575" y1="70.0169" x2="69.8649" y2="70.0169">
				<stop  offset="0" style="stop-color:#FE7062"/>
				<stop  offset="1" style="stop-color:#FF928E"/>
			</linearGradient>
			<circle class="st11" cx="67.6" cy="70" r="2.3"/>
			<linearGradient id="SVGID_8_" gradientUnits="userSpaceOnUse" x1="50.6164" y1="105.3638" x2="55.2238" y2="105.3638">
				<stop  offset="0" style="stop-color:#FE7062"/>
				<stop  offset="1" style="stop-color:#FF928E"/>
			</linearGradient>
			<circle class="st12" cx="52.9" cy="105.4" r="2.3"/>
			<linearGradient id="SVGID_9_" gradientUnits="userSpaceOnUse" x1="79.4068" y1="97.4704" x2="114.0489" y2="97.4704">
				<stop  offset="0" style="stop-color:#FE7062"/>
				<stop  offset="1" style="stop-color:#FF928E"/>
			</linearGradient>
			<path class="st13" d="M114,67.1c0.1-0.4-0.1-0.8-0.5-0.9l-0.3-0.1c-0.4-0.1-0.8,0.1-0.9,0.5l-8.6,32c0,0-0.2,0.7-0.3,1.2
				c-1.6-0.1-3.2,0.4-4.4,1.6c-1.5,1.5-2,3.8-1.3,5.7L80,124.7c-0.8,0.8-0.8,2.2,0,3l0.6,0.6c0.8,0.8,2.2,0.8,3,0l17.6-17.6
				c1.9,0.6,4.2,0.2,5.7-1.3c2.2-2.2,2.2-5.7,0-7.9c-0.5-0.5-1.1-0.9-1.7-1.2c0.1-0.5,0.3-1.1,0.3-1.1L114,67.1z"/>
		</g>
		<path class="st14" d="M268.4,316.7l0-0.2c0,0,0,0,0-0.1C268.4,316.5,268.4,316.6,268.4,316.7z"/>
		<path class="st15" d="M268.3,317.6c0.1-0.3,0.1-0.6,0.1-0.9L268.3,317.6z"/>
		<path class="st14" d="M442.3,291.9c0.1-0.1,0-0.3-0.2-0.6C442.2,291.5,442.3,291.7,442.3,291.9z"/>
	</g>
	<g>
		<g>
			<path class="st16" d="M592.6,224.8c1.8,0,4.8,0,6.3-0.2c1.5-0.3,5.3,2-1,2.4c21.2,4.7,8,20.2-8.2,5.7c-2.2-0.9-7.3-2.9-13.6-5.5
				l5-6.7C585.3,222.9,589.2,224.5,592.6,224.8z"/>
			<path class="st16" d="M500.8,127.1c0.4-1.7,1.1-4.7,1.7-6c0.6-1.4-0.8-5.6-2.5,0.4c0.4-21.7-17.8-12.5-7.4,6.6
				c0.4,2.4,1.1,7.8,2.2,14.4l7.7-3.3C500.9,134.6,500.2,130.4,500.8,127.1z"/>
			<path class="st16" d="M555.8,297.8c0,0,9.7-2.4,15.6-1.3c4.6,0.8,5.9,5.5,5.9,5.5s1.5-2.5,1.5-6.2c0-3.6-0.8-9.1-2.3-9.4
				c-1.4-0.3-6.7,2.6-11.8,3.8s-11.7,2.8-13.9,3.9C548.5,295.3,555.8,297.8,555.8,297.8z"/>
			<path class="st17" d="M575.3,298.7c0,0,5.1,11.7,6.2,12c1.1,0.3,2.2-0.9,2.2-3.5c0-2.6-2.6-20.8-3.8-22.3
				c-0.7-0.9-6.5,1.1-6.2,1.7c0.4,0.8,2.2-0.7,2.7,4c0.5,4.7,0.8,6-0.6,7.4C575.2,298.8,575.3,298.7,575.3,298.7z"/>
			<path class="st16" d="M503.6,334.4l8.4-2c2.8,6.9,0.8,20.1,3.3,25.3c2.5,5.2-11.2,4.4-11.2,4.4l-1-2.2c0,0,4.1-3.3,3.3-9.5
				c-0.4-3.5,0.1-12.4-0.8-13.4C504.8,335.9,503.6,334.4,503.6,334.4z"/>
			<path class="st17" d="M503.1,359.8c0,0-10.7,6.9-10.8,8.1c-0.1,1.2,1.2,2.1,3.8,1.6c2.6-0.4,20-6.1,21.4-7.4
				c0.8-0.8-2.2-6.2-2.7-5.8c-0.8,0.5,1.1,2-3.5,3.3c-4.6,1.3-5.8,1.8-7.4,0.6C502.5,359.5,503.1,359.8,503.1,359.8z"/>
			<path class="st18" d="M523.9,174.6c0,0-11.1,7.9-17.6,7.4c-6.5-0.5,10.1,18.1,10.1,18.1s18.3-17.3,16.4-18
				C530.8,181.3,523.9,174.6,523.9,174.6z"/>
			<path class="st17" d="M505.3,348.7l-8.8-51c-0.1-0.4-0.1-0.8-0.1-1.3l-3.5-52.3l29.3-4.2c0,0-4.8,7.9,0.2,8.3
				c2.4,0.2,1.1,23.3-4.3,47.9c-4.1,18.8-3,39.7-3.4,51.2L505.3,348.7z"/>
			<path class="st19" d="M565.3,296.7c-14.3,3.1-34.6,11.3-46.8,12.5c-16.7,1.4-13.8-12.8-13.2-18.7c0.5-5.8,0.5-42.4-0.6-48.3
				c3.4-1.2,16.8-2.9,23.6-3.7c5.7,10.7,7.1,18.8,2.7,25.1c-3.8,5.5-8.4,19.7-9.3,29.9c13.4-9.8,30.3-6,43.1-3.8L565.3,296.7z"/>
			<path class="st20" d="M590.7,222.9l-62.6-34.6c-3.4,1.2-17.3,3.3-17.3,3.3c0.1-1.2,3.7-9.5,5.8-11.9c0.5-0.6,0.6-1.4,0.4-2.1
				c-3.7-9.5-15.6-46.8-15.6-46.8l-9.2,0.8c1.1,6,8.8,59.1,8.8,59.1c-1.9,2.8-6.8,2.3-7.2,6.7c-0.4,4.4,7.1,31.3-0.9,46.7
				c3.3,0.3,35.3-5.6,35.3-5.6c-7.8-9.4-0.6-21.5,3.5-27.1c1.3-1.7,3.8-2.2,5.9-1.2c12.1,6.1,47.3,21.1,47.3,21.1L590.7,222.9z"/>
			<linearGradient id="SVGID_10_" gradientUnits="userSpaceOnUse" x1="526.9842" y1="177.0069" x2="558.2199" y2="177.0069">
				<stop  offset="0" style="stop-color:#09005D"/>
				<stop  offset="1" style="stop-color:#1A0F91"/>
			</linearGradient>
			<path class="st21" d="M527,166.5c0,0,1.6-11,10.9-9c3.1,0.7,13.6-3.8,18.2,8.3c4.6,12.1-5.9,16.2,0.4,24
				c6.2,7.8-5.8,7.8-11.9,6.2c-6.2-1.7-5.2,1.2-7.7-5.7C534.3,183.3,529.2,170.1,527,166.5z"/>
			<path class="st16" d="M537.4,182l1.3-0.9c2.2,2.1,9.5-4.5,4.1-4.3c3-2,7.7-10.7,0.2-12.8c-5.9-6.8-11.3-1.9-14.3,0.8
				c-6.3,5.7-8.6,10.7-8.4,14.2C520.6,183.7,529.5,187.5,537.4,182z"/>
		</g>
		<g>
			<path class="st16" d="M395,177.7c11.2-12.2,41.4-30.9,46.8-46.1c0.6-2.1,1.6-5.7,1.7-7.5c0.2-1.9,4.2-5.7,2.6,1.9
				c12.5-23.8,27-3.2,4.2,11.5c-6.4,8.2-39.1,52.4-53.5,57.6C395.5,186.9,395,177.7,395,177.7z"/>
			<path class="st16" d="M349.2,179.5c-4.5-16.6-24.1-47.8-21.7-64.5c0.5-2.3,1.3-6,2-7.8c0.7-1.8-1.1-7.2-3.3,0.6
				c-0.1-28-23.3-15.6-9.4,8.7c2,10.6,10.2,67.6,20.7,79.2C342.6,188.7,349.2,179.5,349.2,179.5z"/>
			<path class="st18" d="M376.6,176.7c0,0-2.6,12,0,16.8c2.6,4.8-17.9,0-17.9,0s7.7-21.6,9-20.4
				C368.9,174.3,376.6,176.7,376.6,176.7z"/>
			<path class="st22" d="M360.5,254.4c0,0-7.9,53.9-3.9,57.5l30.5-13.8c0.6-0.3,1.3-0.2,1.8,0.3l3.1,2.8
				c-3.9,3.6-31.6,28.5-35.5,28.5c-3.9,0-16.2,6.2-20.2-15.2c-3.9-21.3-1.7-58.9-1.7-58.9L360.5,254.4z"/>
			<path class="st17" d="M390.6,291l21.1,17.4c0,0,0.5,1.4-0.9,2c-2.2,0.9-5.2-1.4-10.9-3.2c-7.3-2.4-12.1,0.7-12.6-0.5
				c-0.8-2.2,3.8-4.5,0.7-7.1c-2.5-2-4.2,0.7-4.7-0.4C383.2,298.7,387.6,293,390.6,291z"/>
			<path class="st23" d="M380.3,257.9c0,0-7.9,53.9-3.9,57.5c6.7-3,27.6-8.6,33.8-10.2c1.1-0.3,2.2,0,3,0.7l2.7,2.4
				c-3.9,3.6-35.5,24.9-39.5,24.9c-3.9,0-19.7,7.1-23.7-14.2c-3.9-21.3-3-59.9-3-59.9L380.3,257.9z"/>
			<path class="st3" d="M407.9,187.4c-7.9,7.1-27.6,24.9-27.6,71.2c-7.9,0-37.7,7.7-45.6-3c0-10.7,11.5-39.7-5.7-78.8
				c3.9,0,18-3.3,18-3.3c3.2,5.8,5.6,11.3,9.9,15.2c1.5,1.3,3.6,2.2,5.7,2.2c0.3,0,0.5,0.3,13.5,0.3c2.7,0,5.3-1.2,8.2-3.7
				l11.8-10.7L407.9,187.4z"/>
			<path class="st16" d="M360.8,161.1c0,9.1-1.1,17.9,3.2,22.5c4.3,4.5,17.2,0,17.2-9.1c4.3,0,4.3-9.1,0-9.1c0-4.5,4.4-3.4,0.1-7.9
				C377,152.9,360.8,152,360.8,161.1z"/>
			<linearGradient id="SVGID_11_" gradientUnits="userSpaceOnUse" x1="358.805" y1="163.3259" x2="385.8132" y2="163.3259">
				<stop  offset="0" style="stop-color:#09005D"/>
				<stop  offset="1" style="stop-color:#1A0F91"/>
			</linearGradient>
			<path class="st24" d="M364.3,164.9c-1.9,1.3-5.2-1.1-5.5-5.2c-0.1-1.9,0.1-3.6,0.4-5c0.4-1.7,2.3-2.6,3.9-1.9
				c1.4,0.7,3,1.2,4.5,1.3c3,0.1,6.6-1.8,8.4-1.8c1.8,0,3.6,1.7,4.9,1.8c0.9,0.1,1.8,0.9,2.3,1.6c0.2,0.3,0.4,0.5,0.7,0.7
				c1.3,0.9,0.1,4.5,1,5.3c0.9,0.9,1,2.7,1,4.4c0,1.8-0.7,8.1-3,8.3c-1.1,0.1-1.7-3-1-4.4c0.8-1.6,0.8-2.7-0.1-3.6
				c-0.4-0.4-2-0.5-2.1,0.8c-0.1,1.3-0.9,0.9-1.3-0.1c-0.4-1.1-1-2.7-1.7-3c0,0-2.4-1.5-4.1-1.5
				C367.9,162.6,364.3,164.9,364.3,164.9z"/>
			<path class="st17" d="M413.3,297.9l21.1,17.4c0,0,0.5,1.4-0.9,2c-2.2,0.9-5.2-1.4-10.9-3.2c-7.3-2.4-12.1,0.7-12.6-0.5
				c-0.8-2.2,3.8-4.5,0.7-7.1c-2.5-2-4.2,0.7-4.7-0.4C405.9,305.5,410.4,299.8,413.3,297.9z"/>
		</g>
		<g>
			<linearGradient id="SVGID_12_" gradientUnits="userSpaceOnUse" x1="89.8199" y1="200.6697" x2="148.51" y2="200.6697">
				<stop  offset="0" style="stop-color:#09005D"/>
				<stop  offset="1" style="stop-color:#1A0F91"/>
			</linearGradient>
			<path class="st25" d="M132.3,170.4c0.9,0.1,3.6,2.3,7.3,4.6c7.8-0.2,10.1,5.6,8.5,9.1c-3.6,8-1.2,15.5-1.2,15.5
				S119,231,111.7,231c-7.3,0-2.4-1.1-4.8-5.7c-2.4-4.6-12.1-2.3-12.1-6.9s-9.8-8.7-1.9-14.6c7.9-5.9,18.8-1.4,22.4-10.5
				C119,184.1,122.6,169.3,132.3,170.4z"/>
			
				<rect x="128.7" y="196.7" transform="matrix(-1 -1.224647e-16 1.224647e-16 -1 264.5809 400.2593)" class="st16" width="7.3" height="6.9"/>
			<path class="st16" d="M150.4,266.4c2.6,13.8,11.2,31.9,11.2,42.6c0,10.2-2.3,52.7-2.4,52.6l-5.8-3.1c-0.3-0.5-0.5-1-0.6-1.5
				c-0.6-7.4-6.1-65-16.5-72.8c-3.8,7.1,2,19.9-4.9,39.1c-3.7,10.1-8.4,13.4-48.8-18.4l0-5.3c0-0.2,0.2-0.3,0.4-0.3
				c7.8,3.5,27.3,8,34.7,15c0-17.8-4.7-51.4-4.7-51.4L150.4,266.4z"/>
			<path class="st16" d="M83.8,189.1c-4.1-2.8-7.5-5.7-9.1-8.7c0.2-1.6-0.1-2-0.4-2.7c-0.2-0.5-0.3-0.7-0.6-1.1
				c-0.6-1.1-2.7-1.5-1.1,2.2c-1.9-2.3-3.2-3.6-4.6-4.5c0,0,0,0,0.1-0.1c-8.3-4.6-11.6,5.3,3.4,11.2c1.6,1.4,25.5,24.8,29.6,25.6
				v-11.3C96.7,196.8,89.6,193.1,83.8,189.1z"/>
			<path class="st16" d="M177.5,176.9c1.5-3.1,2.5-6.4,2.8-9.8c0.4-6-7.3-11.8-9-0.5c-0.2,1.7-0.1,2.4,0.1,4.8
				c-0.8-2-1.4-2.8-1.8-2.9c-0.8-0.2-1.1,1.9-0.7,2.7c0.7,1.3,1.5,4.1,2,5.8c0.1,0.4,0.2,0.8,0.2,1.2c0.3,2.1,0.3,4.4,0,7
				c-0.2,1.5-0.4,3.1-0.8,4.7c-1.6,3.8-5.5,3.7-12.8,10.6l6,8.5c0,0,0.6-0.6,1.8-1.7c1.8-1.7,5-4.7,9.5-9c1.1-1,1.9-2.1,2.5-3.4
				c2.9-5.5,0.6-13,0-17.7C177.3,177.2,177.4,177.1,177.5,176.9z"/>
			<path class="st16" d="M127.4,191.3l0-1.3c-2.4-0.2-1.2-8.2,1.1-4.8c0-2.9,3.8-10.3,8.6-6.9c7.3,0,6.4,5.9,5.9,9.1
				c-1.1,6.9-3.4,10.8-5.9,12.6C133.9,202.4,127.3,199,127.4,191.3z"/>
			<path class="st3" d="M138.6,201.9c7,1.7,15.8-2.1,18.3-3.3c0.4-0.2,0.8-0.1,1,0.3l6.8,9.6c0.2,0.3,0.2,0.8-0.1,1
				c-11.8,7.8-22.1,15-14.3,56.2c1.6,8.6,15.1,42.7,14.6,42.8c-14.6,3.3-46.3,4.2-53.8-2.4c-0.3-0.2-1.3-33.8,2.1-43.6
				c2.8-8.2,9.4-34.9-0.9-42.6c-0.1-0.1-0.2-0.1-0.2-0.2c-6.3-3-10-6-10.9-6.8c-0.2-0.1-0.3-0.4-0.3-0.6V200c0-0.6,0.7-0.9,1.3-0.6
				C117.8,208.1,124.4,198.5,138.6,201.9z"/>
			<path class="st16" d="M152.5,342.1c-1.9,7.2,1.7,20.1-0.1,25.6c-1.8,5.5,11.7,2.9,11.7,2.9l0.8-2.4c0,0-4.9-0.9-4.9-16.6
				C159.9,328.6,152.5,342.1,152.5,342.1z"/>
			<path class="st17" d="M164.8,368.3c0,0,11.5,5.6,11.8,6.7c0.3,1.1-0.9,2.2-3.6,2.1c-2.6-0.1-20.6-3.5-22.1-4.7
				c-0.9-0.7,1.4-6.4,1.9-6.1c0.8,0.5-0.8,2.2,3.9,2.9c4.7,0.7,5.9,1.1,7.4-0.3C165.3,367.8,164.8,368.3,164.8,368.3z"/>
			<path class="st16" d="M98.3,312.3c0,0-8.8-4.7-14.8-5.2c-4.7-0.4-7.1,3.9-7.1,3.9s-0.9-2.8,0.1-6.4c1-3.5,3.1-8.6,4.5-8.5
				c1.5,0.1,5.8,4.2,10.5,6.7s10.7,5.6,12.5,7.2C105.9,311.6,98.3,312.3,98.3,312.3z"/>
			<path class="st17" d="M79.2,308.2c0,0-7.8,10.1-9,10.1c-1.2,0-1.9-1.4-1.3-3.9c0.6-2.6,7.7-19.4,9.2-20.7c0.9-0.7,6,2.7,5.5,3.2
				c-0.6,0.7-1.9-1.2-3.6,3.2c-1.7,4.4-2.3,5.6-1.3,7.3C79.2,308.4,79.2,308.2,79.2,308.2z"/>
		</g>
		<g>
			<path class="st26" d="M236.2,281.2c11.6-4.1,28.8,4.2,33.2,5.2l-14.8,4.4c-9.7-4-19.4-7.9-19.4-7.9S230.3,283.2,236.2,281.2z"/>
			<path class="st26" d="M251.7,355.6c-2.4-17.6-6.2-38.2-5.2-47.8c1-10-3-49.1-3-49.8c0-0.4,13.8-5.1,19.4-1.8
				c3.5,2.1,0,12.8,0,12.8s-3.9,35-3.6,40.2c0.3,6.2-1.7,37.9-3.3,45.6C255.2,359,251.8,356.5,251.7,355.6z"/>
			<path class="st26" d="M270.3,286.3c0.7-1.4-7.4-17.4-7.4-17.4l-1.1-11l18.3,2.6c0,0,5,24.1,6.8,32.4c1.7,8.4-9.3,9-13.8,6.2
				c-2.4-1.5-10.4-4.9-18.5-8.3l14.8-4.4C269.9,286.5,270.3,286.5,270.3,286.3z"/>
			<g>
				<g>
					<path class="st27" d="M203.5,174.6c-0.3-0.5-0.6-1.1-0.9-1.7c-0.2-0.4-0.4-0.9-0.5-1.3c-0.2-0.8-0.6-1.5-0.8-1.8
						c-1.1-1.6-2.9-5.1-3.7-4.6c-1.2,0.8,0.4,3.1,0.4,3.1s-1.3-1.5-2.2-2c-1.4-0.8-2,0.8-1.5,1.4c-1.5,0-1.3,1.2-1,1.7
						c-1.6-0.1-1.2,1.3-0.9,1.7c-0.7-0.2-1.1,0.7-0.8,1.2c0.2,0.3,2.8,3.9,5.6,4.9c0.7,0.4,1.7,1,2.4,1.3c0.3,0.1,0.9,0.7,1.5,1.1
						l2.5-2.7c0.2-0.4,0.5-0.7,0.6-1C204,175.6,204,175.3,203.5,174.6z"/>
					<path class="st27" d="M302.2,168.7c-0.1-0.6-0.3-1.3-0.6-1.9c-0.2-0.4-0.4-0.9-0.5-1.3c-0.4-0.7-0.6-1.4-0.7-1.8
						c-0.3-1.9-1.5-5.7-0.6-5.9c1.4-0.3,1.9,2.5,1.9,2.5s-0.1-2,0.2-3c0.5-1.6,2-0.8,2,0c1-1.1,1.7,0,1.9,0.5
						c1.1-1.1,1.8,0.1,1.9,0.6c0.4-0.6,1.3-0.3,1.4,0.3c0.1,0.3,0.8,4.8-0.6,7.4c-0.2,0.8-0.6,1.9-0.8,2.6c-0.1,0.3-0.2,1.1-0.3,1.9
						l-3.7-0.2c-0.4-0.1-0.8-0.2-1.1-0.3C302.4,169.8,302.3,169.6,302.2,168.7z"/>
					<g>
						<path class="st28" d="M263.1,162.9c0.6,0.1,2.1,0.1,4.1,1.5c0.9,0.6,1.8,2.2,2.9,2.3c4.9,0.6,6.2,4.8,5.1,7.5
							c-1.6,3.9-1.7,7.6-1.4,10c0.2,1.9-0.4,3.8-1.6,5.3c-5.5,6.5-34.3,8-21.9-16.4C253.9,165.9,255.6,161.9,263.1,162.9z"/>
						<polygon class="st29" points="255.4,184.9 256,204.5 267.4,208.1 264.7,184.9 						"/>
						<path class="st27" d="M260.3,191c2.4,1.4,8.1,3,9.8,0c1.7-3,1.4-12.2,1-13.5c-0.3-1.4,0-3.4-0.7-4.4c-0.7-1-2-1.7-3-4.1
							c-1.7,2-6.4,6.9-10.1,8.8c-0.7,0.3-1,0.7-1.4,0.7c-0.3,0-1.4-1-2.7,0c-1.6,1.2-0.7,3.7,1.7,3.4v4.1c0,1.5,0.8,2.8,2.1,3.4
							L260.3,191z"/>
					</g>
					<path class="st22" d="M301,182.1c0.3-1.7,0.6-3.3,0.8-4.9c0.3-2.6,0.3-5.1,0-7.2c0-0.1,0-0.2,0-0.2l6.8,0.5
						c0.8,4.9,2.6,11.8-0.2,17c-0.7,1.3-1.2,3.1-2.1,4.2c-4.3,5.2-7,7.4-8.9,9.2c-1.2,1.2-2.1,1.6-2.1,1.6l-8-11.2
						C296.2,187.8,299.4,186.1,301,182.1z"/>
					<path class="st22" d="M204.5,175.6c1.8,1.9,4.3,3.8,7,5.7c3.8,2.6,9.8,6.2,13.8,8.7c3.3,2,7,3.5,10.8,4.3
						c10.1,2.2,10.5-1.3,17.2,0.8c3.5,6.9,10.1,7.4,13.9,6.4c2.2-0.5,4.6-6.4,6.8-6.5c6.2-0.3,11.1-2.8,13.3-3.8
						c0.4-0.2,8.3,11,8,11.2c-12.2,8.1-22.2,15.4-14.8,58.2c0.1,0.4-0.2,0.8-0.6,0.9c-15.1,3.5-29.8,4-37.6-2.8
						c-0.3-0.2-0.3-1.1-0.2-1.4c3.8-8.2,9.8-36.4-1.1-44.2c0,0-0.1,0-0.1,0c-6.5-3.1-10.3-6.2-11.3-7.1c-3.7-0.7-21.9-20-28.4-26.2
						L204.5,175.6z"/>
					<g>
						<g>
							<path class="st30" d="M274.2,208.3c0.2,0.3,0.4,0.7,0.5,1.1C274.6,209,274.4,208.7,274.2,208.3z"/>
							<path class="st31" d="M274.8,209.4c0.1,0.2,0.2,0.4,0.3,0.6C275,209.8,274.9,209.6,274.8,209.4z"/>
						</g>
						<path class="st31" d="M271.1,216.1C271.1,216.1,271.1,216.1,271.1,216.1c0-0.1-0.1-0.1-0.1-0.2
							C271,216,271.1,216.1,271.1,216.1z"/>
						<path class="st31" d="M271,215.9c-0.2-0.4-0.3-0.8-0.5-1.1C270.6,215.1,270.8,215.5,271,215.9z"/>
						<path class="st31" d="M270.3,214.2c0,0.1,0.1,0.2,0.2,0.5C270.4,214.5,270.4,214.3,270.3,214.2
							C270.3,214.2,270.3,214.2,270.3,214.2z"/>
					</g>
				</g>
			</g>
			<g>
				<path class="st32" d="M249.7,354.2l-4.3,6.1l3.2,2.3l2.5-3.4c0.2,1,0.5,4.7,3.2,6.6c2.7,1.9,7.4,4.9,8.5,5.3
					c1.1,0.4,1.7-1.2,0.5-1.9c-5.7-3.1-7.2-8.5-6.2-13.5c0.1-0.5-1.3-1.5-1.5-1.7c-0.7-0.5-1.5-0.6-2.1-1c-0.6-0.4-0.9-1.1-1.4-1.4
					c-0.2-0.1-0.6,0-0.9,0.4L249.7,354.2z"/>
			</g>
			<g>
				<path class="st32" d="M239,277.2l-5.5-5l-2.7,2.9l3,2.9c-1.1,0.1-4.8-0.1-7,2.3c-2.2,2.4-5.8,6.8-6.3,7.8c-0.5,1,1,1.8,1.8,0.7
					c3.8-5.3,9.3-6.1,14.2-4.5c0.4,0.1,1.6-1.1,1.8-1.3c0.6-0.6,0.8-1.4,1.2-1.9c0.5-0.6,1.2-0.8,1.5-1.2c0.2-0.2,0-0.6-0.3-0.9
					L239,277.2z"/>
			</g>
		</g>
		<path class="st15" d="M444.3,358c0.8-2.8,8.5-0.8,7.4,1.9c-1.5,3.6-2.1,14.8-3.3,18.2c-0.9,2.7-10.8-0.2-9-2.8
			C443.3,369.7,442.1,365.7,444.3,358z"/>
		<path class="st15" d="M544.2,113.4c-2.5-1.6,1.7-8.4,4-6.5c3,2.4,13.5,6.4,16.4,8.6c2.3,1.7-3.4,10.3-5.3,7.8
			C555.2,117.8,551,117.8,544.2,113.4z"/>
		<path class="st3" d="M464,174.3c2.1-2.1,7.9,3.3,5.6,5.2c-3,2.4-8.9,12-11.6,14.4c-2.1,1.9-9.4-5.3-6.6-6.7
			C457.5,184.1,458.3,180,464,174.3z"/>
		<path class="st15" d="M224.8,156.3c-2.7,1.1-5.8-6.2-3-7c3.7-1,13-7.3,16.5-8.4c2.7-0.9,6.4,8.7,3.2,8.8
			C234.8,149.9,232.3,153.3,224.8,156.3z"/>
		<path class="st33" d="M382.1,321.8c-2.5-1.5,2.2-4.6,4.4-4.6c2.2-0.1,12,10.7,14.3,13.6c1.8,2.2-5.6,7.5-6.8,4.5
			C391.4,328.9,388.9,325.8,382.1,321.8z"/>
		<path class="st33" d="M427.8,270.3c-0.7,2.9-5-0.8-5.7-2.8c-0.7-2.1,6.7-14.7,8.7-17.6c1.6-2.3,8.8,3.1,6.4,5.1
			C431.9,259.2,429.7,262.5,427.8,270.3z"/>
		<path class="st33" d="M117.5,211c-2.5-1.5,2.2-4.6,4.4-4.6c2.2-0.1,12,10.7,14.3,13.6c1.8,2.2-5.6,7.5-6.8,4.5
			C126.9,218.2,124.4,215.1,117.5,211z"/>
		<linearGradient id="SVGID_13_" gradientUnits="userSpaceOnUse" x1="161.039" y1="130.4248" x2="180.6517" y2="130.4248">
			<stop  offset="0" style="stop-color:#FE7062"/>
			<stop  offset="1" style="stop-color:#FF928E"/>
		</linearGradient>
		<path class="st34" d="M179.9,135.3c2.5,1.5-2.3,4.6-4.4,4.6c-2.2,0-12-10.8-14.2-13.6c-1.7-2.2,5.6-7.5,6.8-4.5
			C170.6,128.1,173.1,131.2,179.9,135.3z"/>
		<path class="st35" d="M157.8,225.3c-1.5-2.6,4.2-2.9,6.1-1.9c1.9,1,5.3,15.2,5.8,18.8c0.4,2.8-8.5,3.8-8.1,0.7
			C162.5,236.1,161.7,232.1,157.8,225.3z"/>
		<path class="st15" d="M320.1,59.3c-2.9,0.5,0.4,5.1,2.4,5.9s15.1-5.6,18.2-7.4c2.4-1.4-2.5-9-4.6-6.7
			C331.4,56.1,327.9,58.1,320.1,59.3z"/>
		<path class="st3" d="M69.7,389.9c-2.9,0.5,0.4,5.1,2.4,5.9c2,0.9,15.1-5.6,18.2-7.4c2.4-1.4-2.5-9-4.6-6.7
			C81.1,386.7,77.6,388.7,69.7,389.9z"/>
		<path class="st33" d="M198.3,319.6c-2.9,0.5-1.2-5,0.4-6.4c1.6-1.4,16.1,0.6,19.6,1.3c2.8,0.6,0.5,9.3-2.3,7.8
			C210.1,319.2,206.1,318.4,198.3,319.6z"/>
		<path class="st33" d="M505.9,44.7c-2.8-1,1.3-4.9,3.4-5.4c2.1-0.5,13.9,8.1,16.7,10.5c2.2,1.8-4,8.4-5.7,5.8
			C516.5,49.9,513.4,47.4,505.9,44.7z"/>
		<linearGradient id="SVGID_14_" gradientUnits="userSpaceOnUse" x1="69.6035" y1="279.5146" x2="92.5114" y2="279.5146">
			<stop  offset="0" style="stop-color:#FE7062"/>
			<stop  offset="1" style="stop-color:#FF928E"/>
		</linearGradient>
		<path class="st36" d="M71.2,281.5c-2.9,0.5-1.2-5,0.4-6.4s16.1,0.6,19.6,1.3c2.8,0.6,0.5,9.3-2.3,7.8C83,281,79,280.3,71.2,281.5z
			"/>
		<linearGradient id="SVGID_15_" gradientUnits="userSpaceOnUse" x1="361.4953" y1="374.6389" x2="379.4247" y2="374.6389">
			<stop  offset="0" style="stop-color:#FE7062"/>
			<stop  offset="1" style="stop-color:#FF928E"/>
		</linearGradient>
		<path class="st37" d="M368.1,384.6c-1.8,2.4-8.2-2.3-6.2-4.4c2.6-2.8,7.3-13,9.6-15.8c1.8-2.2,10,4.1,7.4,5.8
			C373.2,374,372.9,378.2,368.1,384.6z"/>
		<path class="st15" d="M524.7,279c-2.9-0.2-2.6-8.1,0.3-7.6c3.8,0.7,14.9-1,18.5-0.5c2.8,0.4,2,10.6-0.9,9.4
			C536.5,277.6,532.8,279.6,524.7,279z"/>
		<path class="st3" d="M315,303.8c2.5,1.5-2.3,4.6-4.4,4.6c-2.2,0-12-10.8-14.2-13.6c-1.7-2.2,5.6-7.5,6.8-4.5
			C305.7,296.6,308.2,299.7,315,303.8z"/>
	</g>
</g>
</svg>
