<?xml version="1.0" encoding="utf-8"?>
<!-- Generator: Adobe Illustrator 25.2.3, SVG Export Plug-In . SVG Version: 6.00 Build 0)  -->
<svg version="1.1" id="Layer_1" xmlns="http://www.w3.org/2000/svg" xmlns:xlink="http://www.w3.org/1999/xlink" x="0px" y="0px"
	 viewBox="0 0 600 380" style="enable-background:new 0 0 600 380;" xml:space="preserve">
<style type="text/css">
	.st0{opacity:0.3;fill:#91B3FA;}
	.st1{fill:url(#SVGID_1_);}
	.st2{fill:url(#SVGID_2_);}
	.st3{fill:url(#SVGID_3_);}
	.st4{fill:url(#SVGID_4_);}
	.st5{fill:url(#SVGID_5_);}
	.st6{fill:url(#SVGID_6_);}
	.st7{fill:#020243;}
	.st8{fill:url(#SVGID_7_);}
	.st9{fill:#EEA646;}
	.st10{fill:url(#SVGID_8_);}
	.st11{fill:#F3B665;}
	.st12{fill:url(#SVGID_9_);}
	.st13{fill:url(#SVGID_10_);}
	.st14{fill:#75BBFF;}
	.st15{fill:url(#SVGID_11_);}
	.st16{fill:url(#SVGID_12_);}
	.st17{fill:#FFFFFF;}
	.st18{fill:url(#SVGID_13_);}
	.st19{fill:#91B3FA;}
	.st20{fill:url(#SVGID_14_);}
	.st21{fill:url(#SVGID_15_);}
	.st22{fill:#BDD0FB;}
	.st23{fill:url(#SVGID_16_);}
	.st24{fill:url(#SVGID_17_);}
	.st25{fill:url(#SVGID_18_);}
	.st26{fill:url(#SVGID_19_);}
	.st27{fill:url(#SVGID_20_);}
	.st28{fill:url(#SVGID_21_);}
	.st29{fill:url(#SVGID_22_);}
	.st30{fill:url(#SVGID_23_);}
	.st31{fill:url(#SVGID_24_);}
	.st32{fill:url(#SVGID_25_);}
</style>
<path class="st0" d="M450.5,103.8c-10.1-6.2-18.6-14.6-24.9-24.7C398.1,34.8,348.9,5.3,292.8,5.3C240,5.3,193.3,31.5,165,71.7
	c-6.5,9.2-14.7,17-24.2,23c-43,27.4-71.3,75.9-70.3,130.9c1.4,83.2,70.1,150,153.3,149.2c15.3-0.1,30-2.5,43.8-6.9
	c26.6-8.3,54.8-9.7,82.1-4.5c8.7,1.7,17.6,2.5,26.7,2.5c78.3,0,141.9-64,141.5-142.3C517.7,172.9,490.8,128.6,450.5,103.8z"/>
<g>
	<g>
		<linearGradient id="SVGID_1_" gradientUnits="userSpaceOnUse" x1="347.9258" y1="313.9994" x2="460.1314" y2="313.9994">
			<stop  offset="1.945760e-03" style="stop-color:#3C6EF1"/>
			<stop  offset="1" style="stop-color:#75A1F9"/>
		</linearGradient>
		<rect x="348.8" y="277.9" class="st1" width="108.8" height="72.3"/>
		<linearGradient id="SVGID_2_" gradientUnits="userSpaceOnUse" x1="342.9547" y1="289.2326" x2="461.9096" y2="289.2326">
			<stop  offset="0" style="stop-color:#3C6EF1"/>
			<stop  offset="1" style="stop-color:#2146D9"/>
		</linearGradient>
		<rect x="343.8" y="277.9" class="st2" width="118.7" height="22.7"/>
	</g>
	<g>
		<linearGradient id="SVGID_3_" gradientUnits="userSpaceOnUse" x1="349.7244" y1="242.4747" x2="459.6358" y2="242.4747">
			<stop  offset="1.945760e-03" style="stop-color:#3C6EF1"/>
			<stop  offset="1" style="stop-color:#75A1F9"/>
		</linearGradient>
		<rect x="350.6" y="207.1" class="st3" width="106.5" height="70.8"/>
		<linearGradient id="SVGID_4_" gradientUnits="userSpaceOnUse" x1="344.8549" y1="218.2143" x2="461.3777" y2="218.2143">
			<stop  offset="0" style="stop-color:#3C6EF1"/>
			<stop  offset="1" style="stop-color:#2146D9"/>
		</linearGradient>
		<rect x="345.7" y="207.1" class="st4" width="116.3" height="22.3"/>
	</g>
	<g>
		<linearGradient id="SVGID_5_" gradientUnits="userSpaceOnUse" x1="349.96" y1="177.255" x2="442.5857" y2="177.255">
			<stop  offset="1.945760e-03" style="stop-color:#3C6EF1"/>
			<stop  offset="1" style="stop-color:#75A1F9"/>
		</linearGradient>
		<rect x="350.7" y="147.4" class="st5" width="89.8" height="59.7"/>
		<linearGradient id="SVGID_6_" gradientUnits="userSpaceOnUse" x1="345.8563" y1="156.81" x2="444.0536" y2="156.81">
			<stop  offset="0" style="stop-color:#3C6EF1"/>
			<stop  offset="1" style="stop-color:#2146D9"/>
		</linearGradient>
		<rect x="346.6" y="147.4" class="st6" width="98" height="18.8"/>
	</g>
	<path class="st7" d="M358,50.6H225.8c-13.2,0-23.9,8.8-23.9,19.7v266c0,10.9,10.7,19.7,23.9,19.7H358c13.2,0,23.9-8.8,23.9-19.7
		v-266C381.9,59.4,371.2,50.6,358,50.6z"/>
	<linearGradient id="SVGID_7_" gradientUnits="userSpaceOnUse" x1="212.1561" y1="199.6631" x2="371.7068" y2="199.6631">
		<stop  offset="0" style="stop-color:#FFFFFF"/>
		<stop  offset="1" style="stop-color:#B4BFFC"/>
	</linearGradient>
	<path class="st8" d="M371.7,73.1v253.1c0,1.9-1.9,3.5-4.2,3.5H216.4c-2.3,0-4.2-1.6-4.2-3.5V73.1c0-1.9,1.9-3.5,4.2-3.5h151.1
		C369.8,69.6,371.7,71.2,371.7,73.1z"/>
	<g>
		<g>
			<path class="st9" d="M183.1,171.2l14.8,44.9l-4.3-2.7l34.1-2.4l3.1-0.2l0.6,6l-3.1,0.4l-33.9,4.5c-1.9,0.2-3.6-0.8-4.2-2.5
				l-0.1-0.2l-16.8-44.2l-1.8-4.9l10-3.6L183.1,171.2z"/>
			<path class="st9" d="M249.3,212.3c0.1,2.1-4.3,5-10.6,5.8c-5.8,0.8-9.9-1.2-10.1-3.4C228,210,249.1,209,249.3,212.3z"/>
			<path class="st9" d="M239.9,208.7c-0.4-0.9-3-1-6,0.1c-2.8,1-4.3,2.7-4,3.6C230.6,214.4,240.5,210,239.9,208.7z"/>
		</g>
		<linearGradient id="SVGID_8_" gradientUnits="userSpaceOnUse" x1="212.6062" y1="196.0316" x2="180.652" y2="200.5163">
			<stop  offset="0" style="stop-color:#FD8982"/>
			<stop  offset="1" style="stop-color:#FC796E"/>
		</linearGradient>
		<path class="st10" d="M214.2,209.7l1.2,19c0,0-21.4-1.3-28.3-9.7c-9.7-11.8-22.4-45.4-11.8-50.5c11.9-5.7,12.5,23.3,21.3,36.4
			C200.5,210.6,214.2,209.7,214.2,209.7z"/>
		<path class="st7" d="M187.6,125.9c-9.3-6.7-20.6-2.1-22.1,7.5c-1.9,12.5,0.5,22.6-2.6,30.9c-4.8,12.9-3.5,25.5-3.5,25.5
			c12.7-17.4,25.9-10.2,33.1-27.6C194.9,156.7,196.5,132.3,187.6,125.9z"/>
		<polygon class="st9" points="183.9,168.1 172.7,168.1 172.7,146.8 179.6,146.8 		"/>
		<path class="st11" d="M192.1,136c1.9,8.7,0.5,17.6-4.8,19.5c-5,1.8-13.5-3-17.5-11.6c-4.1-9.1-2.1-15.9,5.2-18.4
			C182.8,122.7,190,126.4,192.1,136z"/>
		<polygon class="st9" points="206.9,348.9 199.4,294.7 191.5,240.6 190.1,230.8 169.4,235.2 172.2,244.7 187.3,297.3 202.2,349.9 
			202.8,352.2 207.2,351.3 		"/>
		<path class="st9" d="M161.6,230.8l-0.3,9.9l-2,57.5l-25.1,37.5l-1.3,2l3.5,2.7l1.6-1.8l32.1-34.8c0.6-0.6,1-1.4,1.1-2.3l0.1-0.8
			l9.6-58.1l1.6-9.8L161.6,230.8z"/>
		<linearGradient id="SVGID_9_" gradientUnits="userSpaceOnUse" x1="224.0538" y1="279.6824" x2="178.6452" y2="280.9905">
			<stop  offset="0" style="stop-color:#3C6EF1"/>
			<stop  offset="1" style="stop-color:#2146D9"/>
		</linearGradient>
		<polygon class="st12" points="165.4,229 194.6,229 207.2,330.6 190.2,333.1 		"/>
		<linearGradient id="SVGID_10_" gradientUnits="userSpaceOnUse" x1="189.748" y1="282.6089" x2="155.3645" y2="279.2453">
			<stop  offset="0" style="stop-color:#3C6EF1"/>
			<stop  offset="1" style="stop-color:#2146D9"/>
		</linearGradient>
		<path class="st13" d="M156.8,229h28.1c0,0-5.1,65-9.3,72.6c-5,9.2-24.9,30.4-24.9,30.4l-13.5-10.4c0,0,14.2-20.1,17.7-29.6
			C158.3,282.5,156.8,229,156.8,229z"/>
		<path class="st14" d="M172.5,166.3c0,0,6,5.3,12,1.8c0,0,2.1,21.9,4.7,30.9c2.7,8.9,9.7,31.7,9.7,31.7l-42.7,0.8
			C155,211.3,162.6,188.6,172.5,166.3z"/>
		<path class="st11" d="M176.8,180.7c-2.8,5.2-5.5,10.7-8,16.1c-1.2,2.7-2.4,5.5-3.5,8.2c-1.1,2.7-2,5.5-2.7,8.2
			c-0.2,0.7-0.3,1.3-0.4,2l-0.3,2.2c-0.2,1.5-0.4,2.9-0.5,4.4c-0.3,3-0.5,6-0.7,9c-0.4,6-0.6,12.1-0.8,18.2l-0.1,2.9l-5.7,0
			l-0.1-2.9c-0.2-6.2-0.3-12.3-0.2-18.5c0-3.1,0.1-6.2,0.2-9.3c0.1-1.6,0.2-3.1,0.3-4.7l0.2-2.4c0.1-0.9,0.2-1.7,0.4-2.5
			c0.6-3.3,1.6-6.3,2.5-9.3c1-3,2.1-5.9,3.2-8.8c2.3-5.8,4.7-11.4,7.4-17.1l2.1-4.4l9,4.6L176.8,180.7z"/>
		<linearGradient id="SVGID_11_" gradientUnits="userSpaceOnUse" x1="197.249" y1="200.7471" x2="158.007" y2="197.9441">
			<stop  offset="0" style="stop-color:#FE7062"/>
			<stop  offset="1" style="stop-color:#FF928E"/>
		</linearGradient>
		<path class="st15" d="M171,163.7c0,0-20.9,31.2-16.6,64.5c0,0-1.8,6.5,21.9,5.6c23.7-0.9,25-4.2,25-4.2
			c-7.5-17.9-13.3-38.1-16.2-62.4C185.1,167.2,176.2,167.6,171,163.7z"/>
		<linearGradient id="SVGID_12_" gradientUnits="userSpaceOnUse" x1="172.0086" y1="205.8886" x2="151.827" y2="201.9644">
			<stop  offset="0" style="stop-color:#FF928E"/>
			<stop  offset="1" style="stop-color:#FE7062"/>
		</linearGradient>
		<path class="st16" d="M168.7,235.2l-18.2,2.3c0,0,0.7-20.7,3.4-32.6c3.4-14.9,9.7-37.2,21.2-34.1c15,4-6.7,33.9-8.3,42.1
			C165.5,219.5,168.7,235.2,168.7,235.2z"/>
		<path class="st11" d="M153.7,268.4c-1.9-0.5-3.4-5.2-2.5-11.1c0.8-5.4,3.7-8.6,5.7-8.3C161.4,249.8,156.7,269.1,153.7,268.4z"/>
		<path class="st11" d="M159.5,260.9c0.9-0.1,1.7-2.4,1.5-5.5c-0.1-2.8-1.3-4.6-2.2-4.5C156.8,251,158.1,261.1,159.5,260.9z"/>
		<path class="st17" d="M224,354.2l-3.4-0.6v0l-12.6-4.9v0.1c0,0-0.2,2.2-2.8,2.6c-1.9,0.3-3.2-0.2-3.7-0.5
			c-0.1-0.1-0.2-0.2-0.3-0.2c-0.8,0-1.5,1.4-1.5,3.1c0,0.6,0.1,1.1,0.2,1.5v2.4H225v-2.4C225,354.7,224.5,354.2,224,354.2z"/>
		<path class="st17" d="M147,353.9l-2.1-2.8l0,0l-6-12.1l-0.1,0.1c0,0-1.6,1.5-3.8,0c-1.6-1.1-2.2-2.3-2.4-2.9c0-0.2,0-0.3-0.1-0.3
			c-0.6-0.6-2.1,0-3.2,1.2c-0.4,0.4-0.7,0.8-0.9,1.3l-1.6,1.7l18.6,16.9l1.6-1.8C147.4,354.9,147.4,354.3,147,353.9z"/>
		<path class="st7" d="M177.6,123c-2.5,0-4.3,0.2-6.4,1.3c-3.5,1.8-8,6.1-8.9,15.8c-0.8,9.1,2.8,13.5-5,22.1
			c-8.7,6.6-24.2,5.5-22.5,20.3c1.8,14.8,21.5,12.9,26.2,5.5c4.7-7.4,4.2-14,6.8-18.7c2.6-4.7,7.1-1.9,9.4-7.1
			c2.7-4.9-2-15.8-2.8-17.6c0.6-1.8,1.3-3.8,4.2-4.6c6.4-1.7,11.6-7.7,11.6-9.7C190.2,128.4,184.4,123,177.6,123z"/>
		<path class="st11" d="M177.4,141.4c0.7,1.5,0.2,3.1-1,3.6s-2.7-0.2-3.4-1.7c-0.7-1.5-0.2-3.1,1-3.6
			C175.2,139.2,176.7,139.9,177.4,141.4z"/>
	</g>
	<g>
		<linearGradient id="SVGID_13_" gradientUnits="userSpaceOnUse" x1="252.6696" y1="160.5946" x2="390.2617" y2="160.5946">
			<stop  offset="0" style="stop-color:#FE7062"/>
			<stop  offset="1" style="stop-color:#FF928E"/>
		</linearGradient>
		<path class="st18" d="M318.8,126.2c-0.2-0.1-0.5-0.2-0.7-0.3h0c-10.6-3.7-22,4.3-26.2,15c-4.2-10.7-15.6-18.7-26.2-15h0
			c-0.2,0.1-0.5,0.2-0.7,0.3c-12.8,5-17.3,21.9-9.2,33.6c9,13,36.1,36.3,36.1,36.3s27-23.3,36.1-36.3
			C336.1,148.1,331.6,131.2,318.8,126.2z"/>
	</g>
	<g>
		<path class="st19" d="M366.2,263.8c0.6,0.7,1.1,1.5,1.6,2.2c0.5,0.8,0.9,1.5,1.2,2.3c0.4,0.8,0.7,1.5,1,2.3
			c0.3,0.8,0.6,1.6,0.8,2.4c0.3,0.8,0.5,1.6,0.7,2.5c0.2,0.8,0.4,1.7,0.5,2.6c0.1,0.9,0.2,1.8,0.2,2.7c0,0.9-0.1,1.9-0.3,3
			c-0.1,0.5-0.3,1.1-0.6,1.7c-0.3,0.6-0.7,1.1-1.2,1.6c-0.5,0.5-1.1,0.9-1.7,1.2c-0.6,0.3-1.2,0.4-1.8,0.5c-1.1,0.2-2.2,0.1-3.1,0
			c-1-0.1-1.8-0.4-2.7-0.6c-1.7-0.5-3.3-1.2-4.8-2c-1.5-0.8-2.9-1.6-4.3-2.6c-0.7-0.5-1.4-1-2.1-1.5c-0.7-0.5-1.3-1.1-2-1.8
			c-0.7-0.7-1.3-1.4-1.8-2.2c-0.6-0.8-1-1.6-1.5-2.5c-0.8-1.8-1.4-3.7-1.5-5.8c0-1,0-2.1,0.3-3.2c0.2-1.1,0.6-2.2,1.2-3.2
			c0.3-0.5,0.6-1,1-1.5c0.4-0.5,0.8-0.9,1.2-1.3c0.4-0.4,0.9-0.8,1.4-1.1c0.3-0.2,0.5-0.3,0.8-0.5l0.4-0.2l0.4-0.2
			c1.1-0.5,2.2-0.8,3.3-0.9c0.3,0,0.6,0,0.8-0.1c0.3,0,0.6,0,0.8,0c0.5,0,1.1,0.1,1.6,0.1c0.5,0.1,1,0.2,1.6,0.3
			c0.5,0.1,1,0.3,1.5,0.5c1,0.4,1.9,0.8,2.7,1.4C363.6,261,365,262.3,366.2,263.8z M360.8,268.5c-0.8-0.9-1.7-1.6-2.7-2.1
			c-1-0.5-2-0.8-3-0.9c-0.5,0-0.9,0-1.3,0c-0.4,0.1-0.8,0.2-1.1,0.3l-0.1,0.1c0,0-0.1,0-0.1,0.1c-0.1,0-0.2,0.1-0.2,0.1
			c-0.1,0.1-0.3,0.2-0.4,0.3c-0.1,0.1-0.3,0.2-0.4,0.4c-0.1,0.1-0.2,0.3-0.3,0.4c-0.2,0.3-0.4,0.7-0.5,1.1c-0.1,0.4-0.2,0.9-0.2,1.4
			c0,1,0.1,2.1,0.5,3.2c0.4,1.1,1,2.1,1.7,3.1c0.4,0.5,0.8,1,1.3,1.5c0.5,0.5,1,0.9,1.5,1.4c1.1,0.9,2.2,1.7,3.4,2.5
			c0.6,0.4,1.2,0.7,1.8,1c0.6,0.3,1.2,0.6,1.9,0.8c0.6,0.2,1.2,0.4,1.8,0.5c0.6,0.1,1.1,0.1,1.5,0.1c0.2,0,0.3-0.1,0.4-0.1
			c0.1,0,0.2-0.1,0.2-0.1c0.1-0.1,0.1-0.1,0.2-0.3c0.1-0.1,0.1-0.3,0.2-0.5c0.1-0.4,0.1-1,0.1-1.6c0-0.6-0.2-1.2-0.3-1.9
			c-0.2-0.6-0.4-1.3-0.6-1.9c-0.1-0.3-0.2-0.6-0.4-1c-0.1-0.3-0.3-0.6-0.4-1c-0.3-0.6-0.6-1.3-1-1.9c-0.3-0.6-0.7-1.2-1.1-1.8
			c-0.4-0.6-0.8-1.1-1.2-1.7C361.6,269.4,361.2,268.9,360.8,268.5z"/>
		<path class="st19" d="M392.3,278.8c-0.6,0.7-1.2,1.4-1.9,2c-0.6,0.6-1.3,1.2-2,1.7c-0.7,0.5-1.4,1-2.1,1.5
			c-0.7,0.5-1.4,0.9-2.2,1.3c-0.7,0.4-1.5,0.8-2.3,1.2c-0.8,0.4-1.6,0.7-2.4,1c-0.8,0.3-1.7,0.6-2.6,0.8c-0.4,0.1-0.9,0.2-1.4,0.2
			c-0.5,0.1-1,0.1-1.5,0.1c-0.5,0-1.1-0.1-1.7-0.2c-0.6-0.1-1.2-0.4-1.7-0.7c-0.5-0.4-1-0.8-1.4-1.3c-0.4-0.5-0.7-1-0.9-1.5
			c-0.4-1-0.6-2-0.7-2.9c-0.1-0.9-0.1-1.8,0-2.7c0.1-1.7,0.4-3.4,0.8-5c0.4-1.6,0.9-3.2,1.5-4.8c0.3-0.8,0.6-1.6,1-2.3
			c0.4-0.8,0.8-1.5,1.3-2.3c0.5-0.8,1.1-1.5,1.7-2.2c0.6-0.7,1.3-1.4,2.1-2c1.5-1.2,3.3-2.2,5.2-2.7c1-0.3,2-0.5,3.1-0.5
			c1.1,0,2.2,0.1,3.3,0.4c2.2,0.6,4.3,2,5.7,3.9c0.7,0.9,1.2,2,1.6,3c0.1,0.3,0.2,0.5,0.3,0.8c0.1,0.3,0.1,0.5,0.2,0.8
			c0.1,0.5,0.2,1.1,0.2,1.6c0,0.5,0.1,1.1,0,1.6c0,0.5-0.1,1-0.1,1.5c-0.1,1-0.4,2-0.7,2.9C394.4,275.6,393.5,277.3,392.3,278.8z
			 M386.7,274.7c0.7-1,1.1-2.1,1.4-3.1c0.3-1.1,0.4-2.2,0.2-3.1c-0.1-0.5-0.1-0.9-0.3-1.3c-0.1-0.4-0.3-0.8-0.5-1.1l-0.1-0.1
			c0,0-0.1-0.1-0.1-0.1c-0.1-0.1-0.1-0.1-0.2-0.2c-0.1-0.1-0.3-0.3-0.4-0.4c-0.1-0.1-0.3-0.2-0.5-0.3c-0.2-0.1-0.3-0.2-0.5-0.2
			c-0.4-0.1-0.8-0.2-1.2-0.3c-0.5,0-0.9,0-1.5,0.1c-1,0.2-2.1,0.6-3.1,1.2c-1,0.6-1.9,1.4-2.7,2.4c-0.4,0.5-0.8,1-1.2,1.6
			c-0.4,0.6-0.7,1.2-1,1.8c-0.7,1.3-1.2,2.6-1.7,3.9c-0.2,0.7-0.4,1.4-0.6,2c-0.2,0.7-0.3,1.4-0.4,2c-0.1,0.7-0.1,1.3-0.1,1.9
			c0,0.6,0.1,1.2,0.3,1.6c0.1,0.2,0.2,0.4,0.3,0.5c0.1,0.1,0.2,0.2,0.3,0.3c0.1,0.1,0.2,0.1,0.4,0.2c0.2,0,0.4,0.1,0.6,0.1
			c0.2,0,0.5,0,0.8-0.1c0.3-0.1,0.6-0.1,0.9-0.2c0.6-0.2,1.2-0.5,1.8-0.8c0.6-0.3,1.2-0.7,1.8-1.1c0.3-0.2,0.6-0.4,0.9-0.6
			c0.3-0.2,0.6-0.4,0.8-0.7c0.5-0.4,1.1-0.9,1.6-1.4c0.5-0.5,1-1,1.5-1.5c0.5-0.5,0.9-1,1.4-1.5C386,275.7,386.4,275.2,386.7,274.7z
			"/>
		<linearGradient id="SVGID_14_" gradientUnits="userSpaceOnUse" x1="369.4548" y1="360.7604" x2="369.4548" y2="285.3029">
			<stop  offset="0" style="stop-color:#1A0F91"/>
			<stop  offset="1" style="stop-color:#09005D"/>
		</linearGradient>
		<rect x="331.7" y="285.3" class="st20" width="75.5" height="75.5"/>
		<linearGradient id="SVGID_15_" gradientUnits="userSpaceOnUse" x1="369.4548" y1="299.734" x2="369.4548" y2="227.6233">
			<stop  offset="0" style="stop-color:#1A0F91"/>
			<stop  offset="1" style="stop-color:#09005D"/>
		</linearGradient>
		<rect x="328.3" y="285.3" class="st21" width="82.3" height="15.8"/>
		
			<rect x="331.7" y="317.4" transform="matrix(-1.836970e-16 1 -1 -1.836970e-16 692.4864 -46.4231)" class="st19" width="75.5" height="11.2"/>
	</g>
	<g>
		<path class="st22" d="M411.2,311.3c0.7,0.4,1.3,0.8,1.9,1.2c0.6,0.4,1.1,0.9,1.6,1.3c0.5,0.5,1,0.9,1.5,1.4c0.5,0.5,0.9,1,1.4,1.5
			c0.4,0.5,0.9,1.1,1.3,1.6c0.4,0.6,0.8,1.2,1.1,1.8c0.4,0.6,0.7,1.3,1,2c0.3,0.7,0.5,1.5,0.7,2.4c0.1,0.4,0.1,0.9,0,1.4
			c0,0.5-0.2,1.1-0.4,1.6c-0.2,0.5-0.5,1-0.9,1.4c-0.4,0.4-0.8,0.7-1.2,0.9c-0.8,0.5-1.6,0.8-2.4,1c-0.8,0.2-1.5,0.3-2.2,0.4
			c-1.4,0.1-2.8,0.1-4.2,0c-1.4-0.1-2.7-0.3-4-0.6c-0.7-0.1-1.3-0.3-2-0.5c-0.7-0.2-1.3-0.4-2-0.7c-0.7-0.3-1.4-0.7-2-1.1
			c-0.7-0.4-1.3-0.9-1.9-1.4c-1.2-1.1-2.2-2.4-2.9-3.9c-0.4-0.8-0.6-1.6-0.8-2.5c-0.2-0.9-0.2-1.8-0.1-2.8c0-0.5,0.2-0.9,0.3-1.4
			c0.1-0.5,0.3-0.9,0.5-1.4c0.2-0.4,0.4-0.9,0.7-1.3c0.1-0.2,0.3-0.4,0.4-0.6l0.2-0.3l0.2-0.3c0.7-0.7,1.4-1.3,2.2-1.7
			c0.2-0.1,0.4-0.2,0.6-0.3c0.2-0.1,0.4-0.2,0.6-0.3c0.4-0.2,0.8-0.3,1.3-0.4c0.4-0.1,0.8-0.2,1.3-0.2c0.4,0,0.8-0.1,1.3-0.1
			c0.8,0,1.6,0.1,2.4,0.2C408.3,310,409.8,310.5,411.2,311.3z M408.5,316.4c-0.9-0.4-1.8-0.6-2.7-0.7c-0.9-0.1-1.8,0-2.5,0.2
			c-0.4,0.1-0.7,0.2-1,0.4c-0.3,0.2-0.5,0.4-0.7,0.6l-0.1,0.1c0,0,0,0.1-0.1,0.1c-0.1,0.1-0.1,0.1-0.1,0.2c-0.1,0.1-0.2,0.2-0.2,0.4
			c-0.1,0.1-0.1,0.3-0.2,0.4c0,0.1-0.1,0.3-0.1,0.4c-0.1,0.3-0.1,0.6,0,1c0,0.4,0.1,0.7,0.3,1.1c0.3,0.8,0.7,1.5,1.4,2.2
			c0.6,0.7,1.4,1.3,2.2,1.8c0.4,0.2,0.9,0.5,1.4,0.7c0.5,0.2,1,0.4,1.6,0.6c1.1,0.4,2.2,0.6,3.3,0.8c0.6,0.1,1.1,0.2,1.7,0.2
			c0.6,0,1.1,0.1,1.6,0c0.5,0,1-0.1,1.5-0.2c0.5-0.1,0.9-0.2,1.1-0.4c0.1-0.1,0.2-0.2,0.3-0.2c0.1-0.1,0.1-0.1,0.1-0.2
			c0-0.1,0-0.1,0.1-0.2c0-0.1,0-0.3,0-0.4c-0.1-0.3-0.2-0.8-0.4-1.2c-0.2-0.4-0.5-0.9-0.8-1.3c-0.3-0.4-0.7-0.9-1-1.3
			c-0.2-0.2-0.4-0.4-0.6-0.6c-0.2-0.2-0.4-0.4-0.6-0.6c-0.4-0.4-0.8-0.8-1.3-1.1c-0.4-0.4-0.9-0.7-1.4-1c-0.5-0.3-0.9-0.6-1.4-0.9
			C409.4,316.9,408.9,316.6,408.5,316.4z"/>
		<path class="st22" d="M437.6,329.7c-0.7,0.3-1.4,0.6-2,0.9c-0.7,0.2-1.3,0.4-2,0.6c-0.7,0.2-1.3,0.3-2,0.4c-0.7,0.1-1.4,0.2-2,0.2
			c-0.7,0.1-1.4,0.1-2.1,0.1c-0.7,0-1.4,0-2.1-0.1c-0.7-0.1-1.4-0.1-2.1-0.3c-0.4-0.1-0.7-0.2-1.1-0.3c-0.4-0.1-0.8-0.3-1.1-0.5
			c-0.4-0.2-0.8-0.4-1.1-0.7c-0.4-0.3-0.7-0.7-1-1.1c-0.3-0.4-0.5-0.9-0.6-1.4c-0.1-0.5-0.1-1-0.1-1.4c0-0.9,0.2-1.7,0.5-2.4
			c0.3-0.7,0.6-1.4,0.9-2c0.7-1.2,1.5-2.4,2.3-3.4c0.8-1.1,1.7-2.1,2.7-3c0.5-0.5,1-0.9,1.5-1.4c0.5-0.4,1.1-0.9,1.7-1.3
			c0.6-0.4,1.3-0.8,2-1.1c0.7-0.3,1.4-0.6,2.2-0.8c1.5-0.4,3.1-0.5,4.8-0.3c0.8,0.1,1.7,0.3,2.5,0.7c0.8,0.3,1.6,0.8,2.3,1.4
			c1.4,1.2,2.5,2.9,2.9,4.8c0.2,0.9,0.3,1.9,0.2,2.8c0,0.2-0.1,0.4-0.1,0.7c0,0.2-0.1,0.4-0.1,0.7c-0.1,0.4-0.2,0.9-0.4,1.3
			c-0.1,0.4-0.3,0.8-0.5,1.2c-0.2,0.4-0.4,0.7-0.6,1.1c-0.4,0.7-1,1.3-1.5,1.9C440.3,328,439,328.9,437.6,329.7z M434.9,324.7
			c0.8-0.5,1.5-1.1,2.1-1.8c0.6-0.7,1-1.5,1.2-2.2c0.1-0.4,0.2-0.7,0.2-1.1c0-0.3,0-0.7,0-1l0-0.1c0,0,0-0.1,0-0.1
			c0-0.1,0-0.1-0.1-0.2c-0.1-0.1-0.1-0.3-0.2-0.4c-0.1-0.1-0.2-0.3-0.2-0.4c-0.1-0.1-0.2-0.2-0.3-0.4c-0.2-0.2-0.5-0.4-0.8-0.6
			c-0.3-0.2-0.7-0.3-1.1-0.4c-0.8-0.2-1.7-0.3-2.7-0.1c-0.9,0.1-1.9,0.4-2.8,0.9c-0.5,0.2-0.9,0.5-1.4,0.8c-0.5,0.3-0.9,0.6-1.4,1
			c-0.9,0.7-1.8,1.5-2.6,2.3c-0.4,0.4-0.8,0.9-1.1,1.3c-0.4,0.4-0.7,0.9-1,1.4c-0.3,0.5-0.5,0.9-0.7,1.4c-0.2,0.5-0.3,0.9-0.3,1.3
			c0,0.2,0,0.3,0,0.5c0,0.1,0.1,0.2,0.1,0.3c0.1,0.1,0.1,0.2,0.2,0.3c0.1,0.1,0.3,0.2,0.4,0.3c0.2,0.1,0.4,0.1,0.6,0.2
			c0.2,0.1,0.5,0.1,0.7,0.1c0.5,0.1,1,0.1,1.6,0c0.5,0,1.1-0.1,1.7-0.2c0.3-0.1,0.6-0.1,0.8-0.2c0.3-0.1,0.6-0.1,0.8-0.2
			c0.6-0.1,1.1-0.3,1.7-0.5c0.5-0.2,1.1-0.4,1.6-0.6c0.5-0.2,1-0.4,1.5-0.7C434,325.2,434.5,325,434.9,324.7z"/>
		<linearGradient id="SVGID_16_" gradientUnits="userSpaceOnUse" x1="342.4704" y1="348.2812" x2="608.0659" y2="348.2812">
			<stop  offset="0" style="stop-color:#FE7062"/>
			<stop  offset="1" style="stop-color:#FF928E"/>
		</linearGradient>
		<rect x="390.5" y="329" class="st23" width="58.1" height="38.6"/>
		<linearGradient id="SVGID_17_" gradientUnits="userSpaceOnUse" x1="419.5665" y1="341.5058" x2="419.5665" y2="285.9949">
			<stop  offset="0" style="stop-color:#FF928E"/>
			<stop  offset="1" style="stop-color:#FE7062"/>
		</linearGradient>
		<rect x="387.9" y="329" class="st24" width="63.4" height="12.1"/>
		
			<rect x="400.3" y="342.6" transform="matrix(-1.836970e-16 1 -1 -1.836970e-16 767.8476 -71.2853)" class="st22" width="38.6" height="11.3"/>
	</g>
</g>
<g>
	<linearGradient id="SVGID_18_" gradientUnits="userSpaceOnUse" x1="174.8527" y1="60.7034" x2="176.6832" y2="60.7034">
		<stop  offset="0" style="stop-color:#09005D"/>
		<stop  offset="1" style="stop-color:#1A0F91"/>
	</linearGradient>
	<path class="st25" d="M175.5,62.3c-0.1,0-0.1,0-0.2,0c-0.3-0.1-0.5-0.5-0.4-0.8l0.5-1.9c0.1-0.3,0.5-0.5,0.8-0.4
		c0.3,0.1,0.5,0.5,0.4,0.8l-0.5,1.9C176,62.1,175.8,62.3,175.5,62.3z"/>
	<linearGradient id="SVGID_19_" gradientUnits="userSpaceOnUse" x1="177.4283" y1="51.6425" x2="179.2584" y2="51.6425">
		<stop  offset="0" style="stop-color:#09005D"/>
		<stop  offset="1" style="stop-color:#1A0F91"/>
	</linearGradient>
	<path class="st26" d="M178.1,53.2c-0.1,0-0.1,0-0.2,0c-0.3-0.1-0.5-0.5-0.4-0.8l0.5-1.9c0.1-0.3,0.5-0.5,0.8-0.4
		c0.3,0.1,0.5,0.5,0.4,0.8l-0.5,1.9C178.6,53,178.4,53.2,178.1,53.2z"/>
	<linearGradient id="SVGID_20_" gradientUnits="userSpaceOnUse" x1="170.9046" y1="54.9013" x2="174.0989" y2="54.9013">
		<stop  offset="0" style="stop-color:#09005D"/>
		<stop  offset="1" style="stop-color:#1A0F91"/>
	</linearGradient>
	<path class="st27" d="M173.5,55.8c-0.1,0-0.1,0-0.2,0l-1.9-0.5c-0.3-0.1-0.5-0.5-0.4-0.8c0.1-0.3,0.5-0.5,0.8-0.4l1.9,0.5
		c0.3,0.1,0.5,0.5,0.4,0.8C174,55.6,173.7,55.8,173.5,55.8z"/>
	<linearGradient id="SVGID_21_" gradientUnits="userSpaceOnUse" x1="180.0126" y1="57.4441" x2="183.2069" y2="57.4441">
		<stop  offset="0" style="stop-color:#09005D"/>
		<stop  offset="1" style="stop-color:#1A0F91"/>
	</linearGradient>
	<path class="st28" d="M182.6,58.4c-0.1,0-0.1,0-0.2,0l-1.9-0.5c-0.3-0.1-0.5-0.5-0.4-0.8c0.1-0.3,0.5-0.5,0.8-0.4l1.9,0.5
		c0.3,0.1,0.5,0.5,0.4,0.8C183.1,58.2,182.8,58.4,182.6,58.4z"/>
</g>
<g>
	
		<linearGradient id="SVGID_22_" gradientUnits="userSpaceOnUse" x1="454.8527" y1="114.7034" x2="456.6832" y2="114.7034" gradientTransform="matrix(0.7867 -0.6174 0.6174 0.7867 29.4911 305.6888)">
		<stop  offset="0" style="stop-color:#09005D"/>
		<stop  offset="1" style="stop-color:#1A0F91"/>
	</linearGradient>
	<path class="st29" d="M459.6,116c0,0-0.1,0.1-0.2,0.1c-0.3,0.1-0.7,0-0.8-0.4l-0.7-1.8c-0.1-0.3,0-0.7,0.4-0.8
		c0.3-0.1,0.7,0,0.8,0.4l0.7,1.8C459.9,115.5,459.8,115.8,459.6,116z"/>
	
		<linearGradient id="SVGID_23_" gradientUnits="userSpaceOnUse" x1="457.4283" y1="105.6425" x2="459.2584" y2="105.6425" gradientTransform="matrix(0.7867 -0.6174 0.6174 0.7867 29.4911 305.6888)">
		<stop  offset="0" style="stop-color:#09005D"/>
		<stop  offset="1" style="stop-color:#1A0F91"/>
	</linearGradient>
	<path class="st30" d="M456,107.2c0,0-0.1,0.1-0.2,0.1c-0.3,0.1-0.7,0-0.8-0.4l-0.7-1.8c-0.1-0.3,0-0.7,0.4-0.8
		c0.3-0.1,0.7,0,0.8,0.4l0.7,1.8C456.4,106.8,456.3,107.1,456,107.2z"/>
	
		<linearGradient id="SVGID_24_" gradientUnits="userSpaceOnUse" x1="450.9046" y1="108.9013" x2="454.0989" y2="108.9013" gradientTransform="matrix(0.7867 -0.6174 0.6174 0.7867 29.4911 305.6888)">
		<stop  offset="0" style="stop-color:#09005D"/>
		<stop  offset="1" style="stop-color:#1A0F91"/>
	</linearGradient>
	<path class="st31" d="M454,112.1c0,0-0.1,0.1-0.2,0.1L452,113c-0.3,0.1-0.7,0-0.8-0.3c-0.1-0.3,0-0.7,0.3-0.8l1.8-0.8
		c0.3-0.1,0.7,0,0.8,0.3C454.3,111.6,454.2,111.9,454,112.1z"/>
	
		<linearGradient id="SVGID_25_" gradientUnits="userSpaceOnUse" x1="460.0126" y1="111.4441" x2="463.2069" y2="111.4441" gradientTransform="matrix(0.7867 -0.6174 0.6174 0.7867 29.4911 305.6888)">
		<stop  offset="0" style="stop-color:#09005D"/>
		<stop  offset="1" style="stop-color:#1A0F91"/>
	</linearGradient>
	<path class="st32" d="M462.7,108.5c0,0-0.1,0.1-0.2,0.1l-1.8,0.8c-0.3,0.1-0.7,0-0.8-0.3c-0.1-0.3,0-0.7,0.3-0.8l1.8-0.8
		c0.3-0.1,0.7,0,0.8,0.3C463,108,463,108.3,462.7,108.5z"/>
</g>
</svg>
