<?xml version="1.0" encoding="utf-8"?>
<!-- Generator: Adobe Illustrator 25.3.1, SVG Export Plug-In . SVG Version: 6.00 Build 0)  -->
<svg version="1.1" id="Layer_2" xmlns="http://www.w3.org/2000/svg" xmlns:xlink="http://www.w3.org/1999/xlink" x="0px" y="0px"
	 viewBox="0 0 626 443" style="enable-background:new 0 0 626 443;" xml:space="preserve">
<style type="text/css">
	.st0{fill:#FFFFFF;}
	.st1{opacity:0.3;fill:#78BCFF;}
	.st2{opacity:0.5;clip-path:url(#SVGID_2_);}
	.st3{opacity:0.7;}
	.st4{clip-path:url(#SVGID_4_);}
	.st5{clip-path:url(#SVGID_6_);}
	.st6{fill:url(#SVGID_7_);}
	.st7{fill:url(#SVGID_8_);}
	.st8{fill:url(#SVGID_9_);}
	.st9{fill:#78BCFF;}
	.st10{fill:url(#SVGID_10_);}
	.st11{opacity:0.15;}
	.st12{fill:url(#SVGID_11_);}
	.st13{fill:url(#SVGID_12_);}
	.st14{fill:url(#SVGID_13_);}
	.st15{fill:url(#SVGID_14_);}
	.st16{opacity:0.3;fill:url(#SVGID_15_);}
	.st17{fill:url(#SVGID_16_);}
	.st18{opacity:0.2;fill:url(#SVGID_17_);}
	.st19{fill:url(#SVGID_18_);}
	.st20{fill:url(#SVGID_19_);}
	.st21{opacity:0.3;fill:url(#SVGID_20_);}
	.st22{opacity:0.9;}
	.st23{fill:url(#SVGID_21_);}
	.st24{fill:url(#SVGID_22_);}
	.st25{fill:url(#SVGID_23_);}
	.st26{fill:url(#SVGID_24_);}
	.st27{fill:#FCB048;}
	.st28{fill:url(#SVGID_25_);}
	.st29{fill:url(#SVGID_26_);}
	.st30{fill:url(#SVGID_27_);}
	.st31{fill:url(#SVGID_28_);}
	.st32{fill:url(#SVGID_29_);}
	.st33{fill:url(#SVGID_30_);}
	.st34{fill:url(#SVGID_31_);}
	.st35{fill:url(#SVGID_32_);}
	.st36{fill:url(#SVGID_33_);}
	.st37{fill:url(#SVGID_34_);}
	.st38{fill:url(#SVGID_35_);}
	.st39{fill:url(#SVGID_36_);}
	.st40{fill:url(#SVGID_37_);}
	.st41{fill:url(#SVGID_38_);}
	.st42{fill:url(#SVGID_39_);}
	.st43{fill:url(#SVGID_40_);}
	.st44{fill:url(#SVGID_41_);}
	.st45{fill:url(#SVGID_42_);}
	.st46{fill:url(#SVGID_43_);}
	.st47{fill:url(#SVGID_44_);}
	.st48{fill:url(#SVGID_45_);}
	.st49{fill:url(#SVGID_46_);}
	.st50{fill:url(#SVGID_47_);}
	.st51{fill:url(#SVGID_48_);}
	.st52{fill:url(#SVGID_49_);}
	.st53{fill:url(#SVGID_50_);}
	.st54{fill:url(#SVGID_51_);}
	.st55{fill:url(#SVGID_52_);}
	.st56{fill:url(#SVGID_53_);}
	.st57{fill:url(#SVGID_54_);}
	.st58{fill:url(#SVGID_55_);}
	.st59{fill:url(#SVGID_56_);}
	.st60{fill:url(#SVGID_57_);}
	.st61{fill:url(#SVGID_58_);}
	.st62{fill:url(#SVGID_59_);}
	.st63{fill:url(#SVGID_60_);}
	.st64{fill:url(#SVGID_61_);}
	.st65{fill:url(#SVGID_62_);}
	.st66{fill:url(#SVGID_63_);}
	.st67{fill:url(#SVGID_64_);}
	.st68{fill:url(#SVGID_65_);}
	.st69{fill:url(#SVGID_66_);}
	.st70{fill:url(#SVGID_67_);}
	.st71{fill:url(#SVGID_68_);}
	.st72{fill:url(#SVGID_69_);}
	.st73{fill:url(#SVGID_70_);}
	.st74{fill:url(#SVGID_71_);}
	.st75{fill:url(#SVGID_72_);}
	.st76{fill:url(#SVGID_73_);}
	.st77{fill:url(#SVGID_74_);}
	.st78{fill:url(#SVGID_75_);}
	.st79{fill:url(#SVGID_76_);}
	.st80{fill:url(#SVGID_77_);}
	.st81{fill:url(#SVGID_78_);}
	.st82{opacity:0.3;fill:url(#SVGID_79_);}
	.st83{fill:url(#SVGID_80_);}
	.st84{fill:url(#SVGID_81_);}
	.st85{fill:url(#SVGID_82_);}
	.st86{fill:url(#SVGID_83_);}
	.st87{fill:url(#SVGID_84_);}
	.st88{fill:url(#SVGID_85_);}
	.st89{fill:url(#SVGID_86_);}
	.st90{fill:url(#SVGID_87_);}
</style>
<rect class="st0" width="626" height="443"/>
<g>
	<path class="st1" d="M349.7,440.5c5.4-0.8,99.1-16.7,141.4-103.3c6-12.2,40.7-87.1,7.7-142.1c-25.7-42.8-72-39.5-83-80.1
		c-9.6-35.4,33-45.2,10.9-78.8c-22-33.5-109.4-45.9-180.6-18.1C167.3,49,84,136.4,94.9,243c10.8,105.6,106.7,159.6,121.8,168.1
		C237.2,422.7,285.9,450.2,349.7,440.5z"/>
	<g>
		<g>
			<defs>
				<path id="SVGID_1_" d="M394.2,390.5c4.6,1,37.3,7.9,58.5-14.3c2.5-2.6,14.2-14.9,14.3-31.7c0.1-17.4-12.4-25.1-7.9-35.1
					c4-8.9,15-5.2,23.9-15.7c9-10.6,11.5-30.7,1.4-40.1c-6.9-6.5-18.9-6.9-27.6-3c-15,6.8-11.4,22.6-26,36.7
					c-16.7,16.1-31,4.7-48.6,19.1c-20.4,16.7-28.5,54.2-13.2,72.2C375.7,386.6,385.3,388.6,394.2,390.5z"/>
			</defs>
			<use xlink:href="#SVGID_1_"  style="overflow:visible;fill:#5240D8;"/>
			<clipPath id="SVGID_2_">
				<use xlink:href="#SVGID_1_"  style="overflow:visible;"/>
			</clipPath>
			<g class="st2">
				<g class="st3">
					<path class="st0" d="M364,384.3c-0.1,0-0.2-0.1-0.3-0.2c-0.1-0.2,0-0.3,0.1-0.4c28.8-13.7,49.5-31.7,61.5-53.7
						c3.9-7.1,6-12.9,8.1-18.6c2.5-7,4.9-13.6,10.4-21.7c12.7-19.1,33.2-33.1,60.7-41.6c0.2,0,0.3,0,0.4,0.2c0,0.2,0,0.3-0.2,0.4
						c-27.4,8.4-47.8,22.4-60.4,41.3c-5.4,8.1-7.8,14.6-10.3,21.6c-2.1,5.7-4.2,11.6-8.1,18.7c-12.1,22.1-32.9,40.2-61.8,53.9
						C364.1,384.3,364.1,384.3,364,384.3z"/>
				</g>
				<g class="st3">
					<path class="st0" d="M467.4,285.4c-5.4,0-11.4-0.7-17.9-2.4c-0.2,0-0.3-0.2-0.2-0.4c0-0.2,0.2-0.3,0.4-0.2
						c29.2,7.7,47.3-5.7,47.5-5.8c0.1-0.1,0.3-0.1,0.4,0.1c0.1,0.1,0.1,0.3-0.1,0.4C497.3,277.2,486.2,285.4,467.4,285.4z"/>
				</g>
				<g class="st3">
					<path class="st0" d="M402.8,359.1c-0.1,0-0.2-0.1-0.3-0.2c-4.1-7.3-6.5-15.2-7.2-23.3c-1.8-21.4,9.5-37.6,14.4-43.5
						c0.1-0.1,0.3-0.1,0.4,0c0.1,0.1,0.1,0.3,0,0.4c-4.9,5.9-16,21.9-14.3,43.1c0.7,8,3,15.8,7.1,23c0.1,0.1,0,0.3-0.1,0.4
						C402.9,359.1,402.8,359.1,402.8,359.1z"/>
				</g>
				<g class="st3">
					<path class="st0" d="M418,377c-9.3,0-19.4-2-30.1-6c-0.2-0.1-0.2-0.2-0.2-0.4c0.1-0.2,0.2-0.2,0.4-0.2
						c20.4,7.6,38.4,7.9,53.6,0.9c21.9-10.1,30.2-32.4,30.2-32.6c0.1-0.2,0.2-0.2,0.4-0.2c0.2,0.1,0.2,0.2,0.2,0.4
						c-0.1,0.2-8.4,22.7-30.6,33C434.6,375.3,426.6,377,418,377z"/>
				</g>
			</g>
		</g>
	</g>
	<g>
		<g>
			<defs>
				<path id="SVGID_3_" d="M370.4,350.8c23.8,6.1,44.4-6.7,49.4-9.8c2.9-1.8,26.2-16.9,32.5-44.4c5.7-24.8-7.4-37.4,3.5-60.4
					c4.9-10.3,12.1-17.4,12.8-18.1c12.6-12.2,20.5-9,29.8-19.1c9.9-10.9,10.5-25.3,11-34.7c0.5-11.5,1-22-6.4-29.5
					c-7.3-7.3-19.8-9.3-29.5-5.8c-14.9,5.4-11.8,19.9-30.7,33.5c-11.9,8.5-16,4.8-25.1,13.7c-9.9,9.6-8.3,17.1-16.5,28.8
					c-8.4,11.8-17,13.8-30.6,22.6c-13,8.3-40.8,26.2-46.2,50.9C318.5,305.4,338.8,342.7,370.4,350.8z"/>
			</defs>
			<use xlink:href="#SVGID_3_"  style="overflow:visible;fill:#5240D8;"/>
			<clipPath id="SVGID_4_">
				<use xlink:href="#SVGID_3_"  style="overflow:visible;"/>
			</clipPath>
			<g class="st4">
				<g class="st3">
					<path class="st0" d="M345.3,350.4c-0.1,0-0.2-0.1-0.3-0.2c-0.1-0.2,0-0.3,0.1-0.4c35.7-16.7,56.2-36.6,61-59.1
						c1.9-9,1.2-17.5,0.5-25.6c-1.1-12.6-2.1-24.4,6-37.9c6.9-11.6,18.4-20,25.2-25c4.9-3.6,8.9-6.5,12.4-9c9-6.5,14-10.1,19.7-15.1
						c14.7-12.7,23.7-33.1,26.9-60.6c0-0.2,0.2-0.3,0.3-0.3c0.2,0,0.3,0.2,0.3,0.3c-3.2,27.7-12.3,48.2-27.1,61
						c-5.7,5-10.7,8.6-19.8,15.1c-3.5,2.5-7.5,5.4-12.4,9c-6.8,5-18.2,13.3-25.1,24.8c-8,13.3-7,25.1-5.9,37.6
						c0.7,8.2,1.4,16.6-0.5,25.8c-4.8,22.7-25.4,42.7-61.3,59.5C345.4,350.4,345.3,350.4,345.3,350.4z"/>
				</g>
				<g class="st3">
					<path class="st0" d="M483.9,189.3c-7.5,0-15-1.6-21.2-3.4c-0.2,0-0.3-0.2-0.2-0.4c0-0.2,0.2-0.3,0.4-0.2
						c11.8,3.5,28.5,6.1,41-1.7c7.5-4.7,9.9-10.9,10-11c0.1-0.2,0.2-0.2,0.4-0.2c0.2,0.1,0.2,0.2,0.2,0.4c0,0.1-2.6,6.5-10.2,11.3
						C498.1,187.9,490.9,189.3,483.9,189.3z"/>
				</g>
				<g class="st3">
					<path class="st0" d="M428.2,210.4c-0.1,0-0.2,0-0.2-0.1c-7.6-7.4-8-18.6-1.1-32.4c5.1-10.3,12.6-18.6,12.7-18.7
						c0.1-0.1,0.3-0.1,0.4,0c0.1,0.1,0.1,0.3,0,0.4c-0.1,0.1-7.5,8.3-12.6,18.6c-4.7,9.4-8.3,22.6,1,31.6c0.1,0.1,0.1,0.3,0,0.4
						C428.4,210.3,428.3,210.4,428.2,210.4z"/>
				</g>
				<g class="st3">
					<path class="st0" d="M407.4,284.4c-0.2,0-0.3-0.1-0.3-0.3c0-0.2,0.1-0.3,0.3-0.3c21.9-2.7,34.2-13,40.7-21.2
						c7-8.8,8.9-17.1,8.9-17.2c0-0.2,0.2-0.3,0.4-0.2c0.2,0,0.3,0.2,0.2,0.4c0,0.1-1.9,8.5-9,17.4
						C442,271.3,429.5,281.7,407.4,284.4C407.4,284.4,407.4,284.4,407.4,284.4z"/>
				</g>
				<g class="st3">
					<path class="st0" d="M377,331.8c-0.1,0-0.1,0-0.2,0c-10.9-6.2-18.5-15.3-22.7-27.3c-3.3-9.5-4.5-20.8-3.5-33.5
						c1.8-21.6,9.5-40.3,9.6-40.4c0.1-0.2,0.2-0.2,0.4-0.2c0.2,0.1,0.2,0.2,0.2,0.4c-0.1,0.2-7.7,18.7-9.5,40.3
						c-1,12.6,0.1,23.8,3.4,33.3c4.1,11.8,11.7,20.8,22.4,26.9c0.1,0.1,0.2,0.3,0.1,0.4C377.2,331.7,377.1,331.8,377,331.8z"/>
				</g>
			</g>
		</g>
	</g>
	<g>
		<g>
			<defs>
				<path id="SVGID_5_" d="M290.5,336.4c-10.4-18.5,7.6-52.4,24.9-70.3c11.1-11.5,18-12.3,24.6-24.9c9.2-17.4,1.4-26.2,10.3-44.7
					c8.1-16.8,16.4-13.7,25.8-30.6c11-19.9,1.7-29,10.4-48.8c9.7-22.3,35.8-43.5,53.9-37c12.2,4.4,19.9,21.1,19.6,35.3
					c-0.5,21.9-19.9,25.1-26.6,51.4c-1.4,5.6-1.8,10.1-1.6,14c0.6,11.8,3.2,19.8,4.8,24.9c5.6,18.9-1.4,37.8-4,45.1
					c-7,19.1-16,17.3-30.1,40.5c-14.5,23.8-8.5,31.5-18.8,43.2C361.7,359.4,303.5,359.6,290.5,336.4z"/>
			</defs>
			<use xlink:href="#SVGID_5_"  style="overflow:visible;fill:#FFFFFF;"/>
			<clipPath id="SVGID_6_">
				<use xlink:href="#SVGID_5_"  style="overflow:visible;"/>
			</clipPath>
			<g class="st5">
				<g class="st3">
					<path class="st0" d="M294.9,354.4c-0.1,0-0.2-0.1-0.3-0.2c-0.1-0.2,0-0.3,0.2-0.4c28.3-9.5,47.2-23.5,56.2-41.8
						c4.5-9.1,5.4-16.4,6.3-24.1c1.1-8.6,2.2-17.5,8.1-29.9c6.1-12.7,12.4-17.3,18.5-21.7c5.8-4.2,11.3-8.2,16.6-18.8
						c7.8-15.7,7.9-28,8-40.9c0.1-10.6,0.1-21.7,4.3-35.7c7-23.3,24-44.4,50.6-62.6c0.1-0.1,0.3-0.1,0.4,0.1
						c0.1,0.1,0.1,0.3-0.1,0.4c-26.4,18.1-43.3,39.1-50.3,62.3c-4.2,13.9-4.3,24.9-4.3,35.5c-0.1,13-0.1,25.3-8,41.1
						c-5.4,10.8-11.2,15-16.8,19.1c-6,4.4-12.2,8.9-18.3,21.4c-5.9,12.4-7,21.2-8.1,29.7c-1,7.8-1.9,15.1-6.4,24.3
						C342.5,330.7,323.5,344.9,294.9,354.4C294.9,354.4,294.9,354.4,294.9,354.4z"/>
				</g>
				<g class="st3">
					<path class="st0" d="M413.1,141.4c-0.2,0-0.3-0.1-0.3-0.3c0-0.2,0.1-0.3,0.3-0.3c19.9-0.7,33.8-9.9,42-17.6
						c8.9-8.3,13.1-16.6,13.1-16.7c0.1-0.2,0.3-0.2,0.4-0.1c0.2,0.1,0.2,0.3,0.1,0.4c0,0.1-4.3,8.4-13.3,16.8
						C447.2,131.3,433.2,140.7,413.1,141.4C413.1,141.4,413.1,141.4,413.1,141.4z"/>
				</g>
				<g class="st3">
					<path class="st0" d="M395,226c-0.1,0-0.1,0-0.2,0c-17.9-10.9-22.9-31.9-24-47.6c-1.2-17,1.9-31.6,1.9-31.8
						c0-0.2,0.2-0.3,0.4-0.2c0.2,0,0.3,0.2,0.2,0.4c0,0.1-3.1,14.7-1.9,31.6c1.1,15.6,6.1,36.4,23.7,47.1c0.1,0.1,0.2,0.3,0.1,0.4
						C395.2,225.9,395.1,226,395,226z"/>
				</g>
				<g class="st3">
					<path class="st0" d="M373.9,271.8c-4.2,0-8.6-0.3-13.2-1.1c-0.2,0-0.3-0.2-0.3-0.3c0-0.2,0.2-0.3,0.3-0.3
						c13.6,2.1,26.5,1,38.3-3.3c9.4-3.5,18.2-9,26-16.4c13.3-12.7,19.4-26.7,19.5-26.8c0.1-0.2,0.2-0.2,0.4-0.2
						c0.2,0.1,0.2,0.2,0.2,0.4c-0.1,0.1-6.2,14.3-19.6,27C414.9,260.8,397.9,271.8,373.9,271.8z"/>
				</g>
				<g class="st3">
					<path class="st0" d="M333.4,334.4c-0.1,0-0.1,0-0.2,0c-20.5-12.4-23.3-34.3-22-50.4c1.4-17.5,7.7-32.2,7.7-32.3
						c0.1-0.2,0.2-0.2,0.4-0.2c0.2,0.1,0.2,0.2,0.2,0.4c-0.1,0.1-6.3,14.8-7.7,32.1c-0.8,10.2,0.2,19.3,3,27.1
						c3.5,9.7,9.8,17.4,18.7,22.8c0.1,0.1,0.2,0.3,0.1,0.4C333.6,334.4,333.5,334.4,333.4,334.4z"/>
				</g>
			</g>
		</g>
	</g>
	<g>
		<g>
			
				<linearGradient id="SVGID_7_" gradientUnits="userSpaceOnUse" x1="268.1691" y1="4094.3572" x2="42.5786" y2="4299.0781" gradientTransform="matrix(0 -1 1 0 -3965.802 376.6064)">
				<stop  offset="3.597000e-03" style="stop-color:#26264F"/>
				<stop  offset="1" style="stop-color:#444B8C"/>
			</linearGradient>
			<path class="st6" d="M347.6,356.3c0,6.3-4.4,11.6-9.9,11.9l-211.2,12.3c-6.3,0.4-11.4-4.8-11.4-11.5V66.1c0-6.7,5.1-12,11.4-11.7
				l211.2,8.6c5.5,0.2,9.9,5.5,9.9,11.7V356.3z"/>
			<linearGradient id="SVGID_8_" gradientUnits="userSpaceOnUse" x1="125.8923" y1="217.6635" x2="383.1698" y2="210.4948">
				<stop  offset="0" style="stop-color:#444B8C"/>
				<stop  offset="0.9964" style="stop-color:#26264F"/>
			</linearGradient>
			<path class="st7" d="M353.8,356.3c0,6.3-4.4,11.6-9.9,11.9l-211.2,12.3c-6.3,0.4-11.4-4.8-11.4-11.5V66.1c0-6.7,5.1-12,11.4-11.7
				l211.2,8.6c5.5,0.2,9.9,5.5,9.9,11.7V356.3z"/>
			
				<linearGradient id="SVGID_9_" gradientUnits="userSpaceOnUse" x1="97.7488" y1="4273.7739" x2="225.1943" y2="4118.0068" gradientTransform="matrix(0 -1 1 0 -3965.802 376.6064)">
				<stop  offset="0" style="stop-color:#444B8C"/>
				<stop  offset="0.9964" style="stop-color:#26264F"/>
			</linearGradient>
			<path class="st8" d="M126.7,66.3v302.4c0,3.6,2.7,6.4,6.1,6.2l167-9.5l44.2-2.5c2.9-0.2,5.3-3,5.3-6.4V74.5
				c0-3.4-2.4-6.2-5.3-6.3l-45.8-1.8L132.8,60C129.4,59.9,126.7,62.7,126.7,66.3z"/>
			<path class="st9" d="M346.3,343.5c0,1.2-1,2.3-2.2,2.4l-211.5,10.8c-1.4,0.1-2.5-1-2.5-2.3V66.3c0-1.3,1.1-2.4,2.5-2.3l211.5,8
				c1.2,0,2.2,1.1,2.2,2.3V343.5z"/>
			<linearGradient id="SVGID_10_" gradientUnits="userSpaceOnUse" x1="243.7152" y1="343.7599" x2="239.461" y2="376.1573">
				<stop  offset="0" style="stop-color:#444B8C"/>
				<stop  offset="0.9964" style="stop-color:#26264F"/>
			</linearGradient>
			<path class="st10" d="M263.2,362.3l-42.9,2.4c-2.3,0.1-4.2-1.5-4.2-3.6v-0.2c0-2.1,1.9-3.9,4.2-4l42.9-2.3c2.2-0.1,4,1.5,4,3.5
				v0.2C267.2,360.4,265.4,362.2,263.2,362.3z"/>
		</g>
		<g class="st11">
			
				<linearGradient id="SVGID_11_" gradientUnits="userSpaceOnUse" x1="229.9688" y1="4058.6487" x2="3.7424" y2="4263.9468" gradientTransform="matrix(0 -1 1 0 -3965.802 376.6064)">
				<stop  offset="3.597120e-03" style="stop-color:#E38DDD"/>
				<stop  offset="1" style="stop-color:#9571F6"/>
			</linearGradient>
			<path class="st12" d="M297.9,336.5c-0.9-18.5,19.7-29.3,17.7-55.3c-0.2-2.3-2-22.5-18.2-36.2c-14.6-12.3-26.8-7.7-53.8-17.4
				c-18.9-6.9-40.1-14.6-48.7-30c-17.1-30.7,31.7-61.4,21.7-101.1c-2.9-11.4-10.9-25.4-32.2-39.9l-51.6-2.1
				c-6.3-0.3-11.4,5-11.4,11.7V369c0,6.7,5.1,11.9,11.4,11.5l192.4-11.2C304.7,357.5,298.4,346.1,297.9,336.5z"/>
		</g>
		<g>
			<linearGradient id="SVGID_12_" gradientUnits="userSpaceOnUse" x1="436.3877" y1="44.4386" x2="186.9486" y2="377.024">
				<stop  offset="0" style="stop-color:#FCB148"/>
				<stop  offset="5.207239e-02" style="stop-color:#FDBA46"/>
				<stop  offset="0.1424" style="stop-color:#FFC244"/>
				<stop  offset="0.3183" style="stop-color:#FFC444"/>
				<stop  offset="0.4849" style="stop-color:#FDB946"/>
				<stop  offset="0.7754" style="stop-color:#F99C4D"/>
				<stop  offset="0.8658" style="stop-color:#F8924F"/>
				<stop  offset="1" style="stop-color:#F8924F"/>
			</linearGradient>
			<path class="st13" d="M185.5,299.4c-6.1,0.2-12.3-1.5-17.3-5.2c-11.1-8.3-12.3-23.4-2.7-33.6l141.4-150
				c4.6-4.9,11.3-7.6,18.3-7.4c7,0.2,13.6,3.2,18.1,8.3l47.4,52.8l53.8-59.2c8-8.8,22-9.4,31.1-1.3c9.1,8,10,21.7,2.2,30.5
				L408,212.6c-4.3,4.9-10.7,7.7-17.4,7.8c-6.7,0.1-13.1-2.7-17.6-7.5l-47.9-52.3l-120,130.1C200.1,296.2,192.8,299.2,185.5,299.4z"
				/>
			<g>
				<linearGradient id="SVGID_13_" gradientUnits="userSpaceOnUse" x1="489.4291" y1="84.2196" x2="239.9902" y2="416.8047">
					<stop  offset="0" style="stop-color:#FCB148"/>
					<stop  offset="5.207239e-02" style="stop-color:#FDBA46"/>
					<stop  offset="0.1424" style="stop-color:#FFC244"/>
					<stop  offset="0.3183" style="stop-color:#FFC444"/>
					<stop  offset="0.4849" style="stop-color:#FDB946"/>
					<stop  offset="0.7754" style="stop-color:#F99C4D"/>
					<stop  offset="0.8658" style="stop-color:#F8924F"/>
					<stop  offset="1" style="stop-color:#F8924F"/>
				</linearGradient>
				<polygon class="st14" points="492.3,145.3 433.6,93.7 509.6,68.2 				"/>
			</g>
		</g>
	</g>
	<g>
		
			<linearGradient id="SVGID_14_" gradientUnits="userSpaceOnUse" x1="383.0013" y1="398.6741" x2="507.4707" y2="398.6741" gradientTransform="matrix(0.9995 3.070000e-02 -3.070000e-02 0.9995 -39.8411 -76.7454)">
			<stop  offset="0" style="stop-color:#FE7062"/>
			<stop  offset="1" style="stop-color:#FF928E"/>
		</linearGradient>
		<path class="st15" d="M400.6,397.8c-0.4,0-0.9,0-1.3,0c-16.1-0.5-56.7,1.4-67.6-33.8c-10-32.3,32.5-80.1,39.5-87.7
			c0.6-0.7,1-1,1-1s-1.7-1.4,34.5-1.7c40.6,33.1,46.3,58.6,46.3,58.6C464.6,384.2,417.8,397.6,400.6,397.8z"/>
		
			<linearGradient id="SVGID_15_" gradientUnits="userSpaceOnUse" x1="383.0013" y1="400.4817" x2="454.7786" y2="400.4817" gradientTransform="matrix(0.9995 3.070000e-02 -3.070000e-02 0.9995 -39.8411 -76.7454)">
			<stop  offset="0" style="stop-color:#FF9085"/>
			<stop  offset="1" style="stop-color:#FB6FBB"/>
		</linearGradient>
		<path class="st16" d="M400.6,397.8c-0.4,0-0.9,0-1.3,0c-16.1-0.5-56.7,1.4-67.6-33.8c-10-32.3,32.5-80.1,39.5-87.7
			c1.7-0.2,3.4-0.1,5,0.5C376.7,276.9,288.6,382.8,400.6,397.8z"/>
		<linearGradient id="SVGID_16_" gradientUnits="userSpaceOnUse" x1="382.9202" y1="295.5927" x2="390.1145" y2="246.8316">
			<stop  offset="0" style="stop-color:#311944"/>
			<stop  offset="1" style="stop-color:#893976"/>
		</linearGradient>
		<path class="st17" d="M366.1,247.7c0,0,7.1-11.3,16.5-6.7c9.4,4.5,17,7.9,22.1,5.1c5.1-2.9,7.8-5.2,9,1.5
			c1.2,6.7-18.4,22.4-18.4,22.4S366.2,269,366.1,247.7z"/>
		
			<linearGradient id="SVGID_17_" gradientUnits="userSpaceOnUse" x1="440.0206" y1="315.0528" x2="426.5667" y2="364.1886" gradientTransform="matrix(0.9995 3.070000e-02 -3.070000e-02 0.9995 -39.8411 -76.7454)">
			<stop  offset="3.597120e-03" style="stop-color:#6165D7"/>
			<stop  offset="1" style="stop-color:#AA80F9"/>
		</linearGradient>
		<path class="st18" d="M366,252.7c0,0,7.1-11.3,16.5-6.7c9.4,4.5,17,7.9,22.1,5.1c5.1-2.9,7.8-5.2,9,1.5
			c1.2,6.7-18.4,22.4-18.4,22.4S366.1,274.1,366,252.7z"/>
		
			<linearGradient id="SVGID_18_" gradientUnits="userSpaceOnUse" x1="411.5473" y1="323.4562" x2="471.153" y2="323.4562" gradientTransform="matrix(0.9995 3.070000e-02 -3.070000e-02 0.9995 -39.8411 -76.7454)">
			<stop  offset="0" style="stop-color:#FE7062"/>
			<stop  offset="1" style="stop-color:#FF928E"/>
		</linearGradient>
		<path class="st19" d="M414.6,265.5c-2.8,3.9-6.1,7.3-8.9,8.6c-3.5,1.7-9.8,2.6-15.9,2.8c-6.2,0.3-12.3-0.1-15.7-1l0,0
			c-0.8-0.2-1.5-0.4-1.9-0.7c0,0-10.4-17.6-10.3-25.7c0-2.6,1.1-4.2,3.9-3.9c11.6,1,11.7,7.5,19.7,5.9c8-1.6,14.2-13.5,19.2-5.5
			c5,8,11.1-3,15.7,0.8C423.4,249.3,419.7,258.3,414.6,265.5z"/>
		
			<linearGradient id="SVGID_19_" gradientUnits="userSpaceOnUse" x1="421.1067" y1="339.7661" x2="459.2528" y2="339.7661" gradientTransform="matrix(0.9995 3.070000e-02 -3.070000e-02 0.9995 -39.8411 -76.7454)">
			<stop  offset="0" style="stop-color:#444B8C"/>
			<stop  offset="0.9964" style="stop-color:#26264F"/>
		</linearGradient>
		<path class="st20" d="M371.5,274.2c0,0,21.2,6.8,35.5-0.9c1.2,1.6,1.8,2.1,1.8,2.1s-10.6,9.1-38.2,1.5
			C370.6,276.9,371.3,275,371.5,274.2z"/>
		
			<linearGradient id="SVGID_20_" gradientUnits="userSpaceOnUse" x1="411.5493" y1="326.4641" x2="464.7245" y2="326.4641" gradientTransform="matrix(0.9995 3.070000e-02 -3.070000e-02 0.9995 -39.8411 -76.7454)">
			<stop  offset="0" style="stop-color:#FF9085"/>
			<stop  offset="1" style="stop-color:#FB6FBB"/>
		</linearGradient>
		<path class="st21" d="M414.6,265.5c-2.8,3.9-6.1,7.3-8.9,8.6c-3.5,1.7-9.8,2.6-15.9,2.8l-15.7-1l0,0c-0.8-0.2-1.5-0.4-1.9-0.7
			c0,0-10.4-17.6-10.3-25.7c0.1-0.1,4.6-4.5,9.4,5.3c4.9,10,6.5,18.7,12.9,14.7c6.3-3.9,16.4-19.9,17.8-12.2
			c1.4,7.7-5,14.9-0.4,13.8C405,270.3,412,265.3,414.6,265.5z"/>
		<g class="st22">
			
				<linearGradient id="SVGID_21_" gradientUnits="userSpaceOnUse" x1="440.1635" y1="366.3487" x2="459.1292" y2="437.4286" gradientTransform="matrix(0.9995 3.070000e-02 -3.070000e-02 0.9995 -39.8411 -76.7454)">
				<stop  offset="3.597120e-03" style="stop-color:#EBEFF2"/>
				<stop  offset="1" style="stop-color:#FFFFFF"/>
			</linearGradient>
			<path class="st23" d="M398.3,302.1L398.3,302.1c1.3,0,2.4,0.9,2.4,2.1l0,4c2.6,0,5.3,0.2,7.9,0.5c2,0.2,3.9,0.5,5.8,0.9
				c1.2,0.2,2,1.2,1.9,2.2l-0.5,5.1c-0.1,1.4-1.6,2.3-3,1.9c-1.3-0.4-2.6-0.7-3.9-0.9c-2.3-0.4-4.8-0.6-7.4-0.5l-0.7,0l0.1,11.7
				c7,1.1,12.1,2.9,15.5,5.5c3.3,2.6,5.1,6.1,5.2,10.5c0.1,4.8-1.6,8.9-5.2,12.2c-3.6,3.4-8.8,5.6-15.6,6.7l0.1,4.7
				c0,1.3-1.1,2.4-2.5,2.5l0,0c-1.4,0.1-2.5-0.8-2.5-2.1l0-4.7l-1.1,0.1c-3.2,0.2-6.3,0.3-9.2,0.1c-2.2-0.1-4.3-0.3-6.4-0.6
				c-1.3-0.2-2.1-1.2-2-2.3l0.7-7c0.2-1.5,1.8-2.5,3.4-2.2c1.8,0.5,3.7,0.8,5.6,1.1c2.9,0.4,5.9,0.5,8.9,0.4l-0.1-13.4
				c-6.8-0.8-11.9-2.5-15.3-5.1c-3.4-2.6-5.1-6.2-5-10.7c0-4.7,1.8-8.4,5.5-11.3c3.6-2.8,8.6-4.5,15.2-5.1l0-4.1
				C395.9,303,397,302.1,398.3,302.1z M396.1,317.7c-2.1,0.3-3.7,1-4.8,2c-1.2,1-1.7,2.2-1.7,3.7c0,1.4,0.6,2.5,1.6,3.4
				c1.1,0.8,2.8,1.4,5,1.8L396.1,317.7z M400.6,341.1l0.1,12.3c2.3-0.2,4-0.9,5.2-2c1.2-1.1,1.8-2.5,1.8-4.3c0-1.6-0.6-2.9-1.7-3.9
				C404.8,342.2,403.1,341.5,400.6,341.1z"/>
		</g>
	</g>
	<g>
		<g>
			<linearGradient id="SVGID_22_" gradientUnits="userSpaceOnUse" x1="227.9002" y1="394.6273" x2="354.0423" y2="394.6273">
				<stop  offset="0" style="stop-color:#FCB148"/>
				<stop  offset="5.207239e-02" style="stop-color:#FDBA46"/>
				<stop  offset="0.1424" style="stop-color:#FFC244"/>
				<stop  offset="0.3183" style="stop-color:#FFC444"/>
				<stop  offset="0.4849" style="stop-color:#FDB946"/>
				<stop  offset="0.7754" style="stop-color:#F99C4D"/>
				<stop  offset="0.8658" style="stop-color:#F8924F"/>
				<stop  offset="1" style="stop-color:#F8924F"/>
			</linearGradient>
			<path class="st24" d="M237.3,385v12.2c0,3.9,24.5,7.1,54.8,7.1c30.3,0,54.8-3.2,54.8-7.1V385H237.3z"/>
			<linearGradient id="SVGID_23_" gradientUnits="userSpaceOnUse" x1="291.551" y1="380.4178" x2="298.201" y2="436.0888">
				<stop  offset="0" style="stop-color:#FFDB44"/>
				<stop  offset="1" style="stop-color:#FEEF06"/>
			</linearGradient>
			<ellipse class="st25" cx="292.1" cy="385" rx="54.8" ry="7.1"/>
			<linearGradient id="SVGID_24_" gradientUnits="userSpaceOnUse" x1="291.2618" y1="377.9352" x2="293.3042" y2="395.0326">
				<stop  offset="0" style="stop-color:#FFDB44"/>
				<stop  offset="1" style="stop-color:#FEEF06"/>
			</linearGradient>
			<path class="st26" d="M292.1,392.6c-26.8,0-54.9-2.6-54.9-7.5c0-0.3,0.1-0.7,0.4-0.7c0.3,0,0.2,0.4,0.2,0.6
				c0,3.1,22.3,6.6,54.3,6.6c32,0,54.3-3.5,54.3-6.6c0-0.3,0-0.5,0.3-0.5c0.3,0,0.2,0.4,0.2,0.6C347,390,318.9,392.6,292.1,392.6z"
				/>
			<g>
				<path class="st27" d="M286.9,385.4c0.5-0.4,1.1-0.7,1.7-1.1c0.6-0.4,1.4-0.7,2.4-1c1-0.3,2.2-0.5,3.6-0.7
					c1.4-0.2,3.3-0.3,5.4-0.3c2.1,0,4.1,0.1,6,0.2c1.9,0.1,3.5,0.4,4.9,0.6c1.4,0.3,2.6,0.6,3.4,1.1c0.9,0.4,1.4,0.9,1.6,1.5
					l6.2,0.1c0.4,0,0.8,0,1.2,0.1c0.3,0.1,0.5,0.2,0.5,0.3l0,0.5l-7.9-0.1c-0.3,0.6-1,1.2-2.1,1.7c-1.1,0.5-2.6,1-4.4,1.3l-2.9-0.4
					c-0.3,0-0.5-0.1-0.6-0.2c-0.2-0.1-0.2-0.1-0.2-0.2c0-0.1,0.2-0.2,0.7-0.3c0.4-0.1,1-0.3,1.5-0.5c0.6-0.2,1.1-0.4,1.7-0.7
					c0.5-0.3,0.9-0.6,1.1-0.9l-18.7-0.2c-0.5,0.4-1,0.7-1.7,1.1c-0.6,0.3-1.4,0.7-2.4,0.9c-1,0.3-2.3,0.5-3.8,0.7
					c-1.5,0.2-3.4,0.3-5.7,0.3c-1.7,0-3.4-0.1-5-0.2c-1.6-0.1-3.1-0.3-4.4-0.6c-1.3-0.3-2.3-0.6-3.1-1c-0.8-0.4-1.3-0.9-1.4-1.4
					l-5.1-0.1c-0.4,0-0.8,0-1.2-0.1c-0.4-0.1-0.5-0.2-0.5-0.3l0-0.5l6.9,0.1c0.3-0.5,0.9-1,1.9-1.4c1-0.4,2.1-0.8,3.5-1.1l2.3,0.3
					c0.7,0.1,1.1,0.2,1.1,0.3c0,0.1-0.1,0.2-0.4,0.3c-0.3,0.1-0.6,0.2-1,0.4c-0.4,0.1-0.8,0.3-1.2,0.5c-0.4,0.2-0.7,0.4-0.8,0.7
					L286.9,385.4z M269.8,386.1c0.1,0.3,0.5,0.6,0.9,0.9c0.5,0.2,1.1,0.4,1.8,0.6c0.7,0.2,1.5,0.3,2.4,0.3c0.9,0.1,1.8,0.1,2.8,0.1
					c1.1,0,2.1-0.1,2.9-0.1c0.8-0.1,1.6-0.2,2.2-0.4c0.6-0.2,1.2-0.3,1.7-0.5c0.5-0.2,0.9-0.4,1.3-0.7L269.8,386.1z M310.6,385.6
					c-0.1-0.3-0.5-0.6-1-0.9c-0.5-0.3-1.2-0.5-2-0.6c-0.8-0.2-1.8-0.3-2.9-0.4c-1.1-0.1-2.3-0.1-3.6-0.1c-1.2,0-2.2,0.1-3,0.2
					c-0.8,0.1-1.6,0.2-2.2,0.4c-0.6,0.2-1.2,0.4-1.6,0.6c-0.4,0.2-0.8,0.5-1.2,0.7L310.6,385.6z"/>
			</g>
			
				<linearGradient id="SVGID_25_" gradientUnits="userSpaceOnUse" x1="-2195.9326" y1="582.5986" x2="-2193.8977" y2="599.6354" gradientTransform="matrix(-1 0 0 -1 -1902.751 975.8388)">
				<stop  offset="3.597120e-03" style="stop-color:#F36F56"/>
				<stop  offset="0.3059" style="stop-color:#F99C4C"/>
				<stop  offset="0.545" style="stop-color:#FDB946"/>
				<stop  offset="0.6817" style="stop-color:#FFC444"/>
				<stop  offset="0.8038" style="stop-color:#FFC244"/>
				<stop  offset="0.8667" style="stop-color:#FEBA46"/>
				<stop  offset="0.916" style="stop-color:#FCAD49"/>
				<stop  offset="0.958" style="stop-color:#F99A4D"/>
				<stop  offset="0.9955" style="stop-color:#F58152"/>
				<stop  offset="1" style="stop-color:#F57E53"/>
			</linearGradient>
			<path class="st28" d="M292.1,378.6c-24.4,0-49.9,2.2-54,6.3c0.2,0.1,0.3,0.3,0.4,0.5c3.4-2.9,24.4-5.8,53.5-5.8
				c29.8,0,51.2,3.1,53.8,6c0.1-0.2,0.3-0.3,0.4-0.5C342.9,380.9,317,378.6,292.1,378.6z"/>
		</g>
		<g>
			<linearGradient id="SVGID_26_" gradientUnits="userSpaceOnUse" x1="212.6598" y1="381.8546" x2="338.8016" y2="381.8546">
				<stop  offset="0" style="stop-color:#FCB148"/>
				<stop  offset="5.207239e-02" style="stop-color:#FDBA46"/>
				<stop  offset="0.1424" style="stop-color:#FFC244"/>
				<stop  offset="0.3183" style="stop-color:#FFC444"/>
				<stop  offset="0.4849" style="stop-color:#FDB946"/>
				<stop  offset="0.7754" style="stop-color:#F99C4D"/>
				<stop  offset="0.8658" style="stop-color:#F8924F"/>
				<stop  offset="1" style="stop-color:#F8924F"/>
			</linearGradient>
			<path class="st29" d="M222,372.2v12.2c0,3.9,24.5,7.1,54.8,7.1c30.3,0,54.8-3.2,54.8-7.1v-12.2H222z"/>
			<linearGradient id="SVGID_27_" gradientUnits="userSpaceOnUse" x1="276.3104" y1="367.6452" x2="282.9605" y2="423.3161">
				<stop  offset="0" style="stop-color:#FFDB44"/>
				<stop  offset="1" style="stop-color:#FEEF06"/>
			</linearGradient>
			<ellipse class="st30" cx="276.9" cy="372.2" rx="54.8" ry="7.1"/>
			<linearGradient id="SVGID_28_" gradientUnits="userSpaceOnUse" x1="276.0212" y1="365.1626" x2="278.0636" y2="382.2599">
				<stop  offset="0" style="stop-color:#FFDB44"/>
				<stop  offset="1" style="stop-color:#FEEF06"/>
			</linearGradient>
			<path class="st31" d="M276.9,379.8c-26.8,0-54.9-2.6-54.9-7.5c0-0.3,0.1-0.7,0.4-0.7s0.2,0.4,0.2,0.6c0,3.1,22.3,6.6,54.3,6.6
				c32,0,54.3-3.5,54.3-6.6c0-0.3,0-0.5,0.3-0.5c0.3,0,0.2,0.4,0.2,0.6C331.7,377.3,303.7,379.8,276.9,379.8z"/>
			<g>
				<path class="st27" d="M271.7,372.6c0.5-0.4,1.1-0.7,1.7-1.1c0.6-0.4,1.4-0.7,2.4-1c1-0.3,2.2-0.5,3.6-0.7
					c1.4-0.2,3.3-0.3,5.4-0.3c2.1,0,4.1,0.1,6,0.2c1.9,0.1,3.5,0.4,4.9,0.6c1.4,0.3,2.6,0.6,3.4,1.1c0.9,0.4,1.4,0.9,1.6,1.5
					l6.2,0.1c0.4,0,0.8,0,1.2,0.1c0.3,0.1,0.5,0.2,0.5,0.3l0,0.5l-7.9-0.1c-0.3,0.6-1,1.2-2.1,1.7c-1.1,0.5-2.6,1-4.4,1.3l-2.9-0.4
					c-0.3,0-0.5-0.1-0.6-0.2c-0.2-0.1-0.2-0.1-0.2-0.2c0-0.1,0.2-0.2,0.7-0.3c0.4-0.1,1-0.3,1.5-0.5c0.6-0.2,1.1-0.4,1.7-0.7
					c0.5-0.3,0.9-0.6,1.1-0.9l-18.7-0.2c-0.5,0.4-1,0.7-1.7,1.1c-0.6,0.3-1.4,0.7-2.4,0.9c-1,0.3-2.3,0.5-3.8,0.7
					c-1.5,0.2-3.4,0.3-5.7,0.3c-1.7,0-3.4-0.1-5-0.2c-1.6-0.1-3.1-0.3-4.4-0.6c-1.3-0.3-2.3-0.6-3.1-1c-0.8-0.4-1.3-0.9-1.4-1.4
					l-5.1-0.1c-0.4,0-0.8,0-1.2-0.1c-0.4-0.1-0.5-0.2-0.5-0.3l0-0.5l6.9,0.1c0.3-0.5,0.9-1,1.9-1.4c1-0.4,2.1-0.8,3.5-1.1l2.3,0.3
					c0.7,0.1,1.1,0.2,1.1,0.3c0,0.1-0.1,0.2-0.4,0.3c-0.3,0.1-0.6,0.2-1,0.4c-0.4,0.1-0.8,0.3-1.2,0.5c-0.4,0.2-0.7,0.4-0.8,0.7
					L271.7,372.6z M254.5,373.3c0.1,0.3,0.5,0.6,0.9,0.9c0.5,0.2,1.1,0.4,1.8,0.6c0.7,0.2,1.5,0.3,2.4,0.3c0.9,0.1,1.8,0.1,2.8,0.1
					c1.1,0,2.1-0.1,2.9-0.1c0.8-0.1,1.6-0.2,2.2-0.4c0.6-0.2,1.2-0.3,1.7-0.5c0.5-0.2,0.9-0.4,1.3-0.7L254.5,373.3z M295.3,372.9
					c-0.1-0.3-0.5-0.6-1-0.9c-0.5-0.3-1.2-0.5-2-0.6c-0.8-0.2-1.8-0.3-2.9-0.4c-1.1-0.1-2.3-0.1-3.6-0.1c-1.2,0-2.2,0.1-3,0.2
					c-0.8,0.1-1.6,0.2-2.2,0.4c-0.6,0.2-1.2,0.4-1.6,0.6c-0.4,0.2-0.8,0.5-1.2,0.7L295.3,372.9z"/>
			</g>
			
				<linearGradient id="SVGID_29_" gradientUnits="userSpaceOnUse" x1="-2180.6921" y1="595.3713" x2="-2178.657" y2="612.4081" gradientTransform="matrix(-1 0 0 -1 -1902.751 975.8388)">
				<stop  offset="3.597120e-03" style="stop-color:#F36F56"/>
				<stop  offset="0.3059" style="stop-color:#F99C4C"/>
				<stop  offset="0.545" style="stop-color:#FDB946"/>
				<stop  offset="0.6817" style="stop-color:#FFC444"/>
				<stop  offset="0.8038" style="stop-color:#FFC244"/>
				<stop  offset="0.8667" style="stop-color:#FEBA46"/>
				<stop  offset="0.916" style="stop-color:#FCAD49"/>
				<stop  offset="0.958" style="stop-color:#F99A4D"/>
				<stop  offset="0.9955" style="stop-color:#F58152"/>
				<stop  offset="1" style="stop-color:#F57E53"/>
			</linearGradient>
			<path class="st32" d="M276.9,365.9c-24.4,0-49.9,2.2-54,6.3c0.2,0.1,0.3,0.3,0.4,0.5c3.4-2.9,24.4-5.8,53.5-5.8
				c29.8,0,51.2,3.1,53.8,6c0.1-0.2,0.3-0.3,0.4-0.5C327.7,368.1,301.7,365.9,276.9,365.9z"/>
		</g>
		<g>
			<linearGradient id="SVGID_30_" gradientUnits="userSpaceOnUse" x1="225.8102" y1="369.1193" x2="351.9523" y2="369.1193">
				<stop  offset="0" style="stop-color:#FCB148"/>
				<stop  offset="5.207239e-02" style="stop-color:#FDBA46"/>
				<stop  offset="0.1424" style="stop-color:#FFC244"/>
				<stop  offset="0.3183" style="stop-color:#FFC444"/>
				<stop  offset="0.4849" style="stop-color:#FDB946"/>
				<stop  offset="0.7754" style="stop-color:#F99C4D"/>
				<stop  offset="0.8658" style="stop-color:#F8924F"/>
				<stop  offset="1" style="stop-color:#F8924F"/>
			</linearGradient>
			<path class="st33" d="M235.2,359.5v12.2c0,3.9,24.5,7.1,54.8,7.1s54.8-3.2,54.8-7.1v-12.2H235.2z"/>
			<linearGradient id="SVGID_31_" gradientUnits="userSpaceOnUse" x1="289.4609" y1="354.9099" x2="296.111" y2="410.5809">
				<stop  offset="0" style="stop-color:#FFDB44"/>
				<stop  offset="1" style="stop-color:#FEEF06"/>
			</linearGradient>
			<path class="st34" d="M344.8,359.5c0,3.9-24.5,7.1-54.8,7.1s-54.8-3.2-54.8-7.1c0-3.9,24.5-7.1,54.8-7.1S344.8,355.6,344.8,359.5
				z"/>
			<linearGradient id="SVGID_32_" gradientUnits="userSpaceOnUse" x1="289.1718" y1="352.4272" x2="291.2142" y2="369.5246">
				<stop  offset="0" style="stop-color:#FFDB44"/>
				<stop  offset="1" style="stop-color:#FEEF06"/>
			</linearGradient>
			<path class="st35" d="M290,367.1c-26.8,0-54.9-2.6-54.9-7.5c0-0.3,0.1-0.7,0.4-0.7s0.2,0.4,0.2,0.6c0,3.1,22.3,6.6,54.3,6.6
				c32,0,54.3-3.5,54.3-6.6c0-0.3,0-0.5,0.3-0.5c0.3,0,0.2,0.4,0.2,0.6C344.9,364.5,316.8,367.1,290,367.1z"/>
			<g>
				<path class="st27" d="M284.8,359.9c0.5-0.4,1.1-0.7,1.7-1.1c0.6-0.4,1.4-0.7,2.4-1c1-0.3,2.2-0.5,3.6-0.7
					c1.4-0.2,3.3-0.3,5.4-0.3c2.1,0,4.1,0.1,6,0.2c1.9,0.1,3.5,0.4,4.9,0.6c1.4,0.3,2.6,0.6,3.4,1.1c0.9,0.4,1.4,0.9,1.6,1.5
					l6.2,0.1c0.4,0,0.8,0,1.2,0.1c0.3,0.1,0.5,0.2,0.5,0.3l0,0.5l-7.9-0.1c-0.3,0.6-1,1.2-2.1,1.7c-1.1,0.5-2.6,1-4.4,1.3l-2.9-0.4
					c-0.3,0-0.5-0.1-0.6-0.2c-0.2-0.1-0.2-0.1-0.2-0.2c0-0.1,0.2-0.2,0.7-0.3c0.4-0.1,1-0.3,1.5-0.5c0.6-0.2,1.1-0.4,1.7-0.7
					c0.5-0.3,0.9-0.6,1.1-0.9l-18.7-0.2c-0.5,0.4-1,0.7-1.7,1.1c-0.6,0.3-1.4,0.7-2.4,0.9c-1,0.3-2.3,0.5-3.8,0.7
					c-1.5,0.2-3.4,0.3-5.7,0.3c-1.7,0-3.4-0.1-5-0.2c-1.6-0.1-3.1-0.3-4.4-0.6c-1.3-0.3-2.3-0.6-3.1-1c-0.8-0.4-1.3-0.9-1.4-1.4
					l-5.1-0.1c-0.4,0-0.8,0-1.2-0.1c-0.4-0.1-0.5-0.2-0.5-0.3l0-0.5l6.9,0.1c0.3-0.5,0.9-1,1.9-1.4c1-0.4,2.1-0.8,3.5-1.1l2.3,0.3
					c0.7,0.1,1.1,0.2,1.1,0.3c0,0.1-0.1,0.2-0.4,0.3c-0.3,0.1-0.6,0.2-1,0.4c-0.4,0.1-0.8,0.3-1.2,0.5c-0.4,0.2-0.7,0.4-0.8,0.7
					L284.8,359.9z M267.7,360.6c0.1,0.3,0.5,0.6,0.9,0.9c0.5,0.2,1.1,0.4,1.8,0.6c0.7,0.2,1.5,0.3,2.4,0.3c0.9,0.1,1.8,0.1,2.8,0.1
					c1.1,0,2.1-0.1,2.9-0.1c0.8-0.1,1.6-0.2,2.2-0.4c0.6-0.2,1.2-0.3,1.7-0.5c0.5-0.2,0.9-0.4,1.3-0.7L267.7,360.6z M308.5,360.1
					c-0.1-0.3-0.5-0.6-1-0.9c-0.5-0.3-1.2-0.5-2-0.6c-0.8-0.2-1.8-0.3-2.9-0.4c-1.1-0.1-2.3-0.1-3.6-0.1c-1.2,0-2.2,0.1-3,0.2
					c-0.8,0.1-1.6,0.2-2.2,0.4c-0.6,0.2-1.2,0.4-1.6,0.6c-0.4,0.2-0.8,0.5-1.2,0.7L308.5,360.1z"/>
			</g>
			
				<linearGradient id="SVGID_33_" gradientUnits="userSpaceOnUse" x1="-2193.8428" y1="608.1066" x2="-2191.8076" y2="625.1434" gradientTransform="matrix(-1 0 0 -1 -1902.751 975.8388)">
				<stop  offset="3.597120e-03" style="stop-color:#F36F56"/>
				<stop  offset="0.3059" style="stop-color:#F99C4C"/>
				<stop  offset="0.545" style="stop-color:#FDB946"/>
				<stop  offset="0.6817" style="stop-color:#FFC444"/>
				<stop  offset="0.8038" style="stop-color:#FFC244"/>
				<stop  offset="0.8667" style="stop-color:#FEBA46"/>
				<stop  offset="0.916" style="stop-color:#FCAD49"/>
				<stop  offset="0.958" style="stop-color:#F99A4D"/>
				<stop  offset="0.9955" style="stop-color:#F58152"/>
				<stop  offset="1" style="stop-color:#F57E53"/>
			</linearGradient>
			<path class="st36" d="M290,353.1c-24.4,0-49.9,2.2-54,6.3c0.2,0.1,0.3,0.3,0.4,0.5c3.4-2.9,24.4-5.8,53.5-5.8
				c29.8,0,51.2,3.1,53.8,6c0.1-0.2,0.3-0.3,0.4-0.5C340.8,355.4,314.9,353.1,290,353.1z"/>
		</g>
		<g>
			<linearGradient id="SVGID_34_" gradientUnits="userSpaceOnUse" x1="233.7905" y1="356.3467" x2="359.9323" y2="356.3467">
				<stop  offset="0" style="stop-color:#FCB148"/>
				<stop  offset="5.207239e-02" style="stop-color:#FDBA46"/>
				<stop  offset="0.1424" style="stop-color:#FFC244"/>
				<stop  offset="0.3183" style="stop-color:#FFC444"/>
				<stop  offset="0.4849" style="stop-color:#FDB946"/>
				<stop  offset="0.7754" style="stop-color:#F99C4D"/>
				<stop  offset="0.8658" style="stop-color:#F8924F"/>
				<stop  offset="1" style="stop-color:#F8924F"/>
			</linearGradient>
			<path class="st37" d="M243.2,346.7v12.2c0,3.9,24.5,7.1,54.8,7.1c30.3,0,54.8-3.2,54.8-7.1v-12.2H243.2z"/>
			<linearGradient id="SVGID_35_" gradientUnits="userSpaceOnUse" x1="297.4411" y1="342.1372" x2="304.0912" y2="397.8083">
				<stop  offset="0" style="stop-color:#FFDB44"/>
				<stop  offset="1" style="stop-color:#FEEF06"/>
			</linearGradient>
			<ellipse class="st38" cx="298" cy="346.7" rx="54.8" ry="7.1"/>
			<linearGradient id="SVGID_36_" gradientUnits="userSpaceOnUse" x1="297.1519" y1="339.6545" x2="299.1943" y2="356.752">
				<stop  offset="0" style="stop-color:#FFDB44"/>
				<stop  offset="1" style="stop-color:#FEEF06"/>
			</linearGradient>
			<path class="st39" d="M298,354.3c-26.8,0-54.9-2.6-54.9-7.5c0-0.3,0.1-0.7,0.4-0.7s0.2,0.4,0.2,0.6c0,3.1,22.3,6.6,54.3,6.6
				c32,0,54.3-3.5,54.3-6.6c0-0.3,0-0.5,0.3-0.5c0.3,0,0.2,0.4,0.2,0.6C352.8,351.8,324.8,354.3,298,354.3z"/>
			<g>
				<path class="st27" d="M292.8,347.1c0.5-0.4,1.1-0.7,1.7-1.1c0.6-0.4,1.4-0.7,2.4-1c1-0.3,2.2-0.5,3.6-0.7
					c1.4-0.2,3.3-0.3,5.4-0.3c2.1,0,4.1,0.1,6,0.2c1.9,0.1,3.5,0.4,4.9,0.6c1.4,0.3,2.6,0.6,3.4,1.1c0.9,0.4,1.4,0.9,1.6,1.5
					l6.2,0.1c0.4,0,0.8,0,1.2,0.1c0.3,0.1,0.5,0.2,0.5,0.3l0,0.5l-7.9-0.1c-0.3,0.6-1,1.2-2.1,1.7c-1.1,0.5-2.6,1-4.4,1.3l-2.9-0.4
					c-0.3,0-0.5-0.1-0.6-0.2c-0.2-0.1-0.2-0.1-0.2-0.2c0-0.1,0.2-0.2,0.7-0.3c0.4-0.1,1-0.3,1.5-0.5c0.6-0.2,1.1-0.4,1.7-0.7
					c0.5-0.3,0.9-0.6,1.1-0.9l-18.7-0.2c-0.5,0.4-1,0.7-1.7,1.1c-0.6,0.3-1.4,0.7-2.4,0.9c-1,0.3-2.3,0.5-3.8,0.7
					c-1.5,0.2-3.4,0.3-5.7,0.3c-1.7,0-3.4-0.1-5-0.2c-1.6-0.1-3.1-0.3-4.4-0.6c-1.3-0.3-2.3-0.6-3.1-1c-0.8-0.4-1.3-0.9-1.4-1.4
					l-5.1-0.1c-0.4,0-0.8,0-1.2-0.1c-0.4-0.1-0.5-0.2-0.5-0.3l0-0.5l6.9,0.1c0.3-0.5,0.9-1,1.9-1.4c1-0.4,2.1-0.8,3.5-1.1l2.3,0.3
					c0.7,0.1,1.1,0.2,1.1,0.3c0,0.1-0.1,0.2-0.4,0.3c-0.3,0.1-0.6,0.2-1,0.4c-0.4,0.1-0.8,0.3-1.2,0.5c-0.4,0.2-0.7,0.4-0.8,0.7
					L292.8,347.1z M275.7,347.8c0.1,0.3,0.5,0.6,0.9,0.9c0.5,0.2,1.1,0.4,1.8,0.6c0.7,0.2,1.5,0.3,2.4,0.3c0.9,0.1,1.8,0.1,2.8,0.1
					c1.1,0,2.1-0.1,2.9-0.1c0.8-0.1,1.6-0.2,2.2-0.4c0.6-0.2,1.2-0.3,1.7-0.5c0.5-0.2,0.9-0.4,1.3-0.7L275.7,347.8z M316.4,347.3
					c-0.1-0.3-0.5-0.6-1-0.9c-0.5-0.3-1.2-0.5-2-0.6c-0.8-0.2-1.8-0.3-2.9-0.4c-1.1-0.1-2.3-0.1-3.6-0.1c-1.2,0-2.2,0.1-3,0.2
					c-0.8,0.1-1.6,0.2-2.2,0.4c-0.6,0.2-1.2,0.4-1.6,0.6c-0.4,0.2-0.8,0.5-1.2,0.7L316.4,347.3z"/>
			</g>
			
				<linearGradient id="SVGID_37_" gradientUnits="userSpaceOnUse" x1="-2201.8228" y1="620.8792" x2="-2199.7876" y2="637.916" gradientTransform="matrix(-1 0 0 -1 -1902.751 975.8388)">
				<stop  offset="3.597120e-03" style="stop-color:#F36F56"/>
				<stop  offset="0.3059" style="stop-color:#F99C4C"/>
				<stop  offset="0.545" style="stop-color:#FDB946"/>
				<stop  offset="0.6817" style="stop-color:#FFC444"/>
				<stop  offset="0.8038" style="stop-color:#FFC244"/>
				<stop  offset="0.8667" style="stop-color:#FEBA46"/>
				<stop  offset="0.916" style="stop-color:#FCAD49"/>
				<stop  offset="0.958" style="stop-color:#F99A4D"/>
				<stop  offset="0.9955" style="stop-color:#F58152"/>
				<stop  offset="1" style="stop-color:#F57E53"/>
			</linearGradient>
			<path class="st40" d="M298,340.4c-24.4,0-49.9,2.2-54,6.3c0.2,0.1,0.3,0.3,0.4,0.5c3.4-2.9,24.4-5.8,53.5-5.8
				c29.8,0,51.2,3.1,53.8,6c0.1-0.2,0.3-0.3,0.4-0.5C348.8,342.6,322.9,340.4,298,340.4z"/>
		</g>
		<g>
			<linearGradient id="SVGID_38_" gradientUnits="userSpaceOnUse" x1="227.9002" y1="342.5664" x2="354.0423" y2="342.5664">
				<stop  offset="0" style="stop-color:#FCB148"/>
				<stop  offset="5.207239e-02" style="stop-color:#FDBA46"/>
				<stop  offset="0.1424" style="stop-color:#FFC244"/>
				<stop  offset="0.3183" style="stop-color:#FFC444"/>
				<stop  offset="0.4849" style="stop-color:#FDB946"/>
				<stop  offset="0.7754" style="stop-color:#F99C4D"/>
				<stop  offset="0.8658" style="stop-color:#F8924F"/>
				<stop  offset="1" style="stop-color:#F8924F"/>
			</linearGradient>
			<path class="st41" d="M237.3,332.9v12.2c0,3.9,24.5,7.1,54.8,7.1c30.3,0,54.8-3.2,54.8-7.1v-12.2H237.3z"/>
			<linearGradient id="SVGID_39_" gradientUnits="userSpaceOnUse" x1="291.551" y1="328.3571" x2="298.201" y2="384.028">
				<stop  offset="0" style="stop-color:#FFDB44"/>
				<stop  offset="1" style="stop-color:#FEEF06"/>
			</linearGradient>
			<path class="st42" d="M346.9,332.9c0,3.9-24.5,7.1-54.8,7.1c-30.3,0-54.8-3.2-54.8-7.1c0-3.9,24.5-7.1,54.8-7.1
				C322.4,325.8,346.9,329,346.9,332.9z"/>
			<linearGradient id="SVGID_40_" gradientUnits="userSpaceOnUse" x1="291.2618" y1="325.8742" x2="293.3042" y2="342.9717">
				<stop  offset="0" style="stop-color:#FFDB44"/>
				<stop  offset="1" style="stop-color:#FEEF06"/>
			</linearGradient>
			<path class="st43" d="M292.1,340.5c-26.8,0-54.9-2.6-54.9-7.5c0-0.3,0.1-0.7,0.4-0.7c0.3,0,0.2,0.4,0.2,0.6
				c0,3.1,22.3,6.6,54.3,6.6c32,0,54.3-3.5,54.3-6.6c0-0.3,0-0.5,0.3-0.5c0.3,0,0.2,0.4,0.2,0.6C347,338,318.9,340.5,292.1,340.5z"
				/>
			<g>
				<path class="st27" d="M286.9,333.3c0.5-0.4,1.1-0.7,1.7-1.1c0.6-0.4,1.4-0.7,2.4-1c1-0.3,2.2-0.5,3.6-0.7
					c1.4-0.2,3.3-0.3,5.4-0.3c2.1,0,4.1,0.1,6,0.2c1.9,0.1,3.5,0.4,4.9,0.6c1.4,0.3,2.6,0.6,3.4,1.1c0.9,0.4,1.4,0.9,1.6,1.5
					l6.2,0.1c0.4,0,0.8,0,1.2,0.1c0.3,0.1,0.5,0.2,0.5,0.3l0,0.5l-7.9-0.1c-0.3,0.6-1,1.2-2.1,1.7c-1.1,0.5-2.6,1-4.4,1.3l-2.9-0.4
					c-0.3,0-0.5-0.1-0.6-0.2c-0.2-0.1-0.2-0.1-0.2-0.2c0-0.1,0.2-0.2,0.7-0.3c0.4-0.1,1-0.3,1.5-0.5c0.6-0.2,1.1-0.4,1.7-0.7
					c0.5-0.3,0.9-0.6,1.1-0.9l-18.7-0.2c-0.5,0.4-1,0.7-1.7,1.1c-0.6,0.3-1.4,0.7-2.4,0.9c-1,0.3-2.3,0.5-3.8,0.7
					c-1.5,0.2-3.4,0.3-5.7,0.3c-1.7,0-3.4-0.1-5-0.2c-1.6-0.1-3.1-0.3-4.4-0.6c-1.3-0.3-2.3-0.6-3.1-1c-0.8-0.4-1.3-0.9-1.4-1.4
					l-5.1-0.1c-0.4,0-0.8,0-1.2-0.1c-0.4-0.1-0.5-0.2-0.5-0.3l0-0.5l6.9,0.1c0.3-0.5,0.9-1,1.9-1.4c1-0.4,2.1-0.8,3.5-1.1l2.3,0.3
					c0.7,0.1,1.1,0.2,1.1,0.3c0,0.1-0.1,0.2-0.4,0.3c-0.3,0.1-0.6,0.2-1,0.4c-0.4,0.1-0.8,0.3-1.2,0.5c-0.4,0.2-0.7,0.4-0.8,0.7
					L286.9,333.3z M269.8,334c0.1,0.3,0.5,0.6,0.9,0.9c0.5,0.2,1.1,0.4,1.8,0.6c0.7,0.2,1.5,0.3,2.4,0.3c0.9,0.1,1.8,0.1,2.8,0.1
					c1.1,0,2.1-0.1,2.9-0.1c0.8-0.1,1.6-0.2,2.2-0.4c0.6-0.2,1.2-0.3,1.7-0.5c0.5-0.2,0.9-0.4,1.3-0.7L269.8,334z M310.6,333.6
					c-0.1-0.3-0.5-0.6-1-0.9c-0.5-0.3-1.2-0.5-2-0.6c-0.8-0.2-1.8-0.3-2.9-0.4c-1.1-0.1-2.3-0.1-3.6-0.1c-1.2,0-2.2,0.1-3,0.2
					c-0.8,0.1-1.6,0.2-2.2,0.4c-0.6,0.2-1.2,0.4-1.6,0.6c-0.4,0.2-0.8,0.5-1.2,0.7L310.6,333.6z"/>
			</g>
			
				<linearGradient id="SVGID_41_" gradientUnits="userSpaceOnUse" x1="-2195.9326" y1="634.6596" x2="-2193.8977" y2="651.6964" gradientTransform="matrix(-1 0 0 -1 -1902.751 975.8388)">
				<stop  offset="3.597120e-03" style="stop-color:#F36F56"/>
				<stop  offset="0.3059" style="stop-color:#F99C4C"/>
				<stop  offset="0.545" style="stop-color:#FDB946"/>
				<stop  offset="0.6817" style="stop-color:#FFC444"/>
				<stop  offset="0.8038" style="stop-color:#FFC244"/>
				<stop  offset="0.8667" style="stop-color:#FEBA46"/>
				<stop  offset="0.916" style="stop-color:#FCAD49"/>
				<stop  offset="0.958" style="stop-color:#F99A4D"/>
				<stop  offset="0.9955" style="stop-color:#F58152"/>
				<stop  offset="1" style="stop-color:#F57E53"/>
			</linearGradient>
			<path class="st44" d="M292.1,326.6c-24.4,0-49.9,2.2-54,6.3c0.2,0.1,0.3,0.3,0.4,0.5c3.4-2.9,24.4-5.8,53.5-5.8
				c29.8,0,51.2,3.1,53.8,6c0.1-0.2,0.3-0.3,0.4-0.5C342.9,328.8,317,326.6,292.1,326.6z"/>
		</g>
		<g>
			<linearGradient id="SVGID_42_" gradientUnits="userSpaceOnUse" x1="212.6598" y1="329.7937" x2="338.8016" y2="329.7937">
				<stop  offset="0" style="stop-color:#FCB148"/>
				<stop  offset="5.207239e-02" style="stop-color:#FDBA46"/>
				<stop  offset="0.1424" style="stop-color:#FFC244"/>
				<stop  offset="0.3183" style="stop-color:#FFC444"/>
				<stop  offset="0.4849" style="stop-color:#FDB946"/>
				<stop  offset="0.7754" style="stop-color:#F99C4D"/>
				<stop  offset="0.8658" style="stop-color:#F8924F"/>
				<stop  offset="1" style="stop-color:#F8924F"/>
			</linearGradient>
			<path class="st45" d="M222,320.2v12.2c0,3.9,24.5,7.1,54.8,7.1c30.3,0,54.8-3.2,54.8-7.1v-12.2H222z"/>
			<linearGradient id="SVGID_43_" gradientUnits="userSpaceOnUse" x1="276.3104" y1="315.5843" x2="282.9605" y2="371.2552">
				<stop  offset="0" style="stop-color:#FFDB44"/>
				<stop  offset="1" style="stop-color:#FEEF06"/>
			</linearGradient>
			<ellipse class="st46" cx="276.9" cy="320.2" rx="54.8" ry="7.1"/>
			<linearGradient id="SVGID_44_" gradientUnits="userSpaceOnUse" x1="276.0212" y1="313.1016" x2="278.0636" y2="330.1991">
				<stop  offset="0" style="stop-color:#FFDB44"/>
				<stop  offset="1" style="stop-color:#FEEF06"/>
			</linearGradient>
			<path class="st47" d="M276.9,327.8c-26.8,0-54.9-2.6-54.9-7.5c0-0.3,0.1-0.7,0.4-0.7s0.2,0.4,0.2,0.6c0,3.1,22.3,6.6,54.3,6.6
				c32,0,54.3-3.5,54.3-6.6c0-0.3,0-0.5,0.3-0.5c0.3,0,0.2,0.4,0.2,0.6C331.7,325.2,303.7,327.8,276.9,327.8z"/>
			<g>
				<path class="st27" d="M271.7,320.6c0.5-0.4,1.1-0.7,1.7-1.1c0.6-0.4,1.4-0.7,2.4-1c1-0.3,2.2-0.5,3.6-0.7
					c1.4-0.2,3.3-0.3,5.4-0.3c2.1,0,4.1,0.1,6,0.2c1.9,0.1,3.5,0.4,4.9,0.6c1.4,0.3,2.6,0.6,3.4,1.1c0.9,0.4,1.4,0.9,1.6,1.5
					l6.2,0.1c0.4,0,0.8,0,1.2,0.1c0.3,0.1,0.5,0.2,0.5,0.3l0,0.5l-7.9-0.1c-0.3,0.6-1,1.2-2.1,1.7c-1.1,0.5-2.6,1-4.4,1.3l-2.9-0.4
					c-0.3,0-0.5-0.1-0.6-0.2c-0.2-0.1-0.2-0.1-0.2-0.2c0-0.1,0.2-0.2,0.7-0.3c0.4-0.1,1-0.3,1.5-0.5c0.6-0.2,1.1-0.4,1.7-0.7
					c0.5-0.3,0.9-0.6,1.1-0.9l-18.7-0.2c-0.5,0.4-1,0.7-1.7,1.1c-0.6,0.3-1.4,0.7-2.4,0.9c-1,0.3-2.3,0.5-3.8,0.7
					c-1.5,0.2-3.4,0.3-5.7,0.3c-1.7,0-3.4-0.1-5-0.2c-1.6-0.1-3.1-0.3-4.4-0.6c-1.3-0.3-2.3-0.6-3.1-1c-0.8-0.4-1.3-0.9-1.4-1.4
					l-5.1-0.1c-0.4,0-0.8,0-1.2-0.1c-0.4-0.1-0.5-0.2-0.5-0.3l0-0.5l6.9,0.1c0.3-0.5,0.9-1,1.9-1.4c1-0.4,2.1-0.8,3.5-1.1l2.3,0.3
					c0.7,0.1,1.1,0.2,1.1,0.3c0,0.1-0.1,0.2-0.4,0.3c-0.3,0.1-0.6,0.2-1,0.4c-0.4,0.1-0.8,0.3-1.2,0.5c-0.4,0.2-0.7,0.4-0.8,0.7
					L271.7,320.6z M254.5,321.2c0.1,0.3,0.5,0.6,0.9,0.9c0.5,0.2,1.1,0.4,1.8,0.6c0.7,0.2,1.5,0.3,2.4,0.3c0.9,0.1,1.8,0.1,2.8,0.1
					c1.1,0,2.1-0.1,2.9-0.1c0.8-0.1,1.6-0.2,2.2-0.4c0.6-0.2,1.2-0.3,1.7-0.5c0.5-0.2,0.9-0.4,1.3-0.7L254.5,321.2z M295.3,320.8
					c-0.1-0.3-0.5-0.6-1-0.9c-0.5-0.3-1.2-0.5-2-0.6c-0.8-0.2-1.8-0.3-2.9-0.4c-1.1-0.1-2.3-0.1-3.6-0.1c-1.2,0-2.2,0.1-3,0.2
					c-0.8,0.1-1.6,0.2-2.2,0.4c-0.6,0.2-1.2,0.4-1.6,0.6c-0.4,0.2-0.8,0.5-1.2,0.7L295.3,320.8z"/>
			</g>
			
				<linearGradient id="SVGID_45_" gradientUnits="userSpaceOnUse" x1="-2180.6921" y1="647.4323" x2="-2178.657" y2="664.4691" gradientTransform="matrix(-1 0 0 -1 -1902.751 975.8388)">
				<stop  offset="3.597120e-03" style="stop-color:#F36F56"/>
				<stop  offset="0.3059" style="stop-color:#F99C4C"/>
				<stop  offset="0.545" style="stop-color:#FDB946"/>
				<stop  offset="0.6817" style="stop-color:#FFC444"/>
				<stop  offset="0.8038" style="stop-color:#FFC244"/>
				<stop  offset="0.8667" style="stop-color:#FEBA46"/>
				<stop  offset="0.916" style="stop-color:#FCAD49"/>
				<stop  offset="0.958" style="stop-color:#F99A4D"/>
				<stop  offset="0.9955" style="stop-color:#F58152"/>
				<stop  offset="1" style="stop-color:#F57E53"/>
			</linearGradient>
			<path class="st48" d="M276.9,313.8c-24.4,0-49.9,2.2-54,6.3c0.2,0.1,0.3,0.3,0.4,0.5c3.4-2.9,24.4-5.8,53.5-5.8
				c29.8,0,51.2,3.1,53.8,6c0.1-0.2,0.3-0.3,0.4-0.5C327.7,316,301.7,313.8,276.9,313.8z"/>
		</g>
		<g>
			<linearGradient id="SVGID_46_" gradientUnits="userSpaceOnUse" x1="225.8102" y1="317.0585" x2="351.9523" y2="317.0585">
				<stop  offset="0" style="stop-color:#FCB148"/>
				<stop  offset="5.207239e-02" style="stop-color:#FDBA46"/>
				<stop  offset="0.1424" style="stop-color:#FFC244"/>
				<stop  offset="0.3183" style="stop-color:#FFC444"/>
				<stop  offset="0.4849" style="stop-color:#FDB946"/>
				<stop  offset="0.7754" style="stop-color:#F99C4D"/>
				<stop  offset="0.8658" style="stop-color:#F8924F"/>
				<stop  offset="1" style="stop-color:#F8924F"/>
			</linearGradient>
			<path class="st49" d="M235.2,307.4v12.2c0,3.9,24.5,7.1,54.8,7.1s54.8-3.2,54.8-7.1v-12.2H235.2z"/>
			<linearGradient id="SVGID_47_" gradientUnits="userSpaceOnUse" x1="289.4609" y1="302.849" x2="296.111" y2="358.5199">
				<stop  offset="0" style="stop-color:#FFDB44"/>
				<stop  offset="1" style="stop-color:#FEEF06"/>
			</linearGradient>
			<path class="st50" d="M344.8,307.4c0,3.9-24.5,7.1-54.8,7.1s-54.8-3.2-54.8-7.1c0-3.9,24.5-7.1,54.8-7.1S344.8,303.5,344.8,307.4
				z"/>
			<linearGradient id="SVGID_48_" gradientUnits="userSpaceOnUse" x1="289.1718" y1="300.3663" x2="291.2142" y2="317.4638">
				<stop  offset="0" style="stop-color:#FFDB44"/>
				<stop  offset="1" style="stop-color:#FEEF06"/>
			</linearGradient>
			<path class="st51" d="M290,315c-26.8,0-54.9-2.6-54.9-7.5c0-0.3,0.1-0.7,0.4-0.7s0.2,0.4,0.2,0.6c0,3.1,22.3,6.6,54.3,6.6
				c32,0,54.3-3.5,54.3-6.6c0-0.3,0-0.5,0.3-0.5c0.3,0,0.2,0.4,0.2,0.6C344.9,312.5,316.8,315,290,315z"/>
			<g>
				<path class="st27" d="M284.8,307.8c0.5-0.4,1.1-0.7,1.7-1.1c0.6-0.4,1.4-0.7,2.4-1c1-0.3,2.2-0.5,3.6-0.7
					c1.4-0.2,3.3-0.3,5.4-0.3c2.1,0,4.1,0.1,6,0.2c1.9,0.1,3.5,0.4,4.9,0.6c1.4,0.3,2.6,0.6,3.4,1.1c0.9,0.4,1.4,0.9,1.6,1.5
					l6.2,0.1c0.4,0,0.8,0,1.2,0.1c0.3,0.1,0.5,0.2,0.5,0.3l0,0.5l-7.9-0.1c-0.3,0.6-1,1.2-2.1,1.7c-1.1,0.5-2.6,1-4.4,1.3l-2.9-0.4
					c-0.3,0-0.5-0.1-0.6-0.2c-0.2-0.1-0.2-0.1-0.2-0.2c0-0.1,0.2-0.2,0.7-0.3c0.4-0.1,1-0.3,1.5-0.5c0.6-0.2,1.1-0.4,1.7-0.7
					c0.5-0.3,0.9-0.6,1.1-0.9l-18.7-0.2c-0.5,0.4-1,0.7-1.7,1.1c-0.6,0.3-1.4,0.7-2.4,0.9c-1,0.3-2.3,0.5-3.8,0.7
					c-1.5,0.2-3.4,0.3-5.7,0.3c-1.7,0-3.4-0.1-5-0.2c-1.6-0.1-3.1-0.3-4.4-0.6c-1.3-0.3-2.3-0.6-3.1-1c-0.8-0.4-1.3-0.9-1.4-1.4
					l-5.1-0.1c-0.4,0-0.8,0-1.2-0.1c-0.4-0.1-0.5-0.2-0.5-0.3l0-0.5l6.9,0.1c0.3-0.5,0.9-1,1.9-1.4c1-0.4,2.1-0.8,3.5-1.1l2.3,0.3
					c0.7,0.1,1.1,0.2,1.1,0.3c0,0.1-0.1,0.2-0.4,0.3c-0.3,0.1-0.6,0.2-1,0.4c-0.4,0.1-0.8,0.3-1.2,0.5c-0.4,0.2-0.7,0.4-0.8,0.7
					L284.8,307.8z M267.7,308.5c0.1,0.3,0.5,0.6,0.9,0.9c0.5,0.2,1.1,0.4,1.8,0.6c0.7,0.2,1.5,0.3,2.4,0.3c0.9,0.1,1.8,0.1,2.8,0.1
					c1.1,0,2.1-0.1,2.9-0.1c0.8-0.1,1.6-0.2,2.2-0.4c0.6-0.2,1.2-0.3,1.7-0.5c0.5-0.2,0.9-0.4,1.3-0.7L267.7,308.5z M308.5,308.1
					c-0.1-0.3-0.5-0.6-1-0.9c-0.5-0.3-1.2-0.5-2-0.6c-0.8-0.2-1.8-0.3-2.9-0.4c-1.1-0.1-2.3-0.1-3.6-0.1c-1.2,0-2.2,0.1-3,0.2
					c-0.8,0.1-1.6,0.2-2.2,0.4c-0.6,0.2-1.2,0.4-1.6,0.6c-0.4,0.2-0.8,0.5-1.2,0.7L308.5,308.1z"/>
			</g>
			
				<linearGradient id="SVGID_49_" gradientUnits="userSpaceOnUse" x1="-2193.8428" y1="660.1676" x2="-2191.8076" y2="677.2043" gradientTransform="matrix(-1 0 0 -1 -1902.751 975.8388)">
				<stop  offset="3.597120e-03" style="stop-color:#F36F56"/>
				<stop  offset="0.3059" style="stop-color:#F99C4C"/>
				<stop  offset="0.545" style="stop-color:#FDB946"/>
				<stop  offset="0.6817" style="stop-color:#FFC444"/>
				<stop  offset="0.8038" style="stop-color:#FFC244"/>
				<stop  offset="0.8667" style="stop-color:#FEBA46"/>
				<stop  offset="0.916" style="stop-color:#FCAD49"/>
				<stop  offset="0.958" style="stop-color:#F99A4D"/>
				<stop  offset="0.9955" style="stop-color:#F58152"/>
				<stop  offset="1" style="stop-color:#F57E53"/>
			</linearGradient>
			<path class="st52" d="M290,301.1c-24.4,0-49.9,2.2-54,6.3c0.2,0.1,0.3,0.3,0.4,0.5c3.4-2.9,24.4-5.8,53.5-5.8
				c29.8,0,51.2,3.1,53.8,6c0.1-0.2,0.3-0.3,0.4-0.5C340.8,303.3,314.9,301.1,290,301.1z"/>
		</g>
		<g>
			<linearGradient id="SVGID_50_" gradientUnits="userSpaceOnUse" x1="218.9702" y1="304.2858" x2="345.1121" y2="304.2858">
				<stop  offset="0" style="stop-color:#FCB148"/>
				<stop  offset="5.207239e-02" style="stop-color:#FDBA46"/>
				<stop  offset="0.1424" style="stop-color:#FFC244"/>
				<stop  offset="0.3183" style="stop-color:#FFC444"/>
				<stop  offset="0.4849" style="stop-color:#FDB946"/>
				<stop  offset="0.7754" style="stop-color:#F99C4D"/>
				<stop  offset="0.8658" style="stop-color:#F8924F"/>
				<stop  offset="1" style="stop-color:#F8924F"/>
			</linearGradient>
			<path class="st53" d="M228.3,294.6v12.2c0,3.9,24.5,7.1,54.8,7.1c30.3,0,54.8-3.2,54.8-7.1v-12.2H228.3z"/>
			<linearGradient id="SVGID_51_" gradientUnits="userSpaceOnUse" x1="282.6209" y1="290.0764" x2="289.271" y2="345.7473">
				<stop  offset="0" style="stop-color:#FFDB44"/>
				<stop  offset="1" style="stop-color:#FEEF06"/>
			</linearGradient>
			<path class="st54" d="M338,294.6c0,3.9-24.5,7.1-54.8,7.1c-30.3,0-54.8-3.2-54.8-7.1c0-3.9,24.5-7.1,54.8-7.1
				C313.4,287.5,338,290.7,338,294.6z"/>
			<linearGradient id="SVGID_52_" gradientUnits="userSpaceOnUse" x1="282.3317" y1="287.5937" x2="284.374" y2="304.691">
				<stop  offset="0" style="stop-color:#FFDB44"/>
				<stop  offset="1" style="stop-color:#FEEF06"/>
			</linearGradient>
			<path class="st55" d="M283.2,302.3c-26.8,0-54.9-2.6-54.9-7.5c0-0.3,0.1-0.7,0.4-0.7s0.2,0.4,0.2,0.6c0,3.1,22.3,6.6,54.3,6.6
				c32,0,54.3-3.5,54.3-6.6c0-0.3,0-0.5,0.3-0.5s0.2,0.4,0.2,0.6C338,299.7,310,302.3,283.2,302.3z"/>
			<g>
				<path class="st27" d="M278,295c0.5-0.4,1.1-0.7,1.7-1.1c0.6-0.4,1.4-0.7,2.4-1c1-0.3,2.2-0.5,3.6-0.7c1.4-0.2,3.3-0.3,5.4-0.3
					c2.1,0,4.1,0.1,6,0.2c1.9,0.1,3.5,0.4,4.9,0.6c1.4,0.3,2.6,0.6,3.4,1.1c0.9,0.4,1.4,0.9,1.6,1.5l6.2,0.1c0.4,0,0.8,0,1.2,0.1
					c0.3,0.1,0.5,0.2,0.5,0.3l0,0.5l-7.9-0.1c-0.3,0.6-1,1.2-2.1,1.7c-1.1,0.5-2.6,1-4.4,1.3l-2.9-0.4c-0.3,0-0.5-0.1-0.6-0.2
					c-0.2-0.1-0.2-0.1-0.2-0.2c0-0.1,0.2-0.2,0.7-0.3c0.4-0.1,1-0.3,1.5-0.5c0.6-0.2,1.1-0.4,1.7-0.7c0.5-0.3,0.9-0.6,1.1-0.9
					l-18.7-0.2c-0.5,0.4-1,0.7-1.7,1.1c-0.6,0.3-1.4,0.7-2.4,0.9c-1,0.3-2.3,0.5-3.8,0.7c-1.5,0.2-3.4,0.3-5.7,0.3
					c-1.7,0-3.4-0.1-5-0.2c-1.6-0.1-3.1-0.3-4.4-0.6c-1.3-0.3-2.3-0.6-3.1-1c-0.8-0.4-1.3-0.9-1.4-1.4l-5.1-0.1
					c-0.4,0-0.8,0-1.2-0.1c-0.4-0.1-0.5-0.2-0.5-0.3l0-0.5l6.9,0.1c0.3-0.5,0.9-1,1.9-1.4c1-0.4,2.1-0.8,3.5-1.1l2.3,0.3
					c0.7,0.1,1.1,0.2,1.1,0.3c0,0.1-0.1,0.2-0.4,0.3c-0.3,0.1-0.6,0.2-1,0.4c-0.4,0.1-0.8,0.3-1.2,0.5c-0.4,0.2-0.7,0.4-0.8,0.7
					L278,295z M260.8,295.7c0.1,0.3,0.5,0.6,0.9,0.9c0.5,0.2,1.1,0.4,1.8,0.6c0.7,0.2,1.5,0.3,2.4,0.3c0.9,0.1,1.8,0.1,2.8,0.1
					c1.1,0,2.1-0.1,2.9-0.1c0.8-0.1,1.6-0.2,2.2-0.4c0.6-0.2,1.2-0.3,1.7-0.5c0.5-0.2,0.9-0.4,1.3-0.7L260.8,295.7z M301.6,295.3
					c-0.1-0.3-0.5-0.6-1-0.9c-0.5-0.3-1.2-0.5-2-0.6c-0.8-0.2-1.8-0.3-2.9-0.4c-1.1-0.1-2.3-0.1-3.6-0.1c-1.2,0-2.2,0.1-3,0.2
					c-0.8,0.1-1.6,0.2-2.2,0.4c-0.6,0.2-1.2,0.4-1.6,0.6c-0.4,0.2-0.8,0.5-1.2,0.7L301.6,295.3z"/>
			</g>
			
				<linearGradient id="SVGID_53_" gradientUnits="userSpaceOnUse" x1="-2187.0027" y1="672.9402" x2="-2184.9675" y2="689.977" gradientTransform="matrix(-1 0 0 -1 -1902.751 975.8388)">
				<stop  offset="3.597120e-03" style="stop-color:#F36F56"/>
				<stop  offset="0.3059" style="stop-color:#F99C4C"/>
				<stop  offset="0.545" style="stop-color:#FDB946"/>
				<stop  offset="0.6817" style="stop-color:#FFC444"/>
				<stop  offset="0.8038" style="stop-color:#FFC244"/>
				<stop  offset="0.8667" style="stop-color:#FEBA46"/>
				<stop  offset="0.916" style="stop-color:#FCAD49"/>
				<stop  offset="0.958" style="stop-color:#F99A4D"/>
				<stop  offset="0.9955" style="stop-color:#F58152"/>
				<stop  offset="1" style="stop-color:#F57E53"/>
			</linearGradient>
			<path class="st56" d="M283.2,288.3c-24.4,0-49.9,2.2-54,6.3c0.2,0.1,0.3,0.3,0.4,0.5c3.4-2.9,24.4-5.8,53.5-5.8
				c29.8,0,51.2,3.1,53.8,6c0.1-0.2,0.3-0.3,0.4-0.5C334,290.5,308.1,288.3,283.2,288.3z"/>
		</g>
		<g>
			
				<linearGradient id="SVGID_54_" gradientUnits="userSpaceOnUse" x1="-119.6377" y1="-282.7133" x2="6.5048" y2="-282.7133" gradientTransform="matrix(0.5796 0.8149 -0.8149 0.5796 179.2597 562.5201)">
				<stop  offset="0" style="stop-color:#FCB148"/>
				<stop  offset="5.207239e-02" style="stop-color:#FDBA46"/>
				<stop  offset="0.1424" style="stop-color:#FFC244"/>
				<stop  offset="0.3183" style="stop-color:#FFC444"/>
				<stop  offset="0.4849" style="stop-color:#FDB946"/>
				<stop  offset="0.7754" style="stop-color:#F99C4D"/>
				<stop  offset="0.8658" style="stop-color:#F8924F"/>
				<stop  offset="1" style="stop-color:#F8924F"/>
			</linearGradient>
			<path class="st57" d="M353.6,303.2l-9.9,7c-3.2,2.3,8.4,24.1,26,48.8c17.5,24.7,34.4,42.8,37.6,40.6l9.9-7L353.6,303.2z"/>
			
				<linearGradient id="SVGID_55_" gradientUnits="userSpaceOnUse" x1="-55.9869" y1="-296.9213" x2="-49.3376" y2="-241.2571" gradientTransform="matrix(0.5796 0.8149 -0.8149 0.5796 179.2597 562.5201)">
				<stop  offset="0" style="stop-color:#FFDB44"/>
				<stop  offset="1" style="stop-color:#FEEF06"/>
			</linearGradient>
			<path class="st58" d="M417.1,392.6c-3.2,2.3-20-15.9-37.6-40.6c-17.5-24.7-29.2-46.5-26-48.8c3.2-2.3,20,15.9,37.6,40.6
				C408.7,368.4,420.3,390.3,417.1,392.6z"/>
			
				<linearGradient id="SVGID_56_" gradientUnits="userSpaceOnUse" x1="-56.276" y1="-299.4028" x2="-54.234" y2="-282.3083" gradientTransform="matrix(0.5796 0.8149 -0.8149 0.5796 179.2597 562.5201)">
				<stop  offset="0" style="stop-color:#FFDB44"/>
				<stop  offset="1" style="stop-color:#FEEF06"/>
			</linearGradient>
			<path class="st59" d="M379.2,352.3c-15.5-21.9-29.7-46.2-25.7-49c0.2-0.2,0.7-0.4,0.8-0.1c0.2,0.2-0.2,0.3-0.4,0.5
				c-2.6,1.8,7.5,22,26.1,48.1c18.6,26.1,34.3,42.3,36.9,40.4c0.2-0.2,0.5-0.3,0.6,0c0.2,0.2-0.2,0.4-0.4,0.5
				C413,395.5,394.7,374.2,379.2,352.3z"/>
			<g>
				<path class="st27" d="M382,343.9c0.6,0.2,1.2,0.5,1.9,0.8c0.6,0.3,1.4,0.7,2.2,1.4c0.8,0.6,1.7,1.5,2.7,2.5
					c1,1.1,2.1,2.5,3.4,4.2c1.2,1.7,2.3,3.4,3.3,5c1,1.6,1.7,3.1,2.3,4.4c0.6,1.3,1,2.5,1.1,3.4c0.2,1,0.1,1.7-0.3,2.1l3.5,5.1
					c0.3,0.4,0.5,0.7,0.6,1c0.1,0.3,0.2,0.5,0.1,0.6l-0.4,0.3l-4.5-6.5c-0.7,0.1-1.5-0.1-2.6-0.7c-1.1-0.6-2.3-1.5-3.6-2.8l-1.3-2.6
					c-0.1-0.2-0.2-0.4-0.2-0.6c0-0.2,0-0.3,0-0.3c0.1-0.1,0.3,0.1,0.7,0.4c0.4,0.3,0.8,0.6,1.3,1c0.5,0.4,1,0.7,1.5,1
					c0.5,0.3,1,0.4,1.4,0.4l-10.7-15.4c-0.6-0.2-1.2-0.4-1.8-0.7c-0.6-0.3-1.4-0.8-2.2-1.4c-0.8-0.7-1.7-1.6-2.7-2.7
					c-1-1.1-2.2-2.6-3.5-4.5c-1-1.4-1.9-2.8-2.8-4.2c-0.8-1.4-1.5-2.7-2-3.9c-0.5-1.2-0.8-2.2-1-3.1c-0.1-0.9,0-1.5,0.4-1.9
					l-2.9-4.2c-0.3-0.4-0.5-0.7-0.6-1c-0.1-0.3-0.2-0.5-0.1-0.6l0.4-0.3l4,5.7c0.6-0.1,1.4,0.2,2.2,0.7c0.9,0.6,1.9,1.3,2.9,2.3
					l1.1,2.1c0.3,0.6,0.4,1,0.3,1.1c-0.1,0-0.2,0-0.5-0.2c-0.3-0.2-0.6-0.4-0.9-0.6c-0.4-0.2-0.7-0.5-1.1-0.6
					c-0.4-0.2-0.7-0.3-1-0.3L382,343.9z M371.5,330.3c-0.2,0.3-0.2,0.7-0.2,1.3c0.1,0.5,0.3,1.1,0.5,1.8c0.3,0.7,0.6,1.4,1.1,2.1
					c0.5,0.8,1,1.5,1.5,2.3c0.7,0.9,1.3,1.7,1.8,2.3c0.6,0.6,1.1,1.2,1.6,1.6c0.5,0.4,1,0.8,1.4,1c0.4,0.3,0.9,0.5,1.3,0.6
					L371.5,330.3z M395.5,363.3c0.2-0.3,0.2-0.8,0.1-1.3c-0.1-0.6-0.3-1.3-0.7-2c-0.3-0.8-0.8-1.6-1.4-2.6c-0.6-0.9-1.2-1.9-2-3
					c-0.7-1-1.3-1.7-1.9-2.4c-0.6-0.6-1.1-1.2-1.6-1.6c-0.5-0.4-1-0.7-1.4-1c-0.4-0.2-0.9-0.4-1.3-0.6L395.5,363.3z"/>
			</g>
			
				<linearGradient id="SVGID_57_" gradientUnits="userSpaceOnUse" x1="-1847.828" y1="1259.4834" x2="-1845.7932" y2="1276.517" gradientTransform="matrix(-0.5796 -0.8149 0.8149 -0.5796 -1718.085 -422.2387)">
				<stop  offset="3.597120e-03" style="stop-color:#F36F56"/>
				<stop  offset="0.3059" style="stop-color:#F99C4C"/>
				<stop  offset="0.545" style="stop-color:#FDB946"/>
				<stop  offset="0.6817" style="stop-color:#FFC444"/>
				<stop  offset="0.8038" style="stop-color:#FFC244"/>
				<stop  offset="0.8667" style="stop-color:#FEBA46"/>
				<stop  offset="0.916" style="stop-color:#FCAD49"/>
				<stop  offset="0.958" style="stop-color:#F99A4D"/>
				<stop  offset="0.9955" style="stop-color:#F58152"/>
				<stop  offset="1" style="stop-color:#F57E53"/>
			</linearGradient>
			<path class="st60" d="M390.5,344.2c-14.2-19.9-30.7-39.4-36.4-40.3c0,0.2-0.1,0.4-0.1,0.6c4.3,1.1,18.9,16.6,35.8,40.3
				c17.3,24.3,27.2,43.5,26.3,47.3c0.2,0,0.4,0,0.6,0.1C418.2,386.9,405,364.5,390.5,344.2z"/>
		</g>
	</g>
	<g>
		<g>
			<linearGradient id="SVGID_58_" gradientUnits="userSpaceOnUse" x1="128.9657" y1="424.1542" x2="255.1077" y2="424.1542">
				<stop  offset="0" style="stop-color:#FCB148"/>
				<stop  offset="5.207239e-02" style="stop-color:#FDBA46"/>
				<stop  offset="0.1424" style="stop-color:#FFC244"/>
				<stop  offset="0.3183" style="stop-color:#FFC444"/>
				<stop  offset="0.4849" style="stop-color:#FDB946"/>
				<stop  offset="0.7754" style="stop-color:#F99C4D"/>
				<stop  offset="0.8658" style="stop-color:#F8924F"/>
				<stop  offset="1" style="stop-color:#F8924F"/>
			</linearGradient>
			<path class="st61" d="M138.3,414.5v12.2c0,3.9,24.5,7.1,54.8,7.1c30.3,0,54.8-3.2,54.8-7.1v-12.2H138.3z"/>
			<linearGradient id="SVGID_59_" gradientUnits="userSpaceOnUse" x1="192.6164" y1="409.9447" x2="199.2665" y2="465.6156">
				<stop  offset="0" style="stop-color:#FFDB44"/>
				<stop  offset="1" style="stop-color:#FEEF06"/>
			</linearGradient>
			<path class="st62" d="M248,414.5c0,3.9-24.5,7.1-54.8,7.1c-30.3,0-54.8-3.2-54.8-7.1c0-3.9,24.5-7.1,54.8-7.1
				C223.4,407.4,248,410.6,248,414.5z"/>
			<linearGradient id="SVGID_60_" gradientUnits="userSpaceOnUse" x1="192.3273" y1="407.462" x2="194.3697" y2="424.5594">
				<stop  offset="0" style="stop-color:#FFDB44"/>
				<stop  offset="1" style="stop-color:#FEEF06"/>
			</linearGradient>
			<path class="st63" d="M193.2,422.1c-26.8,0-54.9-2.6-54.9-7.5c0-0.3,0.1-0.7,0.4-0.7s0.2,0.4,0.2,0.6c0,3.1,22.3,6.6,54.3,6.6
				c32,0,54.3-3.5,54.3-6.6c0-0.3,0-0.5,0.3-0.5s0.2,0.4,0.2,0.6C248,419.6,220,422.1,193.2,422.1z"/>
			<g>
				<path class="st27" d="M188,414.9c0.5-0.4,1.1-0.7,1.7-1.1c0.6-0.4,1.4-0.7,2.4-1c1-0.3,2.2-0.5,3.6-0.7c1.4-0.2,3.3-0.3,5.4-0.3
					c2.1,0,4.1,0.1,6,0.2c1.9,0.1,3.5,0.4,4.9,0.6c1.4,0.3,2.6,0.6,3.4,1.1c0.9,0.4,1.4,0.9,1.6,1.5l6.2,0.1c0.4,0,0.8,0,1.2,0.1
					c0.3,0.1,0.5,0.2,0.5,0.3l0,0.5l-7.9-0.1c-0.3,0.6-1,1.2-2.1,1.7c-1.1,0.5-2.6,1-4.4,1.3l-2.9-0.4c-0.3,0-0.5-0.1-0.6-0.2
					c-0.2-0.1-0.2-0.1-0.2-0.2c0-0.1,0.2-0.2,0.7-0.3c0.4-0.1,1-0.3,1.5-0.5c0.6-0.2,1.1-0.4,1.7-0.7c0.5-0.3,0.9-0.6,1.1-0.9
					l-18.7-0.2c-0.5,0.4-1,0.7-1.7,1.1c-0.6,0.3-1.4,0.7-2.4,0.9c-1,0.3-2.3,0.5-3.8,0.7c-1.5,0.2-3.4,0.3-5.7,0.3
					c-1.7,0-3.4-0.1-5-0.2c-1.6-0.1-3.1-0.3-4.4-0.6c-1.3-0.3-2.3-0.6-3.1-1c-0.8-0.4-1.3-0.9-1.4-1.4l-5.1-0.1
					c-0.4,0-0.8,0-1.2-0.1c-0.4-0.1-0.5-0.2-0.5-0.3l0-0.5l6.9,0.1c0.3-0.5,0.9-1,1.9-1.4c1-0.4,2.1-0.8,3.5-1.1l2.3,0.3
					c0.7,0.1,1.1,0.2,1.1,0.3c0,0.1-0.1,0.2-0.4,0.3c-0.3,0.1-0.6,0.2-1,0.4c-0.4,0.1-0.8,0.3-1.2,0.5c-0.4,0.2-0.7,0.4-0.8,0.7
					L188,414.9z M170.8,415.6c0.1,0.3,0.5,0.6,0.9,0.9c0.5,0.2,1.1,0.4,1.8,0.6c0.7,0.2,1.5,0.3,2.4,0.3c0.9,0.1,1.8,0.1,2.8,0.1
					c1.1,0,2.1-0.1,2.9-0.1c0.8-0.1,1.6-0.2,2.2-0.4c0.6-0.2,1.2-0.3,1.7-0.5c0.5-0.2,0.9-0.4,1.3-0.7L170.8,415.6z M211.6,415.2
					c-0.1-0.3-0.5-0.6-1-0.9c-0.5-0.3-1.2-0.5-2-0.6c-0.8-0.2-1.8-0.3-2.9-0.4c-1.1-0.1-2.3-0.1-3.6-0.1c-1.2,0-2.2,0.1-3,0.2
					c-0.8,0.1-1.6,0.2-2.2,0.4c-0.6,0.2-1.2,0.4-1.6,0.6c-0.4,0.2-0.8,0.5-1.2,0.7L211.6,415.2z"/>
			</g>
			
				<linearGradient id="SVGID_61_" gradientUnits="userSpaceOnUse" x1="-2096.9983" y1="553.0718" x2="-2094.9631" y2="570.1086" gradientTransform="matrix(-1 0 0 -1 -1902.751 975.8388)">
				<stop  offset="3.597120e-03" style="stop-color:#F36F56"/>
				<stop  offset="0.3059" style="stop-color:#F99C4C"/>
				<stop  offset="0.545" style="stop-color:#FDB946"/>
				<stop  offset="0.6817" style="stop-color:#FFC444"/>
				<stop  offset="0.8038" style="stop-color:#FFC244"/>
				<stop  offset="0.8667" style="stop-color:#FEBA46"/>
				<stop  offset="0.916" style="stop-color:#FCAD49"/>
				<stop  offset="0.958" style="stop-color:#F99A4D"/>
				<stop  offset="0.9955" style="stop-color:#F58152"/>
				<stop  offset="1" style="stop-color:#F57E53"/>
			</linearGradient>
			<path class="st64" d="M193.2,408.2c-24.4,0-49.9,2.2-54,6.3c0.2,0.1,0.3,0.3,0.4,0.5c3.4-2.9,24.4-5.8,53.5-5.8
				c29.8,0,51.2,3.1,53.8,6c0.1-0.2,0.3-0.3,0.4-0.5C244,410.4,218,408.2,193.2,408.2z"/>
		</g>
		<g>
			<linearGradient id="SVGID_62_" gradientUnits="userSpaceOnUse" x1="113.7252" y1="411.3814" x2="239.8672" y2="411.3814">
				<stop  offset="0" style="stop-color:#FCB148"/>
				<stop  offset="5.207239e-02" style="stop-color:#FDBA46"/>
				<stop  offset="0.1424" style="stop-color:#FFC244"/>
				<stop  offset="0.3183" style="stop-color:#FFC444"/>
				<stop  offset="0.4849" style="stop-color:#FDB946"/>
				<stop  offset="0.7754" style="stop-color:#F99C4D"/>
				<stop  offset="0.8658" style="stop-color:#F8924F"/>
				<stop  offset="1" style="stop-color:#F8924F"/>
			</linearGradient>
			<path class="st65" d="M123.1,401.7v12.2c0,3.9,24.5,7.1,54.8,7.1c30.3,0,54.8-3.2,54.8-7.1v-12.2H123.1z"/>
			<linearGradient id="SVGID_63_" gradientUnits="userSpaceOnUse" x1="177.3759" y1="397.1721" x2="184.026" y2="452.843">
				<stop  offset="0" style="stop-color:#FFDB44"/>
				<stop  offset="1" style="stop-color:#FEEF06"/>
			</linearGradient>
			<path class="st66" d="M232.7,401.7c0,3.9-24.5,7.1-54.8,7.1c-30.3,0-54.8-3.2-54.8-7.1c0-3.9,24.5-7.1,54.8-7.1
				C208.2,394.6,232.7,397.8,232.7,401.7z"/>
			<linearGradient id="SVGID_64_" gradientUnits="userSpaceOnUse" x1="177.0867" y1="394.6894" x2="179.1291" y2="411.7867">
				<stop  offset="0" style="stop-color:#FFDB44"/>
				<stop  offset="1" style="stop-color:#FEEF06"/>
			</linearGradient>
			<path class="st67" d="M177.9,409.3c-26.8,0-54.9-2.6-54.9-7.5c0-0.3,0.1-0.7,0.4-0.7s0.2,0.4,0.2,0.6c0,3.1,22.3,6.6,54.3,6.6
				s54.3-3.5,54.3-6.6c0-0.3,0-0.5,0.3-0.5s0.2,0.4,0.2,0.6C232.8,406.8,204.7,409.3,177.9,409.3z"/>
			<g>
				<path class="st27" d="M172.7,402.1c0.5-0.4,1.1-0.7,1.7-1.1c0.6-0.4,1.4-0.7,2.4-1c1-0.3,2.2-0.5,3.6-0.7
					c1.4-0.2,3.3-0.3,5.4-0.3c2.1,0,4.1,0.1,6,0.2c1.9,0.1,3.5,0.4,4.9,0.6c1.4,0.3,2.6,0.6,3.4,1.1c0.9,0.4,1.4,0.9,1.6,1.5
					l6.2,0.1c0.4,0,0.8,0,1.2,0.1c0.3,0.1,0.5,0.2,0.5,0.3l0,0.5l-7.9-0.1c-0.3,0.6-1,1.2-2.1,1.7c-1.1,0.5-2.6,1-4.4,1.3l-2.9-0.4
					c-0.3,0-0.5-0.1-0.6-0.2c-0.2-0.1-0.2-0.1-0.2-0.2c0-0.1,0.2-0.2,0.7-0.3c0.4-0.1,1-0.3,1.5-0.5c0.6-0.2,1.1-0.4,1.7-0.7
					c0.5-0.3,0.9-0.6,1.1-0.9l-18.7-0.2c-0.5,0.4-1,0.7-1.7,1.1c-0.6,0.3-1.4,0.7-2.4,0.9c-1,0.3-2.3,0.5-3.8,0.7
					c-1.5,0.2-3.4,0.3-5.7,0.3c-1.7,0-3.4-0.1-5-0.2c-1.6-0.1-3.1-0.3-4.4-0.6c-1.3-0.3-2.3-0.6-3.1-1c-0.8-0.4-1.3-0.9-1.4-1.4
					l-5.1-0.1c-0.4,0-0.8,0-1.2-0.1c-0.4-0.1-0.5-0.2-0.5-0.3l0-0.5l6.9,0.1c0.3-0.5,0.9-1,1.9-1.4c1-0.4,2.1-0.8,3.5-1.1l2.3,0.3
					c0.7,0.1,1.1,0.2,1.1,0.3c0,0.1-0.1,0.2-0.4,0.3c-0.3,0.1-0.6,0.2-1,0.4c-0.4,0.1-0.8,0.3-1.2,0.5c-0.4,0.2-0.7,0.4-0.8,0.7
					L172.7,402.1z M155.6,402.8c0.1,0.3,0.5,0.6,0.9,0.9c0.5,0.2,1.1,0.4,1.8,0.6c0.7,0.2,1.5,0.3,2.4,0.3c0.9,0.1,1.8,0.1,2.8,0.1
					c1.1,0,2.1-0.1,2.9-0.1c0.8-0.1,1.6-0.2,2.2-0.4c0.6-0.2,1.2-0.3,1.7-0.5c0.5-0.2,0.9-0.4,1.3-0.7L155.6,402.8z M196.4,402.4
					c-0.1-0.3-0.5-0.6-1-0.9c-0.5-0.3-1.2-0.5-2-0.6c-0.8-0.2-1.8-0.3-2.9-0.4c-1.1-0.1-2.3-0.1-3.6-0.1c-1.2,0-2.2,0.1-3,0.2
					c-0.8,0.1-1.6,0.2-2.2,0.4c-0.6,0.2-1.2,0.4-1.6,0.6c-0.4,0.2-0.8,0.5-1.2,0.7L196.4,402.4z"/>
			</g>
			
				<linearGradient id="SVGID_65_" gradientUnits="userSpaceOnUse" x1="-2081.7576" y1="565.8446" x2="-2079.7224" y2="582.8813" gradientTransform="matrix(-1 0 0 -1 -1902.751 975.8388)">
				<stop  offset="3.597120e-03" style="stop-color:#F36F56"/>
				<stop  offset="0.3059" style="stop-color:#F99C4C"/>
				<stop  offset="0.545" style="stop-color:#FDB946"/>
				<stop  offset="0.6817" style="stop-color:#FFC444"/>
				<stop  offset="0.8038" style="stop-color:#FFC244"/>
				<stop  offset="0.8667" style="stop-color:#FEBA46"/>
				<stop  offset="0.916" style="stop-color:#FCAD49"/>
				<stop  offset="0.958" style="stop-color:#F99A4D"/>
				<stop  offset="0.9955" style="stop-color:#F58152"/>
				<stop  offset="1" style="stop-color:#F57E53"/>
			</linearGradient>
			<path class="st68" d="M177.9,395.4c-24.4,0-49.9,2.2-54,6.3c0.2,0.1,0.3,0.3,0.4,0.5c3.4-2.9,24.4-5.8,53.5-5.8
				c29.8,0,51.2,3.1,53.8,6c0.1-0.2,0.3-0.3,0.4-0.5C228.7,397.6,202.8,395.4,177.9,395.4z"/>
		</g>
		<g>
			<linearGradient id="SVGID_66_" gradientUnits="userSpaceOnUse" x1="126.8757" y1="398.6461" x2="253.0177" y2="398.6461">
				<stop  offset="0" style="stop-color:#FCB148"/>
				<stop  offset="5.207239e-02" style="stop-color:#FDBA46"/>
				<stop  offset="0.1424" style="stop-color:#FFC244"/>
				<stop  offset="0.3183" style="stop-color:#FFC444"/>
				<stop  offset="0.4849" style="stop-color:#FDB946"/>
				<stop  offset="0.7754" style="stop-color:#F99C4D"/>
				<stop  offset="0.8658" style="stop-color:#F8924F"/>
				<stop  offset="1" style="stop-color:#F8924F"/>
			</linearGradient>
			<path class="st69" d="M136.2,389v12.2c0,3.9,24.5,7.1,54.8,7.1c30.3,0,54.8-3.2,54.8-7.1V389H136.2z"/>
			<linearGradient id="SVGID_67_" gradientUnits="userSpaceOnUse" x1="190.5264" y1="384.4368" x2="197.1765" y2="440.1077">
				<stop  offset="0" style="stop-color:#FFDB44"/>
				<stop  offset="1" style="stop-color:#FEEF06"/>
			</linearGradient>
			<ellipse class="st70" cx="191.1" cy="389" rx="54.8" ry="7.1"/>
			<linearGradient id="SVGID_68_" gradientUnits="userSpaceOnUse" x1="190.2373" y1="381.9541" x2="192.2796" y2="399.0515">
				<stop  offset="0" style="stop-color:#FFDB44"/>
				<stop  offset="1" style="stop-color:#FEEF06"/>
			</linearGradient>
			<path class="st71" d="M191.1,396.6c-26.8,0-54.9-2.6-54.9-7.5c0-0.3,0.1-0.7,0.4-0.7s0.2,0.4,0.2,0.6c0,3.1,22.3,6.6,54.3,6.6
				c32,0,54.3-3.5,54.3-6.6c0-0.3,0-0.5,0.3-0.5s0.2,0.4,0.2,0.6C245.9,394.1,217.9,396.6,191.1,396.6z"/>
			<g>
				<path class="st27" d="M185.9,389.4c0.5-0.4,1.1-0.7,1.7-1.1c0.6-0.4,1.4-0.7,2.4-1c1-0.3,2.2-0.5,3.6-0.7
					c1.4-0.2,3.3-0.3,5.4-0.3c2.1,0,4.1,0.1,6,0.2c1.9,0.1,3.5,0.4,4.9,0.6c1.4,0.3,2.6,0.6,3.4,1.1c0.9,0.4,1.4,0.9,1.6,1.5
					l6.2,0.1c0.4,0,0.8,0,1.2,0.1c0.3,0.1,0.5,0.2,0.5,0.3l0,0.5l-7.9-0.1c-0.3,0.6-1,1.2-2.1,1.7c-1.1,0.5-2.6,1-4.4,1.3l-2.9-0.4
					c-0.3,0-0.5-0.1-0.6-0.2c-0.2-0.1-0.2-0.1-0.2-0.2c0-0.1,0.2-0.2,0.7-0.3c0.4-0.1,1-0.3,1.5-0.5c0.6-0.2,1.1-0.4,1.7-0.7
					c0.5-0.3,0.9-0.6,1.1-0.9l-18.7-0.2c-0.5,0.4-1,0.7-1.7,1.1c-0.6,0.3-1.4,0.7-2.4,0.9c-1,0.3-2.3,0.5-3.8,0.7
					c-1.5,0.2-3.4,0.3-5.7,0.3c-1.7,0-3.4-0.1-5-0.2c-1.6-0.1-3.1-0.3-4.4-0.6c-1.3-0.3-2.3-0.6-3.1-1c-0.8-0.4-1.3-0.9-1.4-1.4
					l-5.1-0.1c-0.4,0-0.8,0-1.2-0.1c-0.4-0.1-0.5-0.2-0.5-0.3l0-0.5l6.9,0.1c0.3-0.5,0.9-1,1.9-1.4c1-0.4,2.1-0.8,3.5-1.1l2.3,0.3
					c0.7,0.1,1.1,0.2,1.1,0.3c0,0.1-0.1,0.2-0.4,0.3c-0.3,0.1-0.6,0.2-1,0.4c-0.4,0.1-0.8,0.3-1.2,0.5c-0.4,0.2-0.7,0.4-0.8,0.7
					L185.9,389.4z M168.7,390.1c0.1,0.3,0.5,0.6,0.9,0.9c0.5,0.2,1.1,0.4,1.8,0.6c0.7,0.2,1.5,0.3,2.4,0.3c0.9,0.1,1.8,0.1,2.8,0.1
					c1.1,0,2.1-0.1,2.9-0.1c0.8-0.1,1.6-0.2,2.2-0.4c0.6-0.2,1.2-0.3,1.7-0.5c0.5-0.2,0.9-0.4,1.3-0.7L168.7,390.1z M209.5,389.6
					c-0.1-0.3-0.5-0.6-1-0.9c-0.5-0.3-1.2-0.5-2-0.6c-0.8-0.2-1.8-0.3-2.9-0.4c-1.1-0.1-2.3-0.1-3.6-0.1c-1.2,0-2.2,0.1-3,0.2
					c-0.8,0.1-1.6,0.2-2.2,0.4c-0.6,0.2-1.2,0.4-1.6,0.6c-0.4,0.2-0.8,0.5-1.2,0.7L209.5,389.6z"/>
			</g>
			
				<linearGradient id="SVGID_69_" gradientUnits="userSpaceOnUse" x1="-2094.9082" y1="578.5798" x2="-2092.873" y2="595.6166" gradientTransform="matrix(-1 0 0 -1 -1902.751 975.8388)">
				<stop  offset="3.597120e-03" style="stop-color:#F36F56"/>
				<stop  offset="0.3059" style="stop-color:#F99C4C"/>
				<stop  offset="0.545" style="stop-color:#FDB946"/>
				<stop  offset="0.6817" style="stop-color:#FFC444"/>
				<stop  offset="0.8038" style="stop-color:#FFC244"/>
				<stop  offset="0.8667" style="stop-color:#FEBA46"/>
				<stop  offset="0.916" style="stop-color:#FCAD49"/>
				<stop  offset="0.958" style="stop-color:#F99A4D"/>
				<stop  offset="0.9955" style="stop-color:#F58152"/>
				<stop  offset="1" style="stop-color:#F57E53"/>
			</linearGradient>
			<path class="st72" d="M191.1,382.7c-24.4,0-49.9,2.2-54,6.3c0.2,0.1,0.3,0.3,0.4,0.5c3.4-2.9,24.4-5.8,53.5-5.8
				c29.8,0,51.2,3.1,53.8,6c0.1-0.2,0.3-0.3,0.4-0.5C241.9,384.9,216,382.7,191.1,382.7z"/>
		</g>
		<g>
			<linearGradient id="SVGID_70_" gradientUnits="userSpaceOnUse" x1="134.8559" y1="385.8735" x2="260.9979" y2="385.8735">
				<stop  offset="0" style="stop-color:#FCB148"/>
				<stop  offset="5.207239e-02" style="stop-color:#FDBA46"/>
				<stop  offset="0.1424" style="stop-color:#FFC244"/>
				<stop  offset="0.3183" style="stop-color:#FFC444"/>
				<stop  offset="0.4849" style="stop-color:#FDB946"/>
				<stop  offset="0.7754" style="stop-color:#F99C4D"/>
				<stop  offset="0.8658" style="stop-color:#F8924F"/>
				<stop  offset="1" style="stop-color:#F8924F"/>
			</linearGradient>
			<path class="st73" d="M144.2,376.2v12.2c0,3.9,24.5,7.1,54.8,7.1c30.3,0,54.8-3.2,54.8-7.1v-12.2H144.2z"/>
			<linearGradient id="SVGID_71_" gradientUnits="userSpaceOnUse" x1="198.5066" y1="371.6641" x2="205.1567" y2="427.3351">
				<stop  offset="0" style="stop-color:#FFDB44"/>
				<stop  offset="1" style="stop-color:#FEEF06"/>
			</linearGradient>
			<ellipse class="st74" cx="199.1" cy="376.2" rx="54.8" ry="7.1"/>
			<linearGradient id="SVGID_72_" gradientUnits="userSpaceOnUse" x1="198.2174" y1="369.1813" x2="200.2598" y2="386.2788">
				<stop  offset="0" style="stop-color:#FFDB44"/>
				<stop  offset="1" style="stop-color:#FEEF06"/>
			</linearGradient>
			<path class="st75" d="M199.1,383.8c-26.8,0-54.9-2.6-54.9-7.5c0-0.3,0.1-0.7,0.4-0.7c0.3,0,0.2,0.4,0.2,0.6
				c0,3.1,22.3,6.6,54.3,6.6c32,0,54.3-3.5,54.3-6.6c0-0.3,0-0.5,0.3-0.5c0.3,0,0.2,0.4,0.2,0.6
				C253.9,381.3,225.9,383.8,199.1,383.8z"/>
			<g>
				<path class="st27" d="M193.9,376.6c0.5-0.4,1.1-0.7,1.7-1.1c0.6-0.4,1.4-0.7,2.4-1c1-0.3,2.2-0.5,3.6-0.7
					c1.4-0.2,3.3-0.3,5.4-0.3c2.1,0,4.1,0.1,6,0.2c1.9,0.1,3.5,0.4,4.9,0.6c1.4,0.3,2.6,0.6,3.4,1.1c0.9,0.4,1.4,0.9,1.6,1.5
					l6.2,0.1c0.4,0,0.8,0,1.2,0.1c0.3,0.1,0.5,0.2,0.5,0.3l0,0.5l-7.9-0.1c-0.3,0.6-1,1.2-2.1,1.7c-1.1,0.5-2.6,1-4.4,1.3l-2.9-0.4
					c-0.3,0-0.5-0.1-0.6-0.2c-0.2-0.1-0.2-0.1-0.2-0.2c0-0.1,0.2-0.2,0.7-0.3c0.4-0.1,1-0.3,1.5-0.5c0.6-0.2,1.1-0.4,1.7-0.7
					c0.5-0.3,0.9-0.6,1.1-0.9l-18.7-0.2c-0.5,0.4-1,0.7-1.7,1.1c-0.6,0.3-1.4,0.7-2.4,0.9c-1,0.3-2.3,0.5-3.8,0.7
					c-1.5,0.2-3.4,0.3-5.7,0.3c-1.7,0-3.4-0.1-5-0.2c-1.6-0.1-3.1-0.3-4.4-0.6c-1.3-0.3-2.3-0.6-3.1-1c-0.8-0.4-1.3-0.9-1.4-1.4
					l-5.1-0.1c-0.4,0-0.8,0-1.2-0.1c-0.4-0.1-0.5-0.2-0.5-0.3l0-0.5l6.9,0.1c0.3-0.5,0.9-1,1.9-1.4c1-0.4,2.1-0.8,3.5-1.1l2.3,0.3
					c0.7,0.1,1.1,0.2,1.1,0.3c0,0.1-0.1,0.2-0.4,0.3c-0.3,0.1-0.6,0.2-1,0.4c-0.4,0.1-0.8,0.3-1.2,0.5c-0.4,0.2-0.7,0.4-0.8,0.7
					L193.9,376.6z M176.7,377.3c0.1,0.3,0.5,0.6,0.9,0.9c0.5,0.2,1.1,0.4,1.8,0.6c0.7,0.2,1.5,0.3,2.4,0.3c0.9,0.1,1.8,0.1,2.8,0.1
					c1.1,0,2.1-0.1,2.9-0.1c0.8-0.1,1.6-0.2,2.2-0.4c0.6-0.2,1.2-0.3,1.7-0.5c0.5-0.2,0.9-0.4,1.3-0.7L176.7,377.3z M217.5,376.9
					c-0.1-0.3-0.5-0.6-1-0.9c-0.5-0.3-1.2-0.5-2-0.6c-0.8-0.2-1.8-0.3-2.9-0.4c-1.1-0.1-2.3-0.1-3.6-0.1c-1.2,0-2.2,0.1-3,0.2
					c-0.8,0.1-1.6,0.2-2.2,0.4c-0.6,0.2-1.2,0.4-1.6,0.6c-0.4,0.2-0.8,0.5-1.2,0.7L217.5,376.9z"/>
			</g>
			
				<linearGradient id="SVGID_73_" gradientUnits="userSpaceOnUse" x1="-2102.8884" y1="591.3525" x2="-2100.8533" y2="608.3892" gradientTransform="matrix(-1 0 0 -1 -1902.751 975.8388)">
				<stop  offset="3.597120e-03" style="stop-color:#F36F56"/>
				<stop  offset="0.3059" style="stop-color:#F99C4C"/>
				<stop  offset="0.545" style="stop-color:#FDB946"/>
				<stop  offset="0.6817" style="stop-color:#FFC444"/>
				<stop  offset="0.8038" style="stop-color:#FFC244"/>
				<stop  offset="0.8667" style="stop-color:#FEBA46"/>
				<stop  offset="0.916" style="stop-color:#FCAD49"/>
				<stop  offset="0.958" style="stop-color:#F99A4D"/>
				<stop  offset="0.9955" style="stop-color:#F58152"/>
				<stop  offset="1" style="stop-color:#F57E53"/>
			</linearGradient>
			<path class="st76" d="M199.1,369.9c-24.4,0-49.9,2.2-54,6.3c0.2,0.1,0.3,0.3,0.4,0.5c3.4-2.9,24.4-5.8,53.5-5.8
				c29.8,0,51.2,3.1,53.8,6c0.1-0.2,0.3-0.3,0.4-0.5C249.9,372.1,223.9,369.9,199.1,369.9z"/>
		</g>
	</g>
	<g>
		
			<linearGradient id="SVGID_74_" gradientUnits="userSpaceOnUse" x1="-397.4231" y1="255.1985" x2="-403.8019" y2="243.9128" gradientTransform="matrix(-1 0 0 1 -43.1334 0)">
			<stop  offset="0" style="stop-color:#311944"/>
			<stop  offset="1" style="stop-color:#A03976"/>
		</linearGradient>
		<path class="st77" d="M356.8,242.9c0,0,0.7-2.7,1.8-3.4c1.1-0.7,2.8-1.5,3.1-1.8c0.4-0.3,0.8,0.6-0.3,1.3
			c-1.1,0.7-1.1,0.7-1.1,0.7c0,0.2,0,0.4,0,0.5c0.2,0.5,0.7,0.9,1.5,0.9c2.7,0.6,3.8,0.6,4.2,0.5c0.1,0,0.3-0.1,0.4,0
			c0.2,0.2-0.1,0.7-0.3,0.9c-0.7,1.1-3.3,1.6-5.2,0.7c-0.7-0.3-1-0.7-1.5-0.6c-0.8,0.1-1.3,1.2-1.6,2.1L356.8,242.9z"/>
		
			<linearGradient id="SVGID_75_" gradientUnits="userSpaceOnUse" x1="-361.2922" y1="249.7058" x2="-314.1978" y2="320.809" gradientTransform="matrix(-1 0 0 1 -43.1334 0)">
			<stop  offset="0" style="stop-color:#FE7062"/>
			<stop  offset="1" style="stop-color:#FF928E"/>
		</linearGradient>
		<path class="st78" d="M359.6,243.8c-1-0.7-2-1.5-3.1-2.2c-5.7,6-10.9,7.9-14.5,8.5c-11.6,1.9-18.7-7.2-37.1-11.5
			c-7.3-1.7-13.5-2-17.6-2c0.4,5.5,4,10.6,12.7,16.6c10.2,7,40.9,8.6,47.9,6C355.9,256.2,358,247.6,359.6,243.8z"/>
		
			<linearGradient id="SVGID_76_" gradientUnits="userSpaceOnUse" x1="-379.2552" y1="306.6628" x2="-334.0161" y2="306.6628" gradientTransform="matrix(-1 0 0 1 -43.1334 0)">
			<stop  offset="0" style="stop-color:#AA80F9"/>
			<stop  offset="0.9964" style="stop-color:#6165D7"/>
		</linearGradient>
		<path class="st79" d="M299.2,281.3c15.1,3.7,25.1,9.6,30.9,13.7c3.2,2.3,4.6,3.7,5.4,5.7c4.5,11.7-18.5,29.4-21,31.3
			c-1.1-2.5-2.1-5-3.2-7.5c2.4-13.1,6.3-17.2,9.7-18.4c0.9-0.3,2.5-0.7,2.5-1.1c-0.1-1-8.8,0.4-17.2-2.6c-8.3-3-16.7-10.8-15.2-15.9
			C291.3,285.6,292.5,282.9,299.2,281.3z"/>
		
			<linearGradient id="SVGID_77_" gradientUnits="userSpaceOnUse" x1="-379.2552" y1="306.6628" x2="-334.0161" y2="306.6628" gradientTransform="matrix(-1 0 0 1 -43.1334 0)">
			<stop  offset="0" style="stop-color:#444B8C"/>
			<stop  offset="0.9964" style="stop-color:#3E4177"/>
		</linearGradient>
		<path class="st80" d="M299.2,281.3c15.1,3.7,25.1,9.6,30.9,13.7c3.2,2.3,4.6,3.7,5.4,5.7c4.5,11.7-18.5,29.4-21,31.3
			c-1.1-2.5-2.1-5-3.2-7.5c2.4-13.1,6.3-17.2,9.7-18.4c0.9-0.3,2.5-0.7,2.5-1.1c-0.1-1-8.8,0.4-17.2-2.6c-8.3-3-16.7-10.8-15.2-15.9
			C291.3,285.6,292.5,282.9,299.2,281.3z"/>
		
			<linearGradient id="SVGID_78_" gradientUnits="userSpaceOnUse" x1="-46.5711" y1="324.0693" x2="-44.6156" y2="359.2672" gradientTransform="matrix(0.9565 0.2918 -0.2918 0.9565 457.6283 60.3433)">
			<stop  offset="0" style="stop-color:#444B8C"/>
			<stop  offset="0.9964" style="stop-color:#26264F"/>
		</linearGradient>
		<path class="st81" d="M313.9,366.9c0,0-1.4,0.5-1.4,1.6c0,1.1,1.4,6,3,7.8c1.6,1.7,1.7-0.9,1.6-2.5c-0.1-1.7-0.5-5.4-0.9-6.2
			C315.8,366.9,313.9,366.9,313.9,366.9z"/>
		
			<linearGradient id="SVGID_79_" gradientUnits="userSpaceOnUse" x1="-379.2551" y1="308.3648" x2="-334.0161" y2="308.3648" gradientTransform="matrix(-1 0 0 1 -43.1334 0)">
			<stop  offset="0" style="stop-color:#444B8C"/>
			<stop  offset="0.9964" style="stop-color:#3E4177"/>
		</linearGradient>
		<path class="st82" d="M318.4,298.4c2.7-0.1,9.2-0.6,10.9,2.6c1.4,2.7-1.1,6.7-2.6,9.2c-4.2,6.7-8.3,7.4-11.1,11.6
			c-1.1,1.6-2.1,3.8-2.4,7c-0.6-1.4-1.2-2.8-1.8-4.3c2.4-13.1,6.3-17.2,9.7-18.4c0.9-0.3,2.5-0.7,2.5-1.1c-0.1-1-8.8,0.4-17.2-2.6
			c-7.6-2.8-15.2-9.4-15.4-14.5C302.9,296.6,312,298.5,318.4,298.4z"/>
		<linearGradient id="SVGID_80_" gradientUnits="userSpaceOnUse" x1="309.3651" y1="379.7212" x2="311.6745" y2="374.2142">
			<stop  offset="0" style="stop-color:#311944"/>
			<stop  offset="1" style="stop-color:#A03976"/>
		</linearGradient>
		<path class="st83" d="M313.1,362.2c0.1,1.7,0.2,3.2,0.4,4.2c0.3,2.4,0.6,3.3,0.9,4.1c0.3,0.7,1.1,2.4,1.5,2.2
			c0.4-0.1,0-1.9-0.3-6.9c0-0.7-0.2-3-0.2-3l0,0L313.1,362.2z"/>
		
			<linearGradient id="SVGID_81_" gradientUnits="userSpaceOnUse" x1="-354.2687" y1="305.4216" x2="-313.7062" y2="354.7071" gradientTransform="matrix(-1 0 0 1 -43.1334 0)">
			<stop  offset="0" style="stop-color:#444B8C"/>
			<stop  offset="0.9964" style="stop-color:#3E4177"/>
		</linearGradient>
		<path class="st84" d="M290.5,282.3c8.7,5.3,14.4,11.2,17.7,15.3c3.9,4.8,9.8,12,11.9,22.8c1.1,5.8,0.6,10.9-0.6,21
			c-1.2,10-2.8,18.2-4.1,23.8c-0.7,0.3-1.3,0.5-2,0.8c-1.8-3.3-4.1-8.5-5-15.2c-1.4-10.9,2.7-14.4,0.7-22.1
			c-1.7-6.7-6.6-10.8-16.5-19.1c-8.1-6.8-15.6-10.8-18.3-19.2c-0.5-1.4-0.9-3.2-0.1-4.8C275.9,282.1,282.2,280.9,290.5,282.3z"/>
		
			<linearGradient id="SVGID_82_" gradientUnits="userSpaceOnUse" x1="-254.5878" y1="212.1827" x2="-308.2348" y2="257.1067" gradientTransform="matrix(-1 0 0 1 -43.1334 0)">
			<stop  offset="0" style="stop-color:#444B8C"/>
			<stop  offset="0.9964" style="stop-color:#26264F"/>
		</linearGradient>
		<path class="st85" d="M274,240.2c2.2-0.6,6-0.7,9.4-3.7c1-0.9,4.8-9.5,4.1-13.7c-0.6-3.7-1.1-11.3-10.9-11.7
			c-8.4-0.3-9,4-11.5,4.8c-6.1,2-5.8,7.4-12.1,8c-8,0.8-8.3,6.7-15,7.2c-7.5,0.5-9.3-6.7-16.8-7.6c-10.4-1.2-25.5,10.7-24.5,23.5
			c0.6,7.4,6.5,15.6,13.7,17.8c4.2,1.3,8.6,0.6,10,3.2c1,1.9-1,3.4-0.6,6.7c0.5,4.3,4.3,7.1,4.9,7.5c5.7,4.2,18,1.3,26.1-5.5
			C265.2,264.5,261.8,243.5,274,240.2z"/>
		
			<linearGradient id="SVGID_83_" gradientUnits="userSpaceOnUse" x1="-340.4661" y1="241.9686" x2="-284.8562" y2="325.9286" gradientTransform="matrix(-1 0 0 1 -43.1334 0)">
			<stop  offset="0" style="stop-color:#FE7062"/>
			<stop  offset="1" style="stop-color:#FF928E"/>
		</linearGradient>
		<path class="st86" d="M266.1,237.8c5.1-0.6,11-1.1,17.6-1.2c13.9-0.2,15.9,1.6,16.4,2.9c0.9,2.4-2.7,4.6-1.8,8.8
			c0.6,2.5,2.1,2.7,3.1,5.5c1,2.7,0.2,4.1-0.7,10.3c-1.2,7.9-1.7,12,0.5,15.2c1.5,2.2,3.3,2.4,3.1,3.5c-0.4,2.3-8.1,1-18,5.3
			c-2.9,1.3-5.5,2.8-7.7,4.1c-5.2,3-6.1,4.2-8.5,5.6c-7.6,4.3-18.9,4.8-24.9-0.5c-2.2-2-3.8-4.8-3.1-5.9c1-1.4,5.4,1.8,9.5-0.2
			c2.7-1.3,2.2-3.4,5.3-6c3.7-3,6.4-1.4,8.9-3.4c4-3.1,2.2-10.4,1.1-22.7C266.4,254,266,246.7,266.1,237.8z"/>
		
			<linearGradient id="SVGID_84_" gradientUnits="userSpaceOnUse" x1="-318.0208" y1="227.1022" x2="-262.4113" y2="311.0618" gradientTransform="matrix(-1 0 0 1 -43.1334 0)">
			<stop  offset="0" style="stop-color:#FE7062"/>
			<stop  offset="1" style="stop-color:#FF928E"/>
		</linearGradient>
		<path class="st87" d="M270.8,258.1c-1.5-0.1-10.1-0.7-16.8,5.6c-6.2,5.7-8.4,14.9-5.7,23.5c-1.4,0.7-2.8,1.4-4.3,2.1
			c-6-6.7-7.3-13-7.7-15.9c-2.1-16.5,11.8-33.3,27.2-36.1c4.8-0.9,9-0.3,11.6,0.3C273.6,244.5,272.2,251.3,270.8,258.1z"/>
		
			<linearGradient id="SVGID_85_" gradientUnits="userSpaceOnUse" x1="-320.7633" y1="252.2634" x2="-328.4506" y2="224.4585" gradientTransform="matrix(-1 0 0 1 -43.1334 0)">
			<stop  offset="0" style="stop-color:#FF928E"/>
			<stop  offset="1" style="stop-color:#FEB3B1"/>
		</linearGradient>
		<path class="st88" d="M280.6,229.5c0,0-0.6,5.1-2.5,6.2c-1.9,1.2-4.9,1.1-5.2,1.5c-0.3,0.4,9.6,4.1,15.4,1.2l2.5-1.7
			c-1.9,0-4.4-0.1-5.4-0.7c-0.7-0.4-1.8-1.1-2.7-2.5l0-2.8L280.6,229.5z"/>
		
			<linearGradient id="SVGID_86_" gradientUnits="userSpaceOnUse" x1="-233.1885" y1="150.1056" x2="-323.9384" y2="225.6289" gradientTransform="matrix(-1 0 0 1 -43.1334 0)">
			<stop  offset="0" style="stop-color:#FF928E"/>
			<stop  offset="1" style="stop-color:#FEB3B1"/>
		</linearGradient>
		<path class="st89" d="M273.1,231.1c0,0,4.5,6.2,11.6,3.6c6.4-2.3,2.6-18.7-2.5-20.6c-1.7-0.6-4.8-0.3-6.8,0.9
			c-1.5,0.9-5.3,5.7-3.1,11.1c-1.6-0.5-3,0-3.4,0.8c-0.4,1,0.9,2.4,1.2,2.7C271.2,230.7,272.5,231,273.1,231.1z"/>
		
			<linearGradient id="SVGID_87_" gradientUnits="userSpaceOnUse" x1="-281.5017" y1="276.9183" x2="-294.2592" y2="292.7834" gradientTransform="matrix(-1 0 0 1 -43.1334 0)">
			<stop  offset="0" style="stop-color:#311944"/>
			<stop  offset="1" style="stop-color:#A03976"/>
		</linearGradient>
		<path class="st90" d="M247,287.8l0.6,1.4c0,0,6.9,0.9,5.8,3.8c-1.1,2.9-1.9,1.2-2.3,0.4c-0.4-0.8-2.8-2-3.8-2.1
			c-0.9-0.1-2.5-2.5-2.5-2.5L247,287.8z"/>
	</g>
</g>
</svg>
