<?xml version="1.0" encoding="utf-8"?>
<!-- Generator: Adobe Illustrator 25.3.1, SVG Export Plug-In . SVG Version: 6.00 Build 0)  -->
<svg version="1.1" id="service" xmlns="http://www.w3.org/2000/svg" xmlns:xlink="http://www.w3.org/1999/xlink" x="0px" y="0px"
	 viewBox="0 0 626 443" style="enable-background:new 0 0 626 443;" xml:space="preserve">
<style type="text/css">
	.st0{opacity:0.3;fill:#DCE4EF;}
	.st1{fill:#DCE4EF;}
	.st2{fill:#FFFFFF;}
	.st3{fill:#5179F7;}
	.st4{fill:#222B54;}
	.st5{fill:#FFC19A;}
	.st6{fill:#FC7669;}
	.st7{fill:#3444C1;}
	.st8{fill:url(#SVGID_1_);}
	.st9{fill:none;}
	.st10{fill:#F8AE23;}
	.st11{fill:#5866D2;}
	.st12{fill:#FC857C;}
	.st13{fill:#111431;}
	.st14{fill:#78BCFF;}
	.st15{fill:#E69581;}
	.st16{fill:#F7BD5C;}
	.st17{fill:url(#SVGID_2_);}
	.st18{fill:#F0AA82;}
	.st19{fill:#F7B58E;}
	.st20{fill:url(#SVGID_3_);}
	.st21{fill:#BFD0F6;}
	.st22{fill:#242A67;}
	.st23{opacity:0.5;fill:#DCE4EF;}
</style>
<g>
	<g>
		<ellipse class="st0" cx="332.3" cy="397.6" rx="263.8" ry="29.1"/>
		<path class="st1" d="M377,72.1c0,0-22.7-2.8-35.2,15.9S327,86.1,327,86.1s27.9-24.4,52-14.7C379.7,73.4,377,72.1,377,72.1z"/>
		<g>
			<path class="st2" d="M326.8,66.9c-3,1-7.5,1.5-12.1-2.2c-1.7-1.4-3-2.7-4.1-3.9c-2.5-2.6-4-4.2-7.4-3.8l-2.8,0.3l2-2
				c0.1-0.1,0.2-0.3,0.4-0.5c1.1-1.4,3.6-4.5,8.3-6.2c3-1,6.3-1.3,10-0.7c5.8,0.9,8.8,3.6,10.3,5.7c1.7,2.4,2.4,5.3,1.9,8l-0.3,1.6
				l-1.3-0.9c-0.7-0.5-2.1-1.3-3.5-2.1c0.1,0.2,0.2,0.3,0.3,0.5c1.1,1.6,1.8,3.2,2,3.5l0.3,0.8l-0.8,0.4c-0.1,0-0.1,0.1-0.2,0.1
				C329.1,65.9,328.1,66.5,326.8,66.9z"/>
			<path class="st3" d="M329.4,64.6c-1.2,0.7-7.5,4.7-14.1-0.6c-5.4-4.3-6.7-8.6-12.3-8c1-1,5.7-8.9,17.8-7.1
				c8.9,1.4,12.3,7.6,11.3,12.6c-1.7-1.2-6.7-4-8.8-4.7C326.6,58.8,329.2,64.1,329.4,64.6z"/>
			<path class="st2" d="M349.3,57.6c-3.6,1.2-7.4,1-10.7-0.6l-0.9-0.5l0.5-0.9c0.7-1.4,2.5-4.7,4.7-7.7c-1.8,1.5-3.9,3.5-6.6,6.6
				l-1.3,1.4l-0.5-1.9c0-0.1,0-0.2-0.1-0.2c-0.3-1.4-1.4-5.5-1-10.1c0.2-2.7,0.8-5.1,1.8-7.2c1.2-2.6,3.1-4.8,5.5-6.5
				c2.6-1.9,5-3.2,7.2-4.3c4.7-2.5,7.8-4.2,8.6-9.4l0.4-2.8l1.4,2.5c0.1,0.2,0.3,0.4,0.5,0.8c2.3,3.2,9.4,13,2.6,28.3
				c-1.5,3.4-3.4,6.2-5.5,8.4C353.9,55.3,351.7,56.8,349.3,57.6z"/>
			<path class="st3" d="M335.4,53.9c-0.5-2-4.3-15.8,5.8-23.1c8.3-6,14.9-6.1,16.2-14.4c1.1,1.9,10.5,11.6,3.1,28.2
				c-5.4,12.2-14.8,14.9-21.5,11.6c1.9-3.7,5.6-9.9,8.7-12.3C344.1,45.3,340.9,47.7,335.4,53.9z"/>
			<path class="st4" d="M348.1,43.6c-15.8,7.2-16,30.7-15,43.7l4.3-0.9C333.8,72.7,334.6,51.6,348.1,43.6z"/>
			<path class="st4" d="M322.8,56.5c6.8,3.2,11.5,6.8,12.2,15l-0.6,0.5C333.4,65.5,329,59.9,322.8,56.5z"/>
		</g>
		<g>
			<path class="st5" d="M224,235.5c0.1-0.6,0.1-1.2,0.1-1.8c0-0.4,0-0.9-0.1-1.3c-0.1-0.8-0.1-1.4,0-1.7c0.3-1.7,0.5-5.3,1.3-5.1
				c1.3,0.2,0.9,2.6,0.9,2.6s0.5-1.7,1.1-2.5c0.9-1.2,1.9-0.1,1.7,0.6c1.2-0.6,1.5,0.5,1.4,1c1.3-0.6,1.5,0.6,1.4,1.1
				c0.5-0.4,1.2,0.2,1.1,0.7c0,0.3-0.8,4.3-2.7,6.1c-0.4,0.6-1,1.4-1.5,2c-0.2,0.2-0.5,0.9-0.8,1.5l-4-1.6
				C224,236.5,223.9,236.3,224,235.5z"/>
			<path class="st6" d="M210.1,260.4c2.4,0,2.7-0.1,6.4-4.5c7.9-9.5,12.6-18.1,11.9-18.1c-0.1,0-4.1-2-4.3-2.4
				c-0.1-0.1-8.9,5.1-15.6,15.8c-9.5-6-17.7-10.9-23.2-12c-6.7-1.4-8.6,4.6-8.6,4.6l9.8,11C186.5,254.7,203.6,260.3,210.1,260.4z
				 M194.9,268.2c0,0.2-0.1,0.4-0.1,0.7C194.7,268.8,194.7,268.5,194.9,268.2z"/>
			<path class="st7" d="M192.5,404.7c-5.1-9.8-8.3-32.8-9-46.9c-3.6-12.4-9.4-27.2-9.9-32.6l0-1c0-0.1,0-0.2,0-0.3c0,0,0,0,0,0.1
				l-0.8-18.3l15.1,1.7c1.6,6.2,4.6,16.4,7,33.2c1.9,13.5,1.2,12.3,1.1,23.5c-0.2,17.7,0.9,40.4,0.9,40.4S194.9,406.1,192.5,404.7z"
				/>
			<polygon class="st5" points="166.9,248 179.2,248 177,221.9 169.1,221.9 			"/>
			<path class="st5" d="M180.3,212.3c0.1,0.4-0.6,4.1,0.4,7.3c1.8,5.8,0.9,7,1.4,14.1c0.1,1.5,0,2.9-3.8,1.9c-3.8-1-5.2-1.4-6.2-1.9
				c-1-0.5-4.8-1-5.2-7.1c-0.5-6.2-1-10.5-1-12.8C165.9,211.4,179.8,210.4,180.3,212.3z"/>
			<polygon class="st2" points="179.2,302.9 167.5,302.9 167.5,238.8 173.1,243.3 179.2,238.8 			"/>
			<linearGradient id="SVGID_1_" gradientUnits="userSpaceOnUse" x1="162.7959" y1="221.0142" x2="186.1123" y2="221.0142">
				<stop  offset="0" style="stop-color:#09005D"/>
				<stop  offset="1" style="stop-color:#1A0F91"/>
			</linearGradient>
			<path class="st8" d="M162.8,214.5c0.2-2.7,0.6-5.8,2.1-5.2c1.4,0.6,6.6-0.2,10.3-1.6c3.6-1.4,6.7-0.5,8.4-1.4
				c3.8-2.1,3.6,6.2-1.3,6.3c-7.8,0.3-12.5-1.1-12.1,2.4c0.1,1.4,0.1,2.1-0.1,2.4l0,0c0,0,1.6,4.2,1.9,6c0.3,1.7,0.3,2.8,3.3,3.3
				c3,0.5,4.6,0.5,5.2,0.6c0.6,0.2,1.4,0.3,1.4,0.3c0,0.8,0.4,5.3,0.3,6.2c-0.2,1.6-0.4,2.4-1.6,2.4c-0.9,0-3.3-0.3-6.2-1.5
				c-2-0.8-3.2-0.9-4.3-1.7c-1.1-0.8-1.2-6.1-1.4-7.7c-0.2-1.5-0.8-3-0.2-3.6c1-1,0-3.7-0.1-3.7c-0.9-0.5-2.4-1.7-1.9,2.2
				c0.6,4.9,0.5,3.9,0.8,4.9c0.3,0.9,0.8,1.9-0.5,1.7c-1.6-0.2-1.9-1.1-1.9-3.8c0-2.7,0.5-3.9,0-4.4
				C164.5,217.9,162.6,217.2,162.8,214.5z"/>
			<path class="st9" d="M172.4,323.2l0-0.2c0,0,0,0,0-0.1C172.4,323.1,172.4,323.2,172.4,323.2z"/>
			<path class="st10" d="M172.5,324.2c0-0.4,0-0.7,0-1L172.5,324.2z"/>
			<path class="st5" d="M195.3,273.9c0.5-0.4,1-0.9,1.5-1.4c0.3-0.4,0.7-0.8,1-1.1c0.5-0.7,1.1-1.3,1.4-1.5c1.7-1.2,4.7-4.1,5.3-3.3
				c0.9,1.2-1.4,2.9-1.4,2.9s1.8-1.1,3-1.3c1.7-0.3,1.7,1.5,1,1.9c1.5,0.5,0.8,1.6,0.4,2.1c1.6,0.5,0.7,1.7,0.3,2.1
				c0.8,0.1,0.9,1.1,0.4,1.5c-0.3,0.2-4.2,3-7.4,2.9c-0.9,0.2-2.1,0.4-2.9,0.5c-0.3,0-1.2,0.3-1.9,0.6l-2.1-4.6
				C194.4,274.7,194.5,274.6,195.3,273.9z"/>
			<path class="st11" d="M174.6,306l-0.7,18.3c-1.1,3.9-6.3,24.8-7.8,44.8c-0.1,0.1-0.2,0.2-0.3,0.3c-0.7,11.4-5.8,37-5.5,38.3
				c-4.8-0.9-5.7-1.2-5.7-1.2c0-0.1-0.1-0.8-0.2-1.8c-1.6-12.4-1.5-25,0.2-37.3c0.6-4,1-7,1-7c-1.6-23.1-3.4-30.2-3.4-41.1
				c0-5,1.8-17.3,1.8-17.3L174.6,306z"/>
			<path class="st12" d="M187.6,241.1c1.2,7.7,7.4,65.6,9.4,71.1c-9.3,0.2-19.8-0.6-20.8-0.1c-0.1-4.3-2.7-71.8-1.2-74
				c2.7-1,10.3,1.5,11.4,2C187.4,240.6,187.6,241,187.6,241.1z"/>
			<path class="st12" d="M170.6,238.6c-0.7-1.5-8.1,0.2-11.2,1.4c-6.5,2.5-3.4,21.5-3.7,24.8c-0.3,3.6-5.7,43-5.7,43
				c4.8,2.1,18.7,4.4,18.7,4.4S174.5,253.7,170.6,238.6z"/>
			<path class="st6" d="M195.9,279.6c-3.8,3-27.9,8.9-29.8,9.7c-1.9,0.8-6-0.2-8.6-5.9c-3.3-7.2-8.8-17.9-7.6-31.2
				c0.6-6.8,1.9-9.2,5-10.8c6-3.3,10.8-0.3,9.8,13.2c-0.4,5.3,2.2,19.2,2.3,24.2c3.5-1.3,26.8-3.6,26.8-3.6L195.9,279.6z"/>
			<path class="st13" d="M209.8,410.9l-19.2-0.9c-0.6,0-1.1-0.5-1.1-1.1c0-1.9,0.7-6,1.7-6.3c0.4-0.1,1.5,2.3,3.4,2.1
				c2.7-0.3,1.4-3.1,2.5-3c1.7,0.1,2.1,3.8,9.4,5.7c4.1,1.1,4.5,1.9,4.5,2.4C211,410.4,210.4,410.9,209.8,410.9z"/>
			<path class="st13" d="M173.3,414.1l-19.7-2.2c-0.6-0.1-1.1-0.6-1-1.2c0.1-1.9,1.1-6.1,2.1-6.3c0.4-0.1,1.4,2.4,3.4,2.4
				c2.8-0.1,1.6-3.1,2.8-3c1.7,0.2,1.9,4,9.3,6.5c4.2,1.4,4.5,2.2,4.4,2.8C174.5,413.7,173.9,414.2,173.3,414.1z"/>
		</g>
		<g>
			<path class="st9" d="M245.8,118.4c-0.1-0.1-0.1-0.2-0.1-0.3c-0.1-0.1-0.3-0.1-0.4-0.1c-0.2,0-0.4,0-0.5,0c-0.2,0-0.4,0-0.6,0.2
				c-0.2,0.3,0,1.1,0.3,1.3c0,0,0.1,0.1,0.2,0.1c0.4-0.4,0.8-0.7,1.3-1.1C245.9,118.5,245.8,118.5,245.8,118.4z"/>
			<path class="st14" d="M456.7,197.1c-0.3-0.6-0.5-1.2-0.9-1.7c-1-1.3-2.9-1.6-4.6-1.6c-2.2,0-6.7,0.3-8.5-1.2
				c-0.3-0.3-0.5-0.6-0.9-0.8c-0.8-0.5-3-0.4-4-0.5c-1-0.2-2.2-0.7-2.2-1.6c-2.6,1.5-6-1.2-8.8-0.2c-0.1,0.6,0.6,1.1,1.2,1.4
				c1.6,0.9,3.2,1.7,5,2.2c2.3,0.7,5,0.9,6.6,2.7c1.1,1.2,1.6,3.1,3.1,3.6c0.2,0.1,0.3,0.1,0.4,0.2c0.1,0.1,0.1,0.3,0.1,0.5
				c0.1,1.8-0.9,3.6-2.5,4.6c-0.8,0.5-1.7,0.7-2.6,1.1c-2,0.9-3.6,2.6-5.2,4.1c-1.4,1.4-3,2.8-5,3.2c-0.6,0.1-1.2,0.1-1.7,0.5
				c-0.2,0.1-0.3,0.3-0.5,0.4c-0.2,0.2-0.5,0.2-0.8,0.2c-1.8,0.2-3.6-0.5-4.9-1.7c-2-1.8-2.6-4.7-3.1-7.3c-0.3-1.6-0.6-3.1-0.9-4.7
				c-0.2-0.9-0.3-1.8-0.8-2.6c-0.4-0.8-1-1.5-1.6-2.1c-1.6-1.7-3.1-3.4-4.7-5.1c-0.4-0.4-0.8-0.8-1.3-1.1c-1.1-0.6-2.7,0-3.1,1.2
				c-0.4,1,0,2.2,0.4,3.2c0.5,1.4,1.1,2.9,1.6,4.3c0.3,0.8,0.6,1.6,1.1,2.2c0.5,0.7,1.1,1.2,1.6,1.8c0.9,1,1.8,2.4,2.1,3.7
				c2,1.1,3.7,2.9,4.5,5c0.5,1.3,0.7,2.6,1.4,3.8c0.4,0.8,1,1.5,1.5,2.1c1,1.2,2.1,2.5,3.7,3c2.7,0.8,9.5-3.4,9.6,1.4
				c0,0.9-0.2,1.8-0.5,2.7c-0.6,1.9-1.3,3.9-2.7,5.4c-0.6,0.7-1.4,1.3-2.1,1.9c-1.2,1-2.7,1.8-3.8,2.8c-1.3,1-2.1,2.6-3.3,3.7
				c-0.7,0.7-1.7,1.3-1.9,2.3c-0.1,0.5-0.1,1-0.1,1.6c0.4,5.2,0.4,10.4-0.1,15.6c-0.1,1.2-0.3,2.5-0.7,3.6c-0.7,1.9-2.2,3.4-3.6,4.8
				c-0.9,0.9-1.8,1.8-3.1,1.9c-0.3,0-0.6,0-0.8,0.2c-0.2,0.2-0.2,0.5-0.2,0.8c0.1,1.8,0.9,3.5,0.9,5.3c0,1.8-1.3,3.8-3.1,3.6
				c-0.3,0-0.7-0.1-1,0c-0.4,0.1-0.5,0.5-0.7,0.9c-1.8,4.5-3.6,9.1-7.2,12.3c-2.5,2.2-5.5,3.5-8.6,4.8c-2.5,1.1-5.5,2.2-7.9,0.9
				c-1.2-3.2-2.3-6.4-3.5-9.6c-0.6-1.6-1.2-3.3-1.4-5c-0.2-1.7-0.1-3.4-0.4-5c-0.3-2-1.3-4-1-6c0.1-0.7,0.4-1.4,0.2-2.1
				c-0.1-0.5-0.4-1-0.7-1.5c-1.5-2.6-0.8-6.2,1.5-8.2c0.4-0.4,0.9-0.8,0.8-1.3c-0.1-0.3-0.4-0.5-0.6-0.7c-1.5-1.3-1.6-3.6-2.4-5.5
				c-1.6-3.7-4.8-6.5-5.7-10.4c-0.4-1.7,0.8-3.3,1.2-5c0.5-1.9,0-4-1.2-5.4c-1.2-1.5-3.1-2.3-4.9-3c-1.4-0.6-3.1-1.1-4.5-0.4
				c-0.4,0.2-0.8,0.5-1.2,0.7c-0.5,0.2-1.1,0.2-1.7,0.2c-3.1-0.2-6.3-1.4-9.3-0.5c-1.8,0.5-3.4,1.8-5.2,1.4
				c-0.8-0.2-1.5-0.6-2.1-1.1c-4.3-3.2-7.7-7.4-10.6-11.9c-0.1-0.2-0.2-0.4-0.3-0.6c-0.1-0.4,0.1-0.8,0.3-1.2
				c0.7-1.6,1.5-3.2,2.2-4.8c0.3-0.7,0.6-1.4,0.7-2.1c0.1-0.7-0.1-1.4-0.2-2.1c-0.2-1.4-0.2-2.9,0-4.3c0.2-1.2,0.5-2.4,1-3.4
				c0.9-1.8,2.4-3.2,3.8-4.5c0.9-0.8,1.8-1.6,2.9-2c0.4-0.1,0.9-0.2,1.1-0.6c0.1-0.2,0.1-0.5,0.1-0.7c0-2.4,0-4.3,1.2-6.5
				c0.5-0.8,1.2-1.5,2-2.1c1.2-0.9,2.4-1.8,3.7-2.6c0.6-0.4,1.1-0.8,1.8-0.9c0.7-0.1,1.5,0.2,2.1,0.3c2.7,0.4,5.5,0,8.3-0.4
				c1.3-0.2,2.6-0.4,3.7-1c0.8-0.5,1.5-1.1,2.3-1.6c2.5-1.4,6.1-0.1,7.2,2.6c0.5,1.2,0.5,2.7,1.5,3.5c0.8,0.6,1.8,0.6,2.8,1
				c1.2,0.5,2,1.5,3.2,1.9c2.1,0.8,4.4-0.5,6.6-0.7c1.4-0.1,2.8,0.2,4,0.9c0.7,0.4,1.3,1,2.1,1.3c1,0.4,2.1,0.4,3.1,0.3
				c1.8-0.1,3.6-0.1,5.4-0.2c0.4,0,0.7,0,1.1-0.2c0.4-0.2,0.6-0.6,0.8-1c0.4-0.6,0.9-1.1,1.4-1.5c0.5-0.4,1-0.4,1.3-1
				c0.6-1.3,0.6-2.5,1.7-3.6c0.3-0.3,0.6-0.5,0.8-0.9c0.4-0.8-0.1-1.8-0.7-2.5c-0.2-0.2-0.3-0.4-0.6-0.5c-0.3-0.2-0.6-0.3-0.9-0.3
				c-1.6-0.4-3.2-0.8-4.8-1c-2.1-0.3-4.3-0.2-6.5-0.6c-0.5-0.1-1.1-0.3-1.3-0.7c-0.1-0.2-0.1-0.4-0.1-0.7c-0.1-0.7-0.3-1.3-0.8-1.7
				c-0.6-0.5-2-0.5-2,0.5c-0.1,0.8-0.2,2,0.2,2.8c0.3,0.5,0.8,0.7,0.2,1.3c-0.6,0.6-2.3,1.1-3.2,0.9c-0.8-0.2-1.3-0.9-1.6-1.6
				c-0.3-0.7-0.5-1.5-0.8-2.2c-0.4-0.8-1-1.5-1.7-1.9c-0.3-0.2-0.6-0.3-0.7-0.6c-0.2-0.3-0.2-0.8-0.2-1.2c0-1.3-0.4-2.8-1.6-3.4
				c-0.6-0.3-1.2-0.4-1.8-0.7c-1.8-0.8-2.5-2.8-4-4c-0.4-0.3-0.8-0.6-1.3-0.5c-0.5,0-0.9,0.5-0.7,1c0.1,0.3,0.5,0.4,0.7,0.7
				c0.8,0.7,0.5,2.1,1.2,2.7c0.3,0.2,0.6,0.3,1,0.5c0.7,0.3,1.6,0.7,2.1,1.3c0.5,0.5,0.8,1.2,1.4,1.6c0.4,0.2,0.8,0.3,1.2,0.4
				c0.4,0.2,0.8,0.4,1.1,0.7c0.2,0.2,0.4,0.4,0.5,0.6c0.1,0.7-0.9,0.4-1.2,0.3c-0.5-0.1-1.9,0-0.9,0.8c0.2,0.2,0.5,0.3,0.7,0.4
				c0.2,0.2,0.3,0.6,0.3,0.9c0,0.2,0,0.4-0.1,0.6c-0.2,0.3-0.5,0.4-0.7,0.6c-0.3,0.2-0.5,0.5-0.7,0.8c-0.2,0.3-0.5,0.5-0.9,0.6
				c-0.1,0-0.2,0-0.3,0c-0.1,0.1-0.2,0.2-0.2,0.3c-0.3,0.6-0.4,1.9-1.4,1.8c-0.8,0-1.7-0.8-2.5-1c-0.9-0.2-1.3-0.9-0.9-1.8
				c0,0,0-0.1,0.1-0.1c0,0,0.1,0,0.1,0c0.5,0,0.9,0.1,1.4,0.1c0.2,0,0.4,0,0.6,0.1c0.3,0.1,0.6,0.2,0.9,0.2c0.3,0,0.5-0.2,0.8-0.3
				c1.9-1.3,0.4-3.4-0.9-4.5c-1-0.8-2.2-1.4-3.3-2.2c-1.4-1-2.6-2.4-3.4-3.9c-0.1-0.2-0.2-0.3-0.3-0.4c-0.1-0.1-0.3,0-0.4,0
				c-1.5,0.3-2.7,1.3-3.6,2.6c-0.4,0.6-0.7,1.3-1.2,1.9c-0.5,0.6-1.2,1-2,0.8c-0.4-0.1-0.7-0.3-1.1-0.4c-0.9-0.1-1.7,0.8-2.1,1.6
				c-0.7,1.6-1,3.5-2.4,4.5c-0.7,0.5-1.5,0.6-2.2,1.2c-0.4,0.3-0.6,0.7-0.9,1.1c-1,1.3-2.8,2.1-4.4,2c-1.7-0.1-3.3-1.1-4.1-2.6
				c-0.4,0.2-0.8,0.4-1,0.8c-0.7-0.9-1.3-1.9-2-2.8c0.5-0.7,1.2-1.2,2-1.6c-0.9-0.7-0.4-1.8-0.4-2.7c0-1.2-0.4-2.2-0.3-3.4
				c0.1-0.8,0.4-1.6,0.7-2.4c0.1-0.3,0.2-0.6,0.4-0.8c0.5-0.5,1.4-0.2,2-0.6c0.5-0.2,0.7-0.7,1.1-1c0.4-0.4,0.9-0.6,1.3-0.4
				c0.2,0.8,1,1.4,1.8,1.6c0.8,0.2,1.7,0.1,2.5-0.1c-0.1-1.4-0.3-2.8-0.4-4.2c0-0.1,0-0.2-0.1-0.3c-0.2-0.4-0.7-0.3-1.1-0.5
				c-0.3-0.2-0.7-0.6-0.8-1c-0.2-0.8-0.6-2.1,0.5-2.5c0.5-0.2,1.2,0.3,1.7,0.2c0.4,0,0.8-0.2,1.2-0.3c2.7-1.1,5.6-2.2,7.2-4.6
				c0.7-1,1.1-2.1,1.2-3.2c0.9-0.2,1.8-0.4,2.8-0.6c0.2-0.1,0.5-0.1,0.7-0.2c0.3-0.2,0.5-0.5,0.6-0.9c0.4-1,0.6-2,0.5-3.1
				c0-0.2,0-0.5,0.1-0.7c0.2-0.4,0.8-0.6,1.2-0.4c0.8,0.2,1.4,1,1.6,1.8c0.2,0.8,0.2,1.7,0.1,2.5c1.3-0.2,2.5,0.5,3.7,0.9
				c1.7,0.7,3.6,1,5.5,0.9c1.1-0.1,2.3-0.4,3-1.2c0.7-0.8,0.8-2,1-3c0.4-2.4,1.4-4.7,2.8-6.7c0.2-0.2,0.3-0.5,0.4-0.7
				c0.1-0.5-0.2-0.9-0.4-1.3c-0.8-1.5-1.3-3.2-1.5-4.9c0.6,0.3,1.2,0.6,1.8,0.3c0.6-0.3,0.9-1.2,0.3-1.6c-0.4-0.3-0.9-0.1-1.3,0
				c-2.1,0.7-4.3,1.4-6,2.9c-0.6,0.5-1.1,1.3-0.9,2c0.2,0.7,1.1,1,1.8,1.3c0.7,0.3,1.5,0.7,1.6,1.5c0,0.5-0.3,1-0.6,1.3
				c-1.3,1.4-3.1,2.5-4,4.1c-0.4,0.7-0.7,1.5-1.4,1.7c-0.5,0.1-1-0.1-1.5-0.3c-1.3-0.7-2.4-2.3-1.8-3.7c0.2-0.5,0.6-0.9,0.6-1.5
				c0-0.7-0.7-1.1-1.4-1.1c-0.7,0-1.3,0.3-1.9,0.6c-1.3,0.6-2.7,1.2-4.1,1.2c-1.4,0-3-0.8-3.5-2.1c-0.5-1.3-0.1-3.2,0.9-4.2
				c1-1,3-0.9,4.3-1.3c1.2-0.4,2.4-1.1,2.8-2.3c0.1-0.4,0.2-0.8,0.2-1.2c0.3-2,1.6-3.7,3.3-4.9c1.6-1.2,3.6-1.8,5.6-1.9
				c1.3-0.1,2.6-0.2,3.9-0.5c0.6-0.1,1-0.2,1.4-0.6c0.4-0.4,0.6-0.5,1.2-0.6c0.9-0.1,2-0.5,2.9-0.1c0.9,0.4,1.8,1,2.6,1.6
				c1.2,0.8,2.6,1.5,4,1.3c0.8-0.1,1.5-0.4,2.2-0.6c1.6-0.4,3.3-0.4,4.9-0.4c1.1,0,2.4,0.1,3.1,1.1c0.2,0.2,0.3,0.6,0.5,0.7
				c0.3,0.2,0.8,0.1,1.1,0c0.8-0.2,1.7,0,2.6,0.1c1.5,0.1,3.2,0.2,4.5-0.5c1-0.4,2-0.8,3-1.1c-23.1-19.9-53.1-32-86-32
				c-23.5,0-45.5,6.1-64.5,16.9c0.1,0,0.3,0,0.4,0c0.1,0.1,0.2,0.2,0.4,0.2c0.1,0,0.3,0,0.4,0c0.2,0,0.3,0.2,0.4,0.4
				c0,0.2,0,0.4,0,0.6c-0.1,0.3-0.2,0.5-0.5,0.7c-0.4,0.2-0.7,0.3-1.1,0.3c-0.5,0.1-1,0-1.4-0.2c-0.2-0.1-0.4-0.3-0.4-0.5
				c0-0.2,0.2-0.4,0.4-0.5c0.2-0.1,0.5-0.2,0.6-0.4c0.1-0.1,0.1-0.2,0.2-0.2c0,0,0.1-0.1,0.1-0.1c-1.7,1-3.4,2-5.1,3
				c0.1,0,0.3,0,0.4,0.1c0.2,0.1,0.3,0.2,0.3,0.4c0,0.2,0,0.3-0.1,0.5c0,0.3,0.1,0.4,0.4,0.4c0.3,0,0.7,0,1,0c0.1,0,0.2,0,0.3,0.1
				c0.1,0,0.1,0.1,0.2,0.2c0.2,0.3,0.4,0.6,0.6,1c0,0.1,0.1,0.3,0,0.4c-0.1,0.3-0.4,0.3-0.7,0.4c-0.8,0.1-1.5,0-2.2-0.3
				c-0.3-0.1-0.5-0.2-0.8-0.3c-0.3-0.1-0.6,0-0.8,0.1c-0.2,0.1-0.3,0.3-0.4,0.5c-0.1,0.1-0.3,0.1-0.5,0.2c-0.3,0.1-0.7,0.1-1,0.1
				c-0.5,0-1-0.2-1.4-0.5c-0.6,0.4-1.1,0.8-1.7,1.2c0.6,0,1.3,0,1.9,0.1c0.4,0,0.8,0.1,1,0.4c0.1,0.1,0.1,0.3,0.1,0.5
				c0,0.1,0,0.2,0,0.3c0,0.1-0.1,0.2-0.2,0.3c-0.3,0.3-0.5,0.7-0.8,1c-0.1,0.1-0.2,0.2-0.3,0.3c-0.2,0.2-0.5,0.2-0.8,0.2
				c-0.9,0.1-1.7,0.2-2.6,0.2c-0.7,0-1.5,0-2.2-0.2c0,0-0.1,0-0.1,0c0,0-0.1-0.1-0.1-0.1c0,0,0,0,0,0c-0.9,0.7-1.9,1.5-2.8,2.2
				c0,0.1,0.1,0.1,0.1,0.2c0.1,0.3,0.1,0.6,0,0.9c-0.6,0-1.2,0.2-1.7,0.5c0,0-0.1,0.1-0.1,0.1c0,0,0,0.1,0,0.1
				c0,0.2,0.1,0.3,0.1,0.5c0,0.2-0.1,0.4-0.3,0.4c-0.1,0-0.2,0-0.3,0c-0.3,0-0.6,0-0.8-0.2c-0.4,0.4-0.8,0.7-1.3,1.1
				c0.4,0.3,0.8,0.4,1.3,0.5c3.1,0.6,6.6,1,8.9-1.1c0.5-0.5,1-1.1,0.9-1.8c0-0.7-1-0.9-0.8-1.7c0.4-1.2,1.6-0.8,2.5-1.1
				c0.5-0.2,2.1-1.4,2.1-2c0-0.5,0-1,0-1.6c1,0.6,2.1-0.5,3-0.8c1.1-0.4,2.7-0.6,3.4,0.5c0.1,0.2,0.2,0.4,0.4,0.5
				c0.5,0.3,1.1,0,1.7-0.3c0.5-0.3,1.1-0.4,1.7-0.4c0.2,0,0.3,0,0.5,0.1c0.2,0.1,0.3,0.2,0.5,0.4c1.3,1.1,3.6-0.2,5-0.4
				c1.8-0.4,4.1-0.2,5,1.4c0.4,0.6,0.5,1.4,1.1,1.7c0.4,0.2,1,0.2,1.4,0.4c1.1,0.7,0.1,2.9,1.2,3.6c0.6,0.3,1.3,0.1,1.9,0.3
				c1.5,0.6,1.1,3.6,2.7,3.6c0.1,1.2-1.7,1.5-2.9,1.2c-1.2-0.3-2.9-0.6-3.3,0.6c-0.1,0.4-0.1,0.8-0.1,1.2c0,0.4,0.1,0.8,0.2,1.1
				c0.1,0.4,0,0.7,0,1.1c0,0.1,0,0.3-0.1,0.4c-0.2,0.4-0.7,0.3-1,0.2c-0.1,0-1.2-0.4-1.2-0.3c-0.2,0.4,0,0.9,0,1.3
				c0,0.4-0.1,0.9-0.3,1.2c-0.1,0.1-0.1,0.1-0.2,0.2c-0.1,0.1-0.2,0.2-0.3,0.3c-0.4,0.4-1.3,0.2-1.8,0.1c-0.6-0.1-1.3-0.4-1.8-0.7
				c-0.6-0.3-1.1-0.7-1.6-1.1c-0.2-0.2-0.5-0.5-0.7-0.7c-0.1-0.1-0.5-0.7-0.6-0.7c-1.4,0-3.2-0.4-4.5-1.1c-0.2-0.1-0.4-0.3-0.4-0.5
				c0-0.3,0.3-0.5,0.6-0.6c0.8-0.4,1.7-0.3,2.4-0.8c0.9-0.5,1.8-1,2.6-1.5c1-0.6,2.2-1.5,2-2.7c-0.1-0.7-0.8-1.2-1.4-1.6
				c-1-0.7-2.1-1.3-3.2-1c-1.9,0.5-2.1,3.3-3.6,4.6c-0.8,0.7-1.8,0.9-2.7,1.5c-0.8,0.6-1.3,2-0.5,2.6c0.4,0.3,0.9,0.4,1.1,0.8
				c0.2,0.5-0.6,1-1.1,0.8c-0.6-0.1-1-0.5-1.5-0.7c-0.8-0.3-1.7-0.1-2.3,0.6c-0.7,0-0.7-1-0.3-1.5c0.4-0.5,1.1-0.8,1.3-1.4
				c0.2-0.7-0.3-1.4-0.4-2.2c-0.2-2,2.1-2.7,2.6-4.3c0.1-0.4,0-0.9-0.3-1.2c-1.1-0.7,0.4-1.4-0.6-2.1c-0.2-0.1-0.5-0.2-0.7-0.2
				c-0.1,0-0.2,0-0.3,0c-0.1,0-0.2,0.1-0.3,0.2c-0.3,0.2-0.5,0.4-0.8,0.6c-0.1,0-0.1,0.1-0.1,0.1c0,0.1,0,0.2,0,0.3
				c0.3,0.9,0,1.9-0.5,2.6c-0.6,1-1.4,1.9-1.6,3c-0.2,1.1,0.4,2.5,1.5,2.6c-0.5,1-1.7,1.2-2.7,1.4c-5.3,0.8-11,2.6-14,7.1
				c-0.5,0.7-0.9,1.4-0.7,2.2c0.1,0.6,0.5,1.1,0.9,1.6c1.6,2,3.4,4.1,5.9,4.7c1.1,0.3,2.3,0.3,3.3,0.9c0.4,0.2,0.7,0.6,1.1,0.8
				c0.7,0.4,1.6,0.1,2.3-0.1c3-1.2,5.4-3.7,6.4-6.7c0.1-0.4,0.2-0.8,0.5-1.2c0.2-0.3,0.4-0.6,0.6-0.9c0.1-0.2,0.2-0.3,0.4-0.5
				c0.3-0.3,0.6-0.6,0.7-1c0.2-0.3,0.2-0.7,0.4-1.1c0.2-0.5,0.5-0.8,0.8-1.2c0.8-0.9,1.7-1.6,2.9-1.9c1-0.2,2,0,2.8,0.5
				c0.1,0.1,0.2,0.2,0.3,0.3c0.2,0.2,0.3,0.4,0.4,0.7c0.3,0.8,0.6,1.5,0.8,2.3c0.3,0.8,0.5,1.7,0.7,2.6c0.1,0.3,0.2,0.6,0.3,0.9
				c0.1,0.2,0.1,0.3,0.3,0.4c0.2,0.1,0.4,0,0.6-0.1c0.5-0.4,0.9-0.9,1.3-1.4c0.9-1.2,2.1-2.3,3.6-2.8c0.3-0.1,0.7-0.2,1-0.2
				c0.4,0,0.8,0.2,1.2,0.4c0.2,0.1,0.3,0.1,0.4,0.3c0.1,0.1,0.2,0.4,0.3,0.6c0.4,1.6,0.1,3.4,0.1,5c0,0.8,0.2,1.6,0.3,2.4
				c0.1,0.9,0.3,1.7,0.4,2.6c0.2,1.7,0.5,3.5-0.4,4.9c-0.2,0.3-0.4,0.6-0.5,0.9c-0.3,1,0.7,1.9,1.2,2.8c0.7,1.1,0.9,2.6,0.5,3.8
				c-0.2,0.5-0.4,1-0.9,1.1c-0.3,0.1-0.6,0.1-0.9,0c-0.6-0.1-1.1-0.2-1.7-0.3c-0.6-0.1-1.4-0.2-1.8-0.7c-0.3-0.4-0.4-0.9-0.5-1.3
				c-0.3-1-0.9-1.9-1.8-2.5c-1.7-1-4.3-0.3-5.1,1.5c-0.8,1.8,0.2,4.2,2.1,4.8c-0.4,0.5-0.9,0.8-1.4,1.3c-2.6,0.1-5.2,0.7-7.5,1.9
				c-1.1,0.5-2.2,1.3-2.8,2.4c-0.3,0.6-0.5,1.3-0.8,1.8c-1.2,1.8-4,1.5-5.9,2.6c-0.8,0.4-1.4,1.1-2,1.8c-1.1,1.2-2.2,2.5-2.5,4
				c-0.2,0.9-0.1,1.8-0.4,2.6c-0.7,2.4-5.3,3.1-7.1,4.6c-2.9,2.3-4.6,5.9-4.9,9.5c-0.1,1.3-0.1,2.5-0.2,3.8
				c-0.1,1.7-2.5-0.1-2.9-0.8c-0.9-1.7,0.7-3.1-0.3-4.6c-0.7-1-2.3-1.6-3.4-1.8c-1.7-0.3-3.4-0.2-5.1-0.1c-4.2,0.3-8.7,0.7-11.9,3.3
				c-3.5,2.8-4.7,7.9-3.3,12.1c0.4,1.3,1.2,2.6,2.5,3.2c1,0.4,2.1,0.3,3.1,0.1c1.6-0.4,3.2-1,4.6-1.9c0.8-0.5,2.4-1.6,3.4-1
				c0.4,0.2,0.7,0.7,0.6,1.2c-0.1,0.8-0.8,1.2-1.1,1.8c-0.3,0.7-0.1,1.3-0.5,2c-0.5,1-1.3,2.1-1.1,3.2c1.1,0.8,2.7,0,4.1,0.2
				c2,0.3,3,2.6,2.7,4.6c-0.1,1.1-0.5,2.3,0.2,3.2c0.3,0.4,0.9,0.7,1.2,1.1c0.4,0.4,0.5,0.9,0.8,1.4c0.3,0.5,0.9,0.8,1.4,0.7
				c-0.1,1.7-2.6,2.6-3.8,1.4c-0.5-0.5-0.8-1.3-1.4-1.8c-0.7-0.6-1.8-0.9-1.8-1.8c0-0.3,0.1-0.6,0-0.9c-0.2-0.3-0.6-0.4-0.9-0.4
				c-2.5-0.4-4.7-1.6-6.9-2.9c-0.4-0.2-0.8-0.5-1.1-0.9c-0.2-0.3-0.3-0.7-0.6-0.9c-0.7-0.8-1.9-0.8-3-0.8c-2,0.1-4.1,0.2-6.1-0.3
				c-2-0.5-3.8-1.4-5-3c-0.7-0.2-1.3-0.6-1.8-1c-0.2,3.2-0.3,6.4-0.3,9.6c0,72.6,58.9,131.5,131.5,131.5s131.5-58.9,131.5-131.5
				c0-4.5-0.2-8.9-0.7-13.2c-0.2-0.4-0.4-0.8-0.7-1.2C460.8,200.9,458,199.6,456.7,197.1z M351.5,136.4c0.3-0.2,0.5-0.4,0.7-0.6
				c0.5-0.4,1.2-0.6,1.9-0.5c0.2,0,0.4,0.1,0.6,0.2c0.1,0.1,0.2,0.4,0,0.5c-0.1,0.1-0.3,0.2-0.3,0.4c0,0,0.1,0.1,0.1,0.1
				c0.3,0.2,0.8,0.1,1.2,0.3c0.3,0.2,0.5,0.6,0.3,1c-0.1,0.4-0.5,0.6-0.8,0.6c-0.1,0-0.2,0-0.2,0.1c-0.1,0-0.1,0.1-0.1,0.2
				c-0.1,0.4,0,0.7,0.2,1.1c0.9,2,2.5,3.7,4.4,4.9c0.4,0.2,0.9,0.4,1,0.9c0.1,0.4,0,0.9-0.2,1.3c-0.3,0.7-0.7,1.3-1.3,1.7
				c-1.6,1.2-4.1,0.5-5.9,1.5c-0.5,0.3-0.9,0.7-1.4,1c-0.3,0.2-0.8,0.5-1.1,0.2c-0.3-0.2-0.3-0.6-0.1-0.9c0.2-0.3,0.5-0.4,0.8-0.5
				c0.3-0.1,0.6-0.2,0.9-0.4c0.3-0.2,0.5-0.6,0.5-1c0-0.1,0-0.2-0.1-0.3c-0.1-0.1-0.2-0.1-0.2-0.1c-0.6,0-1.2-0.1-1.5-0.5
				c-0.1-0.2-0.2-0.4,0-0.6c0.2-0.3,0.7,0,1-0.2c0.1-0.5-0.1-1,0.1-1.5c0.2-0.3,0.7-0.4,1-0.7c0.3-0.3,0.4-0.6,0.4-1
				c0-0.5,0-1.1-0.3-1.5c-0.3-0.4-0.9-0.6-1.4-0.3c-0.1,0.1-0.2,0.2-0.3,0.3c-0.5,0.7-1.1,1.4-1.2,2.2c-0.1,0.7,0.1,1.5-0.3,2
				c-0.2,0.2-0.5,0.3-0.7,0.5c-0.7,0.3-1.5,0.6-2.2,0.9c-0.5,0.2-1,0.4-1.6,0.4c-0.6,0-1.1-0.3-1.3-0.8c-0.2-0.5,0.1-1.1,0.6-1.2
				c0.2-0.1,0.3-0.1,0.4-0.2c0.1-0.2,0.1-0.4-0.1-0.5c-0.1-0.2-0.3-0.3-0.4-0.4c-0.2-0.3-0.1-0.7,0-1.1c0.1-0.5,0.3-1,0.8-1.1
				c0.2,0,0.5,0.1,0.7,0.2c0.2,0.1,0.5,0.1,0.7-0.1c0.1-0.1,0.1-0.2,0.1-0.3c0.1-0.3,0.1-0.7,0.2-1c0-0.2,0.1-0.4,0.2-0.5
				c0.1-0.1,0.3-0.1,0.4-0.1c0.5-0.1,1.1-0.1,1.6-0.2c0.2,0,0.4,0,0.5-0.1c0.2-0.1,0.3-0.2,0.4-0.4c0.4-0.8,0.1-1.9-0.7-2.3
				c-0.2-0.1-0.5-0.2-0.7-0.3c-0.2-0.2-0.3-0.5-0.1-0.6c0.1-0.1,0.3-0.1,0.4-0.1C350,137,350.9,136.9,351.5,136.4z M278.9,109.1
				c-1.7,0.6-3.4,0.9-5.2,0.9c-1.8,0-3.5-0.3-5.3-0.6c-0.7-0.1-1.4-0.2-2.1-0.4c-0.1,0-0.2,0-0.3-0.1c-0.2-0.1-0.1-0.4,0-0.6
				c0.1-0.2,0.3-0.3,0.5-0.4c0.2-0.1,0.4-0.2,0.4-0.4c0,0,0-0.1,0-0.1c0,0-0.1-0.1-0.1-0.1c-0.5-0.3-1.2-0.3-1.8-0.7
				c-0.1-0.1-0.2-0.2-0.2-0.3c0-0.2,0.2-0.2,0.4-0.2c0.4,0,0.8-0.1,1.1-0.1c0.4,0,0.8,0.2,1.2,0.4c0.8,0.3,1.6,0.6,2.5,1
				c0.3,0.1,0.7,0.3,1,0.4c0.6,0.2,1.3,0.1,1.9,0.1c1.4-0.1,2.8-0.1,4.2,0c0.7,0,1.4,0.1,1.9,0.5c0.1,0.1,0.2,0.2,0.2,0.3
				C279.4,108.9,279.1,109.1,278.9,109.1z M299.9,253.9c-0.9,2.2-2.2,4.2-2.8,6.5c-1.1,3.9-0.3,8-1.1,11.9c-0.5,2.4-1.8,4.8-4.2,5.6
				c-0.8,0.3-1.8,0.3-2.6,0.6c-2.5,0.9-3.5,3.9-4.1,6.5c-0.4,1.6-0.7,3.1-1.1,4.7c-0.4,1.8-2,3.2-3,4.8c-0.3,0.5-0.6,1-1,1.3
				c-0.4,0.4-1,0.6-1.5,0.9c-1.6,0.9-2.4,2.7-3.2,4.3c-0.2,0.4-0.4,0.9-0.3,1.4c0.1,0.5,0.4,1,0.1,1.4c-0.1,0.2-0.4,0.3-0.6,0.3
				c-1.7,0.6-3.2,1.6-4.6,2.7c-0.5,0.4-1,0.7-1.3,1.2c-0.4,0.6-0.4,1.4-0.4,2.1c-0.1,3.2-0.3,6.4-0.4,9.6c0,0.7-0.1,1.5,0.1,2.2
				c0.2,0.9,0.8,1.6,1.4,2.3c1.3,1.6,2.5,3.3,3.7,5c0.2,0.3,0.4,0.7,0.2,1c-0.1,0.2-0.4,0.2-0.6,0.2c-2.9,0.2-6.1,0.2-8.3-1.6
				c-1-0.8-1.7-1.8-2.4-2.8c-0.9-1.3-1.8-2.6-2.7-3.9c-2.8-4-5.7-8.3-5.7-13.1c0-2.3,0.6-4.6,0.1-6.8c-0.2-1-0.6-1.9-1-2.8
				c-1.6-4-2.3-8.4-2-12.7c-0.8-2.8-0.9-5.8-0.3-8.6c0.2-0.9,0.5-1.8,0.3-2.7c-0.2-0.9-0.9-1.7-1.1-2.6c-0.1-0.9,0.3-1.7-0.1-2.5
				c-0.3-0.5-0.7-0.9-1-1.3c-0.5-0.8-0.7-1.7-1.3-2.4c-1.1-1.4-3.3-1.7-4.4-3.1c-0.5-0.7-0.8-1.6-1.5-2.1c-0.5-0.4-1.1-0.5-1.7-0.7
				c-1.8-0.5-3.5-1.5-4.5-3.1c-1-1.6-1.3-3.7-0.3-5.3c0.3-0.5,0.8-1,1.1-1.6c0.3-0.6,0.4-1.3,0-1.8c-0.2-0.3-0.6-0.5-0.9-0.7
				c-1.3-0.8-2.4-2.2-2.4-3.7c0-2.4,2.5-4.2,2.7-6.6c0.3-0.4,0.7-0.8,1.1-1c0.3-0.2,0.6-0.4,1-0.6c0.5-0.3,1.1-0.9,0.9-1.4
				c-0.1-0.3-0.5-0.5-0.6-0.9c-0.1-0.2-0.1-0.4-0.1-0.5c0-1.9,1.1-3.6,1.4-5.5c0-0.2,0.1-0.5,0-0.7c-0.1-0.2-0.2-0.3-0.3-0.4
				c-0.3-0.5,0-1.2,0.2-1.7c0.7-1.3,1.5-2.6,2.5-3.7c0.2-0.2,0.4-0.4,0.6-0.5c0.3-0.2,0.7-0.2,1-0.3c0.3-0.1,0.6-0.5,0.5-0.8
				c0-0.2-0.2-0.3-0.2-0.4c0-0.3,0.3-0.4,0.6-0.5c1.1-0.3,2.2-0.6,3.3-0.8c1-0.2,2-0.6,3-0.6c0.1,0,0.3-0.1,0.4-0.1
				c1-0.2,2-0.4,3-0.3c1.1,0.2,2.2,0.6,3.2,1c1.1,0.5,2.2,1,3.4,1.5c1.3,0.6,2.6,1.1,3.7,2c0.9,0.7,1.6,1.7,2.5,2.4
				c2.1,1.8,5,2.5,7.3,4c2.6,1.7,4.3,4.4,6.3,6.7c2,2.4,4.6,4.6,7.7,4.8c0.7,0,1.5,0,2.2,0.1c0.7,0.1,1.3,0.5,1.9,0.8
				c1,0.5,1.9,1,2.9,1.5c2.3,1.2,4.7,2.6,5.7,5C301.3,249.3,300.8,251.8,299.9,253.9z M321.8,123.1c-2.5,1.1-5.1,2.3-7.8,2.9
				c-1.5,0.4-3.4,0.8-4,2.2c-0.3,0.8-0.2,1.7-0.5,2.5c-0.6,1.5-2.6,1.9-4.2,1.8c-1.4-0.1-2.5-0.7-3.9,0c-0.1,0.1-0.3,0.1-0.4,0.2
				c-0.9,0.1-1.3-1.7-1.6-2.4c-0.5-1.1-1.4-2.2-2.2-3.1c-0.5-0.6-1.1-1.2-0.9-2c0.1-0.4,0.4-0.8,0.6-1.1c1.9-2.6,1.4-6.3,3.3-8.8
				c0.5-0.6,1-1.1,1.4-1.7c0.4-0.6,0.6-1.5,0.2-2.1c-0.2-0.4-0.6-0.6-0.9-0.8c-2.2-1.3-4.6-2.2-7.1-2.6c-1-0.2-2-0.9-2.9-1.4
				c-0.3-0.2-0.6-0.4-0.8-0.7c-0.2-0.3-0.2-0.7-0.1-1c0.3-0.4,0.9-0.5,1.4-0.5c0.5,0,1.2-0.3,1.1-0.8c-0.5-0.2-1.1,0.1-1.7-0.1
				c-0.5-0.2-0.8-0.7-1.3-0.8c-0.3,0-0.7,0.2-1,0.3c-2.2,1.4-4.4,2.9-6.6,4.3c-0.3,0.2-0.7,0.4-1.1,0.5c-0.4,0-0.8-0.1-1.2-0.3
				c-0.6-0.2-1.3-0.2-1.9-0.3c-1.9-0.1-3.8-0.2-5.7-0.2c-0.8,0-1.6,0-2.3-0.2c-0.7-0.2-1.5-0.7-1.8-1.4c0.7,0.2,1.6,0,2.2-0.4
				c0.1-0.1,0.2-0.2,0.3-0.3c0.2-0.1,0.5-0.1,0.7-0.1c1.8,0.1,3.6,0.3,5.4,0.4c0.2-0.3,0-0.7-0.3-0.8c-0.3-0.1-0.6-0.1-1-0.1
				c-1.7,0-3.5-0.7-4.7-1.8c-0.1-0.1-0.2-0.2-0.2-0.4c0-0.1,0.1-0.3,0.2-0.4c0.6-0.7,1.6-1,2.5-1.1c0.9-0.1,1.9,0.1,2.8,0
				c0-0.2-0.1-0.4,0-0.6c1.3-0.1,2.5,0,3.8,0.3c1,0.2,2.1,0.6,3,0.1c1-0.5,1.5-1.9,2.6-2.2c0.3-0.1,0.7,0,1,0c1.5,0.2,3,0.4,4.5,0.5
				c2.7,0.2,5.6,0.4,8.1-0.8c1.1-0.6,2.6-1.4,3.5-0.5c0.5,0.5,0.6,1.5,1.2,1.8c0.5,0.3,1.2,0.1,1.7-0.1c1.7-0.5,3.5-0.5,5.2,0
				c1.3,0.4,2.6,1.2,4,1.1c2-0.1,3.5-1.7,5.4-2.2c0.9-0.2,1.8-0.2,2.7-0.1c6.3,0.4,12.7,1.4,18.8,0.2c2.4-0.5,5-1.2,7.1-0.1
				c0.7,1.1-0.4,2.5-1.5,3.1c-1.2,0.5-2.6,0.7-3.6,1.5c-1.3,1.1-1.6,2.9-2.7,4.2c-0.9,1-2.2,1.4-3.2,2.4c-1.2,1.1-1.7,2.8-2,4.5
				c-0.2,1.2-0.5,2.6-1.5,3.3c-1,0.8-2.5,0.7-3.8,1c-2.2,0.5-3.8,2.3-5.7,3.5C323.8,122.2,322.8,122.6,321.8,123.1z"/>
			<path class="st1" d="M246.7,118.8c0.1,0,0.2,0,0.3,0c0.2-0.1,0.2-0.3,0.3-0.4c0-0.2,0-0.3-0.1-0.5c0,0,0-0.1,0-0.1
				c0,0,0.1-0.1,0.1-0.1c0.5-0.3,1.1-0.5,1.7-0.5c0.1-0.3,0.1-0.6,0-0.9c0-0.1-0.1-0.1-0.1-0.2c-1,0.8-2,1.7-3,2.6
				C246.1,118.7,246.4,118.8,246.7,118.8z"/>
			<path class="st1" d="M208,212.1c2,0.5,4,0.4,6.1,0.3c1.1-0.1,2.3-0.1,3,0.8c0.2,0.3,0.3,0.7,0.6,0.9c0.3,0.4,0.7,0.6,1.1,0.9
				c2.2,1.2,4.4,2.5,6.9,2.9c0.3,0.1,0.7,0.1,0.9,0.4c0.1,0.3,0,0.6,0,0.9c0.1,0.9,1.2,1.2,1.8,1.8c0.6,0.5,0.8,1.3,1.4,1.8
				c1.2,1.2,3.7,0.3,3.8-1.4c-0.5,0.2-1.1-0.2-1.4-0.7c-0.3-0.5-0.5-1-0.8-1.4c-0.4-0.4-0.9-0.6-1.2-1.1c-0.7-0.9-0.3-2.1-0.2-3.2
				c0.2-2-0.8-4.3-2.7-4.6c-1.4-0.2-3,0.7-4.1-0.2c-0.2-1.1,0.6-2.2,1.1-3.2c0.4-0.7,0.2-1.3,0.5-2c0.3-0.7,1-1.1,1.1-1.8
				c0.1-0.5-0.2-1-0.6-1.2c-1-0.6-2.6,0.5-3.4,1c-1.4,0.9-3,1.6-4.6,1.9c-1,0.2-2.2,0.3-3.1-0.1c-1.3-0.5-2-1.9-2.5-3.2
				c-1.4-4.2-0.2-9.3,3.3-12.1c3.3-2.6,7.7-3,11.9-3.3c1.7-0.1,3.4-0.2,5.1,0.1c1.1,0.2,2.7,0.8,3.4,1.8c1.1,1.5-0.6,2.9,0.3,4.6
				c0.4,0.8,2.8,2.6,2.9,0.8c0.1-1.3,0.1-2.5,0.2-3.8c0.3-3.6,2-7.2,4.9-9.5c1.8-1.5,6.4-2.2,7.1-4.6c0.3-0.9,0.2-1.8,0.4-2.6
				c0.3-1.6,1.4-2.8,2.5-4c0.6-0.7,1.2-1.3,2-1.8c1.9-1.1,4.7-0.8,5.9-2.6c0.4-0.6,0.5-1.2,0.8-1.8c0.6-1.1,1.7-1.8,2.8-2.4
				c2.3-1.1,4.9-1.8,7.5-1.9c0.4-0.5,0.9-0.8,1.4-1.3c-1.9-0.6-3-3-2.1-4.8c0.8-1.8,3.4-2.6,5.1-1.5c0.9,0.5,1.5,1.5,1.8,2.5
				c0.1,0.5,0.2,0.9,0.5,1.3c0.4,0.5,1.1,0.6,1.8,0.7c0.6,0.1,1.1,0.2,1.7,0.3c0.3,0,0.6,0.1,0.9,0c0.5-0.2,0.7-0.6,0.9-1.1
				c0.4-1.3,0.2-2.7-0.5-3.8c-0.6-0.9-1.5-1.8-1.2-2.8c0.1-0.3,0.3-0.6,0.5-0.9c0.8-1.5,0.6-3.2,0.4-4.9c-0.1-0.9-0.3-1.7-0.4-2.6
				c-0.1-0.8-0.3-1.6-0.3-2.4c0.1-1.7,0.4-3.4-0.1-5c0-0.2-0.1-0.4-0.3-0.6c-0.1-0.1-0.3-0.2-0.4-0.3c-0.4-0.2-0.8-0.3-1.2-0.4
				c-0.3,0-0.7,0.1-1,0.2c-1.5,0.5-2.7,1.5-3.6,2.8c-0.4,0.5-0.7,1.1-1.3,1.4c-0.2,0.1-0.4,0.2-0.6,0.1c-0.2-0.1-0.2-0.3-0.3-0.4
				c-0.1-0.3-0.2-0.6-0.3-0.9c-0.2-0.9-0.5-1.7-0.7-2.6c-0.2-0.8-0.5-1.5-0.8-2.3c-0.1-0.2-0.2-0.5-0.4-0.7
				c-0.1-0.1-0.2-0.2-0.3-0.3c-0.8-0.5-1.9-0.7-2.8-0.5c-1.1,0.3-2.1,1-2.9,1.9c-0.3,0.4-0.6,0.7-0.8,1.2c-0.1,0.3-0.2,0.7-0.4,1.1
				c-0.2,0.4-0.5,0.7-0.7,1c-0.1,0.1-0.2,0.3-0.4,0.5c-0.2,0.3-0.5,0.6-0.6,0.9c-0.2,0.4-0.3,0.8-0.5,1.2c-1,3-3.4,5.5-6.4,6.7
				c-0.7,0.3-1.6,0.5-2.3,0.1c-0.4-0.2-0.7-0.5-1.1-0.8c-0.9-0.6-2.2-0.6-3.3-0.9c-2.5-0.6-4.3-2.7-5.9-4.7c-0.4-0.5-0.8-1-0.9-1.6
				c-0.1-0.8,0.3-1.6,0.7-2.2c3.1-4.4,8.7-6.3,14-7.1c1.1-0.2,2.3-0.4,2.7-1.4c-1.1-0.1-1.7-1.5-1.5-2.6c0.2-1.1,1-2,1.6-3
				c0.5-0.8,0.9-1.7,0.5-2.6c0-0.1-0.1-0.2,0-0.3c0-0.1,0.1-0.1,0.1-0.1c0.3-0.2,0.5-0.4,0.8-0.6c0.1-0.1,0.2-0.2,0.3-0.2
				c0.1,0,0.2,0,0.3,0c0.2,0,0.5,0.1,0.7,0.2c1,0.7-0.5,1.4,0.6,2.1c0.4,0.2,0.5,0.8,0.3,1.2c-0.5,1.6-2.8,2.3-2.6,4.3
				c0.1,0.7,0.6,1.5,0.4,2.2c-0.2,0.6-0.9,0.9-1.3,1.4c-0.4,0.5-0.4,1.5,0.3,1.5c0.6-0.6,1.5-0.9,2.3-0.6c0.5,0.2,1,0.6,1.5,0.7
				c0.6,0.1,1.3-0.3,1.1-0.8c-0.1-0.4-0.7-0.5-1.1-0.8c-0.8-0.6-0.3-2,0.5-2.6c0.8-0.6,1.9-0.8,2.7-1.5c1.5-1.3,1.7-4.1,3.6-4.6
				c1.1-0.3,2.3,0.4,3.2,1c0.6,0.4,1.3,0.9,1.4,1.6c0.2,1.2-1,2.1-2,2.7c-0.9,0.5-1.8,1-2.6,1.5c-0.8,0.4-1.6,0.4-2.4,0.8
				c-0.3,0.1-0.5,0.3-0.6,0.6c0,0.2,0.2,0.4,0.4,0.5c1.3,0.7,3,1,4.5,1.1c0.1,0,0.5,0.6,0.6,0.7c0.2,0.2,0.4,0.5,0.7,0.7
				c0.5,0.4,1,0.8,1.6,1.1c0.6,0.3,1.2,0.5,1.8,0.7c0.5,0.1,1.4,0.3,1.8-0.1c0.1-0.1,0.2-0.2,0.3-0.3c0.1-0.1,0.1-0.1,0.2-0.2
				c0.2-0.3,0.3-0.8,0.3-1.2c0-0.4-0.2-0.9,0-1.3c0,0,1.1,0.3,1.2,0.3c0.3,0.1,0.8,0.1,1-0.2c0.1-0.1,0.1-0.2,0.1-0.4
				c0-0.4,0.1-0.7,0-1.1c-0.1-0.4-0.1-0.7-0.2-1.1c0-0.4-0.1-0.8,0.1-1.2c0.5-1.1,2.1-0.9,3.3-0.6c1.2,0.3,3,0,2.9-1.2
				c-1.6-0.1-1.2-3.1-2.7-3.6c-0.6-0.2-1.4,0-1.9-0.3c-1.1-0.7-0.1-2.9-1.2-3.6c-0.4-0.3-1-0.2-1.4-0.4c-0.6-0.3-0.8-1.1-1.1-1.7
				c-0.9-1.6-3.2-1.8-5-1.4c-1.4,0.3-3.7,1.5-5,0.4c-0.2-0.1-0.3-0.3-0.5-0.4c-0.2-0.1-0.3-0.1-0.5-0.1c-0.6,0-1.2,0.2-1.7,0.4
				c-0.5,0.3-1.2,0.6-1.7,0.3c-0.2-0.1-0.3-0.3-0.4-0.5c-0.8-1-2.4-0.9-3.4-0.5c-0.9,0.4-2,1.4-3,0.8c0,0.5,0,1,0,1.6
				c0,0.6-1.6,1.8-2.1,2c-0.8,0.3-2.1-0.1-2.5,1.1c-0.2,0.8,0.7,1,0.8,1.7c0,0.7-0.4,1.3-0.9,1.8c-2.3,2.1-5.9,1.6-8.9,1.1
				c-0.4-0.1-0.9-0.2-1.3-0.5c-24.6,22.1-40.9,53.3-43.4,88.4c0.5,0.4,1.2,0.8,1.8,1C204.2,210.6,206,211.6,208,212.1z"/>
			<path class="st1" d="M279.1,108.4c-0.5-0.4-1.3-0.4-1.9-0.5c-1.4-0.1-2.8,0-4.2,0c-0.6,0-1.3,0.1-1.9-0.1c-0.3-0.1-0.7-0.2-1-0.4
				c-0.8-0.3-1.6-0.7-2.5-1c-0.4-0.1-0.8-0.4-1.2-0.4c-0.4,0-0.8,0.1-1.1,0.1c-0.2,0-0.3,0.1-0.4,0.2c0,0.1,0.1,0.2,0.2,0.3
				c0.5,0.4,1.2,0.3,1.8,0.7c0,0,0.1,0.1,0.1,0.1c0,0,0,0.1,0,0.1c-0.1,0.2-0.3,0.3-0.4,0.4c-0.2,0.1-0.4,0.2-0.5,0.4
				c-0.1,0.2-0.1,0.4,0,0.6c0.1,0.1,0.2,0.1,0.3,0.1c0.7,0.1,1.4,0.2,2.1,0.4c1.8,0.3,3.5,0.6,5.3,0.6c1.8,0,3.5-0.3,5.2-0.9
				c0.2-0.1,0.5-0.2,0.4-0.5C279.3,108.6,279.2,108.5,279.1,108.4z"/>
			<path class="st1" d="M267.2,103.4c-0.1,0.1-0.1,0.2-0.2,0.2c-0.2,0.2-0.4,0.3-0.6,0.4c-0.2,0.1-0.4,0.3-0.4,0.5
				c0,0.2,0.2,0.4,0.4,0.5c0.4,0.2,0.9,0.3,1.4,0.2c0.4-0.1,0.8-0.2,1.1-0.3c0.3-0.1,0.4-0.4,0.5-0.7c0-0.2,0.1-0.4,0-0.6
				c0-0.2-0.2-0.4-0.4-0.4c-0.1,0-0.3,0-0.4,0c-0.2,0-0.3-0.2-0.4-0.2c-0.1-0.1-0.2-0.1-0.4,0c-0.2,0.1-0.3,0.2-0.5,0.3
				C267.2,103.3,267.2,103.4,267.2,103.4z"/>
			<path class="st1" d="M259.9,109.9c0.2,0,0.3-0.1,0.5-0.2c0.2-0.1,0.3-0.3,0.4-0.5c0.2-0.2,0.5-0.2,0.8-0.1
				c0.3,0.1,0.5,0.2,0.8,0.3c0.7,0.3,1.5,0.3,2.2,0.3c0.3,0,0.6-0.1,0.7-0.4c0-0.1,0-0.3,0-0.4c-0.1-0.4-0.3-0.7-0.6-1
				c-0.1-0.1-0.1-0.1-0.2-0.2c-0.1-0.1-0.2-0.1-0.3-0.1c-0.3,0-0.7,0-1,0c-0.2,0-0.4-0.1-0.4-0.4c0-0.2,0.1-0.3,0.1-0.5
				c0-0.2-0.2-0.3-0.3-0.4c-0.1-0.1-0.2-0.1-0.4-0.1c-1.6,1-3.2,2.1-4.7,3.1c0.4,0.3,0.9,0.4,1.4,0.5
				C259.2,110,259.6,109.9,259.9,109.9z"/>
			<path class="st1" d="M251.8,113.9c0,0,0.1,0,0.1,0c0.7,0.1,1.5,0.2,2.2,0.2c0.9,0,1.7-0.1,2.6-0.2c0.3,0,0.6-0.1,0.8-0.2
				c0.1-0.1,0.2-0.2,0.3-0.3c0.3-0.3,0.5-0.7,0.8-1c0.1-0.1,0.2-0.2,0.2-0.3c0-0.1,0-0.2,0-0.3c0-0.2,0-0.4-0.1-0.5
				c-0.2-0.3-0.6-0.4-1-0.4c-0.6,0-1.3-0.1-1.9-0.1c-1.4,1-2.7,2-4.1,3.1c0,0,0,0,0,0C251.7,113.8,251.8,113.8,251.8,113.9z"/>
			<path class="st1" d="M334.1,117.1c1-0.8,1.2-2.1,1.5-3.3c0.3-1.6,0.8-3.3,2-4.5c1-0.9,2.3-1.4,3.2-2.4c1.1-1.2,1.4-3.1,2.7-4.2
				c1-0.8,2.4-0.9,3.6-1.5c1.2-0.5,2.2-2,1.5-3.1c-2.2-1.1-4.7-0.4-7.1,0.1c-6.2,1.2-12.6,0.3-18.8-0.2c-0.9-0.1-1.8-0.1-2.7,0.1
				c-1.9,0.5-3.4,2.1-5.4,2.2c-1.4,0.1-2.7-0.7-4-1.1c-1.7-0.5-3.5-0.5-5.2,0c-0.6,0.2-1.2,0.4-1.7,0.1c-0.7-0.4-0.7-1.3-1.2-1.8
				c-0.9-0.9-2.4-0.1-3.5,0.5c-2.4,1.2-5.3,1-8.1,0.8c-1.5-0.1-3-0.4-4.5-0.5c-0.3,0-0.7-0.1-1,0c-1.1,0.3-1.5,1.7-2.6,2.2
				c-0.9,0.5-2,0.1-3-0.1c-1.2-0.3-2.5-0.4-3.8-0.3c0,0.2,0,0.4,0,0.6c-0.9,0.1-1.9,0-2.8,0c-0.9,0.1-1.9,0.3-2.5,1.1
				c-0.1,0.1-0.2,0.2-0.2,0.4c0,0.2,0.1,0.3,0.2,0.4c1.3,1.2,3,1.9,4.7,1.8c0.3,0,0.7,0,1,0.1c0.3,0.1,0.5,0.5,0.3,0.8
				c-1.8-0.1-3.6-0.3-5.4-0.4c-0.2,0-0.5,0-0.7,0.1c-0.1,0.1-0.2,0.2-0.3,0.3c-0.6,0.5-1.4,0.6-2.2,0.4c0.3,0.7,1,1.2,1.8,1.4
				c0.7,0.2,1.5,0.2,2.3,0.2c1.9,0,3.8,0.1,5.7,0.2c0.6,0,1.3,0.1,1.9,0.3c0.4,0.1,0.8,0.3,1.2,0.3c0.4,0,0.7-0.3,1.1-0.5
				c2.2-1.4,4.4-2.9,6.6-4.3c0.3-0.2,0.6-0.4,1-0.3c0.5,0.1,0.8,0.6,1.3,0.8c0.5,0.2,1.2-0.1,1.7,0.1c0,0.5-0.6,0.8-1.1,0.8
				c-0.5,0-1.1,0.1-1.4,0.5c-0.2,0.3-0.1,0.7,0.1,1c0.2,0.3,0.5,0.5,0.8,0.7c0.9,0.5,1.9,1.2,2.9,1.4c2.5,0.4,4.9,1.3,7.1,2.6
				c0.4,0.2,0.7,0.4,0.9,0.8c0.4,0.6,0.2,1.5-0.2,2.1c-0.4,0.6-1,1.1-1.4,1.7c-1.9,2.5-1.4,6.2-3.3,8.8c-0.3,0.4-0.6,0.7-0.6,1.1
				c-0.1,0.7,0.4,1.4,0.9,2c0.8,0.9,1.7,2,2.2,3.1c0.3,0.6,0.6,2.5,1.6,2.4c0.1,0,0.3-0.1,0.4-0.2c1.4-0.8,2.5-0.1,3.9,0
				c1.6,0.1,3.6-0.3,4.2-1.8c0.3-0.8,0.2-1.7,0.5-2.5c0.6-1.5,2.5-1.9,4-2.2c2.7-0.6,5.3-1.8,7.8-2.9c1-0.4,2-0.9,2.9-1.4
				c1.9-1.2,3.5-3,5.7-3.5C331.6,117.8,333.1,117.9,334.1,117.1z"/>
			<path class="st1" d="M294.7,242.1c-1-0.5-1.9-1-2.9-1.5c-0.6-0.3-1.2-0.7-1.9-0.8c-0.7-0.1-1.5-0.1-2.2-0.1
				c-3.1-0.2-5.7-2.4-7.7-4.8c-2-2.4-3.7-5-6.3-6.7c-2.3-1.5-5.2-2.2-7.3-4c-0.9-0.8-1.6-1.7-2.5-2.4c-1.1-0.9-2.4-1.5-3.7-2
				c-1.1-0.5-2.2-1-3.4-1.5c-1-0.5-2.1-0.9-3.2-1c-1-0.1-2,0.1-3,0.3c-0.1,0-0.3,0.1-0.4,0.1c-1,0-2.1,0.4-3,0.6
				c-1.1,0.2-2.2,0.4-3.3,0.8c-0.3,0.1-0.6,0.2-0.6,0.5c0,0.2,0.1,0.3,0.2,0.4c0.1,0.3-0.2,0.7-0.5,0.8c-0.3,0.1-0.7,0.2-1,0.3
				c-0.2,0.1-0.4,0.3-0.6,0.5c-1.1,1.1-1.9,2.3-2.5,3.7c-0.3,0.5-0.5,1.2-0.2,1.7c0.1,0.1,0.2,0.3,0.3,0.4c0.1,0.2,0.1,0.5,0,0.7
				c-0.3,1.9-1.4,3.6-1.4,5.5c0,0.2,0,0.4,0.1,0.5c0.1,0.3,0.5,0.5,0.6,0.9c0.2,0.6-0.4,1.1-0.9,1.4c-0.3,0.2-0.6,0.4-1,0.6
				c-0.4,0.3-0.8,0.6-1.1,1c-0.1,2.4-2.7,4.2-2.7,6.6c0,1.5,1.1,2.9,2.4,3.7c0.3,0.2,0.7,0.4,0.9,0.7c0.4,0.5,0.3,1.2,0,1.8
				c-0.3,0.6-0.7,1-1.1,1.6c-1,1.6-0.7,3.7,0.3,5.3c1,1.6,2.7,2.6,4.5,3.1c0.6,0.2,1.2,0.3,1.7,0.7c0.7,0.5,0.9,1.4,1.5,2.1
				c1.1,1.4,3.3,1.7,4.4,3.1c0.6,0.7,0.8,1.7,1.3,2.4c0.3,0.4,0.7,0.8,1,1.3c0.4,0.8,0,1.7,0.1,2.5c0.1,0.9,0.9,1.7,1.1,2.6
				c0.2,0.9-0.1,1.8-0.3,2.7c-0.6,2.8-0.5,5.8,0.3,8.6c-0.2,4.3,0.5,8.7,2,12.7c0.4,0.9,0.8,1.8,1,2.8c0.5,2.2-0.1,4.5-0.1,6.8
				c0,4.8,2.9,9.1,5.7,13.1c0.9,1.3,1.8,2.6,2.7,3.9c0.7,1,1.4,2.1,2.4,2.8c2.3,1.8,5.4,1.9,8.3,1.6c0.2,0,0.5-0.1,0.6-0.2
				c0.2-0.3,0-0.7-0.2-1c-1.2-1.7-2.5-3.3-3.7-5c-0.5-0.7-1.1-1.5-1.4-2.3c-0.2-0.7-0.2-1.5-0.1-2.2c0.1-3.2,0.3-6.4,0.4-9.6
				c0-0.7,0.1-1.5,0.4-2.1c0.3-0.5,0.8-0.9,1.3-1.2c1.4-1.1,2.9-2.1,4.6-2.7c0.2-0.1,0.4-0.1,0.6-0.3c0.3-0.4,0-0.9-0.1-1.4
				c-0.1-0.5,0.1-1,0.3-1.4c0.7-1.6,1.6-3.4,3.2-4.3c0.5-0.3,1.1-0.5,1.5-0.9c0.4-0.4,0.7-0.8,1-1.3c0.9-1.6,2.6-3,3-4.8
				c0.4-1.6,0.7-3.1,1.1-4.7c0.6-2.6,1.5-5.6,4.1-6.5c0.8-0.3,1.7-0.3,2.6-0.6c2.3-0.7,3.7-3.2,4.2-5.6c0.8-3.9,0-8.1,1.1-11.9
				c0.6-2.3,1.9-4.3,2.8-6.5c0.9-2.2,1.4-4.7,0.5-6.9C299.4,244.7,296.9,243.3,294.7,242.1z"/>
			<path class="st1" d="M418.3,118.1c-1,0.3-2,0.7-3,1.1c-1.4,0.6-3,0.6-4.5,0.5c-0.9-0.1-1.7-0.2-2.6-0.1c-0.4,0.1-0.8,0.2-1.1,0
				c-0.3-0.2-0.4-0.5-0.5-0.7c-0.6-0.9-1.9-1-3.1-1.1c-1.7,0-3.3,0-4.9,0.4c-0.7,0.2-1.4,0.5-2.2,0.6c-1.4,0.1-2.8-0.6-4-1.3
				c-0.8-0.5-1.7-1.2-2.6-1.6c-0.9-0.3-2,0-2.9,0.1c-0.6,0.1-0.8,0.2-1.2,0.6c-0.4,0.4-0.8,0.5-1.4,0.6c-1.3,0.2-2.6,0.4-3.9,0.5
				c-2,0.1-4,0.8-5.6,1.9c-1.6,1.2-2.9,2.9-3.3,4.9c-0.1,0.4-0.1,0.8-0.2,1.2c-0.4,1.2-1.6,1.9-2.8,2.3c-1.3,0.4-3.3,0.4-4.3,1.3
				c-1,1-1.4,3-0.9,4.2c0.6,1.3,2.1,2,3.5,2.1c1.4,0,2.8-0.5,4.1-1.2c0.6-0.3,1.2-0.6,1.9-0.6c0.7,0,1.4,0.5,1.4,1.1
				c0,0.5-0.4,1-0.6,1.5c-0.6,1.4,0.5,2.9,1.8,3.7c0.5,0.3,1,0.5,1.5,0.3c0.7-0.2,1-1,1.4-1.7c0.9-1.7,2.7-2.7,4-4.1
				c0.3-0.4,0.7-0.8,0.6-1.3c-0.1-0.8-0.9-1.2-1.6-1.5c-0.7-0.3-1.6-0.6-1.8-1.3c-0.2-0.7,0.3-1.5,0.9-2c1.7-1.5,3.8-2.2,6-2.9
				c0.4-0.1,0.9-0.3,1.3,0c0.5,0.4,0.3,1.3-0.3,1.6c-0.6,0.3-1.3,0-1.8-0.3c0.2,1.7,0.7,3.4,1.5,4.9c0.2,0.4,0.5,0.9,0.4,1.3
				c-0.1,0.3-0.2,0.5-0.4,0.7c-1.4,2-2.4,4.3-2.8,6.7c-0.2,1.1-0.3,2.2-1,3c-0.7,0.8-1.9,1.1-3,1.2c-1.9,0.1-3.7-0.2-5.5-0.9
				c-1.2-0.5-2.5-1.2-3.7-0.9c0.1-0.8,0.2-1.7-0.1-2.5c-0.2-0.8-0.8-1.6-1.6-1.8c-0.5-0.1-1,0-1.2,0.4c-0.1,0.2-0.1,0.4-0.1,0.7
				c0,1-0.1,2.1-0.5,3.1c-0.1,0.3-0.3,0.7-0.6,0.9c-0.2,0.1-0.5,0.2-0.7,0.2c-0.9,0.2-1.8,0.4-2.8,0.6c-0.1,1.1-0.6,2.3-1.2,3.2
				c-1.6,2.4-4.5,3.6-7.2,4.6c-0.4,0.2-0.8,0.3-1.2,0.3c-0.6,0-1.2-0.4-1.7-0.2c-1.1,0.4-0.7,1.7-0.5,2.5c0.1,0.3,0.5,0.8,0.8,1
				c0.3,0.2,0.9,0.1,1.1,0.5c0.1,0.1,0.1,0.2,0.1,0.3c0.1,1.4,0.3,2.8,0.4,4.2c-0.8,0.1-1.7,0.2-2.5,0.1c-0.8-0.2-1.6-0.8-1.8-1.6
				c-0.4-0.2-1,0-1.3,0.4c-0.4,0.4-0.6,0.8-1.1,1c-0.6,0.3-1.5,0.1-2,0.6c-0.2,0.2-0.3,0.5-0.4,0.8c-0.3,0.8-0.6,1.6-0.7,2.4
				c-0.2,1.2,0.3,2.3,0.3,3.4c0,0.9-0.5,2,0.4,2.7c-0.8,0.3-1.5,0.9-2,1.6c0.7,0.9,1.3,1.9,2,2.8c0.2-0.4,0.6-0.7,1-0.8
				c0.8,1.4,2.4,2.4,4.1,2.6c1.7,0.1,3.4-0.6,4.4-2c0.3-0.4,0.5-0.8,0.9-1.1c0.6-0.5,1.5-0.7,2.2-1.2c1.4-1,1.7-2.9,2.4-4.5
				c0.4-0.9,1.1-1.8,2.1-1.6c0.4,0.1,0.7,0.3,1.1,0.4c0.7,0.2,1.5-0.2,2-0.8c0.5-0.6,0.8-1.2,1.2-1.9c0.8-1.3,2.1-2.3,3.6-2.6
				c0.1,0,0.3,0,0.4,0c0.2,0.1,0.3,0.2,0.3,0.4c0.8,1.5,2,2.9,3.4,3.9c1.1,0.8,2.3,1.4,3.3,2.2c1.3,1.1,2.8,3.2,0.9,4.5
				c-0.2,0.2-0.5,0.3-0.8,0.3c-0.3,0-0.6-0.1-0.9-0.2c-0.2-0.1-0.4-0.1-0.6-0.1c-0.5,0-0.9-0.1-1.4-0.1c0,0-0.1,0-0.1,0
				c0,0,0,0.1-0.1,0.1c-0.4,0.9,0,1.6,0.9,1.8c0.8,0.2,1.7,0.9,2.5,1c0.9,0.1,1-1.2,1.4-1.8c0.1-0.1,0.1-0.2,0.2-0.3
				c0.1,0,0.2,0,0.3,0c0.4,0,0.6-0.3,0.9-0.6c0.2-0.3,0.4-0.6,0.7-0.8c0.3-0.2,0.6-0.3,0.7-0.6c0.1-0.2,0.1-0.4,0.1-0.6
				c0-0.3-0.1-0.7-0.3-0.9c-0.2-0.2-0.5-0.3-0.7-0.4c-1-0.8,0.4-0.9,0.9-0.8c0.4,0.1,1.4,0.4,1.2-0.3c0-0.3-0.2-0.5-0.5-0.6
				c-0.3-0.3-0.7-0.5-1.1-0.7c-0.4-0.1-0.8-0.2-1.2-0.4c-0.7-0.4-0.9-1.1-1.4-1.6c-0.5-0.6-1.4-1-2.1-1.3c-0.3-0.1-0.7-0.2-1-0.5
				c-0.8-0.7-0.5-2-1.2-2.7c-0.2-0.2-0.6-0.4-0.7-0.7c-0.2-0.4,0.2-0.9,0.7-1c0.5,0,0.9,0.2,1.3,0.5c1.5,1.2,2.3,3.3,4,4
				c0.6,0.3,1.3,0.3,1.8,0.7c1.2,0.6,1.6,2.1,1.6,3.4c0,0.4,0,0.8,0.2,1.2c0.2,0.3,0.5,0.4,0.7,0.6c0.7,0.5,1.4,1.1,1.7,1.9
				c0.3,0.7,0.5,1.5,0.8,2.2c0.3,0.7,0.8,1.4,1.6,1.6c0.9,0.2,2.6-0.3,3.2-0.9c0.6-0.6,0.1-0.7-0.2-1.3c-0.4-0.8-0.3-1.9-0.2-2.8
				c0.1-1,1.4-1,2-0.5c0.5,0.4,0.7,1.1,0.8,1.7c0,0.2,0,0.5,0.1,0.7c0.2,0.5,0.8,0.6,1.3,0.7c2.1,0.4,4.3,0.3,6.5,0.6
				c1.6,0.2,3.2,0.6,4.8,1c0.3,0.1,0.6,0.2,0.9,0.3c0.2,0.1,0.4,0.3,0.6,0.5c0.6,0.7,1.1,1.7,0.7,2.5c-0.2,0.4-0.5,0.6-0.8,0.9
				c-1,1-1.1,2.3-1.7,3.6c-0.3,0.6-0.8,0.6-1.3,1c-0.6,0.4-1.1,0.9-1.4,1.5c-0.2,0.4-0.4,0.8-0.8,1c-0.3,0.2-0.7,0.2-1.1,0.2
				c-1.8,0.1-3.6,0.1-5.4,0.2c-1.1,0-2.2,0.1-3.1-0.3c-0.8-0.3-1.4-0.9-2.1-1.3c-1.2-0.7-2.6-1-4-0.9c-2.2,0.2-4.5,1.5-6.6,0.7
				c-1.2-0.4-2-1.5-3.2-1.9c-0.9-0.4-2-0.4-2.8-1c-1-0.8-1.1-2.3-1.5-3.5c-1-2.7-4.6-4-7.2-2.6c-0.8,0.5-1.5,1.1-2.3,1.6
				c-1.1,0.6-2.4,0.8-3.7,1c-2.7,0.4-5.5,0.8-8.3,0.4c-0.7-0.1-1.5-0.4-2.1-0.3c-0.7,0.1-1.2,0.5-1.8,0.9c-1.3,0.8-2.5,1.6-3.7,2.6
				c-0.8,0.6-1.5,1.3-2,2.1c-1.3,2.1-1.2,4.1-1.2,6.5c0,0.2,0,0.5-0.1,0.7c-0.2,0.4-0.7,0.5-1.1,0.6c-1.1,0.4-2,1.2-2.9,2
				c-1.5,1.4-2.9,2.7-3.8,4.5c-0.5,1.1-0.8,2.3-1,3.4c-0.2,1.4-0.2,2.9,0,4.3c0.1,0.7,0.2,1.4,0.2,2.1c-0.1,0.7-0.4,1.4-0.7,2.1
				c-0.7,1.6-1.5,3.2-2.2,4.8c-0.2,0.4-0.3,0.8-0.3,1.2c0,0.2,0.2,0.4,0.3,0.6c2.9,4.5,6.3,8.7,10.6,11.9c0.7,0.5,1.3,0.9,2.1,1.1
				c1.8,0.4,3.5-0.9,5.2-1.4c3-0.9,6.2,0.3,9.3,0.5c0.6,0,1.2,0,1.7-0.2c0.4-0.2,0.8-0.5,1.2-0.7c1.4-0.7,3.1-0.1,4.5,0.4
				c1.8,0.7,3.6,1.5,4.9,3c1.2,1.5,1.7,3.6,1.2,5.4c-0.4,1.7-1.6,3.3-1.2,5c0.9,3.9,4.2,6.7,5.7,10.4c0.8,1.9,0.9,4.1,2.4,5.5
				c0.2,0.2,0.5,0.4,0.6,0.7c0.1,0.5-0.4,1-0.8,1.3c-2.3,1.9-3,5.5-1.5,8.2c0.3,0.5,0.6,0.9,0.7,1.5c0.1,0.7-0.1,1.4-0.2,2.1
				c-0.3,2,0.7,4,1,6c0.3,1.7,0.1,3.4,0.4,5c0.2,1.7,0.8,3.4,1.4,5c1.2,3.2,2.3,6.4,3.5,9.6c2.4,1.2,5.4,0.2,7.9-0.9
				c3-1.3,6.1-2.7,8.6-4.8c3.6-3.2,5.5-7.8,7.2-12.3c0.1-0.4,0.3-0.7,0.7-0.9c0.3-0.1,0.6,0,1,0c1.8,0.2,3.1-1.8,3.1-3.6
				c0-1.8-0.7-3.5-0.9-5.3c0-0.3,0-0.6,0.2-0.8c0.2-0.2,0.5-0.2,0.8-0.2c1.2-0.1,2.2-1.1,3.1-1.9c1.4-1.4,2.9-2.9,3.6-4.8
				c0.5-1.2,0.6-2.4,0.7-3.6c0.5-5.2,0.5-10.4,0.1-15.6c0-0.5-0.1-1.1,0.1-1.6c0.3-1,1.2-1.6,1.9-2.3c1.2-1.1,2-2.6,3.3-3.7
				c1.2-1,2.6-1.8,3.8-2.8c0.8-0.6,1.5-1.2,2.1-1.9c1.4-1.5,2.1-3.5,2.7-5.4c0.3-0.9,0.5-1.8,0.5-2.7c-0.2-4.7-6.9-0.6-9.6-1.4
				c-1.5-0.4-2.6-1.7-3.7-3c-0.6-0.7-1.1-1.4-1.5-2.1c-0.6-1.2-0.9-2.5-1.4-3.8c-0.9-2.1-2.5-3.9-4.5-5c-0.3-1.3-1.2-2.7-2.1-3.7
				c-0.5-0.6-1.1-1.1-1.6-1.8c-0.5-0.7-0.8-1.5-1.1-2.2c-0.5-1.4-1.1-2.9-1.6-4.3c-0.4-1-0.8-2.2-0.4-3.2c0.5-1.2,2-1.8,3.1-1.2
				c0.5,0.2,0.9,0.7,1.3,1.1c1.6,1.7,3.1,3.4,4.7,5.1c0.6,0.7,1.2,1.3,1.6,2.1c0.4,0.8,0.6,1.7,0.8,2.6c0.3,1.6,0.6,3.1,0.9,4.7
				c0.5,2.6,1.1,5.5,3.1,7.3c1.3,1.2,3.2,1.8,4.9,1.7c0.3,0,0.6-0.1,0.8-0.2c0.2-0.1,0.4-0.3,0.5-0.4c0.5-0.3,1.1-0.4,1.7-0.5
				c2-0.4,3.5-1.8,5-3.2c1.6-1.6,3.2-3.2,5.2-4.1c0.9-0.4,1.8-0.6,2.6-1.1c1.6-0.9,2.6-2.7,2.5-4.6c0-0.2,0-0.4-0.1-0.5
				c-0.1-0.1-0.3-0.2-0.4-0.2c-1.5-0.6-2-2.4-3.1-3.6c-1.6-1.8-4.3-2-6.6-2.7c-1.7-0.5-3.4-1.4-5-2.2c-0.6-0.3-1.2-0.8-1.2-1.4
				c2.9-0.9,6.2,1.7,8.8,0.2c0,1,1.2,1.5,2.2,1.6c1,0.2,3.2,0,4,0.5c0.3,0.2,0.6,0.5,0.9,0.8c1.7,1.6,6.3,1.2,8.5,1.2
				c1.7,0,3.6,0.3,4.6,1.6c0.4,0.5,0.6,1.1,0.9,1.7c1.4,2.4,4.1,3.8,5.7,6c0.3,0.4,0.5,0.8,0.7,1.2C459.7,170,443,139.5,418.3,118.1
				z"/>
			<path class="st1" d="M348.9,137.8c0.2,0.2,0.4,0.2,0.7,0.3c0.8,0.4,1.2,1.5,0.7,2.3c-0.1,0.2-0.2,0.3-0.4,0.4
				c-0.2,0.1-0.3,0.1-0.5,0.1c-0.5,0.1-1.1,0.1-1.6,0.2c-0.1,0-0.3,0-0.4,0.1c-0.1,0.1-0.2,0.3-0.2,0.5c-0.1,0.3-0.1,0.7-0.2,1
				c0,0.1-0.1,0.2-0.1,0.3c-0.2,0.2-0.4,0.2-0.7,0.1c-0.2-0.1-0.4-0.2-0.7-0.2c-0.5,0.1-0.7,0.6-0.8,1.1c-0.1,0.4-0.1,0.7,0,1.1
				c0.1,0.2,0.3,0.3,0.4,0.4c0.1,0.2,0.2,0.4,0.1,0.5c-0.1,0.1-0.3,0.1-0.4,0.2c-0.5,0.2-0.8,0.8-0.6,1.2c0.2,0.5,0.8,0.8,1.3,0.8
				c0.6,0,1.1-0.2,1.6-0.4c0.7-0.3,1.5-0.6,2.2-0.9c0.3-0.1,0.5-0.2,0.7-0.5c0.5-0.5,0.2-1.3,0.3-2c0.1-0.8,0.6-1.5,1.2-2.2
				c0.1-0.1,0.2-0.2,0.3-0.3c0.4-0.3,1.1-0.1,1.4,0.3c0.3,0.4,0.4,1,0.3,1.5c0,0.4-0.1,0.8-0.4,1c-0.3,0.3-0.8,0.3-1,0.7
				c-0.3,0.4,0,1-0.1,1.5c-0.3,0.2-0.8-0.1-1,0.2c-0.1,0.2-0.1,0.4,0,0.6c0.3,0.5,1,0.5,1.5,0.5c0.1,0,0.2,0,0.2,0.1
				c0.1,0.1,0.1,0.2,0.1,0.3c0,0.4-0.2,0.7-0.5,1c-0.3,0.2-0.6,0.3-0.9,0.4c-0.3,0.1-0.6,0.3-0.8,0.5c-0.2,0.3-0.2,0.7,0.1,0.9
				c0.3,0.2,0.8,0,1.1-0.2c0.5-0.3,0.9-0.7,1.4-1c1.8-1,4.2-0.3,5.9-1.5c0.6-0.4,1-1.1,1.3-1.7c0.2-0.4,0.3-0.9,0.2-1.3
				c-0.2-0.5-0.6-0.6-1-0.9c-1.9-1.1-3.5-2.9-4.4-4.9c-0.2-0.3-0.3-0.7-0.2-1.1c0-0.1,0-0.1,0.1-0.2c0.1-0.1,0.2-0.1,0.2-0.1
				c0.4-0.1,0.7-0.3,0.8-0.6c0.1-0.4,0-0.8-0.3-1c-0.4-0.2-0.8-0.1-1.2-0.3c0,0-0.1-0.1-0.1-0.1c-0.1-0.2,0.2-0.2,0.3-0.4
				c0.1-0.1,0.1-0.4,0-0.5c-0.1-0.1-0.4-0.2-0.6-0.2c-0.7-0.1-1.4,0.1-1.9,0.5c-0.3,0.2-0.5,0.4-0.7,0.6c-0.6,0.5-1.5,0.6-2.3,0.6
				c-0.2,0-0.3,0-0.4,0.1C348.6,137.3,348.7,137.6,348.9,137.8z"/>
		</g>
		<g>
			<g>
				<path class="st4" d="M404.6,139.8l4.3,12.4l-0.2-0.1l-1.3,1.5l2.4,1.2l4.6,13.4L414,168l-1.3,1.5l2.5,1.2l4.6,13.6l-0.1,0
					l-1.3,1.5l2.2,1.1l4.6,13.3l-0.3-0.1l-1.3,1.5l2.5,1.2l4.6,13.6l0,0l-1.3,1.5l2.2,1.1l4.6,13.3l-0.3-0.1l-1.3,1.5l2.5,1.2
					l4.6,13.4l-0.4-0.2l-1.3,1.5l2.5,1.2l4.6,13.4l-0.4-0.2l-1.3,1.5l2.6,1.3l4.6,13.6l-0.2-0.1l-1.3,1.5l2.4,1.1l4.6,13.4l-0.3-0.1
					l-1.3,1.5l2.4,1.2l4.6,13.5l-0.2-0.1l-1.3,1.5l2.3,1.1l4.6,13.4l-0.2-0.1l-1.3,1.5l2.4,1.2l4.6,13.3l-0.5-0.2l-1.3,1.5l2.7,1.3
					l4.6,13.5l-0.4-0.2l-1.3,1.5l2.6,1.2l4.6,13.6l-0.1-0.1l-1.3,1.5l2.3,1.1l1.8,5.1c0.2,0.6,0,1.2-0.6,1.4c-0.6,0.3-1.3,0-1.5-0.7
					l-83.4-243.7C402.3,140.3,403.5,139.3,404.6,139.8L404.6,139.8z"/>
				<path class="st4" d="M518.5,376l-2.7-1.3l-4.6-13.6l0.3,0.1l1.3-1.5l-2.5-1.2l-4.6-13.5l0.2,0.1l1.3-1.5l-2.4-1.1l-4.6-13.3
					l0.4,0.2l1.3-1.5l-2.6-1.3l-4.6-13.4l0.5,0.2l1.3-1.5l-2.7-1.3l-4.6-13.5l0.4,0.2l1.3-1.5l-2.6-1.2l-4.6-13.4l0.5,0.2l1.3-1.5
					l-2.7-1.3l-4.6-13.6l0.2,0.1l1.3-1.5l-2.4-1.2l-4.6-13.4l0.3,0.2l1.3-1.5l-2.5-1.2l-4.6-13.4l0.4,0.2l1.3-1.5l-2.6-1.2
					l-4.6-13.3l0.6,0.3l1.3-1.5l-2.8-1.3l-4.6-13.6l0.4,0.2l1.3-1.5l-2.6-1.2l-4.6-13.3l0.6,0.3l1.3-1.5l-2.8-1.3l-4.6-13.6l0.4,0.2
					l1.3-1.5l-2.5-1.2l-4.6-13.4l0.5,0.2l1.3-1.5l-2.6-1.3l-3-8.7c-0.4-1.1,0.8-2.1,1.8-1.6l0,0l81.4,238.5c0.2,0.6-0.2,1.3-0.8,1.5
					c-0.6,0.1-1.2-0.2-1.3-0.8l-0.5-2l0.5,0.3L518.5,376z"/>
				<polygon class="st4" points="511.1,361.2 480.9,363 480,360.4 510.2,358.6 				"/>
				<polygon class="st4" points="478.3,361.8 479.6,360.3 480,360.4 480.9,363 				"/>
				<polygon class="st4" points="512.7,359.8 511.4,361.3 511.1,361.2 510.2,358.6 				"/>
				<polygon class="st4" points="485.4,376.5 485.6,376.6 486.4,379.2 484.1,378.1 				"/>
				<polygon class="st4" points="518.5,376 517.2,377.6 516.6,377.3 515.7,374.7 				"/>
				<polygon class="st4" points="505.6,345.1 475.4,347 474.5,344.4 504.7,342.5 				"/>
				<polygon class="st4" points="472.8,345.7 474.1,344.1 474.5,344.4 475.4,347 				"/>
				<polygon class="st4" points="507.1,343.7 505.8,345.2 505.6,345.1 504.7,342.5 				"/>
				<polygon class="st4" points="500.2,329.2 470,331.1 469.1,328.5 499.3,326.6 				"/>
				<polygon class="st4" points="467.6,329.9 468.9,328.4 469.1,328.5 470,331.1 				"/>
				<polygon class="st4" points="501.9,327.9 500.6,329.4 500.2,329.2 499.3,326.6 				"/>
				<polygon class="st4" points="494.7,313.2 464.5,315.1 463.6,312.5 493.8,310.6 				"/>
				<polygon class="st4" points="462.2,314 463.5,312.4 463.6,312.5 464.5,315.1 				"/>
				<polygon class="st4" points="496.5,311.9 495.2,313.5 494.7,313.2 493.8,310.6 				"/>
				<polygon class="st4" points="489.2,297.1 459,299 458.1,296.4 488.3,294.6 				"/>
				<polygon class="st4" points="456.6,297.8 457.9,296.3 458.1,296.4 459,299 				"/>
				<polygon class="st4" points="490.9,295.8 489.6,297.4 489.2,297.1 488.3,294.6 				"/>
				<polygon class="st4" points="483.7,281.2 453.6,283 452.7,280.4 482.8,278.6 				"/>
				<polygon class="st4" points="451.2,281.9 452.5,280.3 452.7,280.4 453.6,283 				"/>
				<polygon class="st4" points="485.5,279.9 484.2,281.4 483.7,281.2 482.8,278.6 				"/>
				<polygon class="st4" points="478.2,265 448,266.9 447.1,264.3 477.3,262.4 				"/>
				<polygon class="st4" points="445.4,265.6 446.7,264.1 447.1,264.3 448,266.9 				"/>
				<polygon class="st4" points="479.7,263.6 478.5,265.1 478.2,265 477.3,262.4 				"/>
				<polygon class="st4" points="472.7,249 442.6,250.9 441.7,248.3 471.9,246.4 				"/>
				<polygon class="st4" points="440,249.7 441.3,248.1 441.7,248.3 442.6,250.9 				"/>
				<polygon class="st4" points="474.3,247.6 473.1,249.2 472.7,249 471.9,246.4 				"/>
				<polygon class="st4" points="467.3,233 437.1,234.9 436.2,232.3 466.4,230.5 				"/>
				<polygon class="st4" points="434.6,233.7 435.9,232.2 436.2,232.3 437.1,234.9 				"/>
				<polygon class="st4" points="469,231.7 467.7,233.2 467.3,233 466.4,230.5 				"/>
				<polygon class="st4" points="461.8,217.1 431.7,219 430.8,216.4 460.9,214.5 				"/>
				<polygon class="st4" points="429.4,217.9 430.7,216.4 430.8,216.4 431.7,219 				"/>
				<polygon class="st4" points="463.8,215.9 462.5,217.4 461.8,217.1 460.9,214.5 				"/>
				<polygon class="st4" points="456.3,201 426.1,202.8 425.2,200.3 455.4,198.4 				"/>
				<polygon class="st4" points="423.7,201.7 424.9,200.1 425.2,200.3 426.1,202.8 				"/>
				<polygon class="st4" points="458,199.6 456.7,201.2 456.3,201 455.4,198.4 				"/>
				<polygon class="st4" points="450.9,185.1 420.7,186.9 419.8,184.3 450,182.5 				"/>
				<polygon class="st4" points="418.5,185.9 419.7,184.3 419.8,184.3 420.7,186.9 				"/>
				<polygon class="st4" points="452.8,183.8 451.5,185.4 450.9,185.1 450,182.5 				"/>
				<polygon class="st4" points="445.3,168.9 415.2,170.8 414.3,168.2 444.5,166.3 				"/>
				<polygon class="st4" points="412.7,169.6 414,168 414.3,168.2 415.2,170.8 				"/>
				<polygon class="st4" points="447,167.6 445.7,169.1 445.3,168.9 444.5,166.3 				"/>
				<polygon class="st4" points="439.9,152.9 409.7,154.8 408.8,152.2 439,150.4 				"/>
				<polygon class="st4" points="407.3,153.6 408.6,152.1 408.8,152.2 409.7,154.8 				"/>
				<polygon class="st4" points="441.6,151.6 440.3,153.2 439.9,152.9 439,150.4 				"/>
			</g>
		</g>
		<g>
			<path class="st5" d="M428.3,40.3c-0.7,0.8-2.3,4.7-4.7,12.5c-2.3,7.5-12.2,8.2-14.1,8.6c-1.2,0.2-12.9,2.3-14.1,3.1
				c0,1.2,0,2.7,0,2.7s11.5-1.2,14.1-1.6c3.1-0.4,11.8,0,14.1-3.1c2.3-3.1,9.2-12.2,10.2-16.4c0.8-3.5-0.6-6.4-1.2-8.2
				C432.1,36.3,430.6,37.5,428.3,40.3z"/>
			<path class="st15" d="M430.6,41.6c5.4-1,2.6,3.1,2.5,4.3c0,0.4-1.7,1.8-4.1,3.5l-2-6.7C428.3,42.3,429.5,41.9,430.6,41.6z"/>
			<path class="st5" d="M441.2,152.5c0,0,2.7,5.6,1.7,9.1c-0.8,2.7-3.7,3.2-3.7,3.2s1.4,1.1,3.6,1.3c2.2,0.2,5.5,0.1,5.8-0.8
				s-1.1-4.2-1.5-7.4c-0.4-3.2-0.9-7.3-1.4-8.7C445.1,147.9,441.2,152.5,441.2,152.5z"/>
			<path class="st13" d="M441.3,163.8c0,0-7.4,2.3-7.7,3c-0.3,0.7,0.4,1.4,2,1.6c1.6,0.2,12.7-0.3,13.7-0.8c0.6-0.3-0.2-4-0.6-3.8
				c-0.5,0.2,0.3,1.4-2.6,1.4c-2.9,0-3.7,0.1-4.5-0.8C441.3,163.8,441.3,163.8,441.3,163.8z"/>
			<path class="st5" d="M412.8,139c0,0,0.6,5.5-0.4,9c-0.8,2.7-3.7,3.2-3.7,3.2s1.4,1.1,3.6,1.3c2.2,0.2,5.5,0.1,5.8-0.8
				s-1.5-3.4-1.5-7.4c0-3.2-0.9-7.3-1.4-8.7C414.6,134.3,412.8,139,412.8,139z"/>
			<path class="st13" d="M410.6,150.2c0,0-7.2,2.3-7.5,3c-0.3,0.7,0.4,1.4,1.9,1.6c1.5,0.2,12.4-0.3,13.3-0.8c0.6-0.3-0.2-4-0.6-3.8
				c-0.5,0.2,0.3,1.4-2.5,1.4c-2.8,0-3.6,0.1-4.3-0.8C410.6,150.2,410.6,150.2,410.6,150.2z"/>
			<path class="st16" d="M430,52.9l-2.3,1.9c-0.7,0.6-1.9,0.4-2.3-0.5c-0.2-0.5-0.5-1.1-0.8-1.7c1.6-1,3.1-2.1,4.4-3L430,52.9z"/>
			<path class="st6" d="M442.8,159.7c-5.9-22.6-16.4-78.6-16.4-78.6s8.5,0.2,12.1,0c4.7,2.5,7.8,9.5,8.2,22.2
				c0.4,12.7-4.2,16.7-1.5,24.9c1.7,5.2,2.1,22.4,2.2,31L442.8,159.7z"/>
			<path class="st12" d="M412.6,146.6l-2-19.5c-0.4-4.1-0.7-9.9,0.8-13.7L425.3,81h13.3c0,0,4.7,15.3-7.7,25.9
				c-2.7,2.3-10.7,9-13.1,12.8c1.8,2.5,2.2,10.3,0.7,15.3c-1.2,4.1-1.6,8.2-1.7,11.4L412.6,146.6z"/>
			<linearGradient id="SVGID_2_" gradientUnits="userSpaceOnUse" x1="421.0204" y1="33.3626" x2="447.4284" y2="33.3626">
				<stop  offset="0" style="stop-color:#09005D"/>
				<stop  offset="1" style="stop-color:#1A0F91"/>
			</linearGradient>
			<path class="st17" d="M447.1,47.6c-0.4,1.1-1.8,2-3.9,0.9c-1.3-0.7-2.8,0.2-4.1,0.9s-2.9,1.1-4.1,0.4c-0.3-0.2-0.6-0.5-1-0.7
				c0,0-0.1-0.1-0.1-0.1c-0.9-0.5-2-0.5-3-0.2c-1,0.3-2,0.8-3,1.2c-1.1,0.5-2.6,0.8-3.5-0.1c-0.8-0.9-0.5-2.3-1.2-3.4
				c-0.4-0.7-1.1-1.1-1.7-1.7c-1.6-1.7,1-3.2,2-4.6c1.3-1.8,2.4-4.2,1.5-6.4c-1.7-4.3-1.3-7.9-1-9.4c0.7-4.2,3.6-7.1,6.8-7.8
				c3.2-0.7,8.1,0.5,10.2,3.2c2,2.6,2.6,5.8,2.2,9c-0.4,3.3-2.5,7.5-0.5,10.6c0.8,1.2,2.1,1.9,3.1,2.9
				C447.8,44.6,447.6,46.1,447.1,47.6z"/>
			<polygon class="st18" points="434.9,31.2 434.5,42.2 429.1,43.9 430.5,31.2 			"/>
			<path class="st19" d="M432.1,34.6c-1.3,0.8-4.6,1.7-5.5,0c-0.9-1.7-0.8-6.8-0.6-7.6c0.2-0.8,0-1.9,0.4-2.5
				c0.4-0.6,1.1-0.9,1.7-2.3c0.9,1.1,3.6,3.9,5.7,4.9c0.4,0.2,0.6,0.4,0.8,0.4c0.2,0,0.8-0.6,1.5,0c0.9,0.7,0.4,2.1-0.9,1.9v2.3
				c0,0.8-0.5,1.6-1.2,1.9L432.1,34.6z"/>
			<path class="st3" d="M421.1,52.2c1.1-2.7,2.8-8,8.3-12c0,2.7-1.1,4,2.1,0.9c1.3-1.2,2.2-2,2.9-2.7c0.2-0.1,0.3-0.3,0.4-0.4
				c0.7-0.6,1.7-0.7,2.5-0.3c0.1,0,0.1,0.1,0.2,0.1c3.6,1.8,7.2,4,5.7,15.4c-1.1,8.9-4.2,15-4.7,27.7c-4.4,0-13.3,0-13.3,0
				s0-15.7-1.1-17.6C423,61.5,419.9,54.9,421.1,52.2z"/>
			<path class="st5" d="M436.6,40.3c-0.7,0.8-4.7,7.4-5.1,16c-0.4,7.8-3.1,7.8-5.1,8.2c-1.2,0.2-12.9,2.3-14.1,3.1
				c0,1.2,0,2.7,0,2.7s11.9-0.8,14.5-1.2c3.1-0.4,4.3-0.4,6.7-3.5c2.3-3.1,7.7-11.8,8.6-16c0.8-3.5,1.3-6.9,0.4-8.6
				C441.3,38.8,438.9,37.6,436.6,40.3z"/>
			<path class="st4" d="M396.9,61.7l-11.2,4.8c-0.6,0.3-0.9,1-0.6,1.6l4.4,10.3l-7.1-4.6l-2.2-2.6l-0.1-0.1c0-0.1-0.1-0.1-0.1-0.1
				c0,0,0,0,0,0c-0.1-0.1-0.2-0.1-0.3-0.1c-0.2,0.1-0.4,0.2-0.6,0.4c-0.2,0.2-0.5,0.5-0.7,0.8c-0.7,0.8-1.1,1.7-0.9,1.9
				c0.1,0.3,0.3,0.6,0.7,0.6l3.1-0.1l9.9,8.1c0.3,0.5,0.9,0.8,1.5,0.5l11.2-4.8c4.6-2,6.7-7.3,4.7-11.8
				C406.8,61.8,401.5,59.7,396.9,61.7z M403.6,77.3l-6.3-14.7c4-1.7,8.8,0.1,10.5,4.2C409.6,70.9,407.7,75.6,403.6,77.3z"/>
			<path class="st5" d="M412.6,70.3l0.2-2.5c-1.5-0.5-1.9,0.3-2.5-0.3c-0.6-0.7-0.1-1.9-2.6-1.6c-3.8,0.6-0.6,7.5,2.5,4.6
				L412.6,70.3z"/>
		</g>
		<g>
			<path class="st19" d="M489.4,248.5c-0.6,0.6-1.8,1.3-4.3,2.6c-7,3.5-20.3,9.2-23.6,8.5c-4-0.8-6-14-8.3-23.1l0,0
				c0-0.2,0-0.4,0-0.5c-0.1-1-1.9-2.9-2.9-4.8c-2.2-4.3,3.8-5.9,4.6,0.2c0.1-0.2,1.2-0.8,1.1,0.5c0,0-0.2,1.2-0.5,3
				c0.1,0.2,0.1,0.3,0.2,0.5l0.1,0.2c3.3,6.7,7.5,10.5,8.3,17.6c0,0,9.1-6,16.5-9.8c2.8-1.4,5.3-5.4,7.5-4.4
				C493.5,241.3,490.3,247.6,489.4,248.5z"/>
			<linearGradient id="SVGID_3_" gradientUnits="userSpaceOnUse" x1="465.1854" y1="232.1614" x2="502.708" y2="232.1614">
				<stop  offset="0" style="stop-color:#09005D"/>
				<stop  offset="1" style="stop-color:#1A0F91"/>
			</linearGradient>
			<path class="st20" d="M476,210.6c-0.5,0.1-1.8,0.1-3.6,1.3c-0.7,0.5-1.6,1.9-2.5,2c-4.2,0.5-5.4,4.2-4.4,6.5
				c1.4,3.3,1.4,6.6,1.2,8.6c-0.2,1.7,0.3,3.3,1.4,4.5c4.8,5.6,17.6,20.2,21.5,20.2c4.8,0,1.6-0.8,3.2-4.1c1.6-3.3,8-1.6,8-4.9
				c0.1-3.2,4.5-7.6-0.7-11.8c-5.2-4.2-8.4-2.7-10.8-9.2C487,217.2,482.4,209.8,476,210.6z"/>
			<polygon class="st18" points="482.4,227.8 481.9,242.4 474.7,244.6 476.6,227.8 			"/>
			<path class="st19" d="M478.7,232.3c-1.8,1-6,2.3-7.3,0c-1.3-2.3-1-9.1-0.8-10.1c0.3-1,0-2.5,0.5-3.3c0.5-0.8,1.5-1.3,2.3-3
				c1.3,1.5,4.8,5.2,7.6,6.5c0.5,0.3,0.8,0.5,1,0.5c0.3,0,1-0.8,2,0c1.2,0.9,0.5,2.8-1.3,2.5v3c0,1.1-0.6,2.1-1.6,2.6L478.7,232.3z"
				/>
			<path class="st21" d="M464.1,256.6c1.5-3.5,3.8-10.6,11.1-15.9c0,3.5-1.5,5.3,2.8,1.3c1.7-1.6,2.9-2.7,3.9-3.5
				c0.2-0.2,0.4-0.3,0.6-0.5c0.9-0.8,2.2-0.9,3.3-0.4c0.1,0,0.2,0.1,0.3,0.1c4.8,2.4,9.5,5.3,7.6,20.4c-1.5,11.8-5.6,19.9-6.3,36.8
				c-5.9,0-17.6,0-17.6,0s0-20.9-1.5-23.4C466.6,268.9,462.6,260.1,464.1,256.6z"/>
			<path class="st5" d="M492.1,391.2c0,0,2.6,7.2,0.9,11.3c-1.3,3.2-5,3.4-5,3.4s1.6,1.5,4.3,2.1c2.7,0.5,6.7,0.8,7.2-0.2
				c0.5-1-0.8-5.3-0.9-9.2s-0.2-9-0.6-10.8C497.4,386,492.1,391.2,492.1,391.2z"/>
			<path class="st13" d="M490.7,405.1c0,0-9.3,1.8-9.8,2.6c-0.4,0.8,0.3,1.8,2.2,2.2c1.9,0.4,15.6,1.4,16.9,0.8
				c0.8-0.3,0.2-4.9-0.3-4.8c-0.7,0.2,0.2,1.7-3.4,1.3c-3.5-0.4-4.5-0.4-5.3-1.6C490.6,405,490.7,405.1,490.7,405.1z"/>
			<path class="st5" d="M463.9,387.6l6.4,0.9c0,5.6-5,14.2-4.6,18.5c0.3,4.3-9,0-9,0l-0.1-1.8c0,0,3.8-1.2,4.9-5.7
				c0.7-2.5,1-10.9,0.7-11.8C461.9,386.7,463.9,387.6,463.9,387.6z"/>
			<path class="st13" d="M456.6,405.2c0,0-9.3,1.9-9.8,2.7c-0.4,0.8,0.3,1.8,2.2,2.2c1.9,0.4,15.6,1.3,16.9,0.7
				c0.8-0.3,0.2-4.9-0.3-4.8c-0.7,0.2,0.2,1.7-3.4,1.4c-3.5-0.3-4.5-0.3-5.3-1.6C456.3,404.8,456.6,405.2,456.6,405.2z"/>
			<path class="st13" d="M493.1,399.4c-0.3-1.1-0.6-2.3-0.9-3.6c-8-31.3-21-101.9-21-101.9s11.5,0.3,16.4,0c6.4,3.3,10.5,12.8,11,30
				c0.5,17.2-5.6,22.5-2,33.5c2.2,6.8,2.1,25.8,2.2,37.8c0,1.5,0,2.9,0,4L493.1,399.4z"/>
			<path class="st22" d="M460.8,400.9l8.8-107h17.9c0,0,6.4,28.9-4.9,49.2c-3.7,6.7-3.6,16.6-4.6,27.4c-0.8,8.1-7.2,23.2-10.5,30.9
				L460.8,400.9z"/>
			<path class="st5" d="M436,237.6c0.8,0.3,2.1,1.3,2.1,1.3s-1.6-1.6-0.7-2.4c0.5-0.5,2.5,2,3.6,3.1c0.2,0.2,0.6,0.7,0.9,1.3
				c0.2,0.3,0.4,0.6,0.6,1c0.3,0.4,0.6,0.9,1,1.2c0.5,0.6,0.9,0.8,1.4,1.2l0,0c0.2,0.1,0.3,0.2,0.3,0.3l0,0
				c10.5,5.5,11.2,6.3,18.6,12.1c0,0,14.5-17.5,23.4-14c6.6,2.6,2.1,7.7-1.2,9.4c-1.3,0.7-21.4,13.7-25.7,11.3
				c-4.3-2.5-16-14.6-17-15.7c0,0-0.1-0.1-0.2-0.1c-0.2-0.1-0.4-0.2-0.7-0.4l0,0c-0.5-0.2-1.2-0.4-1.4-0.4c-0.6-0.2-1.5-0.5-2.1-0.7
				c-2.4-0.3-5-2.8-5.2-3c-0.3-0.3-0.1-1.1,0.5-1.1c-0.3-0.3-0.8-1.3,0.5-1.5c-0.3-0.4-0.7-1.3,0.5-1.5
				C434.6,238.5,434.7,237.2,436,237.6z"/>
		</g>
	</g>
	<path class="st23" d="M279.4,48.9c-0.1,0-0.2,0-0.3,0c-0.5,0-0.9,0-1.3,0.1c-1.5-5-5.8-8.8-11.1-9.5c-1.4-3.6-4.9-6.2-9-6.2
		c-0.6,0-1.1,0.1-1.7,0.1c-0.4-0.1-0.8-0.1-1.2-0.1c-1.5,0-2.9,0.7-3.8,1.7c-1.4-3.6-4.9-6.1-9-6.1c-2.2,0-4.3,0.8-5.9,2
		c-1-6.2-6.4-11-13-11c-4.7,0-8.8,2.4-11.1,6.1c-0.6-0.2-1.3-0.3-2-0.3c-4,0-7.3,3.3-7.3,7.3c0,0.1,0,0.2,0,0.3h0
		c-1.8,0-3.5,0.8-4.7,2c-2,1.3-3.6,3.3-4.2,5.6c-1.8-2.2-4.5-3.5-7.5-3.5c-3.8,0-7.2,2.2-8.7,5.5c-0.9-0.3-1.8-0.4-2.7-0.4
		c-5.3,0-9.7,4.3-9.7,9.7c0,0,0,0,0,0c0,0.3,0.2,0.5,0.5,0.5h40.2h21.4h24.3h15h12.8C281.8,52.8,281.9,49,279.4,48.9z"/>
	<path class="st23" d="M590.3,94.3c-0.1,0-0.2,0-0.2,0c-0.4,0-0.8,0-1.2,0.1c-1.3-4.4-5-7.7-9.7-8.2c-1.2-3.1-4.3-5.4-7.8-5.4
		c-0.5,0-1,0-1.5,0.1c-0.3-0.1-0.7-0.1-1.1-0.1c-1.3,0-2.5,0.6-3.3,1.5c-1.2-3.1-4.3-5.3-7.8-5.3c-1.9,0-3.7,0.7-5.1,1.8
		c-0.9-5.4-5.6-9.5-11.2-9.5c-4,0-7.6,2.1-9.6,5.3c-0.6-0.2-1.2-0.3-1.8-0.3c-3.5,0-6.3,2.8-6.3,6.3c0,0.1,0,0.2,0,0.3h0
		c-1.6,0-3,0.7-4.1,1.8c-1.8,1.1-3.1,2.8-3.6,4.9c-1.5-1.9-3.9-3.1-6.5-3.1c-3.3,0-6.2,1.9-7.6,4.7c-0.8-0.2-1.5-0.3-2.4-0.3
		c-4.6,0-8.4,3.7-8.4,8.4c0,0,0,0,0,0c0,0.2,0.2,0.4,0.4,0.4h34.8h18.5h21.1h13h11.1C592.4,97.6,592.5,94.4,590.3,94.3z"/>
	<path class="st23" d="M12.2,128.9c0.1,0,0.3,0,0.4,0c0.7,0,1.4,0,2.1,0.1c2.3-5.5,9.1-9.6,17.5-10.4c2.2-4,7.7-6.8,14.1-6.8
		c0.9,0,1.8,0.1,2.6,0.2c0.6-0.1,1.3-0.2,1.9-0.2c2.4,0,4.5,0.7,6,1.8c2.2-3.9,7.7-6.7,14.1-6.7c3.5,0,6.7,0.8,9.3,2.2
		c1.6-6.8,10.1-12,20.3-12c7.3,0,13.7,2.7,17.4,6.7c1-0.2,2.1-0.3,3.2-0.3c6.3,0,11.5,3.6,11.5,8c0,0.1,0,0.2,0,0.4h0
		c2.9,0,5.5,0.9,7.3,2.2c3.2,1.4,5.6,3.6,6.6,6.1c2.8-2.4,7-3.9,11.7-3.9c6,0,11.2,2.4,13.7,6c1.4-0.3,2.8-0.4,4.3-0.4
		c8.4,0,15.1,4.7,15.1,10.6c0,0,0,0,0,0c0,0.3-0.4,0.5-0.8,0.5h-63H94H55.9H32.3h-20C8.4,133.1,8.2,129,12.2,128.9z"/>
</g>
</svg>
