<?xml version="1.0" encoding="utf-8"?>
<!-- Generator: Adobe Illustrator 24.3.0, SVG Export Plug-In . SVG Version: 6.00 Build 0)  -->
<svg version="1.1" id="Layer_1" xmlns="http://www.w3.org/2000/svg" xmlns:xlink="http://www.w3.org/1999/xlink" x="0px" y="0px"
	 viewBox="0 0 626 443" style="enable-background:new 0 0 626 443;" xml:space="preserve">
<style type="text/css">
	.st0{fill:#F4F4EA;}
	.st1{fill:#DCE4EF;}
	.st2{fill:#78BCFF;}
	.st3{fill:#3984FF;}
	.st4{fill:#FFFFFF;}
	.st5{fill:#FAE7EC;}
	.st6{fill:url(#SVGID_1_);}
	.st7{fill:url(#SVGID_2_);}
	.st8{fill:#F8BC9E;}
	.st9{fill:#EAA983;}
	.st10{fill:url(#SVGID_3_);}
	.st11{fill:url(#SVGID_4_);}
</style>
<g>
	<g>
		<path class="st0" d="M457.8,292.3c25.9-7.1,81,43.5-2,105.2s-203.4,16.9-246.2-1.7c-42.8-18.6-130.4-63.7-130.8-152.1
			S167.4,52,290.5,75.3S414.2,205,414.4,252.2C414.7,313.9,432,299.4,457.8,292.3z"/>
		<g>
			<path class="st1" d="M160.3,21.2c45,43,42.8,70.1,42.8,70.1C177.2,78.9,160.2,21.2,160.3,21.2z"/>
			<path class="st1" d="M213.9,149.6c-39.2-48.2-98.5-68.8-98.5-68.8C169.1,134.8,213.9,149.6,213.9,149.6z"/>
			<path class="st1" d="M111.8,130c43.8,3.5,110.5,49.9,110.5,49.9C140.7,168.6,111.8,130,111.8,130z"/>
			<path class="st1" d="M120.6,191.6c44.6-6.4,116,30,116,30C149.4,216.1,120.6,191.6,120.6,191.6z"/>
			<path class="st1" d="M130.9,270.9c49.5-25.8,126.1,0.8,126.1,0.8C160.9,289,130.9,270.9,130.9,270.9z"/>
			<path class="st1" d="M221.3,13.4C196.7,53.7,203,91.3,203,91.3C222.6,65.6,221.4,13.4,221.3,13.4z"/>
			<path class="st1" d="M153.5,57.6c51.4,35.1,53.7,62.2,53.7,62.2C179.7,111.8,153.5,57.6,153.5,57.6z"/>
			<path class="st1" d="M237.2,46.2c-30.4,35.9-30,74.1-30,74.1C230.4,97.9,237.2,46.1,237.2,46.2z"/>
			<path class="st1" d="M269.7,41c-36,24.9-55.8,108.8-55.8,108.8C268.1,82.8,269.6,41.1,269.7,41z"/>
			<path class="st1" d="M295.2,82.4c-44.5,26.8-72.9,97.5-72.9,97.5C273.9,133.6,295.2,82.4,295.2,82.4z"/>
			<path class="st1" d="M119.9,154c43.8,3.5,110.5,49.9,110.5,49.9C148.8,192.6,119.9,154,119.9,154z"/>
			<path class="st1" d="M303.3,106.4c-44.5,26.8-72.9,97.5-72.9,97.5C282,157.6,303.3,106.4,303.3,106.4z"/>
			<path class="st1" d="M314.6,129.6c-50.3,32.3-78,92-78,92C290.8,178.1,314.5,129.6,314.6,129.6z"/>
			<path class="st1" d="M125.9,226c46.2-8.8,122.6,25.8,122.6,25.8C157.2,250.2,126,226,125.9,226z"/>
			<path class="st1" d="M325.5,151.9c-50.9,36.2-77,99.9-77,99.9C303.1,203.8,325.6,151.9,325.5,151.9z"/>
			<path class="st1" d="M337.8,181.8c-47.2,25.3-80.8,89.9-80.8,89.9C319.5,227,337.8,181.7,337.8,181.8z"/>
			<path class="st1" d="M246.6,248.6c-10.9-26.6-20-52.3-27.1-76.6c-8.9-30.4-14.7-58.4-17.2-83.3l0.9-0.1
				c5.7,56.4,27.2,117.9,44.3,159.7c18.5,45.2,35.8,77.5,36,77.8l-0.8,0.4C282.5,326.2,265.1,293.9,246.6,248.6z"/>
		</g>
		<g>
			<path class="st2" d="M82.6,203.8c-6.8,4.3-18-4.6-24.7,9.7c-6.7,14.4,15.8,30.7,24,36.4c8.1,5.7,31.6,25,23.4,32.2
				c-8.1,7.2-24.8-13-30.3-3.4s6,25.3,24.6,36.6c18.5,11.3,39.5,12.8,48.6,19.3c9.1,6.5,10.7,15.4,1.8,23.1
				c-8.9,7.8-14.7,35.1,27.6,33.7c42.4-1.4,86.9,25,92.1,19.8c5.1-5.2,5.5-33.8,5.7-51.2c0.3-17.5-17.6-51.4-25.8-47.4
				c-8.2,4-3.4,25.6-15.3,20c-11.8-5.6-1.4-35.2-2.7-53.8c-1.3-18.7-11.2-61.1-27.9-54.3c-16.8,6.8-9.2,36.8-22.3,32.2
				c-13-4.6-0.2-28.8-9.8-56.8s-23.9-28-30.2-25.7s-5.5,18.8-11,20.2c-5.5,1.4-11.8-15.1-13.6-18.9c-1.9-3.8-7.7-13.5-18.9-10.4
				C67.1,173.5,89.4,199.5,82.6,203.8z"/>
			<path class="st1" d="M251,404l-3.2-2.7c-1.1-0.9-2.1-1.9-3.2-2.8l-6.3-5.6c-0.5-0.4-1-0.9-1.5-1.4l-1.5-1.5l-3.1-2.9l-3.1-2.9
				l-0.8-0.7l-0.7-0.7l-1.5-1.5l-6-6l-0.7-0.7l-0.7-0.8l-1.5-1.5l-2.9-3.1l-2.9-3.1c-0.5-0.6-0.9-1.1-1.4-1.6l-1.4-1.6l-5.7-6.3
				c-1.8-2.1-3.7-4.3-5.5-6.4l-2.7-3.2l-2.7-3.3c-1.7-2.1-3.5-4.3-5.3-6.5c-7-8.8-13.8-17.8-20.3-27c-12.9-18.4-24.9-37.5-35.7-57.3
				c-5.4-9.9-10.6-19.9-15.4-30.1l-1.8-3.8l-1.8-3.8l-0.9-1.9l-0.9-1.9c-0.6-1.3-1.2-2.6-1.7-3.9c-2.2-5.1-4.3-10.3-6.3-15.6
				c4.1,10.4,8.8,20.7,13.7,30.8c4.9,10.1,10.1,20.1,15.6,29.9c1.4,2.4,2.8,4.9,4.2,7.3l4.2,7.3l4.3,7.2c1.4,2.4,2.9,4.8,4.4,7.2
				c6,9.5,12.2,18.9,18.7,28.1s13.2,18.2,20.2,27c1.7,2.2,3.5,4.3,5.3,6.5l2.7,3.3l2.7,3.2l5.5,6.4l5.6,6.3l1.4,1.6
				c0.4,0.6,0.9,1.1,1.4,1.6l2.9,3.1l2.9,3.1l1.4,1.5l0.7,0.8l0.7,0.8l5.9,6l1.5,1.5l0.7,0.8l0.8,0.7l3,2.9l3,2.9l1.5,1.5
				c0.5,0.5,1,1,1.5,1.5l6.2,5.7c1,0.9,2,1.9,3.1,2.8l3.2,2.8l6.4,5.5L251,404z"/>
			<path class="st1" d="M104.1,233.5c1.4,0.7,2.7,1.4,4,2.1l3.9,2.2l3.9,2.2c1.3,0.8,2.6,1.5,3.9,2.3c2.6,1.5,5.2,3.1,7.7,4.7
				c-2.7-1.3-5.4-2.7-8-4.1c-1.4-0.7-2.7-1.4-4-2.1l-3.9-2.2l-3.9-2.2c-1.3-0.8-2.6-1.5-3.9-2.3c-2.6-1.5-5.2-3.1-7.7-4.7
				C98.8,230.7,101.5,232,104.1,233.5z"/>
			<path class="st1" d="M153.4,253.5c0.3,2.4,0.6,4.9,0.9,7.3l0.8,7.3l0.8,7.3c0.2,2.4,0.5,4.9,0.7,7.3c0.4,4.9,0.8,9.8,1.2,14.7
				c-0.7-4.9-1.3-9.7-1.9-14.6c-0.3-2.4-0.6-4.9-0.9-7.3l-0.8-7.3l-0.8-7.3c-0.2-2.4-0.5-4.9-0.7-7.3c-0.4-4.9-0.8-9.8-1.2-14.7
				C152.2,243.8,152.9,248.7,153.4,253.5z"/>
			<path class="st1" d="M137.4,307.9c1.9,0.4,3.7,0.8,5.6,1.2l5.6,1.3l5.6,1.3c1.9,0.5,3.7,0.9,5.6,1.4c3.7,1,7.4,2,11.1,3
				c-3.8-0.7-7.6-1.5-11.3-2.3c-1.9-0.4-3.7-0.8-5.6-1.2l-5.6-1.3l-5.6-1.3c-1.9-0.5-3.7-0.9-5.6-1.4c-3.7-1-7.4-2-11.1-3
				C129.8,306.3,133.6,307.1,137.4,307.9z"/>
			<path class="st1" d="M206.9,326.6c0.1,2,0.3,4,0.4,6l0.4,6l0.3,6c0.1,2,0.2,4,0.3,6c0.2,4.1,0.3,8.1,0.3,12.1c-0.4-4-0.7-8-1-12
				c-0.1-2-0.3-4-0.4-6l-0.4-6l-0.3-6c-0.1-2-0.2-4-0.3-6c-0.2-4.1-0.3-8.1-0.3-12.1C206.3,318.6,206.6,322.6,206.9,326.6z"/>
			<path class="st1" d="M196.5,371.2c1.1-0.1,2.2-0.1,3.3-0.2l3.3-0.1l3.3-0.1c1.1,0,2.2,0,3.3,0c2.2,0,4.4,0.1,6.6,0.2
				c-2.2,0.2-4.4,0.4-6.6,0.5c-1.1,0.1-2.2,0.1-3.3,0.2l-3.3,0.1l-3.3,0.1c-1.1,0-2.2,0-3.3,0c-2.2,0-4.4-0.1-6.6-0.2
				C192.1,371.5,194.3,371.3,196.5,371.2z"/>
			<path class="st1" d="M254.4,367.4c0.2,2.3,0.4,4.7,0.6,7l0.5,7l0.5,7c0.1,2.3,0.3,4.7,0.4,7c0.3,4.7,0.5,9.3,0.7,14
				c-0.5-4.7-1-9.3-1.4-14c-0.2-2.3-0.4-4.7-0.6-7l-0.5-7l-0.5-7c-0.1-2.3-0.3-4.7-0.4-7c-0.3-4.7-0.5-9.3-0.7-14
				C253.5,358.1,253.9,362.7,254.4,367.4z"/>
		</g>
		<path class="st0" d="M427.1,265.2c0.1,8.4,9.4,13.1,16.4,10c7-3.1,23.1-14.8,9-27.3C434.1,231.6,427,256.9,427.1,265.2z"/>
		<g>
			<path class="st3" d="M521.3,133.8c8.2,1.7,15.9-11,27.6,0.6c11.6,11.6-4.4,35.6-10.4,44.1s-21.9,35.7-11.4,39.8
				c10.6,4.1,19.6-21.6,28.4-14.2c8.9,7.4,3.2,26.9-10.9,44.6S510.5,275.4,504,285s-4.8,18.8,6.6,23.2c11.4,4.3,26.9,28.9-14.9,42.7
				s-70,58.9-76.9,55.7c-6.8-3.2-23.3-34.4-29.8-51.3c-6.4-16.9-1.1-56.4,8.3-55.5s12.5,23.8,22.1,14c9.5-9.8-11.3-34.9-16.7-53.6
				s-11-63.7,7.8-63c18.8,0.7,22.2,32.6,33.3,23.5c11.2-9.2-10-28.2-10.7-59c-0.7-30.8,13.3-35.9,20.3-35.9s12.1,16.3,18,15.7
				c5.9-0.6,6.1-18.9,6.5-23.3c0.4-4.3,2.7-15.9,14.7-16.9C525.7,98.5,513.1,132,521.3,133.8z"/>
			<path class="st4" d="M497.7,147c-0.1,1.6-0.2,3.1-0.3,4.6c-0.1,1.6-0.2,3.1-0.3,4.6l-0.4,4.5l-0.4,4.5
				c-1.1,12.1-2.6,24.2-4.5,36.2c-0.5,3-1,6-1.5,9l-1.6,9l-1.7,9c-0.3,1.5-0.6,3-0.9,4.5l-0.9,4.5c-2.6,11.9-5.5,23.8-8.7,35.5
				c-0.8,3-1.7,5.9-2.5,8.8c-0.4,1.5-0.8,2.9-1.3,4.4l-1.4,4.4l-1.4,4.4l-0.7,2.2l-0.7,2.2l-2.9,8.6c-0.4,1.4-1,2.9-1.5,4.3
				l-1.6,4.3l-1.6,4.3c-0.5,1.5-1.1,2.9-1.6,4.3l-3.3,8.5l-3.5,8.4c-9.5,22.4-20.8,44-33.6,64.7l4.6-7.9l2.3-3.9
				c0.8-1.3,1.5-2.7,2.2-4l4.4-8c0.4-0.6,0.8-1.3,1.1-2l1-2l2.1-4.1l2.1-4.1c0.4-0.6,0.7-1.3,1-2l1-2.1l3.9-8.2
				c0.3-0.7,0.6-1.4,0.9-2.1l0.9-2.1l1.8-4.2l1.8-4.2c0.7-1.4,1.2-2.8,1.8-4.2l3.5-8.4l3.3-8.5c0.5-1.5,1.1-2.9,1.6-4.3l1.5-4.3
				l1.5-4.3c0.5-1.4,1-2.9,1.5-4.3l2.9-8.6l0.7-2.2l0.7-2.2l1.4-4.4l1.4-4.4c0.5-1.5,0.9-2.9,1.3-4.4c0.8-3,1.7-5.9,2.5-8.8
				c6.5-23.4,11.8-47.2,15.6-71.2c1.9-12,3.6-24.1,4.8-36.2l0.5-4.5l0.4-4.5c0.2-1.5,0.3-3,0.4-4.5S497.5,148.6,497.7,147
				c0.3-5.9,0.7-12,0.8-18.1C498.5,135,498.2,141.1,497.7,147z"/>
			<path class="st4" d="M511.6,170.7c-1,1.2-2,2.4-3,3.6l-3,3.6l-3.1,3.5c-1,1.2-2.1,2.3-3.1,3.5c-2.1,2.4-4.2,4.7-6.4,6.9
				c1.9-2.5,3.8-4.9,5.8-7.3c1-1.2,2-2.4,3-3.6l3-3.6l3.1-3.5c1-1.2,2.1-2.3,3.1-3.5c2.1-2.4,4.2-4.7,6.4-6.9
				C515.5,165.9,513.6,168.3,511.6,170.7z"/>
			<path class="st4" d="M470.7,207.4c0.6,2.5,1.3,4.9,1.9,7.4l1.9,7.4l1.8,7.4c0.6,2.5,1.2,5,1.8,7.5c1.1,5,2.2,10,3.3,15
				c-1.4-4.9-2.7-9.9-4-14.8c-0.6-2.5-1.3-4.9-1.9-7.4l-1.9-7.4l-1.8-7.4c-0.6-2.5-1.2-5-1.8-7.5c-1.1-5-2.2-10-3.3-15
				C468.1,197.5,469.5,202.5,470.7,207.4z"/>
			<path class="st4" d="M505.6,255.5c-1.6,1.1-3.3,2.2-4.9,3.3l-5,3.3l-5,3.3c-1.6,1.1-3.3,2.1-5,3.2c-3.4,2.2-6.8,4.3-10.2,6.3
				c3.2-2.4,6.5-4.7,9.8-6.9c1.6-1.1,3.3-2.2,4.9-3.3l5-3.3l5-3.3c1.6-1.1,3.3-2.1,5-3.2c3.4-2.2,6.8-4.3,10.2-6.3
				C512.2,250.9,508.9,253.2,505.6,255.5z"/>
			<path class="st4" d="M444.7,297.8c0.6,2,1.3,4,1.9,6l1.9,6l1.8,6c0.6,2,1.2,4,1.8,6c1.1,4,2.2,8,3.3,12.1c-1.4-4-2.7-7.9-4-11.9
				c-0.6-2-1.3-4-1.9-6l-1.9-6l-1.8-6c-0.6-2-1.2-4-1.8-6c-1.1-4-2.2-8-3.3-12.1C442.1,289.9,443.4,293.8,444.7,297.8z"/>
			<path class="st4" d="M470.3,338.5c-1.1,0.4-2.1,0.8-3.2,1.2l-3.2,1.1l-3.2,1.1c-1.1,0.3-2.2,0.7-3.3,1c-2.2,0.7-4.4,1.3-6.6,1.9
				c2.1-0.9,4.3-1.7,6.4-2.5c1-0.4,2.1-0.8,3.2-1.2l3.2-1.1l3.2-1.1c1.1-0.3,2.2-0.7,3.3-1c2.2-0.7,4.4-1.3,6.6-1.9
				C474.6,336.9,472.5,337.8,470.3,338.5z"/>
			<path class="st4" d="M447.2,387.5c-1.1,0.2-2.1,0.5-3.2,0.7l-3.2,0.7l-3.2,0.6c-1,0.2-2.1,0.4-3.2,0.6c-2.2,0.4-4.3,0.7-6.5,1
				c2.1-0.7,4.3-1.2,6.4-1.7c1.1-0.2,2.1-0.5,3.2-0.7l3.2-0.7l3.2-0.6c1-0.2,2.1-0.4,3.2-0.6c2.2-0.4,4.3-0.7,6.5-1
				C451.5,386.4,449.4,386.9,447.2,387.5z"/>
			<path class="st4" d="M413,354.6c0.7,2.3,1.4,4.7,2.1,7l2,7l2,7c0.6,2.3,1.3,4.7,1.9,7c1.3,4.7,2.5,9.4,3.7,14.1
				c-1.6-4.6-3-9.2-4.4-13.9c-0.7-2.3-1.4-4.7-2.1-7l-2-7l-2-7c-0.6-2.3-1.3-4.7-1.9-7c-1.3-4.7-2.5-9.4-3.7-14.1
				C410.2,345.3,411.6,350,413,354.6z"/>
		</g>
		<g>
			<path class="st5" d="M245.6,237.8c5.2-5.2,16.2-8.6,29.5-10.9c-3.6-15.3-9.7-15.3-9.7-28c0-13.2,16.9-17.5,19.2-30.4
				s-6.6-25.2-1.1-53.1c5.4-27.8,28.7-33.3,28.7-33.3s0.3-0.4,0.8-1.1c2.1,0.6,4.1,1.3,6.1,2c0.7,0.2,1.4,0.4,2.1,0.7
				c20.2,7.4,36.1,17.6,48.5,29.4c5.9,5.6,11.1,11.6,15.5,17.9l0,0c17.2,24.2,24.3,52.2,27.2,77c-1,2.8-1.6,5.6-1.6,8.4
				c0,5.1,1.6,9.3,3.2,13c0.1,1.7,0.1,3.4,0.2,5c0.1,5.4,0.2,10.5,0.2,15.1c0,0.9,0,1.8,0,2.7c0.3,61.7,17.6,47.2,43.5,40.1
				c2.3-0.7,4.8-0.8,7.4-0.6c3,28.6,4.1,66.2,4.5,94.4c-1.6,1.4-3.2,2.8-4.9,4.2c-2.8,2.4-5.9,4.8-9.1,7.2
				c-11.2,8.3-23.2,14.7-35.5,19.5c-52.7,20.4-112.8,11.2-157.8-2l0,0c-21.4-6.3-39.4-13.4-51.6-18.7c-0.5-0.1-0.9-0.3-1.3-0.5
				c0,0-0.1-0.1-0.2-0.1C218.4,339.7,234.8,248.5,245.6,237.8z"/>
			<g>
				
					<linearGradient id="SVGID_1_" gradientUnits="userSpaceOnUse" x1="214.4706" y1="517.2881" x2="372.981" y2="517.2881" gradientTransform="matrix(-1 0 0 1 638.3647 -348)">
					<stop  offset="0" style="stop-color:#09005D"/>
					<stop  offset="1" style="stop-color:#1A0F91"/>
				</linearGradient>
				<path class="st6" d="M284.8,168.1c2.3-12.9-6.6-25.2-1.1-53.1c5.4-27.8,28.7-33.3,28.7-33.3s0.3-0.4,0.8-1.1
					c3.1-4.1,15.6-17.8,44.3-12.9c33.6,5.7,41.9,31.3,41.9,38.2s-0.6,17.5,4.9,26.1c5.4,8.6,19.8,20.7,19.8,39.9
					c0,15.1-8.1,25.6-11.6,35.8c-1,2.8-1.6,5.6-1.6,8.4c0,5.1,1.6,9.3,3.2,13c0.9,2,1.7,3.9,2.4,5.7c1.3,3.7,1.7,7.3-0.5,11.6
					c-0.5,1-1,2-1.5,2.9c-5.1,9.5-10.8,18.4-21.5,21.8c-4.7,1.5-23.4,1.1-44.6-2.5c-2.4-0.4-4.8-0.8-7.3-1.3
					c-0.4-0.1-0.9-0.2-1.3-0.3c-2.3-0.5-4.6-1-6.9-1.5c-27.1-6.4-53.6-17.9-57.4-36.9c-0.1-0.6-0.3-1.2-0.4-1.8
					c-3.6-15.3-9.7-15.3-9.7-28C265.4,185.6,282.4,181.3,284.8,168.1z"/>
				
					<linearGradient id="SVGID_2_" gradientUnits="userSpaceOnUse" x1="168.6" y1="673.5682" x2="429" y2="673.5682" gradientTransform="matrix(-1 0 0 1 638.3647 -348)">
					<stop  offset="0" style="stop-color:#FE7062"/>
					<stop  offset="1" style="stop-color:#FF928E"/>
				</linearGradient>
				<path class="st7" d="M245.6,237.7c5.2-5.2,16.2-8.6,29.5-10.9c15.1-2.6,33.2-3.7,49.1-4.2c12.4-0.4,23.5-0.4,30.8-0.4
					c3.9,0,8.6,0.4,13.8,1.2c13.3,2,29.9,6.1,45.3,10.9c0.7,0.2,1.5,0.5,2.2,0.7c16.3,5.1,30.9,10.8,38.2,15.2
					c5,3,8.5,19.6,10.8,41.5c3,28.6,4.1,66.2,4.5,94.4c-1.6,1.4-3.2,2.8-4.9,4.2c-2.8,2.4-5.9,4.8-9.1,7.2
					c-11.2,8.3-23.2,14.7-35.5,19.5c-52.7,20.4-112.8,11.2-157.8-2l0,0c-21.4-6.3-39.4-13.4-51.6-18.7c-0.5-0.1-0.9-0.3-1.3-0.5
					c0,0-0.1-0.1-0.2-0.1C218.4,339.7,234.8,248.5,245.6,237.7z"/>
				<g>
					<path class="st8" d="M336.1,80.7c42.1,3,34.4,56.7,34.4,56.7l-1.7,88.9c0,0-0.5,20.5-22.2,20.1c-24.8-0.4-22.4-20.4-22.4-20.9
						c0.1-1,0.7-35.2,0.7-35.2c-24.5-0.4-22.2-35-22.2-35l0.8-43.7C303.2,101.5,312.7,79.2,336.1,80.7z"/>
					<path class="st8" d="M369.4,166.4c0,0,10.4,0.9,10.6-11.5c0.2-10.3-10.2-10.6-10.2-10.6L369.4,166.4z"/>
					<path class="st9" d="M324.7,194.5c0,0,5.4,0.9,14.1-1c8.7-2,11.4-8.2,11.4-8.2c-4.7,6.5-25.4,5.1-25.4,5.1L324.7,194.5z"/>
				</g>
				
					<linearGradient id="SVGID_3_" gradientUnits="userSpaceOnUse" x1="252.2" y1="457.85" x2="327.9" y2="457.85" gradientTransform="matrix(-1 0 0 1 638.3647 -348)">
					<stop  offset="0" style="stop-color:#09005D"/>
					<stop  offset="1" style="stop-color:#1A0F91"/>
				</linearGradient>
				<path class="st10" d="M336.1,75.4l13.9,3c0,0,23.2,11.2,23.5,11.2c0.3,0,12.7,44.9,12.7,44.9s-7.7,9.8-15.8,9.8
					s-20.5-7-39.5-21.9s-20.4-35.9-20.4-35.9L336.1,75.4z"/>
				
					<linearGradient id="SVGID_4_" gradientUnits="userSpaceOnUse" x1="324.9856" y1="455.7407" x2="349" y2="455.7407" gradientTransform="matrix(-1 0 0 1 638.3647 -348)">
					<stop  offset="0" style="stop-color:#09005D"/>
					<stop  offset="1" style="stop-color:#1A0F91"/>
				</linearGradient>
				<path class="st11" d="M289.4,128.9c0,0,8.1,9.8,17.1-5c9.1-14.8,6.6-40.5,6.6-40.5L289.4,128.9z"/>
				<path class="st8" d="M340.8,267.3c0.6-3.8,1.8-7.2,4-7.2c1.9,0,2.8,3.5,3.4,8.5c1,8.6,0.8,21.5,2,28.1c0.5,3,9.9,38.2,9.9,38.2
					s83.2,43.6,104.8,55.4c-2.8,2.4-5.9,4.8-9.1,7.2c-11.2,8.3-23.2,14.7-35.5,19.5l-75.7-70.4c0,0-4.2-0.4-4.2-7.9
					c0-7.4,0-61.4,0-61.4S340.2,272,340.8,267.3z"/>
				<path class="st8" d="M320.6,335c0,0,9.4-35.2,9.9-38.2c1.4-7.5,0.9-23,2.4-31.2c0.6-3.3,1.5-5.4,2.9-5.4c2.1,0,3.3,3.2,3.9,6.9
					c0.7,4.8,0.6,10.3,0.6,10.3s0,53.9,0,61.4s-4.2,7.9-4.2,7.9L262.4,415l0,0c-21.4-6.3-39.4-13.4-51.6-18.7
					c-0.2-1.9-0.2-3.1-0.2-3.1C212.2,391.7,320.6,335,320.6,335z"/>
			</g>
		</g>
	</g>
</g>
</svg>
